<?xml version="1.0" encoding="utf-8" standalone="no"?>
<!DOCTYPE svg PUBLIC "-//W3C//DTD SVG 1.1//EN"
  "http://www.w3.org/Graphics/SVG/1.1/DTD/svg11.dtd">
<svg xmlns:xlink="http://www.w3.org/1999/xlink" width="1226.156563pt" height="660.96pt" viewBox="0 0 1226.156563 660.96" xmlns="http://www.w3.org/2000/svg" version="1.1">
 <metadata>
  <rdf:RDF xmlns:dc="http://purl.org/dc/elements/1.1/" xmlns:cc="http://creativecommons.org/ns#" xmlns:rdf="http://www.w3.org/1999/02/22-rdf-syntax-ns#">
   <cc:Work>
    <dc:type rdf:resource="http://purl.org/dc/dcmitype/StillImage"/>
    <dc:date>2025-09-19T21:23:46.744816</dc:date>
    <dc:format>image/svg+xml</dc:format>
    <dc:creator>
     <cc:Agent>
      <dc:title>Matplotlib v3.5.2, https://matplotlib.org/</dc:title>
     </cc:Agent>
    </dc:creator>
   </cc:Work>
  </rdf:RDF>
 </metadata>
 <defs>
  <style type="text/css">*{stroke-linejoin: round; stroke-linecap: butt}</style>
 </defs>
 <g id="figure_1">
  <g id="patch_1">
   <path d="M 0 660.96 
L 1226.156563 660.96 
L 1226.156563 0 
L 0 0 
L 0 660.96 
z
" style="fill: none"/>
  </g>
  <g id="axes_1">
   <g id="patch_2">
    <path d="M 0.72 660.24 
L 1200.78 660.24 
L 1200.78 0.72 
L 0.72 0.72 
L 0.72 660.24 
z
" style="fill: none"/>
   </g>
   <g id="patch_3">
    <path d="M 67.39 336.475636 
L 1134.11 336.475636 
Q 1136.7768 336.475636 1136.7768 333.477818 
L 1136.7768 267.525818 
Q 1136.7768 264.528 1134.11 264.528 
L 67.39 264.528 
Q 64.7232 264.528 64.7232 267.525818 
L 64.7232 333.477818 
Q 64.7232 336.475636 67.39 336.475636 
z
" clip-path="url(#p83a738f2a5)" style="fill: #bdc3c7; opacity: 0.8; stroke: #5dade2; stroke-width: 3; stroke-linejoin: miter"/>
   </g>
   <g id="patch_4">
    <path d="M 67.39 333.477818 
L 30.0548 375.447273 
L 104.7252 375.447273 
z
" clip-path="url(#p83a738f2a5)" style="fill: #5dade2; opacity: 0.9; stroke: #5dade2; stroke-width: 2.5; stroke-linejoin: miter"/>
   </g>
   <g id="patch_5">
    <path d="M 867.43 375.447273 
C 872.380705 375.447273 877.129309 373.236189 880.629987 369.300988 
C 884.130664 365.365787 886.0976 360.02776 886.0976 354.462545 
C 886.0976 348.897331 884.130664 343.559304 880.629987 339.624102 
C 877.129309 335.688901 872.380705 333.477818 867.43 333.477818 
C 862.479295 333.477818 857.730691 335.688901 854.230013 339.624102 
C 850.729336 343.559304 848.7624 348.897331 848.7624 354.462545 
C 848.7624 360.02776 850.729336 365.365787 854.230013 369.300988 
C 857.730691 373.236189 862.479295 375.447273 867.43 375.447273 
z
" clip-path="url(#p83a738f2a5)" style="fill: #5dade2; opacity: 0.9; stroke: #5dade2; stroke-width: 2.5; stroke-linejoin: miter"/>
   </g>
   <g id="matplotlib.axis_1"/>
   <g id="matplotlib.axis_2"/>
   <g id="line2d_1">
    <path d="M 67.39 660.24 
L 67.39 0.72 
" clip-path="url(#p83a738f2a5)" style="fill: none; stroke-dasharray: 2,3.3; stroke-dashoffset: 0; stroke: #bdc3c7; stroke-opacity: 0.6; stroke-width: 2"/>
   </g>
   <g id="line2d_2">
    <path d="M 467.41 660.24 
L 467.41 0.72 
" clip-path="url(#p83a738f2a5)" style="fill: none; stroke-dasharray: 2,3.3; stroke-dashoffset: 0; stroke: #bdc3c7; stroke-opacity: 0.6; stroke-width: 2"/>
   </g>
   <g id="line2d_3">
    <path d="M 867.43 660.24 
L 867.43 0.72 
" clip-path="url(#p83a738f2a5)" style="fill: none; stroke-dasharray: 2,3.3; stroke-dashoffset: 0; stroke: #bdc3c7; stroke-opacity: 0.6; stroke-width: 2"/>
   </g>
   <g id="line2d_4">
    <path d="M 1134.11 660.24 
L 1134.11 0.72 
" clip-path="url(#p83a738f2a5)" style="fill: none; stroke-dasharray: 2,3.3; stroke-dashoffset: 0; stroke: #bdc3c7; stroke-opacity: 0.6; stroke-width: 2"/>
   </g>
   <g id="line2d_5">
    <path d="M 22.58776 375.447273 
L 112.19224 375.447273 
" clip-path="url(#p83a738f2a5)" style="fill: none; stroke: #5dade2; stroke-opacity: 0.9; stroke-width: 4; stroke-linecap: square"/>
   </g>
   <g id="line2d_6">
    <path d="M 830.0948 375.447273 
L 904.7652 375.447273 
" clip-path="url(#p83a738f2a5)" style="fill: none; stroke: #5dade2; stroke-opacity: 0.9; stroke-width: 4; stroke-linecap: square"/>
   </g>
   <g id="patch_6">
    <path d="M 67.39 217.06526 
Q 67.39 241.296122 67.39 262.731899 
" style="fill: none; stroke: #5dade2; stroke-width: 2.5; stroke-linecap: round"/>
    <path d="M 72.99 251.531899 
L 67.39 262.731899 
L 61.79 251.531899 
" style="fill: none; stroke: #5dade2; stroke-width: 2.5; stroke-linecap: round"/>
   </g>
   <g id="patch_7">
    <path d="M 111.836667 217.06526 
Q 111.836667 241.296122 111.836667 262.731899 
" style="fill: none; stroke: #5dade2; stroke-width: 2.5; stroke-linecap: round"/>
    <path d="M 117.436667 251.531899 
L 111.836667 262.731899 
L 106.236667 251.531899 
" style="fill: none; stroke: #5dade2; stroke-width: 2.5; stroke-linecap: round"/>
   </g>
   <g id="patch_8">
    <path d="M 156.283333 217.06526 
Q 156.283333 241.296122 156.283333 262.731899 
" style="fill: none; stroke: #5dade2; stroke-width: 2.5; stroke-linecap: round"/>
    <path d="M 161.883333 251.531899 
L 156.283333 262.731899 
L 150.683333 251.531899 
" style="fill: none; stroke: #5dade2; stroke-width: 2.5; stroke-linecap: round"/>
   </g>
   <g id="patch_9">
    <path d="M 200.73 217.06526 
Q 200.73 241.296122 200.73 262.731899 
" style="fill: none; stroke: #5dade2; stroke-width: 2.5; stroke-linecap: round"/>
    <path d="M 206.33 251.531899 
L 200.73 262.731899 
L 195.13 251.531899 
" style="fill: none; stroke: #5dade2; stroke-width: 2.5; stroke-linecap: round"/>
   </g>
   <g id="patch_10">
    <path d="M 245.176667 217.06526 
Q 245.176667 241.296122 245.176667 262.731899 
" style="fill: none; stroke: #5dade2; stroke-width: 2.5; stroke-linecap: round"/>
    <path d="M 250.776667 251.531899 
L 245.176667 262.731899 
L 239.576667 251.531899 
" style="fill: none; stroke: #5dade2; stroke-width: 2.5; stroke-linecap: round"/>
   </g>
   <g id="patch_11">
    <path d="M 289.623333 217.06526 
Q 289.623333 241.296122 289.623333 262.731899 
" style="fill: none; stroke: #5dade2; stroke-width: 2.5; stroke-linecap: round"/>
    <path d="M 295.223333 251.531899 
L 289.623333 262.731899 
L 284.023333 251.531899 
" style="fill: none; stroke: #5dade2; stroke-width: 2.5; stroke-linecap: round"/>
   </g>
   <g id="patch_12">
    <path d="M 334.07 217.06526 
Q 334.07 241.296122 334.07 262.731899 
" style="fill: none; stroke: #5dade2; stroke-width: 2.5; stroke-linecap: round"/>
    <path d="M 339.67 251.531899 
L 334.07 262.731899 
L 328.47 251.531899 
" style="fill: none; stroke: #5dade2; stroke-width: 2.5; stroke-linecap: round"/>
   </g>
   <g id="patch_13">
    <path d="M 378.516667 217.06526 
Q 378.516667 241.296122 378.516667 262.731899 
" style="fill: none; stroke: #5dade2; stroke-width: 2.5; stroke-linecap: round"/>
    <path d="M 384.116667 251.531899 
L 378.516667 262.731899 
L 372.916667 251.531899 
" style="fill: none; stroke: #5dade2; stroke-width: 2.5; stroke-linecap: round"/>
   </g>
   <g id="patch_14">
    <path d="M 422.963333 217.06526 
Q 422.963333 241.296122 422.963333 262.731899 
" style="fill: none; stroke: #5dade2; stroke-width: 2.5; stroke-linecap: round"/>
    <path d="M 428.563333 251.531899 
L 422.963333 262.731899 
L 417.363333 251.531899 
" style="fill: none; stroke: #5dade2; stroke-width: 2.5; stroke-linecap: round"/>
   </g>
   <g id="patch_15">
    <path d="M 467.41 217.06526 
Q 467.41 241.296122 467.41 262.731899 
" style="fill: none; stroke: #5dade2; stroke-width: 2.5; stroke-linecap: round"/>
    <path d="M 473.01 251.531899 
L 467.41 262.731899 
L 461.81 251.531899 
" style="fill: none; stroke: #5dade2; stroke-width: 2.5; stroke-linecap: round"/>
   </g>
   <g id="patch_16">
    <path d="M 511.856667 217.06526 
Q 511.856667 241.296122 511.856667 262.731899 
" style="fill: none; stroke: #5dade2; stroke-width: 2.5; stroke-linecap: round"/>
    <path d="M 517.456667 251.531899 
L 511.856667 262.731899 
L 506.256667 251.531899 
" style="fill: none; stroke: #5dade2; stroke-width: 2.5; stroke-linecap: round"/>
   </g>
   <g id="patch_17">
    <path d="M 556.303333 217.06526 
Q 556.303333 241.296122 556.303333 262.731899 
" style="fill: none; stroke: #5dade2; stroke-width: 2.5; stroke-linecap: round"/>
    <path d="M 561.903333 251.531899 
L 556.303333 262.731899 
L 550.703333 251.531899 
" style="fill: none; stroke: #5dade2; stroke-width: 2.5; stroke-linecap: round"/>
   </g>
   <g id="patch_18">
    <path d="M 600.75 217.06526 
Q 600.75 241.296122 600.75 262.731899 
" style="fill: none; stroke: #5dade2; stroke-width: 2.5; stroke-linecap: round"/>
    <path d="M 606.35 251.531899 
L 600.75 262.731899 
L 595.15 251.531899 
" style="fill: none; stroke: #5dade2; stroke-width: 2.5; stroke-linecap: round"/>
   </g>
   <g id="patch_19">
    <path d="M 645.196667 217.06526 
Q 645.196667 241.296122 645.196667 262.731899 
" style="fill: none; stroke: #5dade2; stroke-width: 2.5; stroke-linecap: round"/>
    <path d="M 650.796667 251.531899 
L 645.196667 262.731899 
L 639.596667 251.531899 
" style="fill: none; stroke: #5dade2; stroke-width: 2.5; stroke-linecap: round"/>
   </g>
   <g id="patch_20">
    <path d="M 689.643333 217.06526 
Q 689.643333 241.296122 689.643333 262.731899 
" style="fill: none; stroke: #5dade2; stroke-width: 2.5; stroke-linecap: round"/>
    <path d="M 695.243333 251.531899 
L 689.643333 262.731899 
L 684.043333 251.531899 
" style="fill: none; stroke: #5dade2; stroke-width: 2.5; stroke-linecap: round"/>
   </g>
   <g id="patch_21">
    <path d="M 734.09 217.06526 
Q 734.09 241.296122 734.09 262.731899 
" style="fill: none; stroke: #5dade2; stroke-width: 2.5; stroke-linecap: round"/>
    <path d="M 739.69 251.531899 
L 734.09 262.731899 
L 728.49 251.531899 
" style="fill: none; stroke: #5dade2; stroke-width: 2.5; stroke-linecap: round"/>
   </g>
   <g id="patch_22">
    <path d="M 778.536667 217.06526 
Q 778.536667 241.296122 778.536667 262.731899 
" style="fill: none; stroke: #5dade2; stroke-width: 2.5; stroke-linecap: round"/>
    <path d="M 784.136667 251.531899 
L 778.536667 262.731899 
L 772.936667 251.531899 
" style="fill: none; stroke: #5dade2; stroke-width: 2.5; stroke-linecap: round"/>
   </g>
   <g id="patch_23">
    <path d="M 822.983333 217.06526 
Q 822.983333 241.296122 822.983333 262.731899 
" style="fill: none; stroke: #5dade2; stroke-width: 2.5; stroke-linecap: round"/>
    <path d="M 828.583333 251.531899 
L 822.983333 262.731899 
L 817.383333 251.531899 
" style="fill: none; stroke: #5dade2; stroke-width: 2.5; stroke-linecap: round"/>
   </g>
   <g id="patch_24">
    <path d="M 867.43 217.06526 
Q 867.43 241.296122 867.43 262.731899 
" style="fill: none; stroke: #5dade2; stroke-width: 2.5; stroke-linecap: round"/>
    <path d="M 873.03 251.531899 
L 867.43 262.731899 
L 861.83 251.531899 
" style="fill: none; stroke: #5dade2; stroke-width: 2.5; stroke-linecap: round"/>
   </g>
   <g id="patch_25">
    <path d="M 911.876667 217.06526 
Q 911.876667 241.296122 911.876667 262.731899 
" style="fill: none; stroke: #5dade2; stroke-width: 2.5; stroke-linecap: round"/>
    <path d="M 917.476667 251.531899 
L 911.876667 262.731899 
L 906.276667 251.531899 
" style="fill: none; stroke: #5dade2; stroke-width: 2.5; stroke-linecap: round"/>
   </g>
   <g id="patch_26">
    <path d="M 956.323333 217.06526 
Q 956.323333 241.296122 956.323333 262.731899 
" style="fill: none; stroke: #5dade2; stroke-width: 2.5; stroke-linecap: round"/>
    <path d="M 961.923333 251.531899 
L 956.323333 262.731899 
L 950.723333 251.531899 
" style="fill: none; stroke: #5dade2; stroke-width: 2.5; stroke-linecap: round"/>
   </g>
   <g id="patch_27">
    <path d="M 1000.77 217.06526 
Q 1000.77 241.296122 1000.77 262.731899 
" style="fill: none; stroke: #5dade2; stroke-width: 2.5; stroke-linecap: round"/>
    <path d="M 1006.37 251.531899 
L 1000.77 262.731899 
L 995.17 251.531899 
" style="fill: none; stroke: #5dade2; stroke-width: 2.5; stroke-linecap: round"/>
   </g>
   <g id="patch_28">
    <path d="M 1045.216667 217.06526 
Q 1045.216667 241.296122 1045.216667 262.731899 
" style="fill: none; stroke: #5dade2; stroke-width: 2.5; stroke-linecap: round"/>
    <path d="M 1050.816667 251.531899 
L 1045.216667 262.731899 
L 1039.616667 251.531899 
" style="fill: none; stroke: #5dade2; stroke-width: 2.5; stroke-linecap: round"/>
   </g>
   <g id="patch_29">
    <path d="M 1089.663333 217.06526 
Q 1089.663333 241.296122 1089.663333 262.731899 
" style="fill: none; stroke: #5dade2; stroke-width: 2.5; stroke-linecap: round"/>
    <path d="M 1095.263333 251.531899 
L 1089.663333 262.731899 
L 1084.063333 251.531899 
" style="fill: none; stroke: #5dade2; stroke-width: 2.5; stroke-linecap: round"/>
   </g>
   <g id="patch_30">
    <path d="M 1134.11 217.06526 
Q 1134.11 241.296122 1134.11 262.731899 
" style="fill: none; stroke: #5dade2; stroke-width: 2.5; stroke-linecap: round"/>
    <path d="M 1139.71 251.531899 
L 1134.11 262.731899 
L 1128.51 251.531899 
" style="fill: none; stroke: #5dade2; stroke-width: 2.5; stroke-linecap: round"/>
   </g>
   <g id="patch_31">
    <path d="M 67.39 481.369755 
Q 67.39 408.423483 67.39 342.185416 
" style="fill: none; stroke: #2a9d8f; stroke-width: 6; stroke-linecap: round"/>
    <path d="M 61.79 353.385416 
L 67.39 342.185416 
L 72.99 353.385416 
" style="fill: none; stroke: #2a9d8f; stroke-width: 6; stroke-linecap: round"/>
   </g>
   <g id="patch_32">
    <path d="M 867.43 481.369755 
Q 867.43 408.423483 867.43 342.185416 
" style="fill: none; stroke: #2a9d8f; stroke-width: 6; stroke-linecap: round"/>
    <path d="M 861.83 353.385416 
L 867.43 342.185416 
L 873.03 353.385416 
" style="fill: none; stroke: #2a9d8f; stroke-width: 6; stroke-linecap: round"/>
   </g>
   <g id="patch_33">
    <path d="M 467.41 113.642088 
Q 467.41 189.586019 467.41 258.821747 
" style="fill: none; stroke: #f4d03f; stroke-width: 6; stroke-linecap: round"/>
    <path d="M 473.01 247.621747 
L 467.41 258.821747 
L 461.81 247.621747 
" style="fill: none; stroke: #f4d03f; stroke-width: 6; stroke-linecap: round"/>
   </g>
   <g id="patch_34">
    <path d="M 1134.11 113.642088 
Q 1134.11 189.586019 1134.11 258.821747 
" style="fill: none; stroke: #f4d03f; stroke-width: 6; stroke-linecap: round"/>
    <path d="M 1139.71 247.621747 
L 1134.11 258.821747 
L 1128.51 247.621747 
" style="fill: none; stroke: #f4d03f; stroke-width: 6; stroke-linecap: round"/>
   </g>
   <g id="text_1">
    <!-- R_A -->
    <g style="fill: #5dade2" transform="translate(39.206406 565.286028)scale(0.3 -0.3)">
     <defs>
      <path id="DejaVuSans-52" d="M 2841 2188 
Q 3044 2119 3236 1894 
Q 3428 1669 3622 1275 
L 4263 0 
L 3584 0 
L 2988 1197 
Q 2756 1666 2539 1819 
Q 2322 1972 1947 1972 
L 1259 1972 
L 1259 0 
L 628 0 
L 628 4666 
L 2053 4666 
Q 2853 4666 3247 4331 
Q 3641 3997 3641 3322 
Q 3641 2881 3436 2590 
Q 3231 2300 2841 2188 
z
M 1259 4147 
L 1259 2491 
L 2053 2491 
Q 2509 2491 2742 2702 
Q 2975 2913 2975 3322 
Q 2975 3731 2742 3939 
Q 2509 4147 2053 4147 
L 1259 4147 
z
" transform="scale(0.015625)"/>
      <path id="DejaVuSans-5f" d="M 3263 -1063 
L 3263 -1509 
L -63 -1509 
L -63 -1063 
L 3263 -1063 
z
" transform="scale(0.015625)"/>
      <path id="DejaVuSans-41" d="M 2188 4044 
L 1331 1722 
L 3047 1722 
L 2188 4044 
z
M 1831 4666 
L 2547 4666 
L 4325 0 
L 3669 0 
L 3244 1197 
L 1141 1197 
L 716 0 
L 50 0 
L 1831 4666 
z
" transform="scale(0.015625)"/>
     </defs>
     <use xlink:href="#DejaVuSans-52"/>
     <use xlink:href="#DejaVuSans-5f" x="69.482422"/>
     <use xlink:href="#DejaVuSans-41" x="119.482422"/>
    </g>
   </g>
   <g id="text_2">
    <!-- R_B -->
    <g style="fill: #5dade2" transform="translate(839.215937 565.286028)scale(0.3 -0.3)">
     <defs>
      <path id="DejaVuSans-42" d="M 1259 2228 
L 1259 519 
L 2272 519 
Q 2781 519 3026 730 
Q 3272 941 3272 1375 
Q 3272 1813 3026 2020 
Q 2781 2228 2272 2228 
L 1259 2228 
z
M 1259 4147 
L 1259 2741 
L 2194 2741 
Q 2656 2741 2882 2914 
Q 3109 3088 3109 3444 
Q 3109 3797 2882 3972 
Q 2656 4147 2194 4147 
L 1259 4147 
z
M 628 4666 
L 2241 4666 
Q 2963 4666 3353 4366 
Q 3744 4066 3744 3513 
Q 3744 3084 3544 2831 
Q 3344 2578 2956 2516 
Q 3422 2416 3680 2098 
Q 3938 1781 3938 1306 
Q 3938 681 3513 340 
Q 3088 0 2303 0 
L 628 0 
L 628 4666 
z
" transform="scale(0.015625)"/>
     </defs>
     <use xlink:href="#DejaVuSans-52"/>
     <use xlink:href="#DejaVuSans-5f" x="69.482422"/>
     <use xlink:href="#DejaVuSans-42" x="119.482422"/>
    </g>
   </g>
   <g id="text_3">
    <!-- P₁ = 5000 N -->
    <g style="fill: #f4d03f" transform="translate(376.083437 60.432937)scale(0.3 -0.3)">
     <defs>
      <path id="DejaVuSans-50" d="M 1259 4147 
L 1259 2394 
L 2053 2394 
Q 2494 2394 2734 2622 
Q 2975 2850 2975 3272 
Q 2975 3691 2734 3919 
Q 2494 4147 2053 4147 
L 1259 4147 
z
M 628 4666 
L 2053 4666 
Q 2838 4666 3239 4311 
Q 3641 3956 3641 3272 
Q 3641 2581 3239 2228 
Q 2838 1875 2053 1875 
L 1259 1875 
L 1259 0 
L 628 0 
L 628 4666 
z
" transform="scale(0.015625)"/>
      <path id="DejaVuSans-2081" d="M 488 343 
L 1125 343 
L 1125 2253 
L 428 2125 
L 428 2487 
L 1147 2609 
L 1575 2609 
L 1575 343 
L 2216 343 
L 2216 0 
L 488 0 
L 488 343 
z
" transform="scale(0.015625)"/>
      <path id="DejaVuSans-20" transform="scale(0.015625)"/>
      <path id="DejaVuSans-3d" d="M 678 2906 
L 4684 2906 
L 4684 2381 
L 678 2381 
L 678 2906 
z
M 678 1631 
L 4684 1631 
L 4684 1100 
L 678 1100 
L 678 1631 
z
" transform="scale(0.015625)"/>
      <path id="DejaVuSans-35" d="M 691 4666 
L 3169 4666 
L 3169 4134 
L 1269 4134 
L 1269 2991 
Q 1406 3038 1543 3061 
Q 1681 3084 1819 3084 
Q 2600 3084 3056 2656 
Q 3513 2228 3513 1497 
Q 3513 744 3044 326 
Q 2575 -91 1722 -91 
Q 1428 -91 1123 -41 
Q 819 9 494 109 
L 494 744 
Q 775 591 1075 516 
Q 1375 441 1709 441 
Q 2250 441 2565 725 
Q 2881 1009 2881 1497 
Q 2881 1984 2565 2268 
Q 2250 2553 1709 2553 
Q 1456 2553 1204 2497 
Q 953 2441 691 2322 
L 691 4666 
z
" transform="scale(0.015625)"/>
      <path id="DejaVuSans-30" d="M 2034 4250 
Q 1547 4250 1301 3770 
Q 1056 3291 1056 2328 
Q 1056 1369 1301 889 
Q 1547 409 2034 409 
Q 2525 409 2770 889 
Q 3016 1369 3016 2328 
Q 3016 3291 2770 3770 
Q 2525 4250 2034 4250 
z
M 2034 4750 
Q 2819 4750 3233 4129 
Q 3647 3509 3647 2328 
Q 3647 1150 3233 529 
Q 2819 -91 2034 -91 
Q 1250 -91 836 529 
Q 422 1150 422 2328 
Q 422 3509 836 4129 
Q 1250 4750 2034 4750 
z
" transform="scale(0.015625)"/>
      <path id="DejaVuSans-4e" d="M 628 4666 
L 1478 4666 
L 3547 763 
L 3547 4666 
L 4159 4666 
L 4159 0 
L 3309 0 
L 1241 3903 
L 1241 0 
L 628 0 
L 628 4666 
z
" transform="scale(0.015625)"/>
     </defs>
     <use xlink:href="#DejaVuSans-50"/>
     <use xlink:href="#DejaVuSans-2081" x="60.302734"/>
     <use xlink:href="#DejaVuSans-20" x="100.390625"/>
     <use xlink:href="#DejaVuSans-3d" x="132.177734"/>
     <use xlink:href="#DejaVuSans-20" x="215.966797"/>
     <use xlink:href="#DejaVuSans-35" x="247.753906"/>
     <use xlink:href="#DejaVuSans-30" x="311.376953"/>
     <use xlink:href="#DejaVuSans-30" x="375"/>
     <use xlink:href="#DejaVuSans-30" x="438.623047"/>
     <use xlink:href="#DejaVuSans-20" x="502.246094"/>
     <use xlink:href="#DejaVuSans-4e" x="534.033203"/>
    </g>
   </g>
   <g id="text_4">
    <!-- P₂ = 3000 N -->
    <g style="fill: #f4d03f" transform="translate(1042.783438 60.432937)scale(0.3 -0.3)">
     <defs>
      <path id="DejaVuSans-2082" d="M 838 356 
L 2163 356 
L 2163 0 
L 294 0 
L 294 343 
Q 400 440 597 615 
Q 1672 1568 1672 1862 
Q 1672 2068 1509 2194 
Q 1347 2321 1081 2321 
Q 919 2321 728 2266 
Q 538 2212 313 2103 
L 313 2487 
Q 553 2575 761 2618 
Q 969 2662 1147 2662 
Q 1600 2662 1872 2456 
Q 2144 2250 2144 1912 
Q 2144 1478 1109 590 
Q 934 440 838 356 
z
" transform="scale(0.015625)"/>
      <path id="DejaVuSans-33" d="M 2597 2516 
Q 3050 2419 3304 2112 
Q 3559 1806 3559 1356 
Q 3559 666 3084 287 
Q 2609 -91 1734 -91 
Q 1441 -91 1130 -33 
Q 819 25 488 141 
L 488 750 
Q 750 597 1062 519 
Q 1375 441 1716 441 
Q 2309 441 2620 675 
Q 2931 909 2931 1356 
Q 2931 1769 2642 2001 
Q 2353 2234 1838 2234 
L 1294 2234 
L 1294 2753 
L 1863 2753 
Q 2328 2753 2575 2939 
Q 2822 3125 2822 3475 
Q 2822 3834 2567 4026 
Q 2313 4219 1838 4219 
Q 1578 4219 1281 4162 
Q 984 4106 628 3988 
L 628 4550 
Q 988 4650 1302 4700 
Q 1616 4750 1894 4750 
Q 2613 4750 3031 4423 
Q 3450 4097 3450 3541 
Q 3450 3153 3228 2886 
Q 3006 2619 2597 2516 
z
" transform="scale(0.015625)"/>
     </defs>
     <use xlink:href="#DejaVuSans-50"/>
     <use xlink:href="#DejaVuSans-2082" x="60.302734"/>
     <use xlink:href="#DejaVuSans-20" x="100.390625"/>
     <use xlink:href="#DejaVuSans-3d" x="132.177734"/>
     <use xlink:href="#DejaVuSans-20" x="215.966797"/>
     <use xlink:href="#DejaVuSans-33" x="247.753906"/>
     <use xlink:href="#DejaVuSans-30" x="311.376953"/>
     <use xlink:href="#DejaVuSans-30" x="375"/>
     <use xlink:href="#DejaVuSans-30" x="438.623047"/>
     <use xlink:href="#DejaVuSans-20" x="502.246094"/>
     <use xlink:href="#DejaVuSans-4e" x="534.033203"/>
    </g>
   </g>
   <g id="text_5">
    <!-- w = 800 N/m -->
    <g style="fill: #5dade2" transform="translate(508.671562 179.262693)scale(0.28 -0.28)">
     <defs>
      <path id="DejaVuSans-77" d="M 269 3500 
L 844 3500 
L 1563 769 
L 2278 3500 
L 2956 3500 
L 3675 769 
L 4391 3500 
L 4966 3500 
L 4050 0 
L 3372 0 
L 2619 2869 
L 1863 0 
L 1184 0 
L 269 3500 
z
" transform="scale(0.015625)"/>
      <path id="DejaVuSans-38" d="M 2034 2216 
Q 1584 2216 1326 1975 
Q 1069 1734 1069 1313 
Q 1069 891 1326 650 
Q 1584 409 2034 409 
Q 2484 409 2743 651 
Q 3003 894 3003 1313 
Q 3003 1734 2745 1975 
Q 2488 2216 2034 2216 
z
M 1403 2484 
Q 997 2584 770 2862 
Q 544 3141 544 3541 
Q 544 4100 942 4425 
Q 1341 4750 2034 4750 
Q 2731 4750 3128 4425 
Q 3525 4100 3525 3541 
Q 3525 3141 3298 2862 
Q 3072 2584 2669 2484 
Q 3125 2378 3379 2068 
Q 3634 1759 3634 1313 
Q 3634 634 3220 271 
Q 2806 -91 2034 -91 
Q 1263 -91 848 271 
Q 434 634 434 1313 
Q 434 1759 690 2068 
Q 947 2378 1403 2484 
z
M 1172 3481 
Q 1172 3119 1398 2916 
Q 1625 2713 2034 2713 
Q 2441 2713 2670 2916 
Q 2900 3119 2900 3481 
Q 2900 3844 2670 4047 
Q 2441 4250 2034 4250 
Q 1625 4250 1398 4047 
Q 1172 3844 1172 3481 
z
" transform="scale(0.015625)"/>
      <path id="DejaVuSans-2f" d="M 1625 4666 
L 2156 4666 
L 531 -594 
L 0 -594 
L 1625 4666 
z
" transform="scale(0.015625)"/>
      <path id="DejaVuSans-6d" d="M 3328 2828 
Q 3544 3216 3844 3400 
Q 4144 3584 4550 3584 
Q 5097 3584 5394 3201 
Q 5691 2819 5691 2113 
L 5691 0 
L 5113 0 
L 5113 2094 
Q 5113 2597 4934 2840 
Q 4756 3084 4391 3084 
Q 3944 3084 3684 2787 
Q 3425 2491 3425 1978 
L 3425 0 
L 2847 0 
L 2847 2094 
Q 2847 2600 2669 2842 
Q 2491 3084 2119 3084 
Q 1678 3084 1418 2786 
Q 1159 2488 1159 1978 
L 1159 0 
L 581 0 
L 581 3500 
L 1159 3500 
L 1159 2956 
Q 1356 3278 1631 3431 
Q 1906 3584 2284 3584 
Q 2666 3584 2933 3390 
Q 3200 3197 3328 2828 
z
" transform="scale(0.015625)"/>
     </defs>
     <use xlink:href="#DejaVuSans-77"/>
     <use xlink:href="#DejaVuSans-20" x="81.787109"/>
     <use xlink:href="#DejaVuSans-3d" x="113.574219"/>
     <use xlink:href="#DejaVuSans-20" x="197.363281"/>
     <use xlink:href="#DejaVuSans-38" x="229.150391"/>
     <use xlink:href="#DejaVuSans-30" x="292.773438"/>
     <use xlink:href="#DejaVuSans-30" x="356.396484"/>
     <use xlink:href="#DejaVuSans-20" x="420.019531"/>
     <use xlink:href="#DejaVuSans-4e" x="451.806641"/>
     <use xlink:href="#DejaVuSans-2f" x="526.611328"/>
     <use xlink:href="#DejaVuSans-6d" x="560.302734"/>
    </g>
   </g>
   <g id="text_6">
    <!-- A -->
    <g style="fill: #5dade2" transform="translate(59.18125 426.659523)scale(0.24 -0.24)">
     <use xlink:href="#DejaVuSans-41"/>
    </g>
    <!-- (Pinned) -->
    <g style="fill: #5dade2" transform="translate(17.515 453.534273)scale(0.24 -0.24)">
     <defs>
      <path id="DejaVuSans-28" d="M 1984 4856 
Q 1566 4138 1362 3434 
Q 1159 2731 1159 2009 
Q 1159 1288 1364 580 
Q 1569 -128 1984 -844 
L 1484 -844 
Q 1016 -109 783 600 
Q 550 1309 550 2009 
Q 550 2706 781 3412 
Q 1013 4119 1484 4856 
L 1984 4856 
z
" transform="scale(0.015625)"/>
      <path id="DejaVuSans-69" d="M 603 3500 
L 1178 3500 
L 1178 0 
L 603 0 
L 603 3500 
z
M 603 4863 
L 1178 4863 
L 1178 4134 
L 603 4134 
L 603 4863 
z
" transform="scale(0.015625)"/>
      <path id="DejaVuSans-6e" d="M 3513 2113 
L 3513 0 
L 2938 0 
L 2938 2094 
Q 2938 2591 2744 2837 
Q 2550 3084 2163 3084 
Q 1697 3084 1428 2787 
Q 1159 2491 1159 1978 
L 1159 0 
L 581 0 
L 581 3500 
L 1159 3500 
L 1159 2956 
Q 1366 3272 1645 3428 
Q 1925 3584 2291 3584 
Q 2894 3584 3203 3211 
Q 3513 2838 3513 2113 
z
" transform="scale(0.015625)"/>
      <path id="DejaVuSans-65" d="M 3597 1894 
L 3597 1613 
L 953 1613 
Q 991 1019 1311 708 
Q 1631 397 2203 397 
Q 2534 397 2845 478 
Q 3156 559 3463 722 
L 3463 178 
Q 3153 47 2828 -22 
Q 2503 -91 2169 -91 
Q 1331 -91 842 396 
Q 353 884 353 1716 
Q 353 2575 817 3079 
Q 1281 3584 2069 3584 
Q 2775 3584 3186 3129 
Q 3597 2675 3597 1894 
z
M 3022 2063 
Q 3016 2534 2758 2815 
Q 2500 3097 2075 3097 
Q 1594 3097 1305 2825 
Q 1016 2553 972 2059 
L 3022 2063 
z
" transform="scale(0.015625)"/>
      <path id="DejaVuSans-64" d="M 2906 2969 
L 2906 4863 
L 3481 4863 
L 3481 0 
L 2906 0 
L 2906 525 
Q 2725 213 2448 61 
Q 2172 -91 1784 -91 
Q 1150 -91 751 415 
Q 353 922 353 1747 
Q 353 2572 751 3078 
Q 1150 3584 1784 3584 
Q 2172 3584 2448 3432 
Q 2725 3281 2906 2969 
z
M 947 1747 
Q 947 1113 1208 752 
Q 1469 391 1925 391 
Q 2381 391 2643 752 
Q 2906 1113 2906 1747 
Q 2906 2381 2643 2742 
Q 2381 3103 1925 3103 
Q 1469 3103 1208 2742 
Q 947 2381 947 1747 
z
" transform="scale(0.015625)"/>
      <path id="DejaVuSans-29" d="M 513 4856 
L 1013 4856 
Q 1481 4119 1714 3412 
Q 1947 2706 1947 2009 
Q 1947 1309 1714 600 
Q 1481 -109 1013 -844 
L 513 -844 
Q 928 -128 1133 580 
Q 1338 1288 1338 2009 
Q 1338 2731 1133 3434 
Q 928 4138 513 4856 
z
" transform="scale(0.015625)"/>
     </defs>
     <use xlink:href="#DejaVuSans-28"/>
     <use xlink:href="#DejaVuSans-50" x="39.013672"/>
     <use xlink:href="#DejaVuSans-69" x="97.066406"/>
     <use xlink:href="#DejaVuSans-6e" x="124.849609"/>
     <use xlink:href="#DejaVuSans-6e" x="188.228516"/>
     <use xlink:href="#DejaVuSans-65" x="251.607422"/>
     <use xlink:href="#DejaVuSans-64" x="313.130859"/>
     <use xlink:href="#DejaVuSans-29" x="376.607422"/>
    </g>
   </g>
   <g id="text_7">
    <!-- B -->
    <g style="fill: #5dade2" transform="translate(859.196875 426.659523)scale(0.24 -0.24)">
     <use xlink:href="#DejaVuSans-42"/>
    </g>
    <!-- (Roller) -->
    <g style="fill: #5dade2" transform="translate(823.94125 453.534273)scale(0.24 -0.24)">
     <defs>
      <path id="DejaVuSans-6f" d="M 1959 3097 
Q 1497 3097 1228 2736 
Q 959 2375 959 1747 
Q 959 1119 1226 758 
Q 1494 397 1959 397 
Q 2419 397 2687 759 
Q 2956 1122 2956 1747 
Q 2956 2369 2687 2733 
Q 2419 3097 1959 3097 
z
M 1959 3584 
Q 2709 3584 3137 3096 
Q 3566 2609 3566 1747 
Q 3566 888 3137 398 
Q 2709 -91 1959 -91 
Q 1206 -91 779 398 
Q 353 888 353 1747 
Q 353 2609 779 3096 
Q 1206 3584 1959 3584 
z
" transform="scale(0.015625)"/>
      <path id="DejaVuSans-6c" d="M 603 4863 
L 1178 4863 
L 1178 0 
L 603 0 
L 603 4863 
z
" transform="scale(0.015625)"/>
      <path id="DejaVuSans-72" d="M 2631 2963 
Q 2534 3019 2420 3045 
Q 2306 3072 2169 3072 
Q 1681 3072 1420 2755 
Q 1159 2438 1159 1844 
L 1159 0 
L 581 0 
L 581 3500 
L 1159 3500 
L 1159 2956 
Q 1341 3275 1631 3429 
Q 1922 3584 2338 3584 
Q 2397 3584 2469 3576 
Q 2541 3569 2628 3553 
L 2631 2963 
z
" transform="scale(0.015625)"/>
     </defs>
     <use xlink:href="#DejaVuSans-28"/>
     <use xlink:href="#DejaVuSans-52" x="39.013672"/>
     <use xlink:href="#DejaVuSans-6f" x="103.996094"/>
     <use xlink:href="#DejaVuSans-6c" x="165.177734"/>
     <use xlink:href="#DejaVuSans-6c" x="192.960938"/>
     <use xlink:href="#DejaVuSans-65" x="220.744141"/>
     <use xlink:href="#DejaVuSans-72" x="282.267578"/>
     <use xlink:href="#DejaVuSans-29" x="323.380859"/>
    </g>
   </g>
   <g id="text_8">
    <!-- Free End -->
    <g style="fill: #5dade2" transform="translate(1082.028125 411.670432)scale(0.24 -0.24)">
     <defs>
      <path id="DejaVuSans-46" d="M 628 4666 
L 3309 4666 
L 3309 4134 
L 1259 4134 
L 1259 2759 
L 3109 2759 
L 3109 2228 
L 1259 2228 
L 1259 0 
L 628 0 
L 628 4666 
z
" transform="scale(0.015625)"/>
      <path id="DejaVuSans-45" d="M 628 4666 
L 3578 4666 
L 3578 4134 
L 1259 4134 
L 1259 2753 
L 3481 2753 
L 3481 2222 
L 1259 2222 
L 1259 531 
L 3634 531 
L 3634 0 
L 628 0 
L 628 4666 
z
" transform="scale(0.015625)"/>
     </defs>
     <use xlink:href="#DejaVuSans-46"/>
     <use xlink:href="#DejaVuSans-72" x="50.269531"/>
     <use xlink:href="#DejaVuSans-65" x="89.132812"/>
     <use xlink:href="#DejaVuSans-65" x="150.65625"/>
     <use xlink:href="#DejaVuSans-20" x="212.179688"/>
     <use xlink:href="#DejaVuSans-45" x="243.966797"/>
     <use xlink:href="#DejaVuSans-6e" x="307.150391"/>
     <use xlink:href="#DejaVuSans-64" x="370.529297"/>
    </g>
   </g>
   <g id="text_9">
    <!-- 0 m -->
    <g style="fill: #5dade2" transform="translate(44.2525 618.519886)scale(0.24 -0.24)">
     <use xlink:href="#DejaVuSans-30"/>
     <use xlink:href="#DejaVuSans-20" x="63.623047"/>
     <use xlink:href="#DejaVuSans-6d" x="95.410156"/>
    </g>
   </g>
   <g id="text_10">
    <!-- 1.5 m -->
    <g style="fill: #5dade2" transform="translate(432.82375 618.519886)scale(0.24 -0.24)">
     <defs>
      <path id="DejaVuSans-31" d="M 794 531 
L 1825 531 
L 1825 4091 
L 703 3866 
L 703 4441 
L 1819 4666 
L 2450 4666 
L 2450 531 
L 3481 531 
L 3481 0 
L 794 0 
L 794 531 
z
" transform="scale(0.015625)"/>
      <path id="DejaVuSans-2e" d="M 684 794 
L 1344 794 
L 1344 0 
L 684 0 
L 684 794 
z
" transform="scale(0.015625)"/>
     </defs>
     <use xlink:href="#DejaVuSans-31"/>
     <use xlink:href="#DejaVuSans-2e" x="63.623047"/>
     <use xlink:href="#DejaVuSans-35" x="95.410156"/>
     <use xlink:href="#DejaVuSans-20" x="159.033203"/>
     <use xlink:href="#DejaVuSans-6d" x="190.820312"/>
    </g>
   </g>
   <g id="text_11">
    <!-- 3.0 m -->
    <g style="fill: #5dade2" transform="translate(832.84375 618.519886)scale(0.24 -0.24)">
     <use xlink:href="#DejaVuSans-33"/>
     <use xlink:href="#DejaVuSans-2e" x="63.623047"/>
     <use xlink:href="#DejaVuSans-30" x="95.410156"/>
     <use xlink:href="#DejaVuSans-20" x="159.033203"/>
     <use xlink:href="#DejaVuSans-6d" x="190.820312"/>
    </g>
   </g>
   <g id="text_12">
    <!-- 4.0 m -->
    <g style="fill: #5dade2" transform="translate(1099.52375 618.519886)scale(0.24 -0.24)">
     <defs>
      <path id="DejaVuSans-34" d="M 2419 4116 
L 825 1625 
L 2419 1625 
L 2419 4116 
z
M 2253 4666 
L 3047 4666 
L 3047 1625 
L 3713 1625 
L 3713 1100 
L 3047 1100 
L 3047 0 
L 2419 0 
L 2419 1100 
L 313 1100 
L 313 1709 
L 2253 4666 
z
" transform="scale(0.015625)"/>
     </defs>
     <use xlink:href="#DejaVuSans-34"/>
     <use xlink:href="#DejaVuSans-2e" x="63.623047"/>
     <use xlink:href="#DejaVuSans-30" x="95.410156"/>
     <use xlink:href="#DejaVuSans-20" x="159.033203"/>
     <use xlink:href="#DejaVuSans-6d" x="190.820312"/>
    </g>
   </g>
  </g>
 </g>
 <defs>
  <clipPath id="p83a738f2a5">
   <rect x="0.72" y="0.72" width="1200.06" height="659.52"/>
  </clipPath>
 </defs>
</svg>
