<?xml version="1.0" encoding="utf-8" standalone="no"?>
<!DOCTYPE svg PUBLIC "-//W3C//DTD SVG 1.1//EN"
  "http://www.w3.org/Graphics/SVG/1.1/DTD/svg11.dtd">
<svg xmlns:xlink="http://www.w3.org/1999/xlink" width="1133.490653pt" height="696.053437pt" viewBox="0 0 1133.490653 696.053437" xmlns="http://www.w3.org/2000/svg" version="1.1">
 <metadata>
  <rdf:RDF xmlns:dc="http://purl.org/dc/elements/1.1/" xmlns:cc="http://creativecommons.org/ns#" xmlns:rdf="http://www.w3.org/1999/02/22-rdf-syntax-ns#">
   <cc:Work>
    <dc:type rdf:resource="http://purl.org/dc/dcmitype/StillImage"/>
    <dc:date>2025-09-26T19:49:30.529698</dc:date>
    <dc:format>image/svg+xml</dc:format>
    <dc:creator>
     <cc:Agent>
      <dc:title>Matplotlib v3.5.2, https://matplotlib.org/</dc:title>
     </cc:Agent>
    </dc:creator>
   </cc:Work>
  </rdf:RDF>
 </metadata>
 <defs>
  <style type="text/css">*{stroke-linejoin: round; stroke-linecap: butt}</style>
 </defs>
 <g id="figure_1">
  <g id="patch_1">
   <path d="M 0 696.053437 
L 1133.490653 696.053437 
L 1133.490653 0 
L 0 0 
L 0 696.053437 
z
" style="fill: none"/>
  </g>
  <g id="axes_1">
   <g id="patch_2">
    <path d="M 113.298438 596.155937 
L 1034.898438 596.155937 
L 1034.898438 41.755938 
L 113.298438 41.755938 
L 113.298438 596.155937 
z
" style="fill: none"/>
   </g>
   <g id="PolyCollection_1">
    <defs>
     <path id="m51ec524ca3" d="M 155.189347 -399.464364 
L 155.189347 -399.464364 
L 156.868341 -400.976865 
L 158.547335 -402.4863 
L 160.22633 -403.992669 
L 161.905324 -405.495971 
L 163.584318 -406.996208 
L 165.263313 -408.493378 
L 166.942307 -409.987483 
L 168.621301 -411.478521 
L 170.300296 -412.966494 
L 171.97929 -414.4514 
L 173.658284 -415.93324 
L 175.337279 -417.412014 
L 177.016273 -418.887722 
L 178.695268 -420.360364 
L 180.374262 -421.82994 
L 182.053256 -423.29645 
L 183.732251 -424.759894 
L 185.411245 -426.220272 
L 187.090239 -427.677583 
L 188.769234 -429.131829 
L 190.448228 -430.583008 
L 192.127222 -432.031122 
L 193.806217 -433.476169 
L 195.485211 -434.91815 
L 197.164205 -436.357065 
L 198.8432 -437.792914 
L 200.522194 -439.225697 
L 202.201188 -440.655414 
L 203.880183 -442.082065 
L 205.559177 -443.50565 
L 207.238172 -444.926169 
L 208.917166 -446.343621 
L 210.59616 -447.758008 
L 212.275155 -449.169328 
L 213.954149 -450.577583 
L 215.633143 -451.982771 
L 217.312138 -453.384893 
L 218.991132 -454.78395 
L 220.670126 -456.17994 
L 222.349121 -457.572864 
L 224.028115 -458.962722 
L 225.707109 -460.349514 
L 227.386104 -461.733239 
L 229.065098 -463.113899 
L 230.744092 -464.491493 
L 232.423087 -465.86602 
L 234.102081 -467.237482 
L 235.781076 -468.605877 
L 237.46007 -469.971207 
L 239.139064 -471.33347 
L 240.818059 -472.692667 
L 242.497053 -474.048798 
L 244.176047 -475.401863 
L 245.855042 -476.751862 
L 247.534036 -478.098795 
L 249.21303 -479.442662 
L 250.892025 -480.783463 
L 252.571019 -482.121198 
L 254.250013 -483.455866 
L 255.929008 -484.787469 
L 257.608002 -486.116005 
L 259.286996 -487.441476 
L 260.965991 -488.76388 
L 262.644985 -490.083218 
L 264.323979 -491.399491 
L 266.002974 -492.712697 
L 267.681968 -494.022837 
L 269.360963 -495.329911 
L 271.039957 -496.633918 
L 272.718951 -497.93486 
L 274.397946 -499.232736 
L 276.07694 -500.527546 
L 277.755934 -501.819289 
L 279.434929 -503.107967 
L 281.113923 -504.393578 
L 282.792917 -505.676124 
L 284.471912 -506.955603 
L 286.150906 -508.232016 
L 287.8299 -509.505363 
L 289.508895 -510.775644 
L 291.187889 -512.042859 
L 292.866883 -513.307008 
L 294.545878 -514.568091 
L 296.224872 -515.826108 
L 297.903867 -517.081058 
L 299.582861 -518.332943 
L 301.261855 -519.581762 
L 302.94085 -520.827514 
L 304.619844 -522.0702 
L 306.298838 -523.309821 
L 307.977833 -524.546375 
L 309.656827 -525.779863 
L 311.335821 -527.010285 
L 313.014816 -528.237641 
L 314.69381 -529.461931 
L 316.372804 -530.683155 
L 318.051799 -531.901313 
L 319.730793 -533.116405 
L 321.409787 -534.32843 
L 323.088782 -535.53739 
L 324.767776 -536.743283 
L 326.446771 -537.946111 
L 328.125765 -539.145872 
L 329.804759 -540.342567 
L 331.483754 -541.536197 
L 333.162748 -542.72676 
L 334.841742 -543.914257 
L 336.520737 -545.098688 
L 338.199731 -546.280053 
L 339.878725 -547.458351 
L 341.55772 -548.633584 
L 343.236714 -549.805751 
L 344.915708 -550.974851 
L 346.594703 -552.140886 
L 348.273697 -553.303854 
L 349.952691 -554.463757 
L 351.631686 -555.620593 
L 353.31068 -556.774363 
L 354.989675 -557.925068 
L 356.668669 -559.072706 
L 358.347663 -560.217278 
L 360.026658 -561.358784 
L 361.705652 -562.497223 
L 363.384646 -563.632597 
L 365.063641 -564.764905 
L 366.742635 -565.894147 
L 368.421629 -567.020322 
L 370.100624 -568.143432 
L 371.779618 -569.263475 
L 373.458612 -570.380452 
L 375.137607 -571.494364 
L 376.816601 -572.605209 
L 378.495595 -573.712988 
L 380.17459 -574.817701 
L 381.853584 -575.919348 
L 383.532579 -577.017929 
L 385.211573 -578.113444 
L 386.890567 -579.205892 
L 388.569562 -580.295275 
L 390.248556 -581.381592 
L 391.92755 -582.464842 
L 393.606545 -583.545026 
L 395.285539 -584.622145 
L 396.964533 -585.696197 
L 398.643528 -586.767183 
L 400.322522 -587.835104 
L 402.001516 -588.899958 
L 403.680511 -589.961746 
L 405.359505 -591.020467 
L 407.038499 -592.076123 
L 408.717494 -593.128713 
L 410.396488 -594.178237 
L 412.075482 -595.224694 
L 413.754477 -596.268086 
L 415.433471 -597.308411 
L 417.112466 -598.345671 
L 418.79146 -599.379864 
L 420.470454 -600.410991 
L 422.149449 -601.439053 
L 423.828443 -602.464048 
L 425.507437 -603.485977 
L 427.186432 -604.50484 
L 428.865426 -605.520637 
L 430.54442 -606.533367 
L 432.223415 -607.543032 
L 433.902409 -608.549631 
L 435.581403 -609.553163 
L 437.260398 -610.55363 
L 438.939392 -611.55103 
L 440.618386 -612.545365 
L 442.297381 -613.536633 
L 443.976375 -614.524835 
L 445.65537 -615.509971 
L 447.334364 -616.492041 
L 449.013358 -617.471045 
L 450.692353 -618.446983 
L 452.371347 -619.419855 
L 454.050341 -620.389661 
L 455.729336 -621.3564 
L 457.40833 -622.320074 
L 459.087324 -623.280682 
L 460.766319 -624.238223 
L 462.445313 -625.192698 
L 464.124307 -626.144108 
L 465.803302 -627.092451 
L 467.482296 -628.037728 
L 469.16129 -628.979939 
L 470.840285 -626.990624 
L 472.519279 -624.579891 
L 474.198274 -622.166092 
L 475.877268 -619.749226 
L 477.556262 -617.329295 
L 479.235257 -614.906298 
L 480.914251 -612.480234 
L 482.593245 -610.051105 
L 484.27224 -607.618909 
L 485.951234 -605.183648 
L 487.630228 -602.74532 
L 489.309223 -600.303926 
L 490.988217 -597.859466 
L 492.667211 -595.411941 
L 494.346206 -592.961349 
L 496.0252 -590.50769 
L 497.704194 -588.050966 
L 499.383189 -585.591176 
L 501.062183 -583.12832 
L 502.741178 -580.662397 
L 504.420172 -578.193409 
L 506.099166 -575.721354 
L 507.778161 -573.246234 
L 509.457155 -570.768047 
L 511.136149 -568.286794 
L 512.815144 -565.802476 
L 514.494138 -563.315091 
L 516.173132 -560.82464 
L 517.852127 -558.331123 
L 519.531121 -555.83454 
L 521.210115 -553.33489 
L 522.88911 -550.832175 
L 524.568104 -548.326394 
L 526.247098 -545.817546 
L 527.926093 -543.305633 
L 529.605087 -540.790653 
L 531.284082 -538.272608 
L 532.963076 -535.751496 
L 534.64207 -533.227318 
L 536.321065 -530.700074 
L 538.000059 -528.169764 
L 539.679053 -525.636388 
L 541.358048 -523.099946 
L 543.037042 -520.560438 
L 544.716036 -518.017864 
L 546.395031 -515.472224 
L 548.074025 -512.923517 
L 549.753019 -510.371745 
L 551.432014 -507.816906 
L 553.111008 -505.259002 
L 554.790002 -502.698031 
L 556.468997 -500.133994 
L 558.147991 -497.566891 
L 559.826986 -494.996723 
L 561.50598 -492.423488 
L 563.184974 -489.847186 
L 564.863969 -487.267819 
L 566.542963 -484.685386 
L 568.221957 -482.099887 
L 569.900952 -479.511322 
L 571.579946 -476.91969 
L 573.25894 -474.324993 
L 574.937935 -471.727229 
L 576.616929 -469.126399 
L 578.295923 -466.522504 
L 579.974918 -463.915542 
L 581.653912 -461.305514 
L 583.332906 -458.69242 
L 585.011901 -456.07626 
L 586.690895 -453.457034 
L 588.369889 -450.834742 
L 590.048884 -448.209384 
L 591.727878 -445.580959 
L 593.406873 -442.949469 
L 595.085867 -440.314912 
L 596.764861 -437.67729 
L 598.443856 -435.036601 
L 600.12285 -432.392846 
L 601.801844 -429.746026 
L 603.480839 -427.096139 
L 605.159833 -424.443186 
L 606.838827 -421.787167 
L 608.517822 -419.128082 
L 610.196816 -416.465931 
L 611.87581 -413.800714 
L 613.554805 -411.13243 
L 615.233799 -408.461081 
L 616.912793 -405.786665 
L 618.591788 -403.109184 
L 620.270782 -400.428636 
L 620.270782 -399.464364 
L 620.270782 -399.464364 
L 618.591788 -399.464364 
L 616.912793 -399.464364 
L 615.233799 -399.464364 
L 613.554805 -399.464364 
L 611.87581 -399.464364 
L 610.196816 -399.464364 
L 608.517822 -399.464364 
L 606.838827 -399.464364 
L 605.159833 -399.464364 
L 603.480839 -399.464364 
L 601.801844 -399.464364 
L 600.12285 -399.464364 
L 598.443856 -399.464364 
L 596.764861 -399.464364 
L 595.085867 -399.464364 
L 593.406873 -399.464364 
L 591.727878 -399.464364 
L 590.048884 -399.464364 
L 588.369889 -399.464364 
L 586.690895 -399.464364 
L 585.011901 -399.464364 
L 583.332906 -399.464364 
L 581.653912 -399.464364 
L 579.974918 -399.464364 
L 578.295923 -399.464364 
L 576.616929 -399.464364 
L 574.937935 -399.464364 
L 573.25894 -399.464364 
L 571.579946 -399.464364 
L 569.900952 -399.464364 
L 568.221957 -399.464364 
L 566.542963 -399.464364 
L 564.863969 -399.464364 
L 563.184974 -399.464364 
L 561.50598 -399.464364 
L 559.826986 -399.464364 
L 558.147991 -399.464364 
L 556.468997 -399.464364 
L 554.790002 -399.464364 
L 553.111008 -399.464364 
L 551.432014 -399.464364 
L 549.753019 -399.464364 
L 548.074025 -399.464364 
L 546.395031 -399.464364 
L 544.716036 -399.464364 
L 543.037042 -399.464364 
L 541.358048 -399.464364 
L 539.679053 -399.464364 
L 538.000059 -399.464364 
L 536.321065 -399.464364 
L 534.64207 -399.464364 
L 532.963076 -399.464364 
L 531.284082 -399.464364 
L 529.605087 -399.464364 
L 527.926093 -399.464364 
L 526.247098 -399.464364 
L 524.568104 -399.464364 
L 522.88911 -399.464364 
L 521.210115 -399.464364 
L 519.531121 -399.464364 
L 517.852127 -399.464364 
L 516.173132 -399.464364 
L 514.494138 -399.464364 
L 512.815144 -399.464364 
L 511.136149 -399.464364 
L 509.457155 -399.464364 
L 507.778161 -399.464364 
L 506.099166 -399.464364 
L 504.420172 -399.464364 
L 502.741178 -399.464364 
L 501.062183 -399.464364 
L 499.383189 -399.464364 
L 497.704194 -399.464364 
L 496.0252 -399.464364 
L 494.346206 -399.464364 
L 492.667211 -399.464364 
L 490.988217 -399.464364 
L 489.309223 -399.464364 
L 487.630228 -399.464364 
L 485.951234 -399.464364 
L 484.27224 -399.464364 
L 482.593245 -399.464364 
L 480.914251 -399.464364 
L 479.235257 -399.464364 
L 477.556262 -399.464364 
L 475.877268 -399.464364 
L 474.198274 -399.464364 
L 472.519279 -399.464364 
L 470.840285 -399.464364 
L 469.16129 -399.464364 
L 467.482296 -399.464364 
L 465.803302 -399.464364 
L 464.124307 -399.464364 
L 462.445313 -399.464364 
L 460.766319 -399.464364 
L 459.087324 -399.464364 
L 457.40833 -399.464364 
L 455.729336 -399.464364 
L 454.050341 -399.464364 
L 452.371347 -399.464364 
L 450.692353 -399.464364 
L 449.013358 -399.464364 
L 447.334364 -399.464364 
L 445.65537 -399.464364 
L 443.976375 -399.464364 
L 442.297381 -399.464364 
L 440.618386 -399.464364 
L 438.939392 -399.464364 
L 437.260398 -399.464364 
L 435.581403 -399.464364 
L 433.902409 -399.464364 
L 432.223415 -399.464364 
L 430.54442 -399.464364 
L 428.865426 -399.464364 
L 427.186432 -399.464364 
L 425.507437 -399.464364 
L 423.828443 -399.464364 
L 422.149449 -399.464364 
L 420.470454 -399.464364 
L 418.79146 -399.464364 
L 417.112466 -399.464364 
L 415.433471 -399.464364 
L 413.754477 -399.464364 
L 412.075482 -399.464364 
L 410.396488 -399.464364 
L 408.717494 -399.464364 
L 407.038499 -399.464364 
L 405.359505 -399.464364 
L 403.680511 -399.464364 
L 402.001516 -399.464364 
L 400.322522 -399.464364 
L 398.643528 -399.464364 
L 396.964533 -399.464364 
L 395.285539 -399.464364 
L 393.606545 -399.464364 
L 391.92755 -399.464364 
L 390.248556 -399.464364 
L 388.569562 -399.464364 
L 386.890567 -399.464364 
L 385.211573 -399.464364 
L 383.532579 -399.464364 
L 381.853584 -399.464364 
L 380.17459 -399.464364 
L 378.495595 -399.464364 
L 376.816601 -399.464364 
L 375.137607 -399.464364 
L 373.458612 -399.464364 
L 371.779618 -399.464364 
L 370.100624 -399.464364 
L 368.421629 -399.464364 
L 366.742635 -399.464364 
L 365.063641 -399.464364 
L 363.384646 -399.464364 
L 361.705652 -399.464364 
L 360.026658 -399.464364 
L 358.347663 -399.464364 
L 356.668669 -399.464364 
L 354.989675 -399.464364 
L 353.31068 -399.464364 
L 351.631686 -399.464364 
L 349.952691 -399.464364 
L 348.273697 -399.464364 
L 346.594703 -399.464364 
L 344.915708 -399.464364 
L 343.236714 -399.464364 
L 341.55772 -399.464364 
L 339.878725 -399.464364 
L 338.199731 -399.464364 
L 336.520737 -399.464364 
L 334.841742 -399.464364 
L 333.162748 -399.464364 
L 331.483754 -399.464364 
L 329.804759 -399.464364 
L 328.125765 -399.464364 
L 326.446771 -399.464364 
L 324.767776 -399.464364 
L 323.088782 -399.464364 
L 321.409787 -399.464364 
L 319.730793 -399.464364 
L 318.051799 -399.464364 
L 316.372804 -399.464364 
L 314.69381 -399.464364 
L 313.014816 -399.464364 
L 311.335821 -399.464364 
L 309.656827 -399.464364 
L 307.977833 -399.464364 
L 306.298838 -399.464364 
L 304.619844 -399.464364 
L 302.94085 -399.464364 
L 301.261855 -399.464364 
L 299.582861 -399.464364 
L 297.903867 -399.464364 
L 296.224872 -399.464364 
L 294.545878 -399.464364 
L 292.866883 -399.464364 
L 291.187889 -399.464364 
L 289.508895 -399.464364 
L 287.8299 -399.464364 
L 286.150906 -399.464364 
L 284.471912 -399.464364 
L 282.792917 -399.464364 
L 281.113923 -399.464364 
L 279.434929 -399.464364 
L 277.755934 -399.464364 
L 276.07694 -399.464364 
L 274.397946 -399.464364 
L 272.718951 -399.464364 
L 271.039957 -399.464364 
L 269.360963 -399.464364 
L 267.681968 -399.464364 
L 266.002974 -399.464364 
L 264.323979 -399.464364 
L 262.644985 -399.464364 
L 260.965991 -399.464364 
L 259.286996 -399.464364 
L 257.608002 -399.464364 
L 255.929008 -399.464364 
L 254.250013 -399.464364 
L 252.571019 -399.464364 
L 250.892025 -399.464364 
L 249.21303 -399.464364 
L 247.534036 -399.464364 
L 245.855042 -399.464364 
L 244.176047 -399.464364 
L 242.497053 -399.464364 
L 240.818059 -399.464364 
L 239.139064 -399.464364 
L 237.46007 -399.464364 
L 235.781076 -399.464364 
L 234.102081 -399.464364 
L 232.423087 -399.464364 
L 230.744092 -399.464364 
L 229.065098 -399.464364 
L 227.386104 -399.464364 
L 225.707109 -399.464364 
L 224.028115 -399.464364 
L 222.349121 -399.464364 
L 220.670126 -399.464364 
L 218.991132 -399.464364 
L 217.312138 -399.464364 
L 215.633143 -399.464364 
L 213.954149 -399.464364 
L 212.275155 -399.464364 
L 210.59616 -399.464364 
L 208.917166 -399.464364 
L 207.238172 -399.464364 
L 205.559177 -399.464364 
L 203.880183 -399.464364 
L 202.201188 -399.464364 
L 200.522194 -399.464364 
L 198.8432 -399.464364 
L 197.164205 -399.464364 
L 195.485211 -399.464364 
L 193.806217 -399.464364 
L 192.127222 -399.464364 
L 190.448228 -399.464364 
L 188.769234 -399.464364 
L 187.090239 -399.464364 
L 185.411245 -399.464364 
L 183.732251 -399.464364 
L 182.053256 -399.464364 
L 180.374262 -399.464364 
L 178.695268 -399.464364 
L 177.016273 -399.464364 
L 175.337279 -399.464364 
L 173.658284 -399.464364 
L 171.97929 -399.464364 
L 170.300296 -399.464364 
L 168.621301 -399.464364 
L 166.942307 -399.464364 
L 165.263313 -399.464364 
L 163.584318 -399.464364 
L 161.905324 -399.464364 
L 160.22633 -399.464364 
L 158.547335 -399.464364 
L 156.868341 -399.464364 
L 155.189347 -399.464364 
z
" style="stroke: #405ab9; stroke-opacity: 0.3"/>
    </defs>
    <g clip-path="url(#pf667c651c0)">
     <use xlink:href="#m51ec524ca3" x="0" y="696.053437" style="fill: #405ab9; fill-opacity: 0.3; stroke: #405ab9; stroke-opacity: 0.3"/>
    </g>
   </g>
   <g id="PolyCollection_2">
    <defs>
     <path id="m04cf51572f" d="M 621.949777 -399.464364 
L 621.949777 -397.745023 
L 623.628771 -395.058343 
L 625.307765 -392.368597 
L 626.98676 -389.675785 
L 628.665754 -386.979907 
L 630.344748 -384.280963 
L 632.023743 -381.578953 
L 633.702737 -378.873877 
L 635.381731 -376.165735 
L 637.060726 -373.454526 
L 638.73972 -370.740252 
L 640.418714 -368.022912 
L 642.097709 -365.302505 
L 643.776703 -362.579032 
L 645.455697 -359.852494 
L 647.134692 -357.122889 
L 648.813686 -354.390218 
L 650.492681 -351.654481 
L 652.171675 -348.915678 
L 653.850669 -346.173809 
L 655.529664 -343.428874 
L 657.208658 -340.680873 
L 658.887652 -337.929805 
L 660.566647 -335.175672 
L 662.245641 -332.418472 
L 663.924635 -329.658207 
L 665.60363 -326.894875 
L 667.282624 -324.128478 
L 668.961618 -321.359014 
L 670.640613 -318.586484 
L 672.319607 -315.810888 
L 673.998601 -313.032226 
L 675.677596 -310.250498 
L 677.35659 -307.465704 
L 679.035585 -304.677844 
L 680.714579 -301.886918 
L 682.393573 -299.092925 
L 684.072568 -296.295867 
L 685.751562 -293.495742 
L 687.430556 -290.692552 
L 689.109551 -287.886295 
L 690.788545 -285.076972 
L 692.467539 -282.264584 
L 694.146534 -279.449129 
L 695.825528 -276.630608 
L 697.504522 -273.809021 
L 699.183517 -270.984368 
L 700.862511 -268.156649 
L 702.541505 -265.325863 
L 704.2205 -262.492012 
L 705.899494 -259.655095 
L 707.578489 -256.815111 
L 709.257483 -253.972062 
L 710.936477 -251.125946 
L 712.615472 -248.276764 
L 714.294466 -245.424517 
L 715.97346 -242.569203 
L 717.652455 -239.710823 
L 719.331449 -236.849377 
L 721.010443 -233.984865 
L 722.689438 -231.117287 
L 724.368432 -228.246642 
L 726.047426 -225.372932 
L 727.726421 -222.496156 
L 729.405415 -219.616313 
L 731.084409 -216.733405 
L 732.763404 -213.84743 
L 734.442398 -210.95839 
L 736.121393 -208.066283 
L 737.800387 -205.17111 
L 739.479381 -202.272871 
L 741.158376 -199.371566 
L 742.83737 -196.467195 
L 744.516364 -193.559758 
L 746.195359 -190.649255 
L 747.874353 -187.735686 
L 749.553347 -184.81905 
L 751.232342 -181.899349 
L 752.911336 -178.976582 
L 754.59033 -176.050748 
L 756.269325 -173.121848 
L 757.948319 -170.189883 
L 759.627313 -167.254851 
L 761.306308 -164.316753 
L 762.985302 -161.375589 
L 764.664296 -158.431359 
L 766.343291 -155.484063 
L 768.022285 -152.533701 
L 769.70128 -149.580273 
L 771.380274 -146.623778 
L 773.059268 -143.664218 
L 774.738263 -140.701592 
L 776.417257 -137.735899 
L 778.096251 -134.76714 
L 779.775246 -131.795316 
L 781.45424 -128.820425 
L 783.133234 -125.842468 
L 784.812229 -126.889573 
L 786.491223 -129.27632 
L 788.170217 -131.660001 
L 789.849212 -134.040617 
L 791.528206 -136.418166 
L 793.2072 -138.792649 
L 794.886195 -141.164066 
L 796.565189 -143.532417 
L 798.244184 -145.897702 
L 799.923178 -148.25992 
L 801.602172 -150.619073 
L 803.281167 -152.97516 
L 804.960161 -155.32818 
L 806.639155 -157.678135 
L 808.31815 -160.025023 
L 809.997144 -162.368846 
L 811.676138 -164.709602 
L 813.355133 -167.047292 
L 815.034127 -169.381916 
L 816.713121 -171.713474 
L 818.392116 -174.041966 
L 820.07111 -176.367392 
L 821.750104 -178.689752 
L 823.429099 -181.009046 
L 825.108093 -183.325273 
L 826.787088 -185.638435 
L 828.466082 -187.94853 
L 830.145076 -190.25556 
L 831.824071 -192.559523 
L 833.503065 -194.860421 
L 835.182059 -197.158252 
L 836.861054 -199.453017 
L 838.540048 -201.744716 
L 840.219042 -204.033349 
L 841.898037 -206.318916 
L 843.577031 -208.601417 
L 845.256025 -210.880852 
L 846.93502 -213.15722 
L 848.614014 -215.430523 
L 850.293008 -217.700759 
L 851.972003 -219.96793 
L 853.650997 -222.232034 
L 855.329992 -224.493073 
L 857.008986 -226.751045 
L 858.68798 -229.005951 
L 860.366975 -231.257791 
L 862.045969 -233.506565 
L 863.724963 -235.752273 
L 865.403958 -237.994915 
L 867.082952 -240.234491 
L 868.761946 -242.471001 
L 870.440941 -244.704444 
L 872.119935 -246.934822 
L 873.798929 -249.162133 
L 875.477924 -251.386379 
L 877.156918 -253.607558 
L 878.835912 -255.825671 
L 880.514907 -258.040719 
L 882.193901 -260.2527 
L 883.872896 -262.461615 
L 885.55189 -264.667464 
L 887.230884 -266.870247 
L 888.909879 -269.069964 
L 890.588873 -271.266614 
L 892.267867 -273.460199 
L 893.946862 -275.650718 
L 895.625856 -277.83817 
L 897.30485 -280.022557 
L 898.983845 -282.203877 
L 900.662839 -284.382131 
L 902.341833 -286.55732 
L 904.020828 -288.729442 
L 905.699822 -290.898498 
L 907.378816 -293.064488 
L 909.057811 -295.227412 
L 910.736805 -297.38727 
L 912.415799 -299.544061 
L 914.094794 -301.697787 
L 915.773788 -303.848447 
L 917.452783 -305.99604 
L 919.131777 -308.140568 
L 920.810771 -310.282029 
L 922.489766 -312.420425 
L 924.16876 -314.555754 
L 925.847754 -316.688017 
L 927.526749 -318.817214 
L 929.205743 -320.943345 
L 930.884737 -323.06641 
L 932.563732 -325.186409 
L 934.242726 -327.303342 
L 935.92172 -329.417209 
L 937.600715 -331.528009 
L 939.279709 -333.635744 
L 940.958703 -335.740413 
L 942.637698 -337.842015 
L 944.316692 -339.940551 
L 945.995687 -342.036022 
L 947.674681 -344.128426 
L 949.353675 -346.217764 
L 951.03267 -348.304036 
L 952.711664 -350.387242 
L 954.390658 -352.467382 
L 956.069653 -354.544456 
L 957.748647 -356.618464 
L 959.427641 -358.689405 
L 961.106636 -360.757281 
L 962.78563 -362.822091 
L 964.464624 -364.883834 
L 966.143619 -366.942511 
L 967.822613 -368.998123 
L 969.501607 -371.050668 
L 971.180602 -373.100147 
L 972.859596 -375.14656 
L 974.538591 -377.189907 
L 976.217585 -379.230188 
L 977.896579 -381.267403 
L 979.575574 -383.301552 
L 981.254568 -385.332635 
L 982.933562 -387.360651 
L 984.612557 -389.385602 
L 986.291551 -391.407487 
L 987.970545 -393.426305 
L 989.64954 -395.442057 
L 991.328534 -397.454744 
L 993.007528 -399.464364 
L 993.007528 -399.464364 
L 993.007528 -399.464364 
L 991.328534 -399.464364 
L 989.64954 -399.464364 
L 987.970545 -399.464364 
L 986.291551 -399.464364 
L 984.612557 -399.464364 
L 982.933562 -399.464364 
L 981.254568 -399.464364 
L 979.575574 -399.464364 
L 977.896579 -399.464364 
L 976.217585 -399.464364 
L 974.538591 -399.464364 
L 972.859596 -399.464364 
L 971.180602 -399.464364 
L 969.501607 -399.464364 
L 967.822613 -399.464364 
L 966.143619 -399.464364 
L 964.464624 -399.464364 
L 962.78563 -399.464364 
L 961.106636 -399.464364 
L 959.427641 -399.464364 
L 957.748647 -399.464364 
L 956.069653 -399.464364 
L 954.390658 -399.464364 
L 952.711664 -399.464364 
L 951.03267 -399.464364 
L 949.353675 -399.464364 
L 947.674681 -399.464364 
L 945.995687 -399.464364 
L 944.316692 -399.464364 
L 942.637698 -399.464364 
L 940.958703 -399.464364 
L 939.279709 -399.464364 
L 937.600715 -399.464364 
L 935.92172 -399.464364 
L 934.242726 -399.464364 
L 932.563732 -399.464364 
L 930.884737 -399.464364 
L 929.205743 -399.464364 
L 927.526749 -399.464364 
L 925.847754 -399.464364 
L 924.16876 -399.464364 
L 922.489766 -399.464364 
L 920.810771 -399.464364 
L 919.131777 -399.464364 
L 917.452783 -399.464364 
L 915.773788 -399.464364 
L 914.094794 -399.464364 
L 912.415799 -399.464364 
L 910.736805 -399.464364 
L 909.057811 -399.464364 
L 907.378816 -399.464364 
L 905.699822 -399.464364 
L 904.020828 -399.464364 
L 902.341833 -399.464364 
L 900.662839 -399.464364 
L 898.983845 -399.464364 
L 897.30485 -399.464364 
L 895.625856 -399.464364 
L 893.946862 -399.464364 
L 892.267867 -399.464364 
L 890.588873 -399.464364 
L 888.909879 -399.464364 
L 887.230884 -399.464364 
L 885.55189 -399.464364 
L 883.872896 -399.464364 
L 882.193901 -399.464364 
L 880.514907 -399.464364 
L 878.835912 -399.464364 
L 877.156918 -399.464364 
L 875.477924 -399.464364 
L 873.798929 -399.464364 
L 872.119935 -399.464364 
L 870.440941 -399.464364 
L 868.761946 -399.464364 
L 867.082952 -399.464364 
L 865.403958 -399.464364 
L 863.724963 -399.464364 
L 862.045969 -399.464364 
L 860.366975 -399.464364 
L 858.68798 -399.464364 
L 857.008986 -399.464364 
L 855.329992 -399.464364 
L 853.650997 -399.464364 
L 851.972003 -399.464364 
L 850.293008 -399.464364 
L 848.614014 -399.464364 
L 846.93502 -399.464364 
L 845.256025 -399.464364 
L 843.577031 -399.464364 
L 841.898037 -399.464364 
L 840.219042 -399.464364 
L 838.540048 -399.464364 
L 836.861054 -399.464364 
L 835.182059 -399.464364 
L 833.503065 -399.464364 
L 831.824071 -399.464364 
L 830.145076 -399.464364 
L 828.466082 -399.464364 
L 826.787088 -399.464364 
L 825.108093 -399.464364 
L 823.429099 -399.464364 
L 821.750104 -399.464364 
L 820.07111 -399.464364 
L 818.392116 -399.464364 
L 816.713121 -399.464364 
L 815.034127 -399.464364 
L 813.355133 -399.464364 
L 811.676138 -399.464364 
L 809.997144 -399.464364 
L 808.31815 -399.464364 
L 806.639155 -399.464364 
L 804.960161 -399.464364 
L 803.281167 -399.464364 
L 801.602172 -399.464364 
L 799.923178 -399.464364 
L 798.244184 -399.464364 
L 796.565189 -399.464364 
L 794.886195 -399.464364 
L 793.2072 -399.464364 
L 791.528206 -399.464364 
L 789.849212 -399.464364 
L 788.170217 -399.464364 
L 786.491223 -399.464364 
L 784.812229 -399.464364 
L 783.133234 -399.464364 
L 781.45424 -399.464364 
L 779.775246 -399.464364 
L 778.096251 -399.464364 
L 776.417257 -399.464364 
L 774.738263 -399.464364 
L 773.059268 -399.464364 
L 771.380274 -399.464364 
L 769.70128 -399.464364 
L 768.022285 -399.464364 
L 766.343291 -399.464364 
L 764.664296 -399.464364 
L 762.985302 -399.464364 
L 761.306308 -399.464364 
L 759.627313 -399.464364 
L 757.948319 -399.464364 
L 756.269325 -399.464364 
L 754.59033 -399.464364 
L 752.911336 -399.464364 
L 751.232342 -399.464364 
L 749.553347 -399.464364 
L 747.874353 -399.464364 
L 746.195359 -399.464364 
L 744.516364 -399.464364 
L 742.83737 -399.464364 
L 741.158376 -399.464364 
L 739.479381 -399.464364 
L 737.800387 -399.464364 
L 736.121393 -399.464364 
L 734.442398 -399.464364 
L 732.763404 -399.464364 
L 731.084409 -399.464364 
L 729.405415 -399.464364 
L 727.726421 -399.464364 
L 726.047426 -399.464364 
L 724.368432 -399.464364 
L 722.689438 -399.464364 
L 721.010443 -399.464364 
L 719.331449 -399.464364 
L 717.652455 -399.464364 
L 715.97346 -399.464364 
L 714.294466 -399.464364 
L 712.615472 -399.464364 
L 710.936477 -399.464364 
L 709.257483 -399.464364 
L 707.578489 -399.464364 
L 705.899494 -399.464364 
L 704.2205 -399.464364 
L 702.541505 -399.464364 
L 700.862511 -399.464364 
L 699.183517 -399.464364 
L 697.504522 -399.464364 
L 695.825528 -399.464364 
L 694.146534 -399.464364 
L 692.467539 -399.464364 
L 690.788545 -399.464364 
L 689.109551 -399.464364 
L 687.430556 -399.464364 
L 685.751562 -399.464364 
L 684.072568 -399.464364 
L 682.393573 -399.464364 
L 680.714579 -399.464364 
L 679.035585 -399.464364 
L 677.35659 -399.464364 
L 675.677596 -399.464364 
L 673.998601 -399.464364 
L 672.319607 -399.464364 
L 670.640613 -399.464364 
L 668.961618 -399.464364 
L 667.282624 -399.464364 
L 665.60363 -399.464364 
L 663.924635 -399.464364 
L 662.245641 -399.464364 
L 660.566647 -399.464364 
L 658.887652 -399.464364 
L 657.208658 -399.464364 
L 655.529664 -399.464364 
L 653.850669 -399.464364 
L 652.171675 -399.464364 
L 650.492681 -399.464364 
L 648.813686 -399.464364 
L 647.134692 -399.464364 
L 645.455697 -399.464364 
L 643.776703 -399.464364 
L 642.097709 -399.464364 
L 640.418714 -399.464364 
L 638.73972 -399.464364 
L 637.060726 -399.464364 
L 635.381731 -399.464364 
L 633.702737 -399.464364 
L 632.023743 -399.464364 
L 630.344748 -399.464364 
L 628.665754 -399.464364 
L 626.98676 -399.464364 
L 625.307765 -399.464364 
L 623.628771 -399.464364 
L 621.949777 -399.464364 
z
" style="stroke: #ff8c36; stroke-opacity: 0.3"/>
    </defs>
    <g clip-path="url(#pf667c651c0)">
     <use xlink:href="#m04cf51572f" x="0" y="696.053437" style="fill: #ff8c36; fill-opacity: 0.3; stroke: #ff8c36; stroke-opacity: 0.3"/>
    </g>
   </g>
   <g id="matplotlib.axis_1">
    <g id="xtick_1">
     <g id="line2d_1">
      <path d="M 155.189347 596.155937 
L 155.189347 41.755938 
" clip-path="url(#pf667c651c0)" style="fill: none; stroke: #9ea388; stroke-opacity: 0.3; stroke-width: 2; stroke-linecap: square"/>
     </g>
     <g id="line2d_2">
      <defs>
       <path id="mc272bfbcde" d="M 0 0 
L 0 10 
" style="stroke: #405ab9; stroke-width: 4"/>
      </defs>
      <g>
       <use xlink:href="#mc272bfbcde" x="155.189347" y="596.155937" style="fill: #405ab9; stroke: #405ab9; stroke-width: 4"/>
      </g>
     </g>
     <g id="text_1">
      <!-- 0.0 -->
      <g style="fill: #405ab9" transform="translate(134.515284 629.411875)scale(0.26 -0.26)">
       <defs>
        <path id="DejaVuSans-30" d="M 2034 4250 
Q 1547 4250 1301 3770 
Q 1056 3291 1056 2328 
Q 1056 1369 1301 889 
Q 1547 409 2034 409 
Q 2525 409 2770 889 
Q 3016 1369 3016 2328 
Q 3016 3291 2770 3770 
Q 2525 4250 2034 4250 
z
M 2034 4750 
Q 2819 4750 3233 4129 
Q 3647 3509 3647 2328 
Q 3647 1150 3233 529 
Q 2819 -91 2034 -91 
Q 1250 -91 836 529 
Q 422 1150 422 2328 
Q 422 3509 836 4129 
Q 1250 4750 2034 4750 
z
" transform="scale(0.015625)"/>
        <path id="DejaVuSans-2e" d="M 684 794 
L 1344 794 
L 1344 0 
L 684 0 
L 684 794 
z
" transform="scale(0.015625)"/>
       </defs>
       <use xlink:href="#DejaVuSans-30"/>
       <use xlink:href="#DejaVuSans-2e" x="63.623047"/>
       <use xlink:href="#DejaVuSans-30" x="95.410156"/>
      </g>
     </g>
    </g>
    <g id="xtick_2">
     <g id="line2d_3">
      <path d="M 259.916619 596.155937 
L 259.916619 41.755938 
" clip-path="url(#pf667c651c0)" style="fill: none; stroke: #9ea388; stroke-opacity: 0.3; stroke-width: 2; stroke-linecap: square"/>
     </g>
     <g id="line2d_4">
      <g>
       <use xlink:href="#mc272bfbcde" x="259.916619" y="596.155937" style="fill: #405ab9; stroke: #405ab9; stroke-width: 4"/>
      </g>
     </g>
     <g id="text_2">
      <!-- 0.5 -->
      <g style="fill: #405ab9" transform="translate(239.242557 629.411875)scale(0.26 -0.26)">
       <defs>
        <path id="DejaVuSans-35" d="M 691 4666 
L 3169 4666 
L 3169 4134 
L 1269 4134 
L 1269 2991 
Q 1406 3038 1543 3061 
Q 1681 3084 1819 3084 
Q 2600 3084 3056 2656 
Q 3513 2228 3513 1497 
Q 3513 744 3044 326 
Q 2575 -91 1722 -91 
Q 1428 -91 1123 -41 
Q 819 9 494 109 
L 494 744 
Q 775 591 1075 516 
Q 1375 441 1709 441 
Q 2250 441 2565 725 
Q 2881 1009 2881 1497 
Q 2881 1984 2565 2268 
Q 2250 2553 1709 2553 
Q 1456 2553 1204 2497 
Q 953 2441 691 2322 
L 691 4666 
z
" transform="scale(0.015625)"/>
       </defs>
       <use xlink:href="#DejaVuSans-30"/>
       <use xlink:href="#DejaVuSans-2e" x="63.623047"/>
       <use xlink:href="#DejaVuSans-35" x="95.410156"/>
      </g>
     </g>
    </g>
    <g id="xtick_3">
     <g id="line2d_5">
      <path d="M 364.643892 596.155937 
L 364.643892 41.755938 
" clip-path="url(#pf667c651c0)" style="fill: none; stroke: #9ea388; stroke-opacity: 0.3; stroke-width: 2; stroke-linecap: square"/>
     </g>
     <g id="line2d_6">
      <g>
       <use xlink:href="#mc272bfbcde" x="364.643892" y="596.155937" style="fill: #405ab9; stroke: #405ab9; stroke-width: 4"/>
      </g>
     </g>
     <g id="text_3">
      <!-- 1.0 -->
      <g style="fill: #405ab9" transform="translate(343.96983 629.411875)scale(0.26 -0.26)">
       <defs>
        <path id="DejaVuSans-31" d="M 794 531 
L 1825 531 
L 1825 4091 
L 703 3866 
L 703 4441 
L 1819 4666 
L 2450 4666 
L 2450 531 
L 3481 531 
L 3481 0 
L 794 0 
L 794 531 
z
" transform="scale(0.015625)"/>
       </defs>
       <use xlink:href="#DejaVuSans-31"/>
       <use xlink:href="#DejaVuSans-2e" x="63.623047"/>
       <use xlink:href="#DejaVuSans-30" x="95.410156"/>
      </g>
     </g>
    </g>
    <g id="xtick_4">
     <g id="line2d_7">
      <path d="M 469.371165 596.155937 
L 469.371165 41.755938 
" clip-path="url(#pf667c651c0)" style="fill: none; stroke: #9ea388; stroke-opacity: 0.3; stroke-width: 2; stroke-linecap: square"/>
     </g>
     <g id="line2d_8">
      <g>
       <use xlink:href="#mc272bfbcde" x="469.371165" y="596.155937" style="fill: #405ab9; stroke: #405ab9; stroke-width: 4"/>
      </g>
     </g>
     <g id="text_4">
      <!-- 1.5 -->
      <g style="fill: #405ab9" transform="translate(448.697102 629.411875)scale(0.26 -0.26)">
       <use xlink:href="#DejaVuSans-31"/>
       <use xlink:href="#DejaVuSans-2e" x="63.623047"/>
       <use xlink:href="#DejaVuSans-35" x="95.410156"/>
      </g>
     </g>
    </g>
    <g id="xtick_5">
     <g id="line2d_9">
      <path d="M 574.098438 596.155937 
L 574.098438 41.755938 
" clip-path="url(#pf667c651c0)" style="fill: none; stroke: #9ea388; stroke-opacity: 0.3; stroke-width: 2; stroke-linecap: square"/>
     </g>
     <g id="line2d_10">
      <g>
       <use xlink:href="#mc272bfbcde" x="574.098438" y="596.155937" style="fill: #405ab9; stroke: #405ab9; stroke-width: 4"/>
      </g>
     </g>
     <g id="text_5">
      <!-- 2.0 -->
      <g style="fill: #405ab9" transform="translate(553.424375 629.411875)scale(0.26 -0.26)">
       <defs>
        <path id="DejaVuSans-32" d="M 1228 531 
L 3431 531 
L 3431 0 
L 469 0 
L 469 531 
Q 828 903 1448 1529 
Q 2069 2156 2228 2338 
Q 2531 2678 2651 2914 
Q 2772 3150 2772 3378 
Q 2772 3750 2511 3984 
Q 2250 4219 1831 4219 
Q 1534 4219 1204 4116 
Q 875 4013 500 3803 
L 500 4441 
Q 881 4594 1212 4672 
Q 1544 4750 1819 4750 
Q 2544 4750 2975 4387 
Q 3406 4025 3406 3419 
Q 3406 3131 3298 2873 
Q 3191 2616 2906 2266 
Q 2828 2175 2409 1742 
Q 1991 1309 1228 531 
z
" transform="scale(0.015625)"/>
       </defs>
       <use xlink:href="#DejaVuSans-32"/>
       <use xlink:href="#DejaVuSans-2e" x="63.623047"/>
       <use xlink:href="#DejaVuSans-30" x="95.410156"/>
      </g>
     </g>
    </g>
    <g id="xtick_6">
     <g id="line2d_11">
      <path d="M 678.82571 596.155937 
L 678.82571 41.755938 
" clip-path="url(#pf667c651c0)" style="fill: none; stroke: #9ea388; stroke-opacity: 0.3; stroke-width: 2; stroke-linecap: square"/>
     </g>
     <g id="line2d_12">
      <g>
       <use xlink:href="#mc272bfbcde" x="678.82571" y="596.155937" style="fill: #405ab9; stroke: #405ab9; stroke-width: 4"/>
      </g>
     </g>
     <g id="text_6">
      <!-- 2.5 -->
      <g style="fill: #405ab9" transform="translate(658.151648 629.411875)scale(0.26 -0.26)">
       <use xlink:href="#DejaVuSans-32"/>
       <use xlink:href="#DejaVuSans-2e" x="63.623047"/>
       <use xlink:href="#DejaVuSans-35" x="95.410156"/>
      </g>
     </g>
    </g>
    <g id="xtick_7">
     <g id="line2d_13">
      <path d="M 783.552983 596.155937 
L 783.552983 41.755938 
" clip-path="url(#pf667c651c0)" style="fill: none; stroke: #9ea388; stroke-opacity: 0.3; stroke-width: 2; stroke-linecap: square"/>
     </g>
     <g id="line2d_14">
      <g>
       <use xlink:href="#mc272bfbcde" x="783.552983" y="596.155937" style="fill: #405ab9; stroke: #405ab9; stroke-width: 4"/>
      </g>
     </g>
     <g id="text_7">
      <!-- 3.0 -->
      <g style="fill: #405ab9" transform="translate(762.87892 629.411875)scale(0.26 -0.26)">
       <defs>
        <path id="DejaVuSans-33" d="M 2597 2516 
Q 3050 2419 3304 2112 
Q 3559 1806 3559 1356 
Q 3559 666 3084 287 
Q 2609 -91 1734 -91 
Q 1441 -91 1130 -33 
Q 819 25 488 141 
L 488 750 
Q 750 597 1062 519 
Q 1375 441 1716 441 
Q 2309 441 2620 675 
Q 2931 909 2931 1356 
Q 2931 1769 2642 2001 
Q 2353 2234 1838 2234 
L 1294 2234 
L 1294 2753 
L 1863 2753 
Q 2328 2753 2575 2939 
Q 2822 3125 2822 3475 
Q 2822 3834 2567 4026 
Q 2313 4219 1838 4219 
Q 1578 4219 1281 4162 
Q 984 4106 628 3988 
L 628 4550 
Q 988 4650 1302 4700 
Q 1616 4750 1894 4750 
Q 2613 4750 3031 4423 
Q 3450 4097 3450 3541 
Q 3450 3153 3228 2886 
Q 3006 2619 2597 2516 
z
" transform="scale(0.015625)"/>
       </defs>
       <use xlink:href="#DejaVuSans-33"/>
       <use xlink:href="#DejaVuSans-2e" x="63.623047"/>
       <use xlink:href="#DejaVuSans-30" x="95.410156"/>
      </g>
     </g>
    </g>
    <g id="xtick_8">
     <g id="line2d_15">
      <path d="M 888.280256 596.155937 
L 888.280256 41.755938 
" clip-path="url(#pf667c651c0)" style="fill: none; stroke: #9ea388; stroke-opacity: 0.3; stroke-width: 2; stroke-linecap: square"/>
     </g>
     <g id="line2d_16">
      <g>
       <use xlink:href="#mc272bfbcde" x="888.280256" y="596.155937" style="fill: #405ab9; stroke: #405ab9; stroke-width: 4"/>
      </g>
     </g>
     <g id="text_8">
      <!-- 3.5 -->
      <g style="fill: #405ab9" transform="translate(867.606193 629.411875)scale(0.26 -0.26)">
       <use xlink:href="#DejaVuSans-33"/>
       <use xlink:href="#DejaVuSans-2e" x="63.623047"/>
       <use xlink:href="#DejaVuSans-35" x="95.410156"/>
      </g>
     </g>
    </g>
    <g id="xtick_9">
     <g id="line2d_17">
      <path d="M 993.007528 596.155937 
L 993.007528 41.755938 
" clip-path="url(#pf667c651c0)" style="fill: none; stroke: #9ea388; stroke-opacity: 0.3; stroke-width: 2; stroke-linecap: square"/>
     </g>
     <g id="line2d_18">
      <g>
       <use xlink:href="#mc272bfbcde" x="993.007528" y="596.155937" style="fill: #405ab9; stroke: #405ab9; stroke-width: 4"/>
      </g>
     </g>
     <g id="text_9">
      <!-- 4.0 -->
      <g style="fill: #405ab9" transform="translate(972.333466 629.411875)scale(0.26 -0.26)">
       <defs>
        <path id="DejaVuSans-34" d="M 2419 4116 
L 825 1625 
L 2419 1625 
L 2419 4116 
z
M 2253 4666 
L 3047 4666 
L 3047 1625 
L 3713 1625 
L 3713 1100 
L 3047 1100 
L 3047 0 
L 2419 0 
L 2419 1100 
L 313 1100 
L 313 1709 
L 2253 4666 
z
" transform="scale(0.015625)"/>
       </defs>
       <use xlink:href="#DejaVuSans-34"/>
       <use xlink:href="#DejaVuSans-2e" x="63.623047"/>
       <use xlink:href="#DejaVuSans-30" x="95.410156"/>
      </g>
     </g>
    </g>
    <g id="text_10">
     <!-- Distance from Support A (m) -->
     <g style="fill: #405ab9" transform="translate(331.01875 682.614375)scale(0.3 -0.3)">
      <defs>
       <path id="DejaVuSans-Bold-44" d="M 1791 3756 
L 1791 909 
L 2222 909 
Q 2959 909 3348 1275 
Q 3738 1641 3738 2338 
Q 3738 3031 3350 3393 
Q 2963 3756 2222 3756 
L 1791 3756 
z
M 588 4666 
L 1856 4666 
Q 2919 4666 3439 4514 
Q 3959 4363 4331 4000 
Q 4659 3684 4818 3271 
Q 4978 2859 4978 2338 
Q 4978 1809 4818 1395 
Q 4659 981 4331 666 
Q 3956 303 3431 151 
Q 2906 0 1856 0 
L 588 0 
L 588 4666 
z
" transform="scale(0.015625)"/>
       <path id="DejaVuSans-Bold-69" d="M 538 3500 
L 1656 3500 
L 1656 0 
L 538 0 
L 538 3500 
z
M 538 4863 
L 1656 4863 
L 1656 3950 
L 538 3950 
L 538 4863 
z
" transform="scale(0.015625)"/>
       <path id="DejaVuSans-Bold-73" d="M 3272 3391 
L 3272 2541 
Q 2913 2691 2578 2766 
Q 2244 2841 1947 2841 
Q 1628 2841 1473 2761 
Q 1319 2681 1319 2516 
Q 1319 2381 1436 2309 
Q 1553 2238 1856 2203 
L 2053 2175 
Q 2913 2066 3209 1816 
Q 3506 1566 3506 1031 
Q 3506 472 3093 190 
Q 2681 -91 1863 -91 
Q 1516 -91 1145 -36 
Q 775 19 384 128 
L 384 978 
Q 719 816 1070 734 
Q 1422 653 1784 653 
Q 2113 653 2278 743 
Q 2444 834 2444 1013 
Q 2444 1163 2330 1236 
Q 2216 1309 1875 1350 
L 1678 1375 
Q 931 1469 631 1722 
Q 331 1975 331 2491 
Q 331 3047 712 3315 
Q 1094 3584 1881 3584 
Q 2191 3584 2531 3537 
Q 2872 3491 3272 3391 
z
" transform="scale(0.015625)"/>
       <path id="DejaVuSans-Bold-74" d="M 1759 4494 
L 1759 3500 
L 2913 3500 
L 2913 2700 
L 1759 2700 
L 1759 1216 
Q 1759 972 1856 886 
Q 1953 800 2241 800 
L 2816 800 
L 2816 0 
L 1856 0 
Q 1194 0 917 276 
Q 641 553 641 1216 
L 641 2700 
L 84 2700 
L 84 3500 
L 641 3500 
L 641 4494 
L 1759 4494 
z
" transform="scale(0.015625)"/>
       <path id="DejaVuSans-Bold-61" d="M 2106 1575 
Q 1756 1575 1579 1456 
Q 1403 1338 1403 1106 
Q 1403 894 1545 773 
Q 1688 653 1941 653 
Q 2256 653 2472 879 
Q 2688 1106 2688 1447 
L 2688 1575 
L 2106 1575 
z
M 3816 1997 
L 3816 0 
L 2688 0 
L 2688 519 
Q 2463 200 2181 54 
Q 1900 -91 1497 -91 
Q 953 -91 614 226 
Q 275 544 275 1050 
Q 275 1666 698 1953 
Q 1122 2241 2028 2241 
L 2688 2241 
L 2688 2328 
Q 2688 2594 2478 2717 
Q 2269 2841 1825 2841 
Q 1466 2841 1156 2769 
Q 847 2697 581 2553 
L 581 3406 
Q 941 3494 1303 3539 
Q 1666 3584 2028 3584 
Q 2975 3584 3395 3211 
Q 3816 2838 3816 1997 
z
" transform="scale(0.015625)"/>
       <path id="DejaVuSans-Bold-6e" d="M 4056 2131 
L 4056 0 
L 2931 0 
L 2931 347 
L 2931 1631 
Q 2931 2084 2911 2256 
Q 2891 2428 2841 2509 
Q 2775 2619 2662 2680 
Q 2550 2741 2406 2741 
Q 2056 2741 1856 2470 
Q 1656 2200 1656 1722 
L 1656 0 
L 538 0 
L 538 3500 
L 1656 3500 
L 1656 2988 
Q 1909 3294 2193 3439 
Q 2478 3584 2822 3584 
Q 3428 3584 3742 3212 
Q 4056 2841 4056 2131 
z
" transform="scale(0.015625)"/>
       <path id="DejaVuSans-Bold-63" d="M 3366 3391 
L 3366 2478 
Q 3138 2634 2908 2709 
Q 2678 2784 2431 2784 
Q 1963 2784 1702 2511 
Q 1441 2238 1441 1747 
Q 1441 1256 1702 982 
Q 1963 709 2431 709 
Q 2694 709 2930 787 
Q 3166 866 3366 1019 
L 3366 103 
Q 3103 6 2833 -42 
Q 2563 -91 2291 -91 
Q 1344 -91 809 395 
Q 275 881 275 1747 
Q 275 2613 809 3098 
Q 1344 3584 2291 3584 
Q 2566 3584 2833 3536 
Q 3100 3488 3366 3391 
z
" transform="scale(0.015625)"/>
       <path id="DejaVuSans-Bold-65" d="M 4031 1759 
L 4031 1441 
L 1416 1441 
Q 1456 1047 1700 850 
Q 1944 653 2381 653 
Q 2734 653 3104 758 
Q 3475 863 3866 1075 
L 3866 213 
Q 3469 63 3072 -14 
Q 2675 -91 2278 -91 
Q 1328 -91 801 392 
Q 275 875 275 1747 
Q 275 2603 792 3093 
Q 1309 3584 2216 3584 
Q 3041 3584 3536 3087 
Q 4031 2591 4031 1759 
z
M 2881 2131 
Q 2881 2450 2695 2645 
Q 2509 2841 2209 2841 
Q 1884 2841 1681 2658 
Q 1478 2475 1428 2131 
L 2881 2131 
z
" transform="scale(0.015625)"/>
       <path id="DejaVuSans-Bold-20" transform="scale(0.015625)"/>
       <path id="DejaVuSans-Bold-66" d="M 2841 4863 
L 2841 4128 
L 2222 4128 
Q 1984 4128 1890 4042 
Q 1797 3956 1797 3744 
L 1797 3500 
L 2753 3500 
L 2753 2700 
L 1797 2700 
L 1797 0 
L 678 0 
L 678 2700 
L 122 2700 
L 122 3500 
L 678 3500 
L 678 3744 
Q 678 4316 997 4589 
Q 1316 4863 1984 4863 
L 2841 4863 
z
" transform="scale(0.015625)"/>
       <path id="DejaVuSans-Bold-72" d="M 3138 2547 
Q 2991 2616 2845 2648 
Q 2700 2681 2553 2681 
Q 2122 2681 1889 2404 
Q 1656 2128 1656 1613 
L 1656 0 
L 538 0 
L 538 3500 
L 1656 3500 
L 1656 2925 
Q 1872 3269 2151 3426 
Q 2431 3584 2822 3584 
Q 2878 3584 2943 3579 
Q 3009 3575 3134 3559 
L 3138 2547 
z
" transform="scale(0.015625)"/>
       <path id="DejaVuSans-Bold-6f" d="M 2203 2784 
Q 1831 2784 1636 2517 
Q 1441 2250 1441 1747 
Q 1441 1244 1636 976 
Q 1831 709 2203 709 
Q 2569 709 2762 976 
Q 2956 1244 2956 1747 
Q 2956 2250 2762 2517 
Q 2569 2784 2203 2784 
z
M 2203 3584 
Q 3106 3584 3614 3096 
Q 4122 2609 4122 1747 
Q 4122 884 3614 396 
Q 3106 -91 2203 -91 
Q 1297 -91 786 396 
Q 275 884 275 1747 
Q 275 2609 786 3096 
Q 1297 3584 2203 3584 
z
" transform="scale(0.015625)"/>
       <path id="DejaVuSans-Bold-6d" d="M 3781 2919 
Q 3994 3244 4286 3414 
Q 4578 3584 4928 3584 
Q 5531 3584 5847 3212 
Q 6163 2841 6163 2131 
L 6163 0 
L 5038 0 
L 5038 1825 
Q 5041 1866 5042 1909 
Q 5044 1953 5044 2034 
Q 5044 2406 4934 2573 
Q 4825 2741 4581 2741 
Q 4263 2741 4089 2478 
Q 3916 2216 3909 1719 
L 3909 0 
L 2784 0 
L 2784 1825 
Q 2784 2406 2684 2573 
Q 2584 2741 2328 2741 
Q 2006 2741 1831 2477 
Q 1656 2213 1656 1722 
L 1656 0 
L 531 0 
L 531 3500 
L 1656 3500 
L 1656 2988 
Q 1863 3284 2130 3434 
Q 2397 3584 2719 3584 
Q 3081 3584 3359 3409 
Q 3638 3234 3781 2919 
z
" transform="scale(0.015625)"/>
       <path id="DejaVuSans-Bold-53" d="M 3834 4519 
L 3834 3531 
Q 3450 3703 3084 3790 
Q 2719 3878 2394 3878 
Q 1963 3878 1756 3759 
Q 1550 3641 1550 3391 
Q 1550 3203 1689 3098 
Q 1828 2994 2194 2919 
L 2706 2816 
Q 3484 2659 3812 2340 
Q 4141 2022 4141 1434 
Q 4141 663 3683 286 
Q 3225 -91 2284 -91 
Q 1841 -91 1394 -6 
Q 947 78 500 244 
L 500 1259 
Q 947 1022 1364 901 
Q 1781 781 2169 781 
Q 2563 781 2772 912 
Q 2981 1044 2981 1288 
Q 2981 1506 2839 1625 
Q 2697 1744 2272 1838 
L 1806 1941 
Q 1106 2091 782 2419 
Q 459 2747 459 3303 
Q 459 4000 909 4375 
Q 1359 4750 2203 4750 
Q 2588 4750 2994 4692 
Q 3400 4634 3834 4519 
z
" transform="scale(0.015625)"/>
       <path id="DejaVuSans-Bold-75" d="M 500 1363 
L 500 3500 
L 1625 3500 
L 1625 3150 
Q 1625 2866 1622 2436 
Q 1619 2006 1619 1863 
Q 1619 1441 1641 1255 
Q 1663 1069 1716 984 
Q 1784 875 1895 815 
Q 2006 756 2150 756 
Q 2500 756 2700 1025 
Q 2900 1294 2900 1772 
L 2900 3500 
L 4019 3500 
L 4019 0 
L 2900 0 
L 2900 506 
Q 2647 200 2364 54 
Q 2081 -91 1741 -91 
Q 1134 -91 817 281 
Q 500 653 500 1363 
z
" transform="scale(0.015625)"/>
       <path id="DejaVuSans-Bold-70" d="M 1656 506 
L 1656 -1331 
L 538 -1331 
L 538 3500 
L 1656 3500 
L 1656 2988 
Q 1888 3294 2169 3439 
Q 2450 3584 2816 3584 
Q 3463 3584 3878 3070 
Q 4294 2556 4294 1747 
Q 4294 938 3878 423 
Q 3463 -91 2816 -91 
Q 2450 -91 2169 54 
Q 1888 200 1656 506 
z
M 2400 2772 
Q 2041 2772 1848 2508 
Q 1656 2244 1656 1747 
Q 1656 1250 1848 986 
Q 2041 722 2400 722 
Q 2759 722 2948 984 
Q 3138 1247 3138 1747 
Q 3138 2247 2948 2509 
Q 2759 2772 2400 2772 
z
" transform="scale(0.015625)"/>
       <path id="DejaVuSans-Bold-41" d="M 3419 850 
L 1538 850 
L 1241 0 
L 31 0 
L 1759 4666 
L 3194 4666 
L 4922 0 
L 3713 0 
L 3419 850 
z
M 1838 1716 
L 3116 1716 
L 2478 3572 
L 1838 1716 
z
" transform="scale(0.015625)"/>
       <path id="DejaVuSans-Bold-28" d="M 2413 -844 
L 1484 -844 
Q 1006 -72 778 623 
Q 550 1319 550 2003 
Q 550 2688 779 3389 
Q 1009 4091 1484 4856 
L 2413 4856 
Q 2013 4116 1813 3408 
Q 1613 2700 1613 2009 
Q 1613 1319 1811 609 
Q 2009 -100 2413 -844 
z
" transform="scale(0.015625)"/>
       <path id="DejaVuSans-Bold-29" d="M 513 -844 
Q 913 -100 1113 609 
Q 1313 1319 1313 2009 
Q 1313 2700 1113 3408 
Q 913 4116 513 4856 
L 1441 4856 
Q 1916 4091 2145 3389 
Q 2375 2688 2375 2003 
Q 2375 1319 2147 623 
Q 1919 -72 1441 -844 
L 513 -844 
z
" transform="scale(0.015625)"/>
      </defs>
      <use xlink:href="#DejaVuSans-Bold-44"/>
      <use xlink:href="#DejaVuSans-Bold-69" x="83.007812"/>
      <use xlink:href="#DejaVuSans-Bold-73" x="117.285156"/>
      <use xlink:href="#DejaVuSans-Bold-74" x="176.806641"/>
      <use xlink:href="#DejaVuSans-Bold-61" x="224.609375"/>
      <use xlink:href="#DejaVuSans-Bold-6e" x="292.089844"/>
      <use xlink:href="#DejaVuSans-Bold-63" x="363.28125"/>
      <use xlink:href="#DejaVuSans-Bold-65" x="422.558594"/>
      <use xlink:href="#DejaVuSans-Bold-20" x="490.380859"/>
      <use xlink:href="#DejaVuSans-Bold-66" x="525.195312"/>
      <use xlink:href="#DejaVuSans-Bold-72" x="568.701172"/>
      <use xlink:href="#DejaVuSans-Bold-6f" x="618.017578"/>
      <use xlink:href="#DejaVuSans-Bold-6d" x="686.71875"/>
      <use xlink:href="#DejaVuSans-Bold-20" x="790.917969"/>
      <use xlink:href="#DejaVuSans-Bold-53" x="825.732422"/>
      <use xlink:href="#DejaVuSans-Bold-75" x="897.753906"/>
      <use xlink:href="#DejaVuSans-Bold-70" x="968.945312"/>
      <use xlink:href="#DejaVuSans-Bold-70" x="1040.527344"/>
      <use xlink:href="#DejaVuSans-Bold-6f" x="1112.109375"/>
      <use xlink:href="#DejaVuSans-Bold-72" x="1180.810547"/>
      <use xlink:href="#DejaVuSans-Bold-74" x="1230.126953"/>
      <use xlink:href="#DejaVuSans-Bold-20" x="1277.929688"/>
      <use xlink:href="#DejaVuSans-Bold-41" x="1312.744141"/>
      <use xlink:href="#DejaVuSans-Bold-20" x="1390.136719"/>
      <use xlink:href="#DejaVuSans-Bold-28" x="1424.951172"/>
      <use xlink:href="#DejaVuSans-Bold-6d" x="1470.654297"/>
      <use xlink:href="#DejaVuSans-Bold-29" x="1574.853516"/>
     </g>
    </g>
   </g>
   <g id="matplotlib.axis_2">
    <g id="ytick_1">
     <g id="line2d_19">
      <path d="M 113.298438 535.168955 
L 1034.898438 535.168955 
" clip-path="url(#pf667c651c0)" style="fill: none; stroke: #9ea388; stroke-opacity: 0.3; stroke-width: 2; stroke-linecap: square"/>
     </g>
     <g id="line2d_20">
      <defs>
       <path id="ma42d1d878b" d="M 0 0 
L -10 0 
" style="stroke: #405ab9; stroke-width: 4"/>
      </defs>
      <g>
       <use xlink:href="#ma42d1d878b" x="113.298438" y="535.168955" style="fill: #405ab9; stroke: #405ab9; stroke-width: 4"/>
      </g>
     </g>
     <g id="text_11">
      <!-- −4 -->
      <g style="fill: #405ab9" transform="translate(61.46875 545.046924)scale(0.26 -0.26)">
       <defs>
        <path id="DejaVuSans-2212" d="M 678 2272 
L 4684 2272 
L 4684 1741 
L 678 1741 
L 678 2272 
z
" transform="scale(0.015625)"/>
       </defs>
       <use xlink:href="#DejaVuSans-2212"/>
       <use xlink:href="#DejaVuSans-34" x="83.789062"/>
      </g>
     </g>
    </g>
    <g id="ytick_2">
     <g id="line2d_21">
      <path d="M 113.298438 415.879014 
L 1034.898438 415.879014 
" clip-path="url(#pf667c651c0)" style="fill: none; stroke: #9ea388; stroke-opacity: 0.3; stroke-width: 2; stroke-linecap: square"/>
     </g>
     <g id="line2d_22">
      <g>
       <use xlink:href="#ma42d1d878b" x="113.298438" y="415.879014" style="fill: #405ab9; stroke: #405ab9; stroke-width: 4"/>
      </g>
     </g>
     <g id="text_12">
      <!-- −2 -->
      <g style="fill: #405ab9" transform="translate(61.46875 425.756983)scale(0.26 -0.26)">
       <use xlink:href="#DejaVuSans-2212"/>
       <use xlink:href="#DejaVuSans-32" x="83.789062"/>
      </g>
     </g>
    </g>
    <g id="ytick_3">
     <g id="line2d_23">
      <path d="M 113.298438 296.589074 
L 1034.898438 296.589074 
" clip-path="url(#pf667c651c0)" style="fill: none; stroke: #9ea388; stroke-opacity: 0.3; stroke-width: 2; stroke-linecap: square"/>
     </g>
     <g id="line2d_24">
      <g>
       <use xlink:href="#ma42d1d878b" x="113.298438" y="296.589074" style="fill: #405ab9; stroke: #405ab9; stroke-width: 4"/>
      </g>
     </g>
     <g id="text_13">
      <!-- 0 -->
      <g style="fill: #405ab9" transform="translate(83.255938 306.467042)scale(0.26 -0.26)">
       <use xlink:href="#DejaVuSans-30"/>
      </g>
     </g>
    </g>
    <g id="ytick_4">
     <g id="line2d_25">
      <path d="M 113.298438 177.299133 
L 1034.898438 177.299133 
" clip-path="url(#pf667c651c0)" style="fill: none; stroke: #9ea388; stroke-opacity: 0.3; stroke-width: 2; stroke-linecap: square"/>
     </g>
     <g id="line2d_26">
      <g>
       <use xlink:href="#ma42d1d878b" x="113.298438" y="177.299133" style="fill: #405ab9; stroke: #405ab9; stroke-width: 4"/>
      </g>
     </g>
     <g id="text_14">
      <!-- 2 -->
      <g style="fill: #405ab9" transform="translate(83.255938 187.177102)scale(0.26 -0.26)">
       <use xlink:href="#DejaVuSans-32"/>
      </g>
     </g>
    </g>
    <g id="ytick_5">
     <g id="line2d_27">
      <path d="M 113.298438 58.009192 
L 1034.898438 58.009192 
" clip-path="url(#pf667c651c0)" style="fill: none; stroke: #9ea388; stroke-opacity: 0.3; stroke-width: 2; stroke-linecap: square"/>
     </g>
     <g id="line2d_28">
      <g>
       <use xlink:href="#ma42d1d878b" x="113.298438" y="58.009192" style="fill: #405ab9; stroke: #405ab9; stroke-width: 4"/>
      </g>
     </g>
     <g id="text_15">
      <!-- 4 -->
      <g style="fill: #405ab9" transform="translate(83.255938 67.887161)scale(0.26 -0.26)">
       <use xlink:href="#DejaVuSans-34"/>
      </g>
     </g>
    </g>
    <g id="text_16">
     <!-- Bending Moment (kNm) -->
     <g style="fill: #405ab9" transform="translate(29.995313 519.733281)rotate(-90)scale(0.3 -0.3)">
      <defs>
       <path id="DejaVuSans-Bold-42" d="M 2456 2859 
Q 2741 2859 2887 2984 
Q 3034 3109 3034 3353 
Q 3034 3594 2887 3720 
Q 2741 3847 2456 3847 
L 1791 3847 
L 1791 2859 
L 2456 2859 
z
M 2497 819 
Q 2859 819 3042 972 
Q 3225 1125 3225 1434 
Q 3225 1738 3044 1889 
Q 2863 2041 2497 2041 
L 1791 2041 
L 1791 819 
L 2497 819 
z
M 3616 2497 
Q 4003 2384 4215 2081 
Q 4428 1778 4428 1338 
Q 4428 663 3972 331 
Q 3516 0 2584 0 
L 588 0 
L 588 4666 
L 2394 4666 
Q 3366 4666 3802 4372 
Q 4238 4078 4238 3431 
Q 4238 3091 4078 2852 
Q 3919 2613 3616 2497 
z
" transform="scale(0.015625)"/>
       <path id="DejaVuSans-Bold-64" d="M 2919 2988 
L 2919 4863 
L 4044 4863 
L 4044 0 
L 2919 0 
L 2919 506 
Q 2688 197 2409 53 
Q 2131 -91 1766 -91 
Q 1119 -91 703 423 
Q 288 938 288 1747 
Q 288 2556 703 3070 
Q 1119 3584 1766 3584 
Q 2128 3584 2408 3439 
Q 2688 3294 2919 2988 
z
M 2181 722 
Q 2541 722 2730 984 
Q 2919 1247 2919 1747 
Q 2919 2247 2730 2509 
Q 2541 2772 2181 2772 
Q 1825 2772 1636 2509 
Q 1447 2247 1447 1747 
Q 1447 1247 1636 984 
Q 1825 722 2181 722 
z
" transform="scale(0.015625)"/>
       <path id="DejaVuSans-Bold-67" d="M 2919 594 
Q 2688 288 2409 144 
Q 2131 0 1766 0 
Q 1125 0 706 504 
Q 288 1009 288 1791 
Q 288 2575 706 3076 
Q 1125 3578 1766 3578 
Q 2131 3578 2409 3434 
Q 2688 3291 2919 2981 
L 2919 3500 
L 4044 3500 
L 4044 353 
Q 4044 -491 3511 -936 
Q 2978 -1381 1966 -1381 
Q 1638 -1381 1331 -1331 
Q 1025 -1281 716 -1178 
L 716 -306 
Q 1009 -475 1290 -558 
Q 1572 -641 1856 -641 
Q 2406 -641 2662 -400 
Q 2919 -159 2919 353 
L 2919 594 
z
M 2181 2772 
Q 1834 2772 1640 2515 
Q 1447 2259 1447 1791 
Q 1447 1309 1634 1061 
Q 1822 813 2181 813 
Q 2531 813 2725 1069 
Q 2919 1325 2919 1791 
Q 2919 2259 2725 2515 
Q 2531 2772 2181 2772 
z
" transform="scale(0.015625)"/>
       <path id="DejaVuSans-Bold-4d" d="M 588 4666 
L 2119 4666 
L 3181 2169 
L 4250 4666 
L 5778 4666 
L 5778 0 
L 4641 0 
L 4641 3413 
L 3566 897 
L 2803 897 
L 1728 3413 
L 1728 0 
L 588 0 
L 588 4666 
z
" transform="scale(0.015625)"/>
       <path id="DejaVuSans-Bold-6b" d="M 538 4863 
L 1656 4863 
L 1656 2216 
L 2944 3500 
L 4244 3500 
L 2534 1894 
L 4378 0 
L 3022 0 
L 1656 1459 
L 1656 0 
L 538 0 
L 538 4863 
z
" transform="scale(0.015625)"/>
       <path id="DejaVuSans-Bold-4e" d="M 588 4666 
L 1931 4666 
L 3628 1466 
L 3628 4666 
L 4769 4666 
L 4769 0 
L 3425 0 
L 1728 3200 
L 1728 0 
L 588 0 
L 588 4666 
z
" transform="scale(0.015625)"/>
      </defs>
      <use xlink:href="#DejaVuSans-Bold-42"/>
      <use xlink:href="#DejaVuSans-Bold-65" x="76.220703"/>
      <use xlink:href="#DejaVuSans-Bold-6e" x="144.042969"/>
      <use xlink:href="#DejaVuSans-Bold-64" x="215.234375"/>
      <use xlink:href="#DejaVuSans-Bold-69" x="286.816406"/>
      <use xlink:href="#DejaVuSans-Bold-6e" x="321.09375"/>
      <use xlink:href="#DejaVuSans-Bold-67" x="392.285156"/>
      <use xlink:href="#DejaVuSans-Bold-20" x="463.867188"/>
      <use xlink:href="#DejaVuSans-Bold-4d" x="498.681641"/>
      <use xlink:href="#DejaVuSans-Bold-6f" x="598.193359"/>
      <use xlink:href="#DejaVuSans-Bold-6d" x="666.894531"/>
      <use xlink:href="#DejaVuSans-Bold-65" x="771.09375"/>
      <use xlink:href="#DejaVuSans-Bold-6e" x="838.916016"/>
      <use xlink:href="#DejaVuSans-Bold-74" x="910.107422"/>
      <use xlink:href="#DejaVuSans-Bold-20" x="957.910156"/>
      <use xlink:href="#DejaVuSans-Bold-28" x="992.724609"/>
      <use xlink:href="#DejaVuSans-Bold-6b" x="1038.427734"/>
      <use xlink:href="#DejaVuSans-Bold-4e" x="1104.931641"/>
      <use xlink:href="#DejaVuSans-Bold-6d" x="1188.623047"/>
      <use xlink:href="#DejaVuSans-Bold-29" x="1292.822266"/>
     </g>
    </g>
   </g>
   <g id="line2d_29">
    <path d="M 155.189347 296.589074 
L 171.97929 281.602037 
L 188.769234 266.921609 
L 205.559177 252.547788 
L 222.349121 238.480574 
L 239.139064 224.719967 
L 255.929008 211.265969 
L 272.718951 198.118577 
L 289.508895 185.277793 
L 306.298838 172.743617 
L 323.088782 160.516048 
L 338.199731 149.773385 
L 353.31068 139.279074 
L 368.421629 129.033115 
L 383.532579 119.035509 
L 398.643528 109.286254 
L 413.754477 99.785352 
L 428.865426 90.532801 
L 443.976375 81.528602 
L 459.087324 72.772756 
L 469.16129 67.073498 
L 470.840285 69.062814 
L 489.309223 95.749511 
L 507.778161 122.807204 
L 526.247098 150.235891 
L 544.716036 178.035574 
L 563.184974 206.206251 
L 583.332906 237.361017 
L 603.480839 268.957299 
L 623.628771 300.995095 
L 643.776703 333.474405 
L 663.924635 366.395231 
L 684.072568 399.757571 
L 704.2205 433.561425 
L 724.368432 467.806795 
L 744.516364 502.493679 
L 764.664296 537.622078 
L 783.133234 570.210969 
L 784.812229 569.163865 
L 803.281167 543.078278 
L 821.750104 517.363686 
L 840.219042 492.020089 
L 858.68798 467.047486 
L 877.156918 442.445879 
L 895.625856 418.215267 
L 914.094794 394.35565 
L 932.563732 370.867028 
L 951.03267 347.749401 
L 969.501607 325.002769 
L 987.970545 302.627132 
L 993.007528 296.589074 
L 993.007528 296.589074 
" clip-path="url(#pf667c651c0)" style="fill: none; stroke: #405ab9; stroke-width: 4; stroke-linecap: square"/>
   </g>
   <g id="line2d_30">
    <path d="M 469.371165 596.155937 
L 469.371165 41.755938 
" clip-path="url(#pf667c651c0)" style="fill: none; stroke-dasharray: 11.1,4.8; stroke-dashoffset: 0; stroke: #ff8c36; stroke-opacity: 0.7; stroke-width: 3"/>
   </g>
   <g id="line2d_31">
    <path d="M 993.007528 596.155937 
L 993.007528 41.755938 
" clip-path="url(#pf667c651c0)" style="fill: none; stroke-dasharray: 11.1,4.8; stroke-dashoffset: 0; stroke: #ff8c36; stroke-opacity: 0.7; stroke-width: 3"/>
   </g>
   <g id="line2d_32">
    <path d="M 113.298438 296.589074 
L 1034.898438 296.589074 
" clip-path="url(#pf667c651c0)" style="fill: none; stroke: #405ab9; stroke-opacity: 0.8; stroke-width: 4; stroke-linecap: square"/>
   </g>
   <g id="line2d_33">
    <path d="M 155.189347 596.155937 
L 155.189347 41.755938 
" clip-path="url(#pf667c651c0)" style="fill: none; stroke-dasharray: 14.8,6.4; stroke-dashoffset: 0; stroke: #ff8c36; stroke-opacity: 0.4; stroke-width: 4"/>
   </g>
   <g id="line2d_34">
    <path d="M 783.552983 596.155937 
L 783.552983 41.755938 
" clip-path="url(#pf667c651c0)" style="fill: none; stroke-dasharray: 14.8,6.4; stroke-dashoffset: 0; stroke: #ff8c36; stroke-opacity: 0.4; stroke-width: 4"/>
   </g>
   <g id="patch_3">
    <path d="M 113.298438 596.155937 
L 113.298438 41.755938 
" style="fill: none; stroke: #405ab9; stroke-width: 4; stroke-linejoin: miter; stroke-linecap: square"/>
   </g>
   <g id="patch_4">
    <path d="M 113.298438 596.155937 
L 1034.898438 596.155937 
" style="fill: none; stroke: #405ab9; stroke-width: 4; stroke-linejoin: miter; stroke-linecap: square"/>
   </g>
   <g id="patch_5">
    <path d="M 179.27511 265.579729 
Q 167.845251 280.295162 157.787047 293.24465 
" style="fill: none; stroke: #405ab9; stroke-width: 2; stroke-linecap: round"/>
    <path d="M 168.273369 288.221001 
L 157.787047 293.24465 
L 160.059922 281.841403 
" style="fill: none; stroke: #405ab9; stroke-width: 2; stroke-linecap: round"/>
   </g>
   <g id="text_17">
    <!-- 0 kNm -->
    <g style="fill: #405ab9" transform="translate(145.189347 256.589074)scale(0.26 -0.26)">
     <defs>
      <path id="DejaVuSans-Bold-30" d="M 2944 2338 
Q 2944 3213 2780 3570 
Q 2616 3928 2228 3928 
Q 1841 3928 1675 3570 
Q 1509 3213 1509 2338 
Q 1509 1453 1675 1090 
Q 1841 728 2228 728 
Q 2613 728 2778 1090 
Q 2944 1453 2944 2338 
z
M 4147 2328 
Q 4147 1169 3647 539 
Q 3147 -91 2228 -91 
Q 1306 -91 806 539 
Q 306 1169 306 2328 
Q 306 3491 806 4120 
Q 1306 4750 2228 4750 
Q 3147 4750 3647 4120 
Q 4147 3491 4147 2328 
z
" transform="scale(0.015625)"/>
     </defs>
     <use xlink:href="#DejaVuSans-Bold-30"/>
     <use xlink:href="#DejaVuSans-Bold-20" x="69.580078"/>
     <use xlink:href="#DejaVuSans-Bold-6b" x="104.394531"/>
     <use xlink:href="#DejaVuSans-Bold-4e" x="170.898438"/>
     <use xlink:href="#DejaVuSans-Bold-6d" x="254.589844"/>
    </g>
   </g>
   <g id="patch_6">
    <path d="M 509.026977 35.604453 
Q 489.98449 50.659251 472.696102 64.327276 
" style="fill: none; stroke: #405ab9; stroke-width: 2; stroke-linecap: round"/>
    <path d="M 484.079407 61.956542 
L 472.696102 64.327276 
L 477.629498 53.798192 
" style="fill: none; stroke: #405ab9; stroke-width: 2; stroke-linecap: round"/>
   </g>
   <g id="text_18">
    <!-- 3.85 kNm -->
    <g style="fill: #405ab9" transform="translate(459.371165 26.955938)scale(0.26 -0.26)">
     <defs>
      <path id="DejaVuSans-Bold-33" d="M 2981 2516 
Q 3453 2394 3698 2092 
Q 3944 1791 3944 1325 
Q 3944 631 3412 270 
Q 2881 -91 1863 -91 
Q 1503 -91 1142 -33 
Q 781 25 428 141 
L 428 1069 
Q 766 900 1098 814 
Q 1431 728 1753 728 
Q 2231 728 2486 893 
Q 2741 1059 2741 1369 
Q 2741 1688 2480 1852 
Q 2219 2016 1709 2016 
L 1228 2016 
L 1228 2791 
L 1734 2791 
Q 2188 2791 2409 2933 
Q 2631 3075 2631 3366 
Q 2631 3634 2415 3781 
Q 2200 3928 1806 3928 
Q 1516 3928 1219 3862 
Q 922 3797 628 3669 
L 628 4550 
Q 984 4650 1334 4700 
Q 1684 4750 2022 4750 
Q 2931 4750 3382 4451 
Q 3834 4153 3834 3553 
Q 3834 3144 3618 2883 
Q 3403 2622 2981 2516 
z
" transform="scale(0.015625)"/>
      <path id="DejaVuSans-Bold-2e" d="M 653 1209 
L 1778 1209 
L 1778 0 
L 653 0 
L 653 1209 
z
" transform="scale(0.015625)"/>
      <path id="DejaVuSans-Bold-38" d="M 2228 2088 
Q 1891 2088 1709 1903 
Q 1528 1719 1528 1375 
Q 1528 1031 1709 848 
Q 1891 666 2228 666 
Q 2563 666 2741 848 
Q 2919 1031 2919 1375 
Q 2919 1722 2741 1905 
Q 2563 2088 2228 2088 
z
M 1350 2484 
Q 925 2613 709 2878 
Q 494 3144 494 3541 
Q 494 4131 934 4440 
Q 1375 4750 2228 4750 
Q 3075 4750 3515 4442 
Q 3956 4134 3956 3541 
Q 3956 3144 3739 2878 
Q 3522 2613 3097 2484 
Q 3572 2353 3814 2058 
Q 4056 1763 4056 1313 
Q 4056 619 3595 264 
Q 3134 -91 2228 -91 
Q 1319 -91 855 264 
Q 391 619 391 1313 
Q 391 1763 633 2058 
Q 875 2353 1350 2484 
z
M 1631 3419 
Q 1631 3141 1786 2991 
Q 1941 2841 2228 2841 
Q 2509 2841 2662 2991 
Q 2816 3141 2816 3419 
Q 2816 3697 2662 3845 
Q 2509 3994 2228 3994 
Q 1941 3994 1786 3844 
Q 1631 3694 1631 3419 
z
" transform="scale(0.015625)"/>
      <path id="DejaVuSans-Bold-35" d="M 678 4666 
L 3669 4666 
L 3669 3781 
L 1638 3781 
L 1638 3059 
Q 1775 3097 1914 3117 
Q 2053 3138 2203 3138 
Q 3056 3138 3531 2711 
Q 4006 2284 4006 1522 
Q 4006 766 3489 337 
Q 2972 -91 2053 -91 
Q 1656 -91 1267 -14 
Q 878 63 494 219 
L 494 1166 
Q 875 947 1217 837 
Q 1559 728 1863 728 
Q 2300 728 2551 942 
Q 2803 1156 2803 1522 
Q 2803 1891 2551 2103 
Q 2300 2316 1863 2316 
Q 1603 2316 1309 2248 
Q 1016 2181 678 2041 
L 678 4666 
z
" transform="scale(0.015625)"/>
     </defs>
     <use xlink:href="#DejaVuSans-Bold-33"/>
     <use xlink:href="#DejaVuSans-Bold-2e" x="69.580078"/>
     <use xlink:href="#DejaVuSans-Bold-38" x="107.568359"/>
     <use xlink:href="#DejaVuSans-Bold-35" x="177.148438"/>
     <use xlink:href="#DejaVuSans-Bold-20" x="246.728516"/>
     <use xlink:href="#DejaVuSans-Bold-6b" x="281.542969"/>
     <use xlink:href="#DejaVuSans-Bold-4e" x="348.046875"/>
     <use xlink:href="#DejaVuSans-Bold-6d" x="431.738281"/>
    </g>
   </g>
   <g id="patch_7">
    <path d="M 861.198762 539.12266 
Q 823.301186 554.659938 787.47255 569.34899 
" style="fill: none; stroke: #405ab9; stroke-width: 2; stroke-linecap: round"/>
    <path d="M 799.067793 570.215217 
L 787.47255 569.34899 
L 795.122677 560.592532 
" style="fill: none; stroke: #405ab9; stroke-width: 2; stroke-linecap: round"/>
   </g>
   <g id="text_19">
    <!-- -4.60 kNm -->
    <g style="fill: #405ab9" transform="translate(823.552983 530.955937)scale(0.26 -0.26)">
     <defs>
      <path id="DejaVuSans-Bold-2d" d="M 347 2297 
L 2309 2297 
L 2309 1388 
L 347 1388 
L 347 2297 
z
" transform="scale(0.015625)"/>
      <path id="DejaVuSans-Bold-34" d="M 2356 3675 
L 1038 1722 
L 2356 1722 
L 2356 3675 
z
M 2156 4666 
L 3494 4666 
L 3494 1722 
L 4159 1722 
L 4159 850 
L 3494 850 
L 3494 0 
L 2356 0 
L 2356 850 
L 288 850 
L 288 1881 
L 2156 4666 
z
" transform="scale(0.015625)"/>
      <path id="DejaVuSans-Bold-36" d="M 2316 2303 
Q 2000 2303 1842 2098 
Q 1684 1894 1684 1484 
Q 1684 1075 1842 870 
Q 2000 666 2316 666 
Q 2634 666 2792 870 
Q 2950 1075 2950 1484 
Q 2950 1894 2792 2098 
Q 2634 2303 2316 2303 
z
M 3803 4544 
L 3803 3681 
Q 3506 3822 3243 3889 
Q 2981 3956 2731 3956 
Q 2194 3956 1894 3657 
Q 1594 3359 1544 2772 
Q 1750 2925 1990 3001 
Q 2231 3078 2516 3078 
Q 3231 3078 3670 2659 
Q 4109 2241 4109 1563 
Q 4109 813 3618 361 
Q 3128 -91 2303 -91 
Q 1394 -91 895 523 
Q 397 1138 397 2266 
Q 397 3422 980 4083 
Q 1563 4744 2578 4744 
Q 2900 4744 3203 4694 
Q 3506 4644 3803 4544 
z
" transform="scale(0.015625)"/>
     </defs>
     <use xlink:href="#DejaVuSans-Bold-2d"/>
     <use xlink:href="#DejaVuSans-Bold-34" x="41.503906"/>
     <use xlink:href="#DejaVuSans-Bold-2e" x="111.083984"/>
     <use xlink:href="#DejaVuSans-Bold-36" x="149.072266"/>
     <use xlink:href="#DejaVuSans-Bold-30" x="218.652344"/>
     <use xlink:href="#DejaVuSans-Bold-20" x="288.232422"/>
     <use xlink:href="#DejaVuSans-Bold-6b" x="323.046875"/>
     <use xlink:href="#DejaVuSans-Bold-4e" x="389.550781"/>
     <use xlink:href="#DejaVuSans-Bold-6d" x="473.242188"/>
    </g>
   </g>
   <g id="patch_8">
    <path d="M 1051.109745 264.953728 
Q 1022.93634 280.293511 996.726776 294.564027 
" style="fill: none; stroke: #405ab9; stroke-width: 2; stroke-linecap: round"/>
    <path d="M 1008.347231 294.157776 
L 996.726776 294.564027 
L 1003.374048 285.023913 
" style="fill: none; stroke: #405ab9; stroke-width: 2; stroke-linecap: round"/>
   </g>
   <g id="text_20">
    <!-- 0 kNm -->
    <g style="fill: #405ab9" transform="translate(1033.007528 256.589074)scale(0.26 -0.26)">
     <use xlink:href="#DejaVuSans-Bold-30"/>
     <use xlink:href="#DejaVuSans-Bold-20" x="69.580078"/>
     <use xlink:href="#DejaVuSans-Bold-6b" x="104.394531"/>
     <use xlink:href="#DejaVuSans-Bold-4e" x="170.898438"/>
     <use xlink:href="#DejaVuSans-Bold-6d" x="254.589844"/>
    </g>
   </g>
   <g id="line2d_35">
    <defs>
     <path id="md64f50fb80" d="M 0 9 
C 2.386828 9 4.676219 8.051703 6.363961 6.363961 
C 8.051703 4.676219 9 2.386828 9 0 
C 9 -2.386828 8.051703 -4.676219 6.363961 -6.363961 
C 4.676219 -8.051703 2.386828 -9 0 -9 
C -2.386828 -9 -4.676219 -8.051703 -6.363961 -6.363961 
C -8.051703 -4.676219 -9 -2.386828 -9 0 
C -9 2.386828 -8.051703 4.676219 -6.363961 6.363961 
C -4.676219 8.051703 -2.386828 9 0 9 
z
" style="stroke: #405ab9; stroke-width: 5"/>
    </defs>
    <g clip-path="url(#pf667c651c0)">
     <use xlink:href="#md64f50fb80" x="155.189347" y="296.589074" style="fill: #ff8c36; stroke: #405ab9; stroke-width: 5"/>
    </g>
   </g>
   <g id="line2d_36">
    <g clip-path="url(#pf667c651c0)">
     <use xlink:href="#md64f50fb80" x="469.371165" y="66.955938" style="fill: #ff8c36; stroke: #405ab9; stroke-width: 5"/>
    </g>
   </g>
   <g id="line2d_37">
    <g clip-path="url(#pf667c651c0)">
     <use xlink:href="#md64f50fb80" x="783.552983" y="570.955937" style="fill: #ff8c36; stroke: #405ab9; stroke-width: 5"/>
    </g>
   </g>
   <g id="line2d_38">
    <g clip-path="url(#pf667c651c0)">
     <use xlink:href="#md64f50fb80" x="993.007528" y="296.589074" style="fill: #ff8c36; stroke: #405ab9; stroke-width: 5"/>
    </g>
   </g>
  </g>
 </g>
 <defs>
  <clipPath id="pf667c651c0">
   <rect x="113.298438" y="41.755938" width="921.6" height="554.4"/>
  </clipPath>
 </defs>
</svg>
