<?xml version="1.0" encoding="utf-8" standalone="no"?>
<!DOCTYPE svg PUBLIC "-//W3C//DTD SVG 1.1//EN"
  "http://www.w3.org/Graphics/SVG/1.1/DTD/svg11.dtd">
<svg xmlns:xlink="http://www.w3.org/1999/xlink" width="810.083068pt" height="640.8pt" viewBox="0 0 810.083068 640.8" xmlns="http://www.w3.org/2000/svg" version="1.1">
 <metadata>
  <rdf:RDF xmlns:dc="http://purl.org/dc/elements/1.1/" xmlns:cc="http://creativecommons.org/ns#" xmlns:rdf="http://www.w3.org/1999/02/22-rdf-syntax-ns#">
   <cc:Work>
    <dc:type rdf:resource="http://purl.org/dc/dcmitype/StillImage"/>
    <dc:date>2025-09-25T14:21:36.231730</dc:date>
    <dc:format>image/svg+xml</dc:format>
    <dc:creator>
     <cc:Agent>
      <dc:title>Matplotlib v3.5.2, https://matplotlib.org/</dc:title>
     </cc:Agent>
    </dc:creator>
   </cc:Work>
  </rdf:RDF>
 </metadata>
 <defs>
  <style type="text/css">*{stroke-linejoin: round; stroke-linecap: butt}</style>
 </defs>
 <g id="figure_1">
  <g id="patch_1">
   <path d="M 0 640.8 
L 810.083068 640.8 
L 810.083068 0 
L 0 0 
z
" style="fill: #f8fafc"/>
  </g>
  <g id="axes_1">
   <g id="patch_2">
    <path d="M 105.30125 313.281818 
L 674.755795 313.281818 
L 674.755795 270.572727 
L 105.30125 270.572727 
z
" clip-path="url(#p0a1440d9b9)" style="fill: #4472c4; stroke: #2c3e50; stroke-width: 3; stroke-linejoin: miter"/>
   </g>
   <g id="patch_3">
    <path d="M 105.30125 295.486364 
L 74.478619 348.872727 
L 136.123881 348.872727 
z
" clip-path="url(#p0a1440d9b9)" style="fill: #34495e; stroke: #2c3e50; stroke-width: 3; stroke-linejoin: miter"/>
   </g>
   <g id="patch_4">
    <path d="M 532.392159 348.872727 
C 537.111569 348.872727 541.638319 346.997686 544.975446 343.660559 
C 548.312572 340.323433 550.187614 335.796682 550.187614 331.077273 
C 550.187614 326.357863 548.312572 321.831113 544.975446 318.493986 
C 541.638319 315.15686 537.111569 313.281818 532.392159 313.281818 
C 527.672749 313.281818 523.145999 315.15686 519.808873 318.493986 
C 516.471746 321.831113 514.596705 326.357863 514.596705 331.077273 
C 514.596705 335.796682 516.471746 340.323433 519.808873 343.660559 
C 523.145999 346.997686 527.672749 348.872727 532.392159 348.872727 
z
" clip-path="url(#p0a1440d9b9)" style="fill: #34495e; stroke: #2c3e50; stroke-width: 3; stroke-linejoin: miter"/>
   </g>
   <g id="patch_5">
    <path d="M 318.846705 270.572727 
L 306.033977 256.336364 
L 318.775523 256.336364 
L 318.775523 156.681818 
L 318.917886 156.681818 
L 318.917886 256.336364 
L 331.659432 256.336364 
z
" clip-path="url(#p0a1440d9b9)" style="fill: #e74c3c; stroke: #e74c3c; stroke-width: 3; stroke-linejoin: miter"/>
   </g>
   <g id="patch_6">
    <path d="M 674.755795 270.572727 
L 661.943068 256.336364 
L 674.684614 256.336364 
L 674.684614 156.681818 
L 674.826977 156.681818 
L 674.826977 256.336364 
L 687.568523 256.336364 
z
" clip-path="url(#p0a1440d9b9)" style="fill: #e74c3c; stroke: #e74c3c; stroke-width: 3; stroke-linejoin: miter"/>
   </g>
   <g id="patch_7">
    <path d="M 140.892159 271.996364 
L 133.773977 263.454545 
L 140.820977 263.454545 
L 140.820977 213.627273 
L 140.963341 213.627273 
L 140.963341 263.454545 
L 148.010341 263.454545 
z
" clip-path="url(#p0a1440d9b9)" style="fill: #e74c3c; opacity: 0.8; stroke: #e74c3c; stroke-width: 2; stroke-linejoin: miter"/>
   </g>
   <g id="patch_8">
    <path d="M 212.073977 271.996364 
L 204.955795 263.454545 
L 212.002795 263.454545 
L 212.002795 213.627273 
L 212.145159 213.627273 
L 212.145159 263.454545 
L 219.192159 263.454545 
z
" clip-path="url(#p0a1440d9b9)" style="fill: #e74c3c; opacity: 0.8; stroke: #e74c3c; stroke-width: 2; stroke-linejoin: miter"/>
   </g>
   <g id="patch_9">
    <path d="M 283.255795 271.996364 
L 276.137614 263.454545 
L 283.184614 263.454545 
L 283.184614 213.627273 
L 283.326977 213.627273 
L 283.326977 263.454545 
L 290.373977 263.454545 
z
" clip-path="url(#p0a1440d9b9)" style="fill: #e74c3c; opacity: 0.8; stroke: #e74c3c; stroke-width: 2; stroke-linejoin: miter"/>
   </g>
   <g id="patch_10">
    <path d="M 354.437614 271.996364 
L 347.319432 263.454545 
L 354.366432 263.454545 
L 354.366432 213.627273 
L 354.508795 213.627273 
L 354.508795 263.454545 
L 361.555795 263.454545 
z
" clip-path="url(#p0a1440d9b9)" style="fill: #e74c3c; opacity: 0.8; stroke: #e74c3c; stroke-width: 2; stroke-linejoin: miter"/>
   </g>
   <g id="patch_11">
    <path d="M 425.619432 271.996364 
L 418.50125 263.454545 
L 425.54825 263.454545 
L 425.54825 213.627273 
L 425.690614 213.627273 
L 425.690614 263.454545 
L 432.737614 263.454545 
z
" clip-path="url(#p0a1440d9b9)" style="fill: #e74c3c; opacity: 0.8; stroke: #e74c3c; stroke-width: 2; stroke-linejoin: miter"/>
   </g>
   <g id="patch_12">
    <path d="M 496.80125 271.996364 
L 489.683068 263.454545 
L 496.730068 263.454545 
L 496.730068 213.627273 
L 496.872432 213.627273 
L 496.872432 263.454545 
L 503.919432 263.454545 
z
" clip-path="url(#p0a1440d9b9)" style="fill: #e74c3c; opacity: 0.8; stroke: #e74c3c; stroke-width: 2; stroke-linejoin: miter"/>
   </g>
   <g id="patch_13">
    <path d="M 567.983068 271.996364 
L 560.864886 263.454545 
L 567.911886 263.454545 
L 567.911886 213.627273 
L 568.05425 213.627273 
L 568.05425 263.454545 
L 575.10125 263.454545 
z
" clip-path="url(#p0a1440d9b9)" style="fill: #e74c3c; opacity: 0.8; stroke: #e74c3c; stroke-width: 2; stroke-linejoin: miter"/>
   </g>
   <g id="patch_14">
    <path d="M 639.164886 271.996364 
L 632.046705 263.454545 
L 639.093705 263.454545 
L 639.093705 213.627273 
L 639.236068 213.627273 
L 639.236068 263.454545 
L 646.283068 263.454545 
z
" clip-path="url(#p0a1440d9b9)" style="fill: #e74c3c; opacity: 0.8; stroke: #e74c3c; stroke-width: 2; stroke-linejoin: miter"/>
   </g>
   <g id="patch_15">
    <path d="M 105.30125 313.281818 
L 118.113977 327.518182 
L 105.372432 327.518182 
L 105.372432 398.7 
L 105.230068 398.7 
L 105.230068 327.518182 
L 92.488523 327.518182 
z
" clip-path="url(#p0a1440d9b9)" style="fill: #27ae60; stroke: #27ae60; stroke-width: 3; stroke-linejoin: miter"/>
   </g>
   <g id="patch_16">
    <path d="M 532.392159 313.281818 
L 545.204886 327.518182 
L 532.463341 327.518182 
L 532.463341 398.7 
L 532.320977 398.7 
L 532.320977 327.518182 
L 519.579432 327.518182 
z
" clip-path="url(#p0a1440d9b9)" style="fill: #27ae60; stroke: #27ae60; stroke-width: 3; stroke-linejoin: miter"/>
   </g>
   <g id="text_1">
    <g id="patch_17">
     <path d="M 232.094048 143.809091 
L 405.599361 143.809091 
Q 421.199361 143.809091 421.199361 128.209091 
L 421.199361 73.931653 
Q 421.199361 58.331653 405.599361 58.331653 
L 232.094048 58.331653 
Q 216.494048 58.331653 216.494048 73.931653 
L 216.494048 128.209091 
Q 216.494048 143.809091 232.094048 143.809091 
z
" style="fill: #f8fafc; opacity: 0.9; stroke: #e74c3c; stroke-linejoin: miter"/>
    </g>
    <!-- P₁ = 7000 N -->
    <g style="fill: #e74c3c" transform="translate(232.094048 93.484466)scale(0.26 -0.26)">
     <defs>
      <path id="DejaVuSans-Bold-50" d="M 588 4666 
L 2584 4666 
Q 3475 4666 3951 4270 
Q 4428 3875 4428 3144 
Q 4428 2409 3951 2014 
Q 3475 1619 2584 1619 
L 1791 1619 
L 1791 0 
L 588 0 
L 588 4666 
z
M 1791 3794 
L 1791 2491 
L 2456 2491 
Q 2806 2491 2997 2661 
Q 3188 2831 3188 3144 
Q 3188 3456 2997 3625 
Q 2806 3794 2456 3794 
L 1791 3794 
z
" transform="scale(0.015625)"/>
      <path id="DejaVuSans-Bold-2081" d="M 441 490 
L 1088 490 
L 1088 2118 
L 384 1956 
L 384 2456 
L 1100 2609 
L 1806 2609 
L 1806 490 
L 2444 490 
L 2444 0 
L 441 0 
L 441 490 
z
" transform="scale(0.015625)"/>
      <path id="DejaVuSans-Bold-20" transform="scale(0.015625)"/>
      <path id="DejaVuSans-Bold-3d" d="M 678 3084 
L 4684 3084 
L 4684 2350 
L 678 2350 
L 678 3084 
z
M 678 1663 
L 4684 1663 
L 4684 922 
L 678 922 
L 678 1663 
z
" transform="scale(0.015625)"/>
      <path id="DejaVuSans-Bold-37" d="M 428 4666 
L 3944 4666 
L 3944 3988 
L 2125 0 
L 953 0 
L 2675 3781 
L 428 3781 
L 428 4666 
z
" transform="scale(0.015625)"/>
      <path id="DejaVuSans-Bold-30" d="M 2944 2338 
Q 2944 3213 2780 3570 
Q 2616 3928 2228 3928 
Q 1841 3928 1675 3570 
Q 1509 3213 1509 2338 
Q 1509 1453 1675 1090 
Q 1841 728 2228 728 
Q 2613 728 2778 1090 
Q 2944 1453 2944 2338 
z
M 4147 2328 
Q 4147 1169 3647 539 
Q 3147 -91 2228 -91 
Q 1306 -91 806 539 
Q 306 1169 306 2328 
Q 306 3491 806 4120 
Q 1306 4750 2228 4750 
Q 3147 4750 3647 4120 
Q 4147 3491 4147 2328 
z
" transform="scale(0.015625)"/>
      <path id="DejaVuSans-Bold-4e" d="M 588 4666 
L 1931 4666 
L 3628 1466 
L 3628 4666 
L 4769 4666 
L 4769 0 
L 3425 0 
L 1728 3200 
L 1728 0 
L 588 0 
L 588 4666 
z
" transform="scale(0.015625)"/>
     </defs>
     <use xlink:href="#DejaVuSans-Bold-50"/>
     <use xlink:href="#DejaVuSans-Bold-2081" x="73.291016"/>
     <use xlink:href="#DejaVuSans-Bold-20" x="117.089844"/>
     <use xlink:href="#DejaVuSans-Bold-3d" x="151.904297"/>
     <use xlink:href="#DejaVuSans-Bold-20" x="235.693359"/>
     <use xlink:href="#DejaVuSans-Bold-37" x="270.507812"/>
     <use xlink:href="#DejaVuSans-Bold-30" x="340.087891"/>
     <use xlink:href="#DejaVuSans-Bold-30" x="409.667969"/>
     <use xlink:href="#DejaVuSans-Bold-30" x="479.248047"/>
     <use xlink:href="#DejaVuSans-Bold-20" x="548.828125"/>
     <use xlink:href="#DejaVuSans-Bold-4e" x="583.642578"/>
    </g>
    <!-- (Dynamic) -->
    <g style="fill: #e74c3c" transform="translate(243.960611 122.598778)scale(0.26 -0.26)">
     <defs>
      <path id="DejaVuSans-Bold-28" d="M 2413 -844 
L 1484 -844 
Q 1006 -72 778 623 
Q 550 1319 550 2003 
Q 550 2688 779 3389 
Q 1009 4091 1484 4856 
L 2413 4856 
Q 2013 4116 1813 3408 
Q 1613 2700 1613 2009 
Q 1613 1319 1811 609 
Q 2009 -100 2413 -844 
z
" transform="scale(0.015625)"/>
      <path id="DejaVuSans-Bold-44" d="M 1791 3756 
L 1791 909 
L 2222 909 
Q 2959 909 3348 1275 
Q 3738 1641 3738 2338 
Q 3738 3031 3350 3393 
Q 2963 3756 2222 3756 
L 1791 3756 
z
M 588 4666 
L 1856 4666 
Q 2919 4666 3439 4514 
Q 3959 4363 4331 4000 
Q 4659 3684 4818 3271 
Q 4978 2859 4978 2338 
Q 4978 1809 4818 1395 
Q 4659 981 4331 666 
Q 3956 303 3431 151 
Q 2906 0 1856 0 
L 588 0 
L 588 4666 
z
" transform="scale(0.015625)"/>
      <path id="DejaVuSans-Bold-79" d="M 78 3500 
L 1197 3500 
L 2138 1125 
L 2938 3500 
L 4056 3500 
L 2584 -331 
Q 2363 -916 2067 -1148 
Q 1772 -1381 1288 -1381 
L 641 -1381 
L 641 -647 
L 991 -647 
Q 1275 -647 1404 -556 
Q 1534 -466 1606 -231 
L 1638 -134 
L 78 3500 
z
" transform="scale(0.015625)"/>
      <path id="DejaVuSans-Bold-6e" d="M 4056 2131 
L 4056 0 
L 2931 0 
L 2931 347 
L 2931 1631 
Q 2931 2084 2911 2256 
Q 2891 2428 2841 2509 
Q 2775 2619 2662 2680 
Q 2550 2741 2406 2741 
Q 2056 2741 1856 2470 
Q 1656 2200 1656 1722 
L 1656 0 
L 538 0 
L 538 3500 
L 1656 3500 
L 1656 2988 
Q 1909 3294 2193 3439 
Q 2478 3584 2822 3584 
Q 3428 3584 3742 3212 
Q 4056 2841 4056 2131 
z
" transform="scale(0.015625)"/>
      <path id="DejaVuSans-Bold-61" d="M 2106 1575 
Q 1756 1575 1579 1456 
Q 1403 1338 1403 1106 
Q 1403 894 1545 773 
Q 1688 653 1941 653 
Q 2256 653 2472 879 
Q 2688 1106 2688 1447 
L 2688 1575 
L 2106 1575 
z
M 3816 1997 
L 3816 0 
L 2688 0 
L 2688 519 
Q 2463 200 2181 54 
Q 1900 -91 1497 -91 
Q 953 -91 614 226 
Q 275 544 275 1050 
Q 275 1666 698 1953 
Q 1122 2241 2028 2241 
L 2688 2241 
L 2688 2328 
Q 2688 2594 2478 2717 
Q 2269 2841 1825 2841 
Q 1466 2841 1156 2769 
Q 847 2697 581 2553 
L 581 3406 
Q 941 3494 1303 3539 
Q 1666 3584 2028 3584 
Q 2975 3584 3395 3211 
Q 3816 2838 3816 1997 
z
" transform="scale(0.015625)"/>
      <path id="DejaVuSans-Bold-6d" d="M 3781 2919 
Q 3994 3244 4286 3414 
Q 4578 3584 4928 3584 
Q 5531 3584 5847 3212 
Q 6163 2841 6163 2131 
L 6163 0 
L 5038 0 
L 5038 1825 
Q 5041 1866 5042 1909 
Q 5044 1953 5044 2034 
Q 5044 2406 4934 2573 
Q 4825 2741 4581 2741 
Q 4263 2741 4089 2478 
Q 3916 2216 3909 1719 
L 3909 0 
L 2784 0 
L 2784 1825 
Q 2784 2406 2684 2573 
Q 2584 2741 2328 2741 
Q 2006 2741 1831 2477 
Q 1656 2213 1656 1722 
L 1656 0 
L 531 0 
L 531 3500 
L 1656 3500 
L 1656 2988 
Q 1863 3284 2130 3434 
Q 2397 3584 2719 3584 
Q 3081 3584 3359 3409 
Q 3638 3234 3781 2919 
z
" transform="scale(0.015625)"/>
      <path id="DejaVuSans-Bold-69" d="M 538 3500 
L 1656 3500 
L 1656 0 
L 538 0 
L 538 3500 
z
M 538 4863 
L 1656 4863 
L 1656 3950 
L 538 3950 
L 538 4863 
z
" transform="scale(0.015625)"/>
      <path id="DejaVuSans-Bold-63" d="M 3366 3391 
L 3366 2478 
Q 3138 2634 2908 2709 
Q 2678 2784 2431 2784 
Q 1963 2784 1702 2511 
Q 1441 2238 1441 1747 
Q 1441 1256 1702 982 
Q 1963 709 2431 709 
Q 2694 709 2930 787 
Q 3166 866 3366 1019 
L 3366 103 
Q 3103 6 2833 -42 
Q 2563 -91 2291 -91 
Q 1344 -91 809 395 
Q 275 881 275 1747 
Q 275 2613 809 3098 
Q 1344 3584 2291 3584 
Q 2566 3584 2833 3536 
Q 3100 3488 3366 3391 
z
" transform="scale(0.015625)"/>
      <path id="DejaVuSans-Bold-29" d="M 513 -844 
Q 913 -100 1113 609 
Q 1313 1319 1313 2009 
Q 1313 2700 1113 3408 
Q 913 4116 513 4856 
L 1441 4856 
Q 1916 4091 2145 3389 
Q 2375 2688 2375 2003 
Q 2375 1319 2147 623 
Q 1919 -72 1441 -844 
L 513 -844 
z
" transform="scale(0.015625)"/>
     </defs>
     <use xlink:href="#DejaVuSans-Bold-28"/>
     <use xlink:href="#DejaVuSans-Bold-44" x="45.703125"/>
     <use xlink:href="#DejaVuSans-Bold-79" x="128.710938"/>
     <use xlink:href="#DejaVuSans-Bold-6e" x="193.896484"/>
     <use xlink:href="#DejaVuSans-Bold-61" x="265.087891"/>
     <use xlink:href="#DejaVuSans-Bold-6d" x="332.568359"/>
     <use xlink:href="#DejaVuSans-Bold-69" x="436.767578"/>
     <use xlink:href="#DejaVuSans-Bold-63" x="471.044922"/>
     <use xlink:href="#DejaVuSans-Bold-29" x="530.322266"/>
    </g>
   </g>
   <g id="text_2">
    <g id="patch_18">
     <path d="M 588.003139 143.809091 
L 761.508452 143.809091 
Q 777.108452 143.809091 777.108452 128.209091 
L 777.108452 73.931653 
Q 777.108452 58.331653 761.508452 58.331653 
L 588.003139 58.331653 
Q 572.403139 58.331653 572.403139 73.931653 
L 572.403139 128.209091 
Q 572.403139 143.809091 588.003139 143.809091 
z
" style="fill: #f8fafc; opacity: 0.9; stroke: #e74c3c; stroke-linejoin: miter"/>
    </g>
    <!-- P₂ = 4200 N -->
    <g style="fill: #e74c3c" transform="translate(588.003139 93.484466)scale(0.26 -0.26)">
     <defs>
      <path id="DejaVuSans-Bold-2082" d="M 1288 525 
L 2444 525 
L 2444 0 
L 341 0 
L 341 478 
L 1319 1309 
Q 1509 1475 1590 1600 
Q 1672 1725 1672 1850 
Q 1672 2006 1558 2103 
Q 1444 2200 1259 2200 
Q 1066 2200 844 2129 
Q 622 2059 359 1912 
L 359 2493 
Q 631 2578 886 2620 
Q 1141 2662 1375 2662 
Q 1869 2662 2150 2460 
Q 2431 2259 2431 1912 
Q 2431 1687 2320 1498 
Q 2209 1309 1894 1040 
L 1288 525 
z
" transform="scale(0.015625)"/>
      <path id="DejaVuSans-Bold-34" d="M 2356 3675 
L 1038 1722 
L 2356 1722 
L 2356 3675 
z
M 2156 4666 
L 3494 4666 
L 3494 1722 
L 4159 1722 
L 4159 850 
L 3494 850 
L 3494 0 
L 2356 0 
L 2356 850 
L 288 850 
L 288 1881 
L 2156 4666 
z
" transform="scale(0.015625)"/>
      <path id="DejaVuSans-Bold-32" d="M 1844 884 
L 3897 884 
L 3897 0 
L 506 0 
L 506 884 
L 2209 2388 
Q 2438 2594 2547 2791 
Q 2656 2988 2656 3200 
Q 2656 3528 2436 3728 
Q 2216 3928 1850 3928 
Q 1569 3928 1234 3808 
Q 900 3688 519 3450 
L 519 4475 
Q 925 4609 1322 4679 
Q 1719 4750 2100 4750 
Q 2938 4750 3402 4381 
Q 3866 4013 3866 3353 
Q 3866 2972 3669 2642 
Q 3472 2313 2841 1759 
L 1844 884 
z
" transform="scale(0.015625)"/>
     </defs>
     <use xlink:href="#DejaVuSans-Bold-50"/>
     <use xlink:href="#DejaVuSans-Bold-2082" x="73.291016"/>
     <use xlink:href="#DejaVuSans-Bold-20" x="117.089844"/>
     <use xlink:href="#DejaVuSans-Bold-3d" x="151.904297"/>
     <use xlink:href="#DejaVuSans-Bold-20" x="235.693359"/>
     <use xlink:href="#DejaVuSans-Bold-34" x="270.507812"/>
     <use xlink:href="#DejaVuSans-Bold-32" x="340.087891"/>
     <use xlink:href="#DejaVuSans-Bold-30" x="409.667969"/>
     <use xlink:href="#DejaVuSans-Bold-30" x="479.248047"/>
     <use xlink:href="#DejaVuSans-Bold-20" x="548.828125"/>
     <use xlink:href="#DejaVuSans-Bold-4e" x="583.642578"/>
    </g>
    <!-- (Dynamic) -->
    <g style="fill: #e74c3c" transform="translate(599.869702 122.598778)scale(0.26 -0.26)">
     <use xlink:href="#DejaVuSans-Bold-28"/>
     <use xlink:href="#DejaVuSans-Bold-44" x="45.703125"/>
     <use xlink:href="#DejaVuSans-Bold-79" x="128.710938"/>
     <use xlink:href="#DejaVuSans-Bold-6e" x="193.896484"/>
     <use xlink:href="#DejaVuSans-Bold-61" x="265.087891"/>
     <use xlink:href="#DejaVuSans-Bold-6d" x="332.568359"/>
     <use xlink:href="#DejaVuSans-Bold-69" x="436.767578"/>
     <use xlink:href="#DejaVuSans-Bold-63" x="471.044922"/>
     <use xlink:href="#DejaVuSans-Bold-29" x="530.322266"/>
    </g>
   </g>
   <g id="text_3">
    <g id="patch_19">
     <path d="M 182.180866 200.754545 
L 597.876179 200.754545 
Q 613.476179 200.754545 613.476179 185.154545 
L 613.476179 130.877108 
Q 613.476179 115.277108 597.876179 115.277108 
L 182.180866 115.277108 
Q 166.580866 115.277108 166.580866 130.877108 
L 166.580866 185.154545 
Q 166.580866 200.754545 182.180866 200.754545 
z
" style="fill: #f8fafc; opacity: 0.9; stroke: #e74c3c; stroke-linejoin: miter"/>
    </g>
    <!-- w = 800 N/m -->
    <g style="fill: #e74c3c" transform="translate(297.23696 150.42992)scale(0.26 -0.26)">
     <defs>
      <path id="DejaVuSans-Bold-77" d="M 225 3500 
L 1313 3500 
L 1900 1088 
L 2491 3500 
L 3425 3500 
L 4013 1113 
L 4603 3500 
L 5691 3500 
L 4769 0 
L 3547 0 
L 2956 2406 
L 2369 0 
L 1147 0 
L 225 3500 
z
" transform="scale(0.015625)"/>
      <path id="DejaVuSans-Bold-38" d="M 2228 2088 
Q 1891 2088 1709 1903 
Q 1528 1719 1528 1375 
Q 1528 1031 1709 848 
Q 1891 666 2228 666 
Q 2563 666 2741 848 
Q 2919 1031 2919 1375 
Q 2919 1722 2741 1905 
Q 2563 2088 2228 2088 
z
M 1350 2484 
Q 925 2613 709 2878 
Q 494 3144 494 3541 
Q 494 4131 934 4440 
Q 1375 4750 2228 4750 
Q 3075 4750 3515 4442 
Q 3956 4134 3956 3541 
Q 3956 3144 3739 2878 
Q 3522 2613 3097 2484 
Q 3572 2353 3814 2058 
Q 4056 1763 4056 1313 
Q 4056 619 3595 264 
Q 3134 -91 2228 -91 
Q 1319 -91 855 264 
Q 391 619 391 1313 
Q 391 1763 633 2058 
Q 875 2353 1350 2484 
z
M 1631 3419 
Q 1631 3141 1786 2991 
Q 1941 2841 2228 2841 
Q 2509 2841 2662 2991 
Q 2816 3141 2816 3419 
Q 2816 3697 2662 3845 
Q 2509 3994 2228 3994 
Q 1941 3994 1786 3844 
Q 1631 3694 1631 3419 
z
" transform="scale(0.015625)"/>
      <path id="DejaVuSans-Bold-2f" d="M 1644 4666 
L 2338 4666 
L 691 -594 
L 0 -594 
L 1644 4666 
z
" transform="scale(0.015625)"/>
     </defs>
     <use xlink:href="#DejaVuSans-Bold-77"/>
     <use xlink:href="#DejaVuSans-Bold-20" x="92.382812"/>
     <use xlink:href="#DejaVuSans-Bold-3d" x="127.197266"/>
     <use xlink:href="#DejaVuSans-Bold-20" x="210.986328"/>
     <use xlink:href="#DejaVuSans-Bold-38" x="245.800781"/>
     <use xlink:href="#DejaVuSans-Bold-30" x="315.380859"/>
     <use xlink:href="#DejaVuSans-Bold-30" x="384.960938"/>
     <use xlink:href="#DejaVuSans-Bold-20" x="454.541016"/>
     <use xlink:href="#DejaVuSans-Bold-4e" x="489.355469"/>
     <use xlink:href="#DejaVuSans-Bold-2f" x="573.046875"/>
     <use xlink:href="#DejaVuSans-Bold-6d" x="609.570312"/>
    </g>
    <!-- (Self-weight + attachments) -->
    <g style="fill: #e74c3c" transform="translate(182.180866 179.544233)scale(0.26 -0.26)">
     <defs>
      <path id="DejaVuSans-Bold-53" d="M 3834 4519 
L 3834 3531 
Q 3450 3703 3084 3790 
Q 2719 3878 2394 3878 
Q 1963 3878 1756 3759 
Q 1550 3641 1550 3391 
Q 1550 3203 1689 3098 
Q 1828 2994 2194 2919 
L 2706 2816 
Q 3484 2659 3812 2340 
Q 4141 2022 4141 1434 
Q 4141 663 3683 286 
Q 3225 -91 2284 -91 
Q 1841 -91 1394 -6 
Q 947 78 500 244 
L 500 1259 
Q 947 1022 1364 901 
Q 1781 781 2169 781 
Q 2563 781 2772 912 
Q 2981 1044 2981 1288 
Q 2981 1506 2839 1625 
Q 2697 1744 2272 1838 
L 1806 1941 
Q 1106 2091 782 2419 
Q 459 2747 459 3303 
Q 459 4000 909 4375 
Q 1359 4750 2203 4750 
Q 2588 4750 2994 4692 
Q 3400 4634 3834 4519 
z
" transform="scale(0.015625)"/>
      <path id="DejaVuSans-Bold-65" d="M 4031 1759 
L 4031 1441 
L 1416 1441 
Q 1456 1047 1700 850 
Q 1944 653 2381 653 
Q 2734 653 3104 758 
Q 3475 863 3866 1075 
L 3866 213 
Q 3469 63 3072 -14 
Q 2675 -91 2278 -91 
Q 1328 -91 801 392 
Q 275 875 275 1747 
Q 275 2603 792 3093 
Q 1309 3584 2216 3584 
Q 3041 3584 3536 3087 
Q 4031 2591 4031 1759 
z
M 2881 2131 
Q 2881 2450 2695 2645 
Q 2509 2841 2209 2841 
Q 1884 2841 1681 2658 
Q 1478 2475 1428 2131 
L 2881 2131 
z
" transform="scale(0.015625)"/>
      <path id="DejaVuSans-Bold-6c" d="M 538 4863 
L 1656 4863 
L 1656 0 
L 538 0 
L 538 4863 
z
" transform="scale(0.015625)"/>
      <path id="DejaVuSans-Bold-66" d="M 2841 4863 
L 2841 4128 
L 2222 4128 
Q 1984 4128 1890 4042 
Q 1797 3956 1797 3744 
L 1797 3500 
L 2753 3500 
L 2753 2700 
L 1797 2700 
L 1797 0 
L 678 0 
L 678 2700 
L 122 2700 
L 122 3500 
L 678 3500 
L 678 3744 
Q 678 4316 997 4589 
Q 1316 4863 1984 4863 
L 2841 4863 
z
" transform="scale(0.015625)"/>
      <path id="DejaVuSans-Bold-2d" d="M 347 2297 
L 2309 2297 
L 2309 1388 
L 347 1388 
L 347 2297 
z
" transform="scale(0.015625)"/>
      <path id="DejaVuSans-Bold-67" d="M 2919 594 
Q 2688 288 2409 144 
Q 2131 0 1766 0 
Q 1125 0 706 504 
Q 288 1009 288 1791 
Q 288 2575 706 3076 
Q 1125 3578 1766 3578 
Q 2131 3578 2409 3434 
Q 2688 3291 2919 2981 
L 2919 3500 
L 4044 3500 
L 4044 353 
Q 4044 -491 3511 -936 
Q 2978 -1381 1966 -1381 
Q 1638 -1381 1331 -1331 
Q 1025 -1281 716 -1178 
L 716 -306 
Q 1009 -475 1290 -558 
Q 1572 -641 1856 -641 
Q 2406 -641 2662 -400 
Q 2919 -159 2919 353 
L 2919 594 
z
M 2181 2772 
Q 1834 2772 1640 2515 
Q 1447 2259 1447 1791 
Q 1447 1309 1634 1061 
Q 1822 813 2181 813 
Q 2531 813 2725 1069 
Q 2919 1325 2919 1791 
Q 2919 2259 2725 2515 
Q 2531 2772 2181 2772 
z
" transform="scale(0.015625)"/>
      <path id="DejaVuSans-Bold-68" d="M 4056 2131 
L 4056 0 
L 2931 0 
L 2931 347 
L 2931 1625 
Q 2931 2084 2911 2256 
Q 2891 2428 2841 2509 
Q 2775 2619 2662 2680 
Q 2550 2741 2406 2741 
Q 2056 2741 1856 2470 
Q 1656 2200 1656 1722 
L 1656 0 
L 538 0 
L 538 4863 
L 1656 4863 
L 1656 2988 
Q 1909 3294 2193 3439 
Q 2478 3584 2822 3584 
Q 3428 3584 3742 3212 
Q 4056 2841 4056 2131 
z
" transform="scale(0.015625)"/>
      <path id="DejaVuSans-Bold-74" d="M 1759 4494 
L 1759 3500 
L 2913 3500 
L 2913 2700 
L 1759 2700 
L 1759 1216 
Q 1759 972 1856 886 
Q 1953 800 2241 800 
L 2816 800 
L 2816 0 
L 1856 0 
Q 1194 0 917 276 
Q 641 553 641 1216 
L 641 2700 
L 84 2700 
L 84 3500 
L 641 3500 
L 641 4494 
L 1759 4494 
z
" transform="scale(0.015625)"/>
      <path id="DejaVuSans-Bold-2b" d="M 3053 4013 
L 3053 2375 
L 4684 2375 
L 4684 1638 
L 3053 1638 
L 3053 0 
L 2309 0 
L 2309 1638 
L 678 1638 
L 678 2375 
L 2309 2375 
L 2309 4013 
L 3053 4013 
z
" transform="scale(0.015625)"/>
      <path id="DejaVuSans-Bold-73" d="M 3272 3391 
L 3272 2541 
Q 2913 2691 2578 2766 
Q 2244 2841 1947 2841 
Q 1628 2841 1473 2761 
Q 1319 2681 1319 2516 
Q 1319 2381 1436 2309 
Q 1553 2238 1856 2203 
L 2053 2175 
Q 2913 2066 3209 1816 
Q 3506 1566 3506 1031 
Q 3506 472 3093 190 
Q 2681 -91 1863 -91 
Q 1516 -91 1145 -36 
Q 775 19 384 128 
L 384 978 
Q 719 816 1070 734 
Q 1422 653 1784 653 
Q 2113 653 2278 743 
Q 2444 834 2444 1013 
Q 2444 1163 2330 1236 
Q 2216 1309 1875 1350 
L 1678 1375 
Q 931 1469 631 1722 
Q 331 1975 331 2491 
Q 331 3047 712 3315 
Q 1094 3584 1881 3584 
Q 2191 3584 2531 3537 
Q 2872 3491 3272 3391 
z
" transform="scale(0.015625)"/>
     </defs>
     <use xlink:href="#DejaVuSans-Bold-28"/>
     <use xlink:href="#DejaVuSans-Bold-53" x="45.703125"/>
     <use xlink:href="#DejaVuSans-Bold-65" x="117.724609"/>
     <use xlink:href="#DejaVuSans-Bold-6c" x="185.546875"/>
     <use xlink:href="#DejaVuSans-Bold-66" x="219.824219"/>
     <use xlink:href="#DejaVuSans-Bold-2d" x="261.580078"/>
     <use xlink:href="#DejaVuSans-Bold-77" x="303.083984"/>
     <use xlink:href="#DejaVuSans-Bold-65" x="395.466797"/>
     <use xlink:href="#DejaVuSans-Bold-69" x="463.289062"/>
     <use xlink:href="#DejaVuSans-Bold-67" x="497.566406"/>
     <use xlink:href="#DejaVuSans-Bold-68" x="569.148438"/>
     <use xlink:href="#DejaVuSans-Bold-74" x="640.339844"/>
     <use xlink:href="#DejaVuSans-Bold-20" x="688.142578"/>
     <use xlink:href="#DejaVuSans-Bold-2b" x="722.957031"/>
     <use xlink:href="#DejaVuSans-Bold-20" x="806.746094"/>
     <use xlink:href="#DejaVuSans-Bold-61" x="841.560547"/>
     <use xlink:href="#DejaVuSans-Bold-74" x="909.041016"/>
     <use xlink:href="#DejaVuSans-Bold-74" x="956.84375"/>
     <use xlink:href="#DejaVuSans-Bold-61" x="1004.646484"/>
     <use xlink:href="#DejaVuSans-Bold-63" x="1072.126953"/>
     <use xlink:href="#DejaVuSans-Bold-68" x="1131.404297"/>
     <use xlink:href="#DejaVuSans-Bold-6d" x="1202.595703"/>
     <use xlink:href="#DejaVuSans-Bold-65" x="1306.794922"/>
     <use xlink:href="#DejaVuSans-Bold-6e" x="1374.617188"/>
     <use xlink:href="#DejaVuSans-Bold-74" x="1445.808594"/>
     <use xlink:href="#DejaVuSans-Bold-73" x="1493.611328"/>
     <use xlink:href="#DejaVuSans-Bold-29" x="1553.132812"/>
    </g>
   </g>
   <g id="text_4">
    <g id="patch_20">
     <path d="M 7.2 453.963551 
L 203.4025 453.963551 
Q 219.0025 453.963551 219.0025 438.363551 
L 219.0025 412.936364 
Q 219.0025 397.336364 203.4025 397.336364 
L 7.2 397.336364 
Q -8.4 397.336364 -8.4 412.936364 
L -8.4 438.363551 
Q -8.4 453.963551 7.2 453.963551 
z
" style="fill: #f8fafc; opacity: 0.9; stroke: #27ae60; stroke-linejoin: miter"/>
    </g>
    <!-- R_A = 3167 N -->
    <g style="fill: #27ae60" transform="translate(7.2 432.233239)scale(0.26 -0.26)">
     <defs>
      <path id="DejaVuSans-Bold-52" d="M 2297 2597 
Q 2675 2597 2839 2737 
Q 3003 2878 3003 3200 
Q 3003 3519 2839 3656 
Q 2675 3794 2297 3794 
L 1791 3794 
L 1791 2597 
L 2297 2597 
z
M 1791 1766 
L 1791 0 
L 588 0 
L 588 4666 
L 2425 4666 
Q 3347 4666 3776 4356 
Q 4206 4047 4206 3378 
Q 4206 2916 3982 2619 
Q 3759 2322 3309 2181 
Q 3556 2125 3751 1926 
Q 3947 1728 4147 1325 
L 4800 0 
L 3519 0 
L 2950 1159 
Q 2778 1509 2601 1637 
Q 2425 1766 2131 1766 
L 1791 1766 
z
" transform="scale(0.015625)"/>
      <path id="DejaVuSans-Bold-5f" d="M 3200 -916 
L 3200 -1509 
L 0 -1509 
L 0 -916 
L 3200 -916 
z
" transform="scale(0.015625)"/>
      <path id="DejaVuSans-Bold-41" d="M 3419 850 
L 1538 850 
L 1241 0 
L 31 0 
L 1759 4666 
L 3194 4666 
L 4922 0 
L 3713 0 
L 3419 850 
z
M 1838 1716 
L 3116 1716 
L 2478 3572 
L 1838 1716 
z
" transform="scale(0.015625)"/>
      <path id="DejaVuSans-Bold-33" d="M 2981 2516 
Q 3453 2394 3698 2092 
Q 3944 1791 3944 1325 
Q 3944 631 3412 270 
Q 2881 -91 1863 -91 
Q 1503 -91 1142 -33 
Q 781 25 428 141 
L 428 1069 
Q 766 900 1098 814 
Q 1431 728 1753 728 
Q 2231 728 2486 893 
Q 2741 1059 2741 1369 
Q 2741 1688 2480 1852 
Q 2219 2016 1709 2016 
L 1228 2016 
L 1228 2791 
L 1734 2791 
Q 2188 2791 2409 2933 
Q 2631 3075 2631 3366 
Q 2631 3634 2415 3781 
Q 2200 3928 1806 3928 
Q 1516 3928 1219 3862 
Q 922 3797 628 3669 
L 628 4550 
Q 984 4650 1334 4700 
Q 1684 4750 2022 4750 
Q 2931 4750 3382 4451 
Q 3834 4153 3834 3553 
Q 3834 3144 3618 2883 
Q 3403 2622 2981 2516 
z
" transform="scale(0.015625)"/>
      <path id="DejaVuSans-Bold-31" d="M 750 831 
L 1813 831 
L 1813 3847 
L 722 3622 
L 722 4441 
L 1806 4666 
L 2950 4666 
L 2950 831 
L 4013 831 
L 4013 0 
L 750 0 
L 750 831 
z
" transform="scale(0.015625)"/>
      <path id="DejaVuSans-Bold-36" d="M 2316 2303 
Q 2000 2303 1842 2098 
Q 1684 1894 1684 1484 
Q 1684 1075 1842 870 
Q 2000 666 2316 666 
Q 2634 666 2792 870 
Q 2950 1075 2950 1484 
Q 2950 1894 2792 2098 
Q 2634 2303 2316 2303 
z
M 3803 4544 
L 3803 3681 
Q 3506 3822 3243 3889 
Q 2981 3956 2731 3956 
Q 2194 3956 1894 3657 
Q 1594 3359 1544 2772 
Q 1750 2925 1990 3001 
Q 2231 3078 2516 3078 
Q 3231 3078 3670 2659 
Q 4109 2241 4109 1563 
Q 4109 813 3618 361 
Q 3128 -91 2303 -91 
Q 1394 -91 895 523 
Q 397 1138 397 2266 
Q 397 3422 980 4083 
Q 1563 4744 2578 4744 
Q 2900 4744 3203 4694 
Q 3506 4644 3803 4544 
z
" transform="scale(0.015625)"/>
     </defs>
     <use xlink:href="#DejaVuSans-Bold-52"/>
     <use xlink:href="#DejaVuSans-Bold-5f" x="77.001953"/>
     <use xlink:href="#DejaVuSans-Bold-41" x="127.001953"/>
     <use xlink:href="#DejaVuSans-Bold-20" x="204.394531"/>
     <use xlink:href="#DejaVuSans-Bold-3d" x="239.208984"/>
     <use xlink:href="#DejaVuSans-Bold-20" x="322.998047"/>
     <use xlink:href="#DejaVuSans-Bold-33" x="357.8125"/>
     <use xlink:href="#DejaVuSans-Bold-31" x="427.392578"/>
     <use xlink:href="#DejaVuSans-Bold-36" x="496.972656"/>
     <use xlink:href="#DejaVuSans-Bold-37" x="566.552734"/>
     <use xlink:href="#DejaVuSans-Bold-20" x="636.132812"/>
     <use xlink:href="#DejaVuSans-Bold-4e" x="670.947266"/>
    </g>
   </g>
   <g id="text_5">
    <g id="patch_21">
     <path d="M 425.398097 453.963551 
L 639.386222 453.963551 
Q 654.986222 453.963551 654.986222 438.363551 
L 654.986222 412.936364 
Q 654.986222 397.336364 639.386222 397.336364 
L 425.398097 397.336364 
Q 409.798097 397.336364 409.798097 412.936364 
L 409.798097 438.363551 
Q 409.798097 453.963551 425.398097 453.963551 
z
" style="fill: #f8fafc; opacity: 0.9; stroke: #27ae60; stroke-linejoin: miter"/>
    </g>
    <!-- R_B = 11233 N -->
    <g style="fill: #27ae60" transform="translate(425.398097 432.233239)scale(0.26 -0.26)">
     <defs>
      <path id="DejaVuSans-Bold-42" d="M 2456 2859 
Q 2741 2859 2887 2984 
Q 3034 3109 3034 3353 
Q 3034 3594 2887 3720 
Q 2741 3847 2456 3847 
L 1791 3847 
L 1791 2859 
L 2456 2859 
z
M 2497 819 
Q 2859 819 3042 972 
Q 3225 1125 3225 1434 
Q 3225 1738 3044 1889 
Q 2863 2041 2497 2041 
L 1791 2041 
L 1791 819 
L 2497 819 
z
M 3616 2497 
Q 4003 2384 4215 2081 
Q 4428 1778 4428 1338 
Q 4428 663 3972 331 
Q 3516 0 2584 0 
L 588 0 
L 588 4666 
L 2394 4666 
Q 3366 4666 3802 4372 
Q 4238 4078 4238 3431 
Q 4238 3091 4078 2852 
Q 3919 2613 3616 2497 
z
" transform="scale(0.015625)"/>
     </defs>
     <use xlink:href="#DejaVuSans-Bold-52"/>
     <use xlink:href="#DejaVuSans-Bold-5f" x="77.001953"/>
     <use xlink:href="#DejaVuSans-Bold-42" x="127.001953"/>
     <use xlink:href="#DejaVuSans-Bold-20" x="203.222656"/>
     <use xlink:href="#DejaVuSans-Bold-3d" x="238.037109"/>
     <use xlink:href="#DejaVuSans-Bold-20" x="321.826172"/>
     <use xlink:href="#DejaVuSans-Bold-31" x="356.640625"/>
     <use xlink:href="#DejaVuSans-Bold-31" x="426.220703"/>
     <use xlink:href="#DejaVuSans-Bold-32" x="495.800781"/>
     <use xlink:href="#DejaVuSans-Bold-33" x="565.380859"/>
     <use xlink:href="#DejaVuSans-Bold-33" x="634.960938"/>
     <use xlink:href="#DejaVuSans-Bold-20" x="704.541016"/>
     <use xlink:href="#DejaVuSans-Bold-4e" x="739.355469"/>
    </g>
   </g>
   <g id="patch_22">
    <path d="M 527.04063 484.118182 
Q 318.84852 484.118182 110.65641 484.118182 
" style="fill: none; stroke: #2c3e50; stroke-width: 3; stroke-linecap: round"/>
    <path d="M 515.84063 478.518182 
L 527.04063 484.118182 
L 515.84063 489.718182 
" style="fill: none; stroke: #2c3e50; stroke-width: 3; stroke-linecap: round"/>
    <path d="M 121.85641 489.718182 
L 110.65641 484.118182 
L 121.85641 478.518182 
" style="fill: none; stroke: #2c3e50; stroke-width: 3; stroke-linecap: round"/>
   </g>
   <g id="text_6">
    <g id="patch_23">
     <path d="M 238.151236 546.235852 
L 399.542173 546.235852 
Q 415.142173 546.235852 415.142173 530.635852 
L 415.142173 505.472727 
Q 415.142173 489.872727 399.542173 489.872727 
L 238.151236 489.872727 
Q 222.551236 489.872727 222.551236 505.472727 
L 222.551236 530.635852 
Q 222.551236 546.235852 238.151236 546.235852 
z
" style="fill: #f8fafc; opacity: 0.9; stroke: #2c3e50; stroke-linejoin: miter"/>
    </g>
    <!-- 3.0 m span -->
    <g style="fill: #2c3e50" transform="translate(238.151236 525.228665)scale(0.26 -0.26)">
     <defs>
      <path id="DejaVuSans-Bold-2e" d="M 653 1209 
L 1778 1209 
L 1778 0 
L 653 0 
L 653 1209 
z
" transform="scale(0.015625)"/>
      <path id="DejaVuSans-Bold-70" d="M 1656 506 
L 1656 -1331 
L 538 -1331 
L 538 3500 
L 1656 3500 
L 1656 2988 
Q 1888 3294 2169 3439 
Q 2450 3584 2816 3584 
Q 3463 3584 3878 3070 
Q 4294 2556 4294 1747 
Q 4294 938 3878 423 
Q 3463 -91 2816 -91 
Q 2450 -91 2169 54 
Q 1888 200 1656 506 
z
M 2400 2772 
Q 2041 2772 1848 2508 
Q 1656 2244 1656 1747 
Q 1656 1250 1848 986 
Q 2041 722 2400 722 
Q 2759 722 2948 984 
Q 3138 1247 3138 1747 
Q 3138 2247 2948 2509 
Q 2759 2772 2400 2772 
z
" transform="scale(0.015625)"/>
     </defs>
     <use xlink:href="#DejaVuSans-Bold-33"/>
     <use xlink:href="#DejaVuSans-Bold-2e" x="69.580078"/>
     <use xlink:href="#DejaVuSans-Bold-30" x="107.568359"/>
     <use xlink:href="#DejaVuSans-Bold-20" x="177.148438"/>
     <use xlink:href="#DejaVuSans-Bold-6d" x="211.962891"/>
     <use xlink:href="#DejaVuSans-Bold-20" x="316.162109"/>
     <use xlink:href="#DejaVuSans-Bold-73" x="350.976562"/>
     <use xlink:href="#DejaVuSans-Bold-70" x="410.498047"/>
     <use xlink:href="#DejaVuSans-Bold-61" x="482.080078"/>
     <use xlink:href="#DejaVuSans-Bold-6e" x="549.560547"/>
    </g>
   </g>
   <g id="patch_24">
    <path d="M 669.398836 541.063636 
Q 603.572739 541.063636 537.746642 541.063636 
" style="fill: none; stroke: #2c3e50; stroke-width: 3; stroke-linecap: round"/>
    <path d="M 658.198836 535.463636 
L 669.398836 541.063636 
L 658.198836 546.663636 
" style="fill: none; stroke: #2c3e50; stroke-width: 3; stroke-linecap: round"/>
    <path d="M 548.946642 546.663636 
L 537.746642 541.063636 
L 548.946642 535.463636 
" style="fill: none; stroke: #2c3e50; stroke-width: 3; stroke-linecap: round"/>
   </g>
   <g id="text_7">
    <g id="patch_25">
     <path d="M 488.727102 603.384432 
L 718.420852 603.384432 
Q 734.020852 603.384432 734.020852 587.784432 
L 734.020852 562.418182 
Q 734.020852 546.818182 718.420852 546.818182 
L 488.727102 546.818182 
Q 473.127102 546.818182 473.127102 562.418182 
L 473.127102 587.784432 
Q 473.127102 603.384432 488.727102 603.384432 
z
" style="fill: #f8fafc; opacity: 0.9; stroke: #2c3e50; stroke-linejoin: miter"/>
    </g>
    <!-- 1.0 m overhang -->
    <g style="fill: #2c3e50" transform="translate(488.727102 582.174119)scale(0.26 -0.26)">
     <defs>
      <path id="DejaVuSans-Bold-6f" d="M 2203 2784 
Q 1831 2784 1636 2517 
Q 1441 2250 1441 1747 
Q 1441 1244 1636 976 
Q 1831 709 2203 709 
Q 2569 709 2762 976 
Q 2956 1244 2956 1747 
Q 2956 2250 2762 2517 
Q 2569 2784 2203 2784 
z
M 2203 3584 
Q 3106 3584 3614 3096 
Q 4122 2609 4122 1747 
Q 4122 884 3614 396 
Q 3106 -91 2203 -91 
Q 1297 -91 786 396 
Q 275 884 275 1747 
Q 275 2609 786 3096 
Q 1297 3584 2203 3584 
z
" transform="scale(0.015625)"/>
      <path id="DejaVuSans-Bold-76" d="M 97 3500 
L 1216 3500 
L 2088 1081 
L 2956 3500 
L 4078 3500 
L 2700 0 
L 1472 0 
L 97 3500 
z
" transform="scale(0.015625)"/>
      <path id="DejaVuSans-Bold-72" d="M 3138 2547 
Q 2991 2616 2845 2648 
Q 2700 2681 2553 2681 
Q 2122 2681 1889 2404 
Q 1656 2128 1656 1613 
L 1656 0 
L 538 0 
L 538 3500 
L 1656 3500 
L 1656 2925 
Q 1872 3269 2151 3426 
Q 2431 3584 2822 3584 
Q 2878 3584 2943 3579 
Q 3009 3575 3134 3559 
L 3138 2547 
z
" transform="scale(0.015625)"/>
     </defs>
     <use xlink:href="#DejaVuSans-Bold-31"/>
     <use xlink:href="#DejaVuSans-Bold-2e" x="69.580078"/>
     <use xlink:href="#DejaVuSans-Bold-30" x="107.568359"/>
     <use xlink:href="#DejaVuSans-Bold-20" x="177.148438"/>
     <use xlink:href="#DejaVuSans-Bold-6d" x="211.962891"/>
     <use xlink:href="#DejaVuSans-Bold-20" x="316.162109"/>
     <use xlink:href="#DejaVuSans-Bold-6f" x="350.976562"/>
     <use xlink:href="#DejaVuSans-Bold-76" x="419.677734"/>
     <use xlink:href="#DejaVuSans-Bold-65" x="484.863281"/>
     <use xlink:href="#DejaVuSans-Bold-72" x="552.685547"/>
     <use xlink:href="#DejaVuSans-Bold-68" x="602.001953"/>
     <use xlink:href="#DejaVuSans-Bold-61" x="673.193359"/>
     <use xlink:href="#DejaVuSans-Bold-6e" x="740.673828"/>
     <use xlink:href="#DejaVuSans-Bold-67" x="811.865234"/>
    </g>
   </g>
  </g>
 </g>
 <defs>
  <clipPath id="p0a1440d9b9">
   <rect x="19.883068" y="7.2" width="783" height="626.4"/>
  </clipPath>
 </defs>
</svg>
