<?xml version="1.0" encoding="utf-8" standalone="no"?>
<!DOCTYPE svg PUBLIC "-//W3C//DTD SVG 1.1//EN"
  "http://www.w3.org/Graphics/SVG/1.1/DTD/svg11.dtd">
<svg xmlns:xlink="http://www.w3.org/1999/xlink" width="1091.163466pt" height="681.053437pt" viewBox="0 0 1091.163466 681.053437" xmlns="http://www.w3.org/2000/svg" version="1.1">
 <metadata>
  <rdf:RDF xmlns:dc="http://purl.org/dc/elements/1.1/" xmlns:cc="http://creativecommons.org/ns#" xmlns:rdf="http://www.w3.org/1999/02/22-rdf-syntax-ns#">
   <cc:Work>
    <dc:type rdf:resource="http://purl.org/dc/dcmitype/StillImage"/>
    <dc:date>2025-09-25T14:21:36.695271</dc:date>
    <dc:format>image/svg+xml</dc:format>
    <dc:creator>
     <cc:Agent>
      <dc:title>Matplotlib v3.5.2, https://matplotlib.org/</dc:title>
     </cc:Agent>
    </dc:creator>
   </cc:Work>
  </rdf:RDF>
 </metadata>
 <defs>
  <style type="text/css">*{stroke-linejoin: round; stroke-linecap: butt}</style>
 </defs>
 <g id="figure_1">
  <g id="patch_1">
   <path d="M 0 681.053437 
L 1091.163466 681.053437 
L 1091.163466 0 
L 0 0 
z
" style="fill: #f8fafc"/>
  </g>
  <g id="axes_1">
   <g id="patch_2">
    <path d="M 113.064063 581.155937 
L 1034.664062 581.155937 
L 1034.664062 26.755937 
L 113.064063 26.755937 
z
" style="fill: #f8fafc"/>
   </g>
   <g id="PolyCollection_1">
    <defs>
     <path id="mc4dc774626" d="M 154.954972 -404.758499 
L 154.954972 -546.839866 
L 161.366845 -545.741063 
L 167.778719 -544.64226 
L 174.190593 -543.543456 
L 180.602467 -542.444653 
L 187.014341 -541.34585 
L 193.426215 -540.247047 
L 199.838088 -539.148243 
L 206.249962 -538.04944 
L 212.661836 -536.950637 
L 219.07371 -535.851834 
L 225.485584 -534.75303 
L 231.897458 -533.654227 
L 238.309332 -532.555424 
L 244.721205 -531.45662 
L 251.133079 -530.357817 
L 257.544953 -529.259014 
L 263.956827 -528.160211 
L 270.368701 -527.061407 
L 276.780575 -525.962604 
L 283.192448 -524.863801 
L 289.604322 -523.764998 
L 296.016196 -522.666194 
L 302.42807 -521.567391 
L 308.839944 -520.468588 
L 315.251818 -519.369784 
L 321.663691 -518.270981 
L 328.075565 -517.172178 
L 334.487439 -516.073375 
L 340.899313 -514.974571 
L 347.311187 -513.875768 
L 353.723061 -512.776965 
L 360.134934 -511.678162 
L 366.546808 -510.579358 
L 372.958682 -509.480555 
L 379.370556 -508.381752 
L 385.78243 -507.282948 
L 392.194304 -506.184145 
L 398.606178 -505.085342 
L 405.018051 -503.986539 
L 411.429925 -502.887735 
L 417.841799 -501.788932 
L 424.253673 -500.690129 
L 430.665547 -499.591326 
L 437.077421 -498.492522 
L 443.489294 -497.393719 
L 449.901168 -496.294916 
L 456.313042 -495.196113 
L 462.724916 -494.097309 
L 462.724916 -404.758499 
L 462.724916 -404.758499 
L 456.313042 -404.758499 
L 449.901168 -404.758499 
L 443.489294 -404.758499 
L 437.077421 -404.758499 
L 430.665547 -404.758499 
L 424.253673 -404.758499 
L 417.841799 -404.758499 
L 411.429925 -404.758499 
L 405.018051 -404.758499 
L 398.606178 -404.758499 
L 392.194304 -404.758499 
L 385.78243 -404.758499 
L 379.370556 -404.758499 
L 372.958682 -404.758499 
L 366.546808 -404.758499 
L 360.134934 -404.758499 
L 353.723061 -404.758499 
L 347.311187 -404.758499 
L 340.899313 -404.758499 
L 334.487439 -404.758499 
L 328.075565 -404.758499 
L 321.663691 -404.758499 
L 315.251818 -404.758499 
L 308.839944 -404.758499 
L 302.42807 -404.758499 
L 296.016196 -404.758499 
L 289.604322 -404.758499 
L 283.192448 -404.758499 
L 276.780575 -404.758499 
L 270.368701 -404.758499 
L 263.956827 -404.758499 
L 257.544953 -404.758499 
L 251.133079 -404.758499 
L 244.721205 -404.758499 
L 238.309332 -404.758499 
L 231.897458 -404.758499 
L 225.485584 -404.758499 
L 219.07371 -404.758499 
L 212.661836 -404.758499 
L 206.249962 -404.758499 
L 199.838088 -404.758499 
L 193.426215 -404.758499 
L 187.014341 -404.758499 
L 180.602467 -404.758499 
L 174.190593 -404.758499 
L 167.778719 -404.758499 
L 161.366845 -404.758499 
L 154.954972 -404.758499 
z
" style="stroke: #008080; stroke-opacity: 0.3"/>
    </defs>
    <g clip-path="url(#p1f0955a065)">
     <use xlink:href="#mc4dc774626" x="0" y="681.053437" style="fill: #008080; fill-opacity: 0.3; stroke: #008080; stroke-opacity: 0.3"/>
    </g>
   </g>
   <g id="PolyCollection_2">
    <defs>
     <path id="m8b3a2f40c4" d="M 469.13679 -404.758499 
L 469.13679 -178.923904 
L 469.13679 -404.758499 
L 469.13679 -404.758499 
z
" style="stroke: #e67e22; stroke-opacity: 0.3"/>
    </defs>
    <g clip-path="url(#p1f0955a065)">
     <use xlink:href="#m8b3a2f40c4" x="0" y="681.053437" style="fill: #e67e22; fill-opacity: 0.3; stroke: #e67e22; stroke-opacity: 0.3"/>
    </g>
   </g>
   <g id="PolyCollection_3">
    <defs>
     <path id="m01baa9673e" d="M 783.318608 -404.758499 
L 783.318608 -629.0975 
L 783.318608 -404.758499 
L 783.318608 -404.758499 
z
" style="stroke: #008080; stroke-opacity: 0.3"/>
    </defs>
    <g clip-path="url(#p1f0955a065)">
     <use xlink:href="#m01baa9673e" x="0" y="681.053437" style="fill: #008080; fill-opacity: 0.3; stroke: #008080; stroke-opacity: 0.3"/>
    </g>
   </g>
   <g id="PolyCollection_4">
    <defs>
     <path id="m14703a1c49" d="M 469.346244 -404.758499 
L 469.346244 -178.88801 
L 475.753844 -177.789939 
L 482.161443 -176.691869 
L 488.569042 -175.593798 
L 494.976641 -174.495727 
L 501.384241 -173.397656 
L 507.79184 -172.299586 
L 514.199439 -171.201515 
L 520.607038 -170.103444 
L 527.014638 -169.005373 
L 533.422237 -167.907303 
L 539.829836 -166.809232 
L 546.237435 -165.711161 
L 552.645035 -164.613091 
L 559.052634 -163.51502 
L 565.460233 -162.416949 
L 571.867832 -161.318878 
L 578.275432 -160.220808 
L 584.683031 -159.122737 
L 591.09063 -158.024666 
L 597.498229 -156.926595 
L 603.905829 -155.828525 
L 610.313428 -154.730454 
L 616.721027 -153.632383 
L 623.128627 -152.534312 
L 629.536226 -151.436242 
L 635.943825 -150.338171 
L 642.351424 -149.2401 
L 648.759024 -148.14203 
L 655.166623 -147.043959 
L 661.574222 -145.945888 
L 667.981821 -144.847817 
L 674.389421 -143.749747 
L 680.79702 -142.651676 
L 687.204619 -141.553605 
L 693.612218 -140.455534 
L 700.019818 -139.357464 
L 706.427417 -138.259393 
L 712.835016 -137.161322 
L 719.242615 -136.063251 
L 725.650215 -134.965181 
L 732.057814 -133.86711 
L 738.465413 -132.769039 
L 744.873012 -131.670968 
L 751.280612 -130.572898 
L 757.688211 -129.474827 
L 764.09581 -128.376756 
L 770.503409 -127.278686 
L 776.911009 -126.180615 
L 776.911009 -404.758499 
L 776.911009 -404.758499 
L 770.503409 -404.758499 
L 764.09581 -404.758499 
L 757.688211 -404.758499 
L 751.280612 -404.758499 
L 744.873012 -404.758499 
L 738.465413 -404.758499 
L 732.057814 -404.758499 
L 725.650215 -404.758499 
L 719.242615 -404.758499 
L 712.835016 -404.758499 
L 706.427417 -404.758499 
L 700.019818 -404.758499 
L 693.612218 -404.758499 
L 687.204619 -404.758499 
L 680.79702 -404.758499 
L 674.389421 -404.758499 
L 667.981821 -404.758499 
L 661.574222 -404.758499 
L 655.166623 -404.758499 
L 648.759024 -404.758499 
L 642.351424 -404.758499 
L 635.943825 -404.758499 
L 629.536226 -404.758499 
L 623.128627 -404.758499 
L 616.721027 -404.758499 
L 610.313428 -404.758499 
L 603.905829 -404.758499 
L 597.498229 -404.758499 
L 591.09063 -404.758499 
L 584.683031 -404.758499 
L 578.275432 -404.758499 
L 571.867832 -404.758499 
L 565.460233 -404.758499 
L 559.052634 -404.758499 
L 552.645035 -404.758499 
L 546.237435 -404.758499 
L 539.829836 -404.758499 
L 533.422237 -404.758499 
L 527.014638 -404.758499 
L 520.607038 -404.758499 
L 514.199439 -404.758499 
L 507.79184 -404.758499 
L 501.384241 -404.758499 
L 494.976641 -404.758499 
L 488.569042 -404.758499 
L 482.161443 -404.758499 
L 475.753844 -404.758499 
L 469.346244 -404.758499 
z
" style="stroke: #e67e22; stroke-opacity: 0.3"/>
    </defs>
    <g clip-path="url(#p1f0955a065)">
     <use xlink:href="#m14703a1c49" x="0" y="681.053437" style="fill: #e67e22; fill-opacity: 0.3; stroke: #e67e22; stroke-opacity: 0.3"/>
    </g>
   </g>
   <g id="PolyCollection_5">
    <defs>
     <path id="mc11042a90b" d="M 783.528063 -404.758499 
L 783.528063 -629.061606 
L 787.79837 -628.329803 
L 792.068678 -627.598 
L 796.338986 -626.866197 
L 800.609294 -626.134394 
L 804.879602 -625.402591 
L 809.14991 -624.670788 
L 813.420218 -623.938985 
L 817.690526 -623.207182 
L 821.960834 -622.475379 
L 826.231142 -621.743576 
L 830.50145 -621.011773 
L 834.771758 -620.27997 
L 839.042066 -619.548167 
L 843.312374 -618.816364 
L 847.582682 -618.084561 
L 851.85299 -617.352758 
L 856.123298 -616.620955 
L 860.393606 -615.889152 
L 864.663914 -615.157349 
L 868.934222 -614.425546 
L 873.20453 -613.693743 
L 877.474838 -612.96194 
L 881.745146 -612.230137 
L 886.015454 -611.498334 
L 890.285762 -610.766531 
L 894.55607 -610.034728 
L 898.826378 -609.302925 
L 903.096686 -608.571122 
L 907.366994 -607.839319 
L 911.637302 -607.107516 
L 915.90761 -606.375713 
L 920.177918 -605.64391 
L 924.448226 -604.912107 
L 928.718534 -604.180304 
L 932.988842 -603.448502 
L 937.25915 -602.716699 
L 941.529458 -601.984896 
L 945.799766 -601.253093 
L 950.070074 -600.52129 
L 954.340382 -599.789487 
L 958.61069 -599.057684 
L 962.880998 -598.325881 
L 967.151306 -597.594078 
L 971.421614 -596.862275 
L 975.691921 -596.130472 
L 979.962229 -595.398669 
L 984.232537 -594.666866 
L 988.502845 -593.935063 
L 992.773153 -404.758499 
L 992.773153 -404.758499 
L 992.773153 -404.758499 
L 988.502845 -404.758499 
L 984.232537 -404.758499 
L 979.962229 -404.758499 
L 975.691921 -404.758499 
L 971.421614 -404.758499 
L 967.151306 -404.758499 
L 962.880998 -404.758499 
L 958.61069 -404.758499 
L 954.340382 -404.758499 
L 950.070074 -404.758499 
L 945.799766 -404.758499 
L 941.529458 -404.758499 
L 937.25915 -404.758499 
L 932.988842 -404.758499 
L 928.718534 -404.758499 
L 924.448226 -404.758499 
L 920.177918 -404.758499 
L 915.90761 -404.758499 
L 911.637302 -404.758499 
L 907.366994 -404.758499 
L 903.096686 -404.758499 
L 898.826378 -404.758499 
L 894.55607 -404.758499 
L 890.285762 -404.758499 
L 886.015454 -404.758499 
L 881.745146 -404.758499 
L 877.474838 -404.758499 
L 873.20453 -404.758499 
L 868.934222 -404.758499 
L 864.663914 -404.758499 
L 860.393606 -404.758499 
L 856.123298 -404.758499 
L 851.85299 -404.758499 
L 847.582682 -404.758499 
L 843.312374 -404.758499 
L 839.042066 -404.758499 
L 834.771758 -404.758499 
L 830.50145 -404.758499 
L 826.231142 -404.758499 
L 821.960834 -404.758499 
L 817.690526 -404.758499 
L 813.420218 -404.758499 
L 809.14991 -404.758499 
L 804.879602 -404.758499 
L 800.609294 -404.758499 
L 796.338986 -404.758499 
L 792.068678 -404.758499 
L 787.79837 -404.758499 
L 783.528063 -404.758499 
z
" style="stroke: #008080; stroke-opacity: 0.3"/>
    </defs>
    <g clip-path="url(#p1f0955a065)">
     <use xlink:href="#mc11042a90b" x="0" y="681.053437" style="fill: #008080; fill-opacity: 0.3; stroke: #008080; stroke-opacity: 0.3"/>
    </g>
   </g>
   <g id="PolyCollection_6"/>
   <g id="matplotlib.axis_1">
    <g id="xtick_1">
     <g id="line2d_1">
      <path d="M 154.954972 581.155937 
L 154.954972 26.755937 
" clip-path="url(#p1f0955a065)" style="fill: none; stroke: #95a5a6; stroke-opacity: 0.3; stroke-width: 2; stroke-linecap: square"/>
     </g>
     <g id="line2d_2">
      <defs>
       <path id="m8ab916eb94" d="M 0 0 
L 0 10 
" style="stroke: #2c3e50; stroke-width: 4"/>
      </defs>
      <g>
       <use xlink:href="#m8ab916eb94" x="154.954972" y="581.155937" style="fill: #2c3e50; stroke: #2c3e50; stroke-width: 4"/>
      </g>
     </g>
     <g id="text_1">
      <!-- 0.0 -->
      <g style="fill: #2c3e50" transform="translate(134.280909 614.411875)scale(0.26 -0.26)">
       <defs>
        <path id="DejaVuSans-30" d="M 2034 4250 
Q 1547 4250 1301 3770 
Q 1056 3291 1056 2328 
Q 1056 1369 1301 889 
Q 1547 409 2034 409 
Q 2525 409 2770 889 
Q 3016 1369 3016 2328 
Q 3016 3291 2770 3770 
Q 2525 4250 2034 4250 
z
M 2034 4750 
Q 2819 4750 3233 4129 
Q 3647 3509 3647 2328 
Q 3647 1150 3233 529 
Q 2819 -91 2034 -91 
Q 1250 -91 836 529 
Q 422 1150 422 2328 
Q 422 3509 836 4129 
Q 1250 4750 2034 4750 
z
" transform="scale(0.015625)"/>
        <path id="DejaVuSans-2e" d="M 684 794 
L 1344 794 
L 1344 0 
L 684 0 
L 684 794 
z
" transform="scale(0.015625)"/>
       </defs>
       <use xlink:href="#DejaVuSans-30"/>
       <use xlink:href="#DejaVuSans-2e" x="63.623047"/>
       <use xlink:href="#DejaVuSans-30" x="95.410156"/>
      </g>
     </g>
    </g>
    <g id="xtick_2">
     <g id="line2d_3">
      <path d="M 259.682244 581.155937 
L 259.682244 26.755937 
" clip-path="url(#p1f0955a065)" style="fill: none; stroke: #95a5a6; stroke-opacity: 0.3; stroke-width: 2; stroke-linecap: square"/>
     </g>
     <g id="line2d_4">
      <g>
       <use xlink:href="#m8ab916eb94" x="259.682244" y="581.155937" style="fill: #2c3e50; stroke: #2c3e50; stroke-width: 4"/>
      </g>
     </g>
     <g id="text_2">
      <!-- 0.5 -->
      <g style="fill: #2c3e50" transform="translate(239.008182 614.411875)scale(0.26 -0.26)">
       <defs>
        <path id="DejaVuSans-35" d="M 691 4666 
L 3169 4666 
L 3169 4134 
L 1269 4134 
L 1269 2991 
Q 1406 3038 1543 3061 
Q 1681 3084 1819 3084 
Q 2600 3084 3056 2656 
Q 3513 2228 3513 1497 
Q 3513 744 3044 326 
Q 2575 -91 1722 -91 
Q 1428 -91 1123 -41 
Q 819 9 494 109 
L 494 744 
Q 775 591 1075 516 
Q 1375 441 1709 441 
Q 2250 441 2565 725 
Q 2881 1009 2881 1497 
Q 2881 1984 2565 2268 
Q 2250 2553 1709 2553 
Q 1456 2553 1204 2497 
Q 953 2441 691 2322 
L 691 4666 
z
" transform="scale(0.015625)"/>
       </defs>
       <use xlink:href="#DejaVuSans-30"/>
       <use xlink:href="#DejaVuSans-2e" x="63.623047"/>
       <use xlink:href="#DejaVuSans-35" x="95.410156"/>
      </g>
     </g>
    </g>
    <g id="xtick_3">
     <g id="line2d_5">
      <path d="M 364.409517 581.155937 
L 364.409517 26.755937 
" clip-path="url(#p1f0955a065)" style="fill: none; stroke: #95a5a6; stroke-opacity: 0.3; stroke-width: 2; stroke-linecap: square"/>
     </g>
     <g id="line2d_6">
      <g>
       <use xlink:href="#m8ab916eb94" x="364.409517" y="581.155937" style="fill: #2c3e50; stroke: #2c3e50; stroke-width: 4"/>
      </g>
     </g>
     <g id="text_3">
      <!-- 1.0 -->
      <g style="fill: #2c3e50" transform="translate(343.735455 614.411875)scale(0.26 -0.26)">
       <defs>
        <path id="DejaVuSans-31" d="M 794 531 
L 1825 531 
L 1825 4091 
L 703 3866 
L 703 4441 
L 1819 4666 
L 2450 4666 
L 2450 531 
L 3481 531 
L 3481 0 
L 794 0 
L 794 531 
z
" transform="scale(0.015625)"/>
       </defs>
       <use xlink:href="#DejaVuSans-31"/>
       <use xlink:href="#DejaVuSans-2e" x="63.623047"/>
       <use xlink:href="#DejaVuSans-30" x="95.410156"/>
      </g>
     </g>
    </g>
    <g id="xtick_4">
     <g id="line2d_7">
      <path d="M 469.13679 581.155937 
L 469.13679 26.755937 
" clip-path="url(#p1f0955a065)" style="fill: none; stroke: #95a5a6; stroke-opacity: 0.3; stroke-width: 2; stroke-linecap: square"/>
     </g>
     <g id="line2d_8">
      <g>
       <use xlink:href="#m8ab916eb94" x="469.13679" y="581.155937" style="fill: #2c3e50; stroke: #2c3e50; stroke-width: 4"/>
      </g>
     </g>
     <g id="text_4">
      <!-- 1.5 -->
      <g style="fill: #2c3e50" transform="translate(448.462727 614.411875)scale(0.26 -0.26)">
       <use xlink:href="#DejaVuSans-31"/>
       <use xlink:href="#DejaVuSans-2e" x="63.623047"/>
       <use xlink:href="#DejaVuSans-35" x="95.410156"/>
      </g>
     </g>
    </g>
    <g id="xtick_5">
     <g id="line2d_9">
      <path d="M 573.864063 581.155937 
L 573.864063 26.755937 
" clip-path="url(#p1f0955a065)" style="fill: none; stroke: #95a5a6; stroke-opacity: 0.3; stroke-width: 2; stroke-linecap: square"/>
     </g>
     <g id="line2d_10">
      <g>
       <use xlink:href="#m8ab916eb94" x="573.864063" y="581.155937" style="fill: #2c3e50; stroke: #2c3e50; stroke-width: 4"/>
      </g>
     </g>
     <g id="text_5">
      <!-- 2.0 -->
      <g style="fill: #2c3e50" transform="translate(553.19 614.411875)scale(0.26 -0.26)">
       <defs>
        <path id="DejaVuSans-32" d="M 1228 531 
L 3431 531 
L 3431 0 
L 469 0 
L 469 531 
Q 828 903 1448 1529 
Q 2069 2156 2228 2338 
Q 2531 2678 2651 2914 
Q 2772 3150 2772 3378 
Q 2772 3750 2511 3984 
Q 2250 4219 1831 4219 
Q 1534 4219 1204 4116 
Q 875 4013 500 3803 
L 500 4441 
Q 881 4594 1212 4672 
Q 1544 4750 1819 4750 
Q 2544 4750 2975 4387 
Q 3406 4025 3406 3419 
Q 3406 3131 3298 2873 
Q 3191 2616 2906 2266 
Q 2828 2175 2409 1742 
Q 1991 1309 1228 531 
z
" transform="scale(0.015625)"/>
       </defs>
       <use xlink:href="#DejaVuSans-32"/>
       <use xlink:href="#DejaVuSans-2e" x="63.623047"/>
       <use xlink:href="#DejaVuSans-30" x="95.410156"/>
      </g>
     </g>
    </g>
    <g id="xtick_6">
     <g id="line2d_11">
      <path d="M 678.591335 581.155937 
L 678.591335 26.755937 
" clip-path="url(#p1f0955a065)" style="fill: none; stroke: #95a5a6; stroke-opacity: 0.3; stroke-width: 2; stroke-linecap: square"/>
     </g>
     <g id="line2d_12">
      <g>
       <use xlink:href="#m8ab916eb94" x="678.591335" y="581.155937" style="fill: #2c3e50; stroke: #2c3e50; stroke-width: 4"/>
      </g>
     </g>
     <g id="text_6">
      <!-- 2.5 -->
      <g style="fill: #2c3e50" transform="translate(657.917273 614.411875)scale(0.26 -0.26)">
       <use xlink:href="#DejaVuSans-32"/>
       <use xlink:href="#DejaVuSans-2e" x="63.623047"/>
       <use xlink:href="#DejaVuSans-35" x="95.410156"/>
      </g>
     </g>
    </g>
    <g id="xtick_7">
     <g id="line2d_13">
      <path d="M 783.318608 581.155937 
L 783.318608 26.755937 
" clip-path="url(#p1f0955a065)" style="fill: none; stroke: #95a5a6; stroke-opacity: 0.3; stroke-width: 2; stroke-linecap: square"/>
     </g>
     <g id="line2d_14">
      <g>
       <use xlink:href="#m8ab916eb94" x="783.318608" y="581.155937" style="fill: #2c3e50; stroke: #2c3e50; stroke-width: 4"/>
      </g>
     </g>
     <g id="text_7">
      <!-- 3.0 -->
      <g style="fill: #2c3e50" transform="translate(762.644545 614.411875)scale(0.26 -0.26)">
       <defs>
        <path id="DejaVuSans-33" d="M 2597 2516 
Q 3050 2419 3304 2112 
Q 3559 1806 3559 1356 
Q 3559 666 3084 287 
Q 2609 -91 1734 -91 
Q 1441 -91 1130 -33 
Q 819 25 488 141 
L 488 750 
Q 750 597 1062 519 
Q 1375 441 1716 441 
Q 2309 441 2620 675 
Q 2931 909 2931 1356 
Q 2931 1769 2642 2001 
Q 2353 2234 1838 2234 
L 1294 2234 
L 1294 2753 
L 1863 2753 
Q 2328 2753 2575 2939 
Q 2822 3125 2822 3475 
Q 2822 3834 2567 4026 
Q 2313 4219 1838 4219 
Q 1578 4219 1281 4162 
Q 984 4106 628 3988 
L 628 4550 
Q 988 4650 1302 4700 
Q 1616 4750 1894 4750 
Q 2613 4750 3031 4423 
Q 3450 4097 3450 3541 
Q 3450 3153 3228 2886 
Q 3006 2619 2597 2516 
z
" transform="scale(0.015625)"/>
       </defs>
       <use xlink:href="#DejaVuSans-33"/>
       <use xlink:href="#DejaVuSans-2e" x="63.623047"/>
       <use xlink:href="#DejaVuSans-30" x="95.410156"/>
      </g>
     </g>
    </g>
    <g id="xtick_8">
     <g id="line2d_15">
      <path d="M 888.045881 581.155937 
L 888.045881 26.755937 
" clip-path="url(#p1f0955a065)" style="fill: none; stroke: #95a5a6; stroke-opacity: 0.3; stroke-width: 2; stroke-linecap: square"/>
     </g>
     <g id="line2d_16">
      <g>
       <use xlink:href="#m8ab916eb94" x="888.045881" y="581.155937" style="fill: #2c3e50; stroke: #2c3e50; stroke-width: 4"/>
      </g>
     </g>
     <g id="text_8">
      <!-- 3.5 -->
      <g style="fill: #2c3e50" transform="translate(867.371818 614.411875)scale(0.26 -0.26)">
       <use xlink:href="#DejaVuSans-33"/>
       <use xlink:href="#DejaVuSans-2e" x="63.623047"/>
       <use xlink:href="#DejaVuSans-35" x="95.410156"/>
      </g>
     </g>
    </g>
    <g id="xtick_9">
     <g id="line2d_17">
      <path d="M 992.773153 581.155937 
L 992.773153 26.755937 
" clip-path="url(#p1f0955a065)" style="fill: none; stroke: #95a5a6; stroke-opacity: 0.3; stroke-width: 2; stroke-linecap: square"/>
     </g>
     <g id="line2d_18">
      <g>
       <use xlink:href="#m8ab916eb94" x="992.773153" y="581.155937" style="fill: #2c3e50; stroke: #2c3e50; stroke-width: 4"/>
      </g>
     </g>
     <g id="text_9">
      <!-- 4.0 -->
      <g style="fill: #2c3e50" transform="translate(972.099091 614.411875)scale(0.26 -0.26)">
       <defs>
        <path id="DejaVuSans-34" d="M 2419 4116 
L 825 1625 
L 2419 1625 
L 2419 4116 
z
M 2253 4666 
L 3047 4666 
L 3047 1625 
L 3713 1625 
L 3713 1100 
L 3047 1100 
L 3047 0 
L 2419 0 
L 2419 1100 
L 313 1100 
L 313 1709 
L 2253 4666 
z
" transform="scale(0.015625)"/>
       </defs>
       <use xlink:href="#DejaVuSans-34"/>
       <use xlink:href="#DejaVuSans-2e" x="63.623047"/>
       <use xlink:href="#DejaVuSans-30" x="95.410156"/>
      </g>
     </g>
    </g>
    <g id="text_10">
     <!-- Distance from Support A (m) -->
     <g style="fill: #2c3e50" transform="translate(330.784375 667.614375)scale(0.3 -0.3)">
      <defs>
       <path id="DejaVuSans-Bold-44" d="M 1791 3756 
L 1791 909 
L 2222 909 
Q 2959 909 3348 1275 
Q 3738 1641 3738 2338 
Q 3738 3031 3350 3393 
Q 2963 3756 2222 3756 
L 1791 3756 
z
M 588 4666 
L 1856 4666 
Q 2919 4666 3439 4514 
Q 3959 4363 4331 4000 
Q 4659 3684 4818 3271 
Q 4978 2859 4978 2338 
Q 4978 1809 4818 1395 
Q 4659 981 4331 666 
Q 3956 303 3431 151 
Q 2906 0 1856 0 
L 588 0 
L 588 4666 
z
" transform="scale(0.015625)"/>
       <path id="DejaVuSans-Bold-69" d="M 538 3500 
L 1656 3500 
L 1656 0 
L 538 0 
L 538 3500 
z
M 538 4863 
L 1656 4863 
L 1656 3950 
L 538 3950 
L 538 4863 
z
" transform="scale(0.015625)"/>
       <path id="DejaVuSans-Bold-73" d="M 3272 3391 
L 3272 2541 
Q 2913 2691 2578 2766 
Q 2244 2841 1947 2841 
Q 1628 2841 1473 2761 
Q 1319 2681 1319 2516 
Q 1319 2381 1436 2309 
Q 1553 2238 1856 2203 
L 2053 2175 
Q 2913 2066 3209 1816 
Q 3506 1566 3506 1031 
Q 3506 472 3093 190 
Q 2681 -91 1863 -91 
Q 1516 -91 1145 -36 
Q 775 19 384 128 
L 384 978 
Q 719 816 1070 734 
Q 1422 653 1784 653 
Q 2113 653 2278 743 
Q 2444 834 2444 1013 
Q 2444 1163 2330 1236 
Q 2216 1309 1875 1350 
L 1678 1375 
Q 931 1469 631 1722 
Q 331 1975 331 2491 
Q 331 3047 712 3315 
Q 1094 3584 1881 3584 
Q 2191 3584 2531 3537 
Q 2872 3491 3272 3391 
z
" transform="scale(0.015625)"/>
       <path id="DejaVuSans-Bold-74" d="M 1759 4494 
L 1759 3500 
L 2913 3500 
L 2913 2700 
L 1759 2700 
L 1759 1216 
Q 1759 972 1856 886 
Q 1953 800 2241 800 
L 2816 800 
L 2816 0 
L 1856 0 
Q 1194 0 917 276 
Q 641 553 641 1216 
L 641 2700 
L 84 2700 
L 84 3500 
L 641 3500 
L 641 4494 
L 1759 4494 
z
" transform="scale(0.015625)"/>
       <path id="DejaVuSans-Bold-61" d="M 2106 1575 
Q 1756 1575 1579 1456 
Q 1403 1338 1403 1106 
Q 1403 894 1545 773 
Q 1688 653 1941 653 
Q 2256 653 2472 879 
Q 2688 1106 2688 1447 
L 2688 1575 
L 2106 1575 
z
M 3816 1997 
L 3816 0 
L 2688 0 
L 2688 519 
Q 2463 200 2181 54 
Q 1900 -91 1497 -91 
Q 953 -91 614 226 
Q 275 544 275 1050 
Q 275 1666 698 1953 
Q 1122 2241 2028 2241 
L 2688 2241 
L 2688 2328 
Q 2688 2594 2478 2717 
Q 2269 2841 1825 2841 
Q 1466 2841 1156 2769 
Q 847 2697 581 2553 
L 581 3406 
Q 941 3494 1303 3539 
Q 1666 3584 2028 3584 
Q 2975 3584 3395 3211 
Q 3816 2838 3816 1997 
z
" transform="scale(0.015625)"/>
       <path id="DejaVuSans-Bold-6e" d="M 4056 2131 
L 4056 0 
L 2931 0 
L 2931 347 
L 2931 1631 
Q 2931 2084 2911 2256 
Q 2891 2428 2841 2509 
Q 2775 2619 2662 2680 
Q 2550 2741 2406 2741 
Q 2056 2741 1856 2470 
Q 1656 2200 1656 1722 
L 1656 0 
L 538 0 
L 538 3500 
L 1656 3500 
L 1656 2988 
Q 1909 3294 2193 3439 
Q 2478 3584 2822 3584 
Q 3428 3584 3742 3212 
Q 4056 2841 4056 2131 
z
" transform="scale(0.015625)"/>
       <path id="DejaVuSans-Bold-63" d="M 3366 3391 
L 3366 2478 
Q 3138 2634 2908 2709 
Q 2678 2784 2431 2784 
Q 1963 2784 1702 2511 
Q 1441 2238 1441 1747 
Q 1441 1256 1702 982 
Q 1963 709 2431 709 
Q 2694 709 2930 787 
Q 3166 866 3366 1019 
L 3366 103 
Q 3103 6 2833 -42 
Q 2563 -91 2291 -91 
Q 1344 -91 809 395 
Q 275 881 275 1747 
Q 275 2613 809 3098 
Q 1344 3584 2291 3584 
Q 2566 3584 2833 3536 
Q 3100 3488 3366 3391 
z
" transform="scale(0.015625)"/>
       <path id="DejaVuSans-Bold-65" d="M 4031 1759 
L 4031 1441 
L 1416 1441 
Q 1456 1047 1700 850 
Q 1944 653 2381 653 
Q 2734 653 3104 758 
Q 3475 863 3866 1075 
L 3866 213 
Q 3469 63 3072 -14 
Q 2675 -91 2278 -91 
Q 1328 -91 801 392 
Q 275 875 275 1747 
Q 275 2603 792 3093 
Q 1309 3584 2216 3584 
Q 3041 3584 3536 3087 
Q 4031 2591 4031 1759 
z
M 2881 2131 
Q 2881 2450 2695 2645 
Q 2509 2841 2209 2841 
Q 1884 2841 1681 2658 
Q 1478 2475 1428 2131 
L 2881 2131 
z
" transform="scale(0.015625)"/>
       <path id="DejaVuSans-Bold-20" transform="scale(0.015625)"/>
       <path id="DejaVuSans-Bold-66" d="M 2841 4863 
L 2841 4128 
L 2222 4128 
Q 1984 4128 1890 4042 
Q 1797 3956 1797 3744 
L 1797 3500 
L 2753 3500 
L 2753 2700 
L 1797 2700 
L 1797 0 
L 678 0 
L 678 2700 
L 122 2700 
L 122 3500 
L 678 3500 
L 678 3744 
Q 678 4316 997 4589 
Q 1316 4863 1984 4863 
L 2841 4863 
z
" transform="scale(0.015625)"/>
       <path id="DejaVuSans-Bold-72" d="M 3138 2547 
Q 2991 2616 2845 2648 
Q 2700 2681 2553 2681 
Q 2122 2681 1889 2404 
Q 1656 2128 1656 1613 
L 1656 0 
L 538 0 
L 538 3500 
L 1656 3500 
L 1656 2925 
Q 1872 3269 2151 3426 
Q 2431 3584 2822 3584 
Q 2878 3584 2943 3579 
Q 3009 3575 3134 3559 
L 3138 2547 
z
" transform="scale(0.015625)"/>
       <path id="DejaVuSans-Bold-6f" d="M 2203 2784 
Q 1831 2784 1636 2517 
Q 1441 2250 1441 1747 
Q 1441 1244 1636 976 
Q 1831 709 2203 709 
Q 2569 709 2762 976 
Q 2956 1244 2956 1747 
Q 2956 2250 2762 2517 
Q 2569 2784 2203 2784 
z
M 2203 3584 
Q 3106 3584 3614 3096 
Q 4122 2609 4122 1747 
Q 4122 884 3614 396 
Q 3106 -91 2203 -91 
Q 1297 -91 786 396 
Q 275 884 275 1747 
Q 275 2609 786 3096 
Q 1297 3584 2203 3584 
z
" transform="scale(0.015625)"/>
       <path id="DejaVuSans-Bold-6d" d="M 3781 2919 
Q 3994 3244 4286 3414 
Q 4578 3584 4928 3584 
Q 5531 3584 5847 3212 
Q 6163 2841 6163 2131 
L 6163 0 
L 5038 0 
L 5038 1825 
Q 5041 1866 5042 1909 
Q 5044 1953 5044 2034 
Q 5044 2406 4934 2573 
Q 4825 2741 4581 2741 
Q 4263 2741 4089 2478 
Q 3916 2216 3909 1719 
L 3909 0 
L 2784 0 
L 2784 1825 
Q 2784 2406 2684 2573 
Q 2584 2741 2328 2741 
Q 2006 2741 1831 2477 
Q 1656 2213 1656 1722 
L 1656 0 
L 531 0 
L 531 3500 
L 1656 3500 
L 1656 2988 
Q 1863 3284 2130 3434 
Q 2397 3584 2719 3584 
Q 3081 3584 3359 3409 
Q 3638 3234 3781 2919 
z
" transform="scale(0.015625)"/>
       <path id="DejaVuSans-Bold-53" d="M 3834 4519 
L 3834 3531 
Q 3450 3703 3084 3790 
Q 2719 3878 2394 3878 
Q 1963 3878 1756 3759 
Q 1550 3641 1550 3391 
Q 1550 3203 1689 3098 
Q 1828 2994 2194 2919 
L 2706 2816 
Q 3484 2659 3812 2340 
Q 4141 2022 4141 1434 
Q 4141 663 3683 286 
Q 3225 -91 2284 -91 
Q 1841 -91 1394 -6 
Q 947 78 500 244 
L 500 1259 
Q 947 1022 1364 901 
Q 1781 781 2169 781 
Q 2563 781 2772 912 
Q 2981 1044 2981 1288 
Q 2981 1506 2839 1625 
Q 2697 1744 2272 1838 
L 1806 1941 
Q 1106 2091 782 2419 
Q 459 2747 459 3303 
Q 459 4000 909 4375 
Q 1359 4750 2203 4750 
Q 2588 4750 2994 4692 
Q 3400 4634 3834 4519 
z
" transform="scale(0.015625)"/>
       <path id="DejaVuSans-Bold-75" d="M 500 1363 
L 500 3500 
L 1625 3500 
L 1625 3150 
Q 1625 2866 1622 2436 
Q 1619 2006 1619 1863 
Q 1619 1441 1641 1255 
Q 1663 1069 1716 984 
Q 1784 875 1895 815 
Q 2006 756 2150 756 
Q 2500 756 2700 1025 
Q 2900 1294 2900 1772 
L 2900 3500 
L 4019 3500 
L 4019 0 
L 2900 0 
L 2900 506 
Q 2647 200 2364 54 
Q 2081 -91 1741 -91 
Q 1134 -91 817 281 
Q 500 653 500 1363 
z
" transform="scale(0.015625)"/>
       <path id="DejaVuSans-Bold-70" d="M 1656 506 
L 1656 -1331 
L 538 -1331 
L 538 3500 
L 1656 3500 
L 1656 2988 
Q 1888 3294 2169 3439 
Q 2450 3584 2816 3584 
Q 3463 3584 3878 3070 
Q 4294 2556 4294 1747 
Q 4294 938 3878 423 
Q 3463 -91 2816 -91 
Q 2450 -91 2169 54 
Q 1888 200 1656 506 
z
M 2400 2772 
Q 2041 2772 1848 2508 
Q 1656 2244 1656 1747 
Q 1656 1250 1848 986 
Q 2041 722 2400 722 
Q 2759 722 2948 984 
Q 3138 1247 3138 1747 
Q 3138 2247 2948 2509 
Q 2759 2772 2400 2772 
z
" transform="scale(0.015625)"/>
       <path id="DejaVuSans-Bold-41" d="M 3419 850 
L 1538 850 
L 1241 0 
L 31 0 
L 1759 4666 
L 3194 4666 
L 4922 0 
L 3713 0 
L 3419 850 
z
M 1838 1716 
L 3116 1716 
L 2478 3572 
L 1838 1716 
z
" transform="scale(0.015625)"/>
       <path id="DejaVuSans-Bold-28" d="M 2413 -844 
L 1484 -844 
Q 1006 -72 778 623 
Q 550 1319 550 2003 
Q 550 2688 779 3389 
Q 1009 4091 1484 4856 
L 2413 4856 
Q 2013 4116 1813 3408 
Q 1613 2700 1613 2009 
Q 1613 1319 1811 609 
Q 2009 -100 2413 -844 
z
" transform="scale(0.015625)"/>
       <path id="DejaVuSans-Bold-29" d="M 513 -844 
Q 913 -100 1113 609 
Q 1313 1319 1313 2009 
Q 1313 2700 1113 3408 
Q 913 4116 513 4856 
L 1441 4856 
Q 1916 4091 2145 3389 
Q 2375 2688 2375 2003 
Q 2375 1319 2147 623 
Q 1919 -72 1441 -844 
L 513 -844 
z
" transform="scale(0.015625)"/>
      </defs>
      <use xlink:href="#DejaVuSans-Bold-44"/>
      <use xlink:href="#DejaVuSans-Bold-69" x="83.007812"/>
      <use xlink:href="#DejaVuSans-Bold-73" x="117.285156"/>
      <use xlink:href="#DejaVuSans-Bold-74" x="176.806641"/>
      <use xlink:href="#DejaVuSans-Bold-61" x="224.609375"/>
      <use xlink:href="#DejaVuSans-Bold-6e" x="292.089844"/>
      <use xlink:href="#DejaVuSans-Bold-63" x="363.28125"/>
      <use xlink:href="#DejaVuSans-Bold-65" x="422.558594"/>
      <use xlink:href="#DejaVuSans-Bold-20" x="490.380859"/>
      <use xlink:href="#DejaVuSans-Bold-66" x="525.195312"/>
      <use xlink:href="#DejaVuSans-Bold-72" x="568.701172"/>
      <use xlink:href="#DejaVuSans-Bold-6f" x="618.017578"/>
      <use xlink:href="#DejaVuSans-Bold-6d" x="686.71875"/>
      <use xlink:href="#DejaVuSans-Bold-20" x="790.917969"/>
      <use xlink:href="#DejaVuSans-Bold-53" x="825.732422"/>
      <use xlink:href="#DejaVuSans-Bold-75" x="897.753906"/>
      <use xlink:href="#DejaVuSans-Bold-70" x="968.945312"/>
      <use xlink:href="#DejaVuSans-Bold-70" x="1040.527344"/>
      <use xlink:href="#DejaVuSans-Bold-6f" x="1112.109375"/>
      <use xlink:href="#DejaVuSans-Bold-72" x="1180.810547"/>
      <use xlink:href="#DejaVuSans-Bold-74" x="1230.126953"/>
      <use xlink:href="#DejaVuSans-Bold-20" x="1277.929688"/>
      <use xlink:href="#DejaVuSans-Bold-41" x="1312.744141"/>
      <use xlink:href="#DejaVuSans-Bold-20" x="1390.136719"/>
      <use xlink:href="#DejaVuSans-Bold-28" x="1424.951172"/>
      <use xlink:href="#DejaVuSans-Bold-6d" x="1470.654297"/>
      <use xlink:href="#DejaVuSans-Bold-29" x="1574.853516"/>
     </g>
    </g>
   </g>
   <g id="matplotlib.axis_2">
    <g id="ytick_1">
     <g id="line2d_19">
      <path d="M 113.064063 545.50174 
L 1034.664062 545.50174 
" clip-path="url(#p1f0955a065)" style="fill: none; stroke: #95a5a6; stroke-opacity: 0.3; stroke-width: 2; stroke-linecap: square"/>
     </g>
     <g id="line2d_20">
      <defs>
       <path id="m119b55f469" d="M 0 0 
L -10 0 
" style="stroke: #2c3e50; stroke-width: 4"/>
      </defs>
      <g>
       <use xlink:href="#m119b55f469" x="113.064063" y="545.50174" style="fill: #2c3e50; stroke: #2c3e50; stroke-width: 4"/>
      </g>
     </g>
     <g id="text_11">
      <!-- −6 -->
      <g style="fill: #2c3e50" transform="translate(61.234375 555.379709)scale(0.26 -0.26)">
       <defs>
        <path id="DejaVuSans-2212" d="M 678 2272 
L 4684 2272 
L 4684 1741 
L 678 1741 
L 678 2272 
z
" transform="scale(0.015625)"/>
        <path id="DejaVuSans-36" d="M 2113 2584 
Q 1688 2584 1439 2293 
Q 1191 2003 1191 1497 
Q 1191 994 1439 701 
Q 1688 409 2113 409 
Q 2538 409 2786 701 
Q 3034 994 3034 1497 
Q 3034 2003 2786 2293 
Q 2538 2584 2113 2584 
z
M 3366 4563 
L 3366 3988 
Q 3128 4100 2886 4159 
Q 2644 4219 2406 4219 
Q 1781 4219 1451 3797 
Q 1122 3375 1075 2522 
Q 1259 2794 1537 2939 
Q 1816 3084 2150 3084 
Q 2853 3084 3261 2657 
Q 3669 2231 3669 1497 
Q 3669 778 3244 343 
Q 2819 -91 2113 -91 
Q 1303 -91 875 529 
Q 447 1150 447 2328 
Q 447 3434 972 4092 
Q 1497 4750 2381 4750 
Q 2619 4750 2861 4703 
Q 3103 4656 3366 4563 
z
" transform="scale(0.015625)"/>
       </defs>
       <use xlink:href="#DejaVuSans-2212"/>
       <use xlink:href="#DejaVuSans-36" x="83.789062"/>
      </g>
     </g>
    </g>
    <g id="ytick_2">
     <g id="line2d_21">
      <path d="M 113.064063 455.76614 
L 1034.664062 455.76614 
" clip-path="url(#p1f0955a065)" style="fill: none; stroke: #95a5a6; stroke-opacity: 0.3; stroke-width: 2; stroke-linecap: square"/>
     </g>
     <g id="line2d_22">
      <g>
       <use xlink:href="#m119b55f469" x="113.064063" y="455.76614" style="fill: #2c3e50; stroke: #2c3e50; stroke-width: 4"/>
      </g>
     </g>
     <g id="text_12">
      <!-- −4 -->
      <g style="fill: #2c3e50" transform="translate(61.234375 465.644108)scale(0.26 -0.26)">
       <use xlink:href="#DejaVuSans-2212"/>
       <use xlink:href="#DejaVuSans-34" x="83.789062"/>
      </g>
     </g>
    </g>
    <g id="ytick_3">
     <g id="line2d_23">
      <path d="M 113.064063 366.030539 
L 1034.664062 366.030539 
" clip-path="url(#p1f0955a065)" style="fill: none; stroke: #95a5a6; stroke-opacity: 0.3; stroke-width: 2; stroke-linecap: square"/>
     </g>
     <g id="line2d_24">
      <g>
       <use xlink:href="#m119b55f469" x="113.064063" y="366.030539" style="fill: #2c3e50; stroke: #2c3e50; stroke-width: 4"/>
      </g>
     </g>
     <g id="text_13">
      <!-- −2 -->
      <g style="fill: #2c3e50" transform="translate(61.234375 375.908508)scale(0.26 -0.26)">
       <use xlink:href="#DejaVuSans-2212"/>
       <use xlink:href="#DejaVuSans-32" x="83.789062"/>
      </g>
     </g>
    </g>
    <g id="ytick_4">
     <g id="line2d_25">
      <path d="M 113.064063 276.294939 
L 1034.664062 276.294939 
" clip-path="url(#p1f0955a065)" style="fill: none; stroke: #95a5a6; stroke-opacity: 0.3; stroke-width: 2; stroke-linecap: square"/>
     </g>
     <g id="line2d_26">
      <g>
       <use xlink:href="#m119b55f469" x="113.064063" y="276.294939" style="fill: #2c3e50; stroke: #2c3e50; stroke-width: 4"/>
      </g>
     </g>
     <g id="text_14">
      <!-- 0 -->
      <g style="fill: #2c3e50" transform="translate(83.021563 286.172907)scale(0.26 -0.26)">
       <use xlink:href="#DejaVuSans-30"/>
      </g>
     </g>
    </g>
    <g id="ytick_5">
     <g id="line2d_27">
      <path d="M 113.064063 186.559338 
L 1034.664062 186.559338 
" clip-path="url(#p1f0955a065)" style="fill: none; stroke: #95a5a6; stroke-opacity: 0.3; stroke-width: 2; stroke-linecap: square"/>
     </g>
     <g id="line2d_28">
      <g>
       <use xlink:href="#m119b55f469" x="113.064063" y="186.559338" style="fill: #2c3e50; stroke: #2c3e50; stroke-width: 4"/>
      </g>
     </g>
     <g id="text_15">
      <!-- 2 -->
      <g style="fill: #2c3e50" transform="translate(83.021563 196.437307)scale(0.26 -0.26)">
       <use xlink:href="#DejaVuSans-32"/>
      </g>
     </g>
    </g>
    <g id="ytick_6">
     <g id="line2d_29">
      <path d="M 113.064063 96.823738 
L 1034.664062 96.823738 
" clip-path="url(#p1f0955a065)" style="fill: none; stroke: #95a5a6; stroke-opacity: 0.3; stroke-width: 2; stroke-linecap: square"/>
     </g>
     <g id="line2d_30">
      <g>
       <use xlink:href="#m119b55f469" x="113.064063" y="96.823738" style="fill: #2c3e50; stroke: #2c3e50; stroke-width: 4"/>
      </g>
     </g>
     <g id="text_16">
      <!-- 4 -->
      <g style="fill: #2c3e50" transform="translate(83.021563 106.701706)scale(0.26 -0.26)">
       <use xlink:href="#DejaVuSans-34"/>
      </g>
     </g>
    </g>
    <g id="text_17">
     <!-- Shear Force (kN) -->
     <g style="fill: #2c3e50" transform="translate(29.995313 446.228594)rotate(-90)scale(0.3 -0.3)">
      <defs>
       <path id="DejaVuSans-Bold-68" d="M 4056 2131 
L 4056 0 
L 2931 0 
L 2931 347 
L 2931 1625 
Q 2931 2084 2911 2256 
Q 2891 2428 2841 2509 
Q 2775 2619 2662 2680 
Q 2550 2741 2406 2741 
Q 2056 2741 1856 2470 
Q 1656 2200 1656 1722 
L 1656 0 
L 538 0 
L 538 4863 
L 1656 4863 
L 1656 2988 
Q 1909 3294 2193 3439 
Q 2478 3584 2822 3584 
Q 3428 3584 3742 3212 
Q 4056 2841 4056 2131 
z
" transform="scale(0.015625)"/>
       <path id="DejaVuSans-Bold-46" d="M 588 4666 
L 3834 4666 
L 3834 3756 
L 1791 3756 
L 1791 2888 
L 3713 2888 
L 3713 1978 
L 1791 1978 
L 1791 0 
L 588 0 
L 588 4666 
z
" transform="scale(0.015625)"/>
       <path id="DejaVuSans-Bold-6b" d="M 538 4863 
L 1656 4863 
L 1656 2216 
L 2944 3500 
L 4244 3500 
L 2534 1894 
L 4378 0 
L 3022 0 
L 1656 1459 
L 1656 0 
L 538 0 
L 538 4863 
z
" transform="scale(0.015625)"/>
       <path id="DejaVuSans-Bold-4e" d="M 588 4666 
L 1931 4666 
L 3628 1466 
L 3628 4666 
L 4769 4666 
L 4769 0 
L 3425 0 
L 1728 3200 
L 1728 0 
L 588 0 
L 588 4666 
z
" transform="scale(0.015625)"/>
      </defs>
      <use xlink:href="#DejaVuSans-Bold-53"/>
      <use xlink:href="#DejaVuSans-Bold-68" x="72.021484"/>
      <use xlink:href="#DejaVuSans-Bold-65" x="143.212891"/>
      <use xlink:href="#DejaVuSans-Bold-61" x="211.035156"/>
      <use xlink:href="#DejaVuSans-Bold-72" x="278.515625"/>
      <use xlink:href="#DejaVuSans-Bold-20" x="327.832031"/>
      <use xlink:href="#DejaVuSans-Bold-46" x="362.646484"/>
      <use xlink:href="#DejaVuSans-Bold-6f" x="426.957031"/>
      <use xlink:href="#DejaVuSans-Bold-72" x="495.658203"/>
      <use xlink:href="#DejaVuSans-Bold-63" x="544.974609"/>
      <use xlink:href="#DejaVuSans-Bold-65" x="604.251953"/>
      <use xlink:href="#DejaVuSans-Bold-20" x="672.074219"/>
      <use xlink:href="#DejaVuSans-Bold-28" x="706.888672"/>
      <use xlink:href="#DejaVuSans-Bold-6b" x="752.591797"/>
      <use xlink:href="#DejaVuSans-Bold-4e" x="819.095703"/>
      <use xlink:href="#DejaVuSans-Bold-29" x="902.787109"/>
     </g>
    </g>
   </g>
   <g id="line2d_31">
    <path d="M 154.954972 134.213571 
L 161.366845 135.312375 
" clip-path="url(#p1f0955a065)" style="fill: none; stroke: #008080; stroke-width: 4; stroke-linecap: square"/>
   </g>
   <g id="line2d_32">
    <path d="M 161.366845 135.312375 
L 167.778719 136.411178 
" clip-path="url(#p1f0955a065)" style="fill: none; stroke: #008080; stroke-width: 4; stroke-linecap: square"/>
   </g>
   <g id="line2d_33">
    <path d="M 167.778719 136.411178 
L 174.190593 137.509981 
" clip-path="url(#p1f0955a065)" style="fill: none; stroke: #008080; stroke-width: 4; stroke-linecap: square"/>
   </g>
   <g id="line2d_34">
    <path d="M 174.190593 137.509981 
L 180.602467 138.608784 
" clip-path="url(#p1f0955a065)" style="fill: none; stroke: #008080; stroke-width: 4; stroke-linecap: square"/>
   </g>
   <g id="line2d_35">
    <path d="M 180.602467 138.608784 
L 187.014341 139.707588 
" clip-path="url(#p1f0955a065)" style="fill: none; stroke: #008080; stroke-width: 4; stroke-linecap: square"/>
   </g>
   <g id="line2d_36">
    <path d="M 187.014341 139.707588 
L 193.426215 140.806391 
" clip-path="url(#p1f0955a065)" style="fill: none; stroke: #008080; stroke-width: 4; stroke-linecap: square"/>
   </g>
   <g id="line2d_37">
    <path d="M 193.426215 140.806391 
L 199.838088 141.905194 
" clip-path="url(#p1f0955a065)" style="fill: none; stroke: #008080; stroke-width: 4; stroke-linecap: square"/>
   </g>
   <g id="line2d_38">
    <path d="M 199.838088 141.905194 
L 206.249962 143.003997 
" clip-path="url(#p1f0955a065)" style="fill: none; stroke: #008080; stroke-width: 4; stroke-linecap: square"/>
   </g>
   <g id="line2d_39">
    <path d="M 206.249962 143.003997 
L 212.661836 144.102801 
" clip-path="url(#p1f0955a065)" style="fill: none; stroke: #008080; stroke-width: 4; stroke-linecap: square"/>
   </g>
   <g id="line2d_40">
    <path d="M 212.661836 144.102801 
L 219.07371 145.201604 
" clip-path="url(#p1f0955a065)" style="fill: none; stroke: #008080; stroke-width: 4; stroke-linecap: square"/>
   </g>
   <g id="line2d_41">
    <path d="M 219.07371 145.201604 
L 225.485584 146.300407 
" clip-path="url(#p1f0955a065)" style="fill: none; stroke: #008080; stroke-width: 4; stroke-linecap: square"/>
   </g>
   <g id="line2d_42">
    <path d="M 225.485584 146.300407 
L 231.897458 147.399211 
" clip-path="url(#p1f0955a065)" style="fill: none; stroke: #008080; stroke-width: 4; stroke-linecap: square"/>
   </g>
   <g id="line2d_43">
    <path d="M 231.897458 147.399211 
L 238.309332 148.498014 
" clip-path="url(#p1f0955a065)" style="fill: none; stroke: #008080; stroke-width: 4; stroke-linecap: square"/>
   </g>
   <g id="line2d_44">
    <path d="M 238.309332 148.498014 
L 244.721205 149.596817 
" clip-path="url(#p1f0955a065)" style="fill: none; stroke: #008080; stroke-width: 4; stroke-linecap: square"/>
   </g>
   <g id="line2d_45">
    <path d="M 244.721205 149.596817 
L 251.133079 150.69562 
" clip-path="url(#p1f0955a065)" style="fill: none; stroke: #008080; stroke-width: 4; stroke-linecap: square"/>
   </g>
   <g id="line2d_46">
    <path d="M 251.133079 150.69562 
L 257.544953 151.794424 
" clip-path="url(#p1f0955a065)" style="fill: none; stroke: #008080; stroke-width: 4; stroke-linecap: square"/>
   </g>
   <g id="line2d_47">
    <path d="M 257.544953 151.794424 
L 263.956827 152.893227 
" clip-path="url(#p1f0955a065)" style="fill: none; stroke: #008080; stroke-width: 4; stroke-linecap: square"/>
   </g>
   <g id="line2d_48">
    <path d="M 263.956827 152.893227 
L 270.368701 153.99203 
" clip-path="url(#p1f0955a065)" style="fill: none; stroke: #008080; stroke-width: 4; stroke-linecap: square"/>
   </g>
   <g id="line2d_49">
    <path d="M 270.368701 153.99203 
L 276.780575 155.090833 
" clip-path="url(#p1f0955a065)" style="fill: none; stroke: #008080; stroke-width: 4; stroke-linecap: square"/>
   </g>
   <g id="line2d_50">
    <path d="M 276.780575 155.090833 
L 283.192448 156.189637 
" clip-path="url(#p1f0955a065)" style="fill: none; stroke: #008080; stroke-width: 4; stroke-linecap: square"/>
   </g>
   <g id="line2d_51">
    <path d="M 283.192448 156.189637 
L 289.604322 157.28844 
" clip-path="url(#p1f0955a065)" style="fill: none; stroke: #008080; stroke-width: 4; stroke-linecap: square"/>
   </g>
   <g id="line2d_52">
    <path d="M 289.604322 157.28844 
L 296.016196 158.387243 
" clip-path="url(#p1f0955a065)" style="fill: none; stroke: #008080; stroke-width: 4; stroke-linecap: square"/>
   </g>
   <g id="line2d_53">
    <path d="M 296.016196 158.387243 
L 302.42807 159.486046 
" clip-path="url(#p1f0955a065)" style="fill: none; stroke: #008080; stroke-width: 4; stroke-linecap: square"/>
   </g>
   <g id="line2d_54">
    <path d="M 302.42807 159.486046 
L 308.839944 160.58485 
" clip-path="url(#p1f0955a065)" style="fill: none; stroke: #008080; stroke-width: 4; stroke-linecap: square"/>
   </g>
   <g id="line2d_55">
    <path d="M 308.839944 160.58485 
L 315.251818 161.683653 
" clip-path="url(#p1f0955a065)" style="fill: none; stroke: #008080; stroke-width: 4; stroke-linecap: square"/>
   </g>
   <g id="line2d_56">
    <path d="M 315.251818 161.683653 
L 321.663691 162.782456 
" clip-path="url(#p1f0955a065)" style="fill: none; stroke: #008080; stroke-width: 4; stroke-linecap: square"/>
   </g>
   <g id="line2d_57">
    <path d="M 321.663691 162.782456 
L 328.075565 163.88126 
" clip-path="url(#p1f0955a065)" style="fill: none; stroke: #008080; stroke-width: 4; stroke-linecap: square"/>
   </g>
   <g id="line2d_58">
    <path d="M 328.075565 163.88126 
L 334.487439 164.980063 
" clip-path="url(#p1f0955a065)" style="fill: none; stroke: #008080; stroke-width: 4; stroke-linecap: square"/>
   </g>
   <g id="line2d_59">
    <path d="M 334.487439 164.980063 
L 340.899313 166.078866 
" clip-path="url(#p1f0955a065)" style="fill: none; stroke: #008080; stroke-width: 4; stroke-linecap: square"/>
   </g>
   <g id="line2d_60">
    <path d="M 340.899313 166.078866 
L 347.311187 167.177669 
" clip-path="url(#p1f0955a065)" style="fill: none; stroke: #008080; stroke-width: 4; stroke-linecap: square"/>
   </g>
   <g id="line2d_61">
    <path d="M 347.311187 167.177669 
L 353.723061 168.276473 
" clip-path="url(#p1f0955a065)" style="fill: none; stroke: #008080; stroke-width: 4; stroke-linecap: square"/>
   </g>
   <g id="line2d_62">
    <path d="M 353.723061 168.276473 
L 360.134934 169.375276 
" clip-path="url(#p1f0955a065)" style="fill: none; stroke: #008080; stroke-width: 4; stroke-linecap: square"/>
   </g>
   <g id="line2d_63">
    <path d="M 360.134934 169.375276 
L 366.546808 170.474079 
" clip-path="url(#p1f0955a065)" style="fill: none; stroke: #008080; stroke-width: 4; stroke-linecap: square"/>
   </g>
   <g id="line2d_64">
    <path d="M 366.546808 170.474079 
L 372.958682 171.572882 
" clip-path="url(#p1f0955a065)" style="fill: none; stroke: #008080; stroke-width: 4; stroke-linecap: square"/>
   </g>
   <g id="line2d_65">
    <path d="M 372.958682 171.572882 
L 379.370556 172.671686 
" clip-path="url(#p1f0955a065)" style="fill: none; stroke: #008080; stroke-width: 4; stroke-linecap: square"/>
   </g>
   <g id="line2d_66">
    <path d="M 379.370556 172.671686 
L 385.78243 173.770489 
" clip-path="url(#p1f0955a065)" style="fill: none; stroke: #008080; stroke-width: 4; stroke-linecap: square"/>
   </g>
   <g id="line2d_67">
    <path d="M 385.78243 173.770489 
L 392.194304 174.869292 
" clip-path="url(#p1f0955a065)" style="fill: none; stroke: #008080; stroke-width: 4; stroke-linecap: square"/>
   </g>
   <g id="line2d_68">
    <path d="M 392.194304 174.869292 
L 398.606178 175.968096 
" clip-path="url(#p1f0955a065)" style="fill: none; stroke: #008080; stroke-width: 4; stroke-linecap: square"/>
   </g>
   <g id="line2d_69">
    <path d="M 398.606178 175.968096 
L 405.018051 177.066899 
" clip-path="url(#p1f0955a065)" style="fill: none; stroke: #008080; stroke-width: 4; stroke-linecap: square"/>
   </g>
   <g id="line2d_70">
    <path d="M 405.018051 177.066899 
L 411.429925 178.165702 
" clip-path="url(#p1f0955a065)" style="fill: none; stroke: #008080; stroke-width: 4; stroke-linecap: square"/>
   </g>
   <g id="line2d_71">
    <path d="M 411.429925 178.165702 
L 417.841799 179.264505 
" clip-path="url(#p1f0955a065)" style="fill: none; stroke: #008080; stroke-width: 4; stroke-linecap: square"/>
   </g>
   <g id="line2d_72">
    <path d="M 417.841799 179.264505 
L 424.253673 180.363309 
" clip-path="url(#p1f0955a065)" style="fill: none; stroke: #008080; stroke-width: 4; stroke-linecap: square"/>
   </g>
   <g id="line2d_73">
    <path d="M 424.253673 180.363309 
L 430.665547 181.462112 
" clip-path="url(#p1f0955a065)" style="fill: none; stroke: #008080; stroke-width: 4; stroke-linecap: square"/>
   </g>
   <g id="line2d_74">
    <path d="M 430.665547 181.462112 
L 437.077421 182.560915 
" clip-path="url(#p1f0955a065)" style="fill: none; stroke: #008080; stroke-width: 4; stroke-linecap: square"/>
   </g>
   <g id="line2d_75">
    <path d="M 437.077421 182.560915 
L 443.489294 183.659718 
" clip-path="url(#p1f0955a065)" style="fill: none; stroke: #008080; stroke-width: 4; stroke-linecap: square"/>
   </g>
   <g id="line2d_76">
    <path d="M 443.489294 183.659718 
L 449.901168 184.758522 
" clip-path="url(#p1f0955a065)" style="fill: none; stroke: #008080; stroke-width: 4; stroke-linecap: square"/>
   </g>
   <g id="line2d_77">
    <path d="M 449.901168 184.758522 
L 456.313042 185.857325 
" clip-path="url(#p1f0955a065)" style="fill: none; stroke: #008080; stroke-width: 4; stroke-linecap: square"/>
   </g>
   <g id="line2d_78">
    <path d="M 456.313042 185.857325 
L 462.724916 186.956128 
" clip-path="url(#p1f0955a065)" style="fill: none; stroke: #008080; stroke-width: 4; stroke-linecap: square"/>
   </g>
   <g id="line2d_79">
    <path d="M 462.724916 186.956128 
L 469.13679 502.129533 
" clip-path="url(#p1f0955a065)" style="fill: none; stroke: #008080; stroke-width: 4; stroke-linecap: square"/>
   </g>
   <g id="line2d_80">
    <path d="M 469.346244 502.165427 
L 475.753844 503.263498 
" clip-path="url(#p1f0955a065)" style="fill: none; stroke: #e67e22; stroke-width: 4; stroke-linecap: square"/>
   </g>
   <g id="line2d_81">
    <path d="M 475.753844 503.263498 
L 482.161443 504.361569 
" clip-path="url(#p1f0955a065)" style="fill: none; stroke: #e67e22; stroke-width: 4; stroke-linecap: square"/>
   </g>
   <g id="line2d_82">
    <path d="M 482.161443 504.361569 
L 488.569042 505.45964 
" clip-path="url(#p1f0955a065)" style="fill: none; stroke: #e67e22; stroke-width: 4; stroke-linecap: square"/>
   </g>
   <g id="line2d_83">
    <path d="M 488.569042 505.45964 
L 494.976641 506.55771 
" clip-path="url(#p1f0955a065)" style="fill: none; stroke: #e67e22; stroke-width: 4; stroke-linecap: square"/>
   </g>
   <g id="line2d_84">
    <path d="M 494.976641 506.55771 
L 501.384241 507.655781 
" clip-path="url(#p1f0955a065)" style="fill: none; stroke: #e67e22; stroke-width: 4; stroke-linecap: square"/>
   </g>
   <g id="line2d_85">
    <path d="M 501.384241 507.655781 
L 507.79184 508.753852 
" clip-path="url(#p1f0955a065)" style="fill: none; stroke: #e67e22; stroke-width: 4; stroke-linecap: square"/>
   </g>
   <g id="line2d_86">
    <path d="M 507.79184 508.753852 
L 514.199439 509.851923 
" clip-path="url(#p1f0955a065)" style="fill: none; stroke: #e67e22; stroke-width: 4; stroke-linecap: square"/>
   </g>
   <g id="line2d_87">
    <path d="M 514.199439 509.851923 
L 520.607038 510.949993 
" clip-path="url(#p1f0955a065)" style="fill: none; stroke: #e67e22; stroke-width: 4; stroke-linecap: square"/>
   </g>
   <g id="line2d_88">
    <path d="M 520.607038 510.949993 
L 527.014638 512.048064 
" clip-path="url(#p1f0955a065)" style="fill: none; stroke: #e67e22; stroke-width: 4; stroke-linecap: square"/>
   </g>
   <g id="line2d_89">
    <path d="M 527.014638 512.048064 
L 533.422237 513.146135 
" clip-path="url(#p1f0955a065)" style="fill: none; stroke: #e67e22; stroke-width: 4; stroke-linecap: square"/>
   </g>
   <g id="line2d_90">
    <path d="M 533.422237 513.146135 
L 539.829836 514.244205 
" clip-path="url(#p1f0955a065)" style="fill: none; stroke: #e67e22; stroke-width: 4; stroke-linecap: square"/>
   </g>
   <g id="line2d_91">
    <path d="M 539.829836 514.244205 
L 546.237435 515.342276 
" clip-path="url(#p1f0955a065)" style="fill: none; stroke: #e67e22; stroke-width: 4; stroke-linecap: square"/>
   </g>
   <g id="line2d_92">
    <path d="M 546.237435 515.342276 
L 552.645035 516.440347 
" clip-path="url(#p1f0955a065)" style="fill: none; stroke: #e67e22; stroke-width: 4; stroke-linecap: square"/>
   </g>
   <g id="line2d_93">
    <path d="M 552.645035 516.440347 
L 559.052634 517.538418 
" clip-path="url(#p1f0955a065)" style="fill: none; stroke: #e67e22; stroke-width: 4; stroke-linecap: square"/>
   </g>
   <g id="line2d_94">
    <path d="M 559.052634 517.538418 
L 565.460233 518.636488 
" clip-path="url(#p1f0955a065)" style="fill: none; stroke: #e67e22; stroke-width: 4; stroke-linecap: square"/>
   </g>
   <g id="line2d_95">
    <path d="M 565.460233 518.636488 
L 571.867832 519.734559 
" clip-path="url(#p1f0955a065)" style="fill: none; stroke: #e67e22; stroke-width: 4; stroke-linecap: square"/>
   </g>
   <g id="line2d_96">
    <path d="M 571.867832 519.734559 
L 578.275432 520.83263 
" clip-path="url(#p1f0955a065)" style="fill: none; stroke: #e67e22; stroke-width: 4; stroke-linecap: square"/>
   </g>
   <g id="line2d_97">
    <path d="M 578.275432 520.83263 
L 584.683031 521.930701 
" clip-path="url(#p1f0955a065)" style="fill: none; stroke: #e67e22; stroke-width: 4; stroke-linecap: square"/>
   </g>
   <g id="line2d_98">
    <path d="M 584.683031 521.930701 
L 591.09063 523.028771 
" clip-path="url(#p1f0955a065)" style="fill: none; stroke: #e67e22; stroke-width: 4; stroke-linecap: square"/>
   </g>
   <g id="line2d_99">
    <path d="M 591.09063 523.028771 
L 597.498229 524.126842 
" clip-path="url(#p1f0955a065)" style="fill: none; stroke: #e67e22; stroke-width: 4; stroke-linecap: square"/>
   </g>
   <g id="line2d_100">
    <path d="M 597.498229 524.126842 
L 603.905829 525.224913 
" clip-path="url(#p1f0955a065)" style="fill: none; stroke: #e67e22; stroke-width: 4; stroke-linecap: square"/>
   </g>
   <g id="line2d_101">
    <path d="M 603.905829 525.224913 
L 610.313428 526.322984 
" clip-path="url(#p1f0955a065)" style="fill: none; stroke: #e67e22; stroke-width: 4; stroke-linecap: square"/>
   </g>
   <g id="line2d_102">
    <path d="M 610.313428 526.322984 
L 616.721027 527.421054 
" clip-path="url(#p1f0955a065)" style="fill: none; stroke: #e67e22; stroke-width: 4; stroke-linecap: square"/>
   </g>
   <g id="line2d_103">
    <path d="M 616.721027 527.421054 
L 623.128627 528.519125 
" clip-path="url(#p1f0955a065)" style="fill: none; stroke: #e67e22; stroke-width: 4; stroke-linecap: square"/>
   </g>
   <g id="line2d_104">
    <path d="M 623.128627 528.519125 
L 629.536226 529.617196 
" clip-path="url(#p1f0955a065)" style="fill: none; stroke: #e67e22; stroke-width: 4; stroke-linecap: square"/>
   </g>
   <g id="line2d_105">
    <path d="M 629.536226 529.617196 
L 635.943825 530.715267 
" clip-path="url(#p1f0955a065)" style="fill: none; stroke: #e67e22; stroke-width: 4; stroke-linecap: square"/>
   </g>
   <g id="line2d_106">
    <path d="M 635.943825 530.715267 
L 642.351424 531.813337 
" clip-path="url(#p1f0955a065)" style="fill: none; stroke: #e67e22; stroke-width: 4; stroke-linecap: square"/>
   </g>
   <g id="line2d_107">
    <path d="M 642.351424 531.813337 
L 648.759024 532.911408 
" clip-path="url(#p1f0955a065)" style="fill: none; stroke: #e67e22; stroke-width: 4; stroke-linecap: square"/>
   </g>
   <g id="line2d_108">
    <path d="M 648.759024 532.911408 
L 655.166623 534.009479 
" clip-path="url(#p1f0955a065)" style="fill: none; stroke: #e67e22; stroke-width: 4; stroke-linecap: square"/>
   </g>
   <g id="line2d_109">
    <path d="M 655.166623 534.009479 
L 661.574222 535.107549 
" clip-path="url(#p1f0955a065)" style="fill: none; stroke: #e67e22; stroke-width: 4; stroke-linecap: square"/>
   </g>
   <g id="line2d_110">
    <path d="M 661.574222 535.107549 
L 667.981821 536.20562 
" clip-path="url(#p1f0955a065)" style="fill: none; stroke: #e67e22; stroke-width: 4; stroke-linecap: square"/>
   </g>
   <g id="line2d_111">
    <path d="M 667.981821 536.20562 
L 674.389421 537.303691 
" clip-path="url(#p1f0955a065)" style="fill: none; stroke: #e67e22; stroke-width: 4; stroke-linecap: square"/>
   </g>
   <g id="line2d_112">
    <path d="M 674.389421 537.303691 
L 680.79702 538.401762 
" clip-path="url(#p1f0955a065)" style="fill: none; stroke: #e67e22; stroke-width: 4; stroke-linecap: square"/>
   </g>
   <g id="line2d_113">
    <path d="M 680.79702 538.401762 
L 687.204619 539.499832 
" clip-path="url(#p1f0955a065)" style="fill: none; stroke: #e67e22; stroke-width: 4; stroke-linecap: square"/>
   </g>
   <g id="line2d_114">
    <path d="M 687.204619 539.499832 
L 693.612218 540.597903 
" clip-path="url(#p1f0955a065)" style="fill: none; stroke: #e67e22; stroke-width: 4; stroke-linecap: square"/>
   </g>
   <g id="line2d_115">
    <path d="M 693.612218 540.597903 
L 700.019818 541.695974 
" clip-path="url(#p1f0955a065)" style="fill: none; stroke: #e67e22; stroke-width: 4; stroke-linecap: square"/>
   </g>
   <g id="line2d_116">
    <path d="M 700.019818 541.695974 
L 706.427417 542.794045 
" clip-path="url(#p1f0955a065)" style="fill: none; stroke: #e67e22; stroke-width: 4; stroke-linecap: square"/>
   </g>
   <g id="line2d_117">
    <path d="M 706.427417 542.794045 
L 712.835016 543.892115 
" clip-path="url(#p1f0955a065)" style="fill: none; stroke: #e67e22; stroke-width: 4; stroke-linecap: square"/>
   </g>
   <g id="line2d_118">
    <path d="M 712.835016 543.892115 
L 719.242615 544.990186 
" clip-path="url(#p1f0955a065)" style="fill: none; stroke: #e67e22; stroke-width: 4; stroke-linecap: square"/>
   </g>
   <g id="line2d_119">
    <path d="M 719.242615 544.990186 
L 725.650215 546.088257 
" clip-path="url(#p1f0955a065)" style="fill: none; stroke: #e67e22; stroke-width: 4; stroke-linecap: square"/>
   </g>
   <g id="line2d_120">
    <path d="M 725.650215 546.088257 
L 732.057814 547.186328 
" clip-path="url(#p1f0955a065)" style="fill: none; stroke: #e67e22; stroke-width: 4; stroke-linecap: square"/>
   </g>
   <g id="line2d_121">
    <path d="M 732.057814 547.186328 
L 738.465413 548.284398 
" clip-path="url(#p1f0955a065)" style="fill: none; stroke: #e67e22; stroke-width: 4; stroke-linecap: square"/>
   </g>
   <g id="line2d_122">
    <path d="M 738.465413 548.284398 
L 744.873012 549.382469 
" clip-path="url(#p1f0955a065)" style="fill: none; stroke: #e67e22; stroke-width: 4; stroke-linecap: square"/>
   </g>
   <g id="line2d_123">
    <path d="M 744.873012 549.382469 
L 751.280612 550.48054 
" clip-path="url(#p1f0955a065)" style="fill: none; stroke: #e67e22; stroke-width: 4; stroke-linecap: square"/>
   </g>
   <g id="line2d_124">
    <path d="M 751.280612 550.48054 
L 757.688211 551.57861 
" clip-path="url(#p1f0955a065)" style="fill: none; stroke: #e67e22; stroke-width: 4; stroke-linecap: square"/>
   </g>
   <g id="line2d_125">
    <path d="M 757.688211 551.57861 
L 764.09581 552.676681 
" clip-path="url(#p1f0955a065)" style="fill: none; stroke: #e67e22; stroke-width: 4; stroke-linecap: square"/>
   </g>
   <g id="line2d_126">
    <path d="M 764.09581 552.676681 
L 770.503409 553.774752 
" clip-path="url(#p1f0955a065)" style="fill: none; stroke: #e67e22; stroke-width: 4; stroke-linecap: square"/>
   </g>
   <g id="line2d_127">
    <path d="M 770.503409 553.774752 
L 776.911009 554.872823 
" clip-path="url(#p1f0955a065)" style="fill: none; stroke: #e67e22; stroke-width: 4; stroke-linecap: square"/>
   </g>
   <g id="line2d_128">
    <path d="M 776.911009 554.872823 
L 783.318608 51.955938 
" clip-path="url(#p1f0955a065)" style="fill: none; stroke: #e67e22; stroke-width: 4; stroke-linecap: square"/>
   </g>
   <g id="line2d_129">
    <path d="M 783.528063 51.991832 
L 787.79837 52.723635 
" clip-path="url(#p1f0955a065)" style="fill: none; stroke: #008080; stroke-width: 4; stroke-linecap: square"/>
   </g>
   <g id="line2d_130">
    <path d="M 787.79837 52.723635 
L 792.068678 53.455438 
" clip-path="url(#p1f0955a065)" style="fill: none; stroke: #008080; stroke-width: 4; stroke-linecap: square"/>
   </g>
   <g id="line2d_131">
    <path d="M 792.068678 53.455438 
L 796.338986 54.187241 
" clip-path="url(#p1f0955a065)" style="fill: none; stroke: #008080; stroke-width: 4; stroke-linecap: square"/>
   </g>
   <g id="line2d_132">
    <path d="M 796.338986 54.187241 
L 800.609294 54.919044 
" clip-path="url(#p1f0955a065)" style="fill: none; stroke: #008080; stroke-width: 4; stroke-linecap: square"/>
   </g>
   <g id="line2d_133">
    <path d="M 800.609294 54.919044 
L 804.879602 55.650847 
" clip-path="url(#p1f0955a065)" style="fill: none; stroke: #008080; stroke-width: 4; stroke-linecap: square"/>
   </g>
   <g id="line2d_134">
    <path d="M 804.879602 55.650847 
L 809.14991 56.38265 
" clip-path="url(#p1f0955a065)" style="fill: none; stroke: #008080; stroke-width: 4; stroke-linecap: square"/>
   </g>
   <g id="line2d_135">
    <path d="M 809.14991 56.38265 
L 813.420218 57.114453 
" clip-path="url(#p1f0955a065)" style="fill: none; stroke: #008080; stroke-width: 4; stroke-linecap: square"/>
   </g>
   <g id="line2d_136">
    <path d="M 813.420218 57.114453 
L 817.690526 57.846256 
" clip-path="url(#p1f0955a065)" style="fill: none; stroke: #008080; stroke-width: 4; stroke-linecap: square"/>
   </g>
   <g id="line2d_137">
    <path d="M 817.690526 57.846256 
L 821.960834 58.578059 
" clip-path="url(#p1f0955a065)" style="fill: none; stroke: #008080; stroke-width: 4; stroke-linecap: square"/>
   </g>
   <g id="line2d_138">
    <path d="M 821.960834 58.578059 
L 826.231142 59.309862 
" clip-path="url(#p1f0955a065)" style="fill: none; stroke: #008080; stroke-width: 4; stroke-linecap: square"/>
   </g>
   <g id="line2d_139">
    <path d="M 826.231142 59.309862 
L 830.50145 60.041665 
" clip-path="url(#p1f0955a065)" style="fill: none; stroke: #008080; stroke-width: 4; stroke-linecap: square"/>
   </g>
   <g id="line2d_140">
    <path d="M 830.50145 60.041665 
L 834.771758 60.773467 
" clip-path="url(#p1f0955a065)" style="fill: none; stroke: #008080; stroke-width: 4; stroke-linecap: square"/>
   </g>
   <g id="line2d_141">
    <path d="M 834.771758 60.773467 
L 839.042066 61.50527 
" clip-path="url(#p1f0955a065)" style="fill: none; stroke: #008080; stroke-width: 4; stroke-linecap: square"/>
   </g>
   <g id="line2d_142">
    <path d="M 839.042066 61.50527 
L 843.312374 62.237073 
" clip-path="url(#p1f0955a065)" style="fill: none; stroke: #008080; stroke-width: 4; stroke-linecap: square"/>
   </g>
   <g id="line2d_143">
    <path d="M 843.312374 62.237073 
L 847.582682 62.968876 
" clip-path="url(#p1f0955a065)" style="fill: none; stroke: #008080; stroke-width: 4; stroke-linecap: square"/>
   </g>
   <g id="line2d_144">
    <path d="M 847.582682 62.968876 
L 851.85299 63.700679 
" clip-path="url(#p1f0955a065)" style="fill: none; stroke: #008080; stroke-width: 4; stroke-linecap: square"/>
   </g>
   <g id="line2d_145">
    <path d="M 851.85299 63.700679 
L 856.123298 64.432482 
" clip-path="url(#p1f0955a065)" style="fill: none; stroke: #008080; stroke-width: 4; stroke-linecap: square"/>
   </g>
   <g id="line2d_146">
    <path d="M 856.123298 64.432482 
L 860.393606 65.164285 
" clip-path="url(#p1f0955a065)" style="fill: none; stroke: #008080; stroke-width: 4; stroke-linecap: square"/>
   </g>
   <g id="line2d_147">
    <path d="M 860.393606 65.164285 
L 864.663914 65.896088 
" clip-path="url(#p1f0955a065)" style="fill: none; stroke: #008080; stroke-width: 4; stroke-linecap: square"/>
   </g>
   <g id="line2d_148">
    <path d="M 864.663914 65.896088 
L 868.934222 66.627891 
" clip-path="url(#p1f0955a065)" style="fill: none; stroke: #008080; stroke-width: 4; stroke-linecap: square"/>
   </g>
   <g id="line2d_149">
    <path d="M 868.934222 66.627891 
L 873.20453 67.359694 
" clip-path="url(#p1f0955a065)" style="fill: none; stroke: #008080; stroke-width: 4; stroke-linecap: square"/>
   </g>
   <g id="line2d_150">
    <path d="M 873.20453 67.359694 
L 877.474838 68.091497 
" clip-path="url(#p1f0955a065)" style="fill: none; stroke: #008080; stroke-width: 4; stroke-linecap: square"/>
   </g>
   <g id="line2d_151">
    <path d="M 877.474838 68.091497 
L 881.745146 68.8233 
" clip-path="url(#p1f0955a065)" style="fill: none; stroke: #008080; stroke-width: 4; stroke-linecap: square"/>
   </g>
   <g id="line2d_152">
    <path d="M 881.745146 68.8233 
L 886.015454 69.555103 
" clip-path="url(#p1f0955a065)" style="fill: none; stroke: #008080; stroke-width: 4; stroke-linecap: square"/>
   </g>
   <g id="line2d_153">
    <path d="M 886.015454 69.555103 
L 890.285762 70.286906 
" clip-path="url(#p1f0955a065)" style="fill: none; stroke: #008080; stroke-width: 4; stroke-linecap: square"/>
   </g>
   <g id="line2d_154">
    <path d="M 890.285762 70.286906 
L 894.55607 71.018709 
" clip-path="url(#p1f0955a065)" style="fill: none; stroke: #008080; stroke-width: 4; stroke-linecap: square"/>
   </g>
   <g id="line2d_155">
    <path d="M 894.55607 71.018709 
L 898.826378 71.750512 
" clip-path="url(#p1f0955a065)" style="fill: none; stroke: #008080; stroke-width: 4; stroke-linecap: square"/>
   </g>
   <g id="line2d_156">
    <path d="M 898.826378 71.750512 
L 903.096686 72.482315 
" clip-path="url(#p1f0955a065)" style="fill: none; stroke: #008080; stroke-width: 4; stroke-linecap: square"/>
   </g>
   <g id="line2d_157">
    <path d="M 903.096686 72.482315 
L 907.366994 73.214118 
" clip-path="url(#p1f0955a065)" style="fill: none; stroke: #008080; stroke-width: 4; stroke-linecap: square"/>
   </g>
   <g id="line2d_158">
    <path d="M 907.366994 73.214118 
L 911.637302 73.945921 
" clip-path="url(#p1f0955a065)" style="fill: none; stroke: #008080; stroke-width: 4; stroke-linecap: square"/>
   </g>
   <g id="line2d_159">
    <path d="M 911.637302 73.945921 
L 915.90761 74.677724 
" clip-path="url(#p1f0955a065)" style="fill: none; stroke: #008080; stroke-width: 4; stroke-linecap: square"/>
   </g>
   <g id="line2d_160">
    <path d="M 915.90761 74.677724 
L 920.177918 75.409527 
" clip-path="url(#p1f0955a065)" style="fill: none; stroke: #008080; stroke-width: 4; stroke-linecap: square"/>
   </g>
   <g id="line2d_161">
    <path d="M 920.177918 75.409527 
L 924.448226 76.14133 
" clip-path="url(#p1f0955a065)" style="fill: none; stroke: #008080; stroke-width: 4; stroke-linecap: square"/>
   </g>
   <g id="line2d_162">
    <path d="M 924.448226 76.14133 
L 928.718534 76.873133 
" clip-path="url(#p1f0955a065)" style="fill: none; stroke: #008080; stroke-width: 4; stroke-linecap: square"/>
   </g>
   <g id="line2d_163">
    <path d="M 928.718534 76.873133 
L 932.988842 77.604936 
" clip-path="url(#p1f0955a065)" style="fill: none; stroke: #008080; stroke-width: 4; stroke-linecap: square"/>
   </g>
   <g id="line2d_164">
    <path d="M 932.988842 77.604936 
L 937.25915 78.336739 
" clip-path="url(#p1f0955a065)" style="fill: none; stroke: #008080; stroke-width: 4; stroke-linecap: square"/>
   </g>
   <g id="line2d_165">
    <path d="M 937.25915 78.336739 
L 941.529458 79.068542 
" clip-path="url(#p1f0955a065)" style="fill: none; stroke: #008080; stroke-width: 4; stroke-linecap: square"/>
   </g>
   <g id="line2d_166">
    <path d="M 941.529458 79.068542 
L 945.799766 79.800345 
" clip-path="url(#p1f0955a065)" style="fill: none; stroke: #008080; stroke-width: 4; stroke-linecap: square"/>
   </g>
   <g id="line2d_167">
    <path d="M 945.799766 79.800345 
L 950.070074 80.532148 
" clip-path="url(#p1f0955a065)" style="fill: none; stroke: #008080; stroke-width: 4; stroke-linecap: square"/>
   </g>
   <g id="line2d_168">
    <path d="M 950.070074 80.532148 
L 954.340382 81.263951 
" clip-path="url(#p1f0955a065)" style="fill: none; stroke: #008080; stroke-width: 4; stroke-linecap: square"/>
   </g>
   <g id="line2d_169">
    <path d="M 954.340382 81.263951 
L 958.61069 81.995754 
" clip-path="url(#p1f0955a065)" style="fill: none; stroke: #008080; stroke-width: 4; stroke-linecap: square"/>
   </g>
   <g id="line2d_170">
    <path d="M 958.61069 81.995754 
L 962.880998 82.727557 
" clip-path="url(#p1f0955a065)" style="fill: none; stroke: #008080; stroke-width: 4; stroke-linecap: square"/>
   </g>
   <g id="line2d_171">
    <path d="M 962.880998 82.727557 
L 967.151306 83.45936 
" clip-path="url(#p1f0955a065)" style="fill: none; stroke: #008080; stroke-width: 4; stroke-linecap: square"/>
   </g>
   <g id="line2d_172">
    <path d="M 967.151306 83.45936 
L 971.421614 84.191163 
" clip-path="url(#p1f0955a065)" style="fill: none; stroke: #008080; stroke-width: 4; stroke-linecap: square"/>
   </g>
   <g id="line2d_173">
    <path d="M 971.421614 84.191163 
L 975.691921 84.922966 
" clip-path="url(#p1f0955a065)" style="fill: none; stroke: #008080; stroke-width: 4; stroke-linecap: square"/>
   </g>
   <g id="line2d_174">
    <path d="M 975.691921 84.922966 
L 979.962229 85.654769 
" clip-path="url(#p1f0955a065)" style="fill: none; stroke: #008080; stroke-width: 4; stroke-linecap: square"/>
   </g>
   <g id="line2d_175">
    <path d="M 979.962229 85.654769 
L 984.232537 86.386572 
" clip-path="url(#p1f0955a065)" style="fill: none; stroke: #008080; stroke-width: 4; stroke-linecap: square"/>
   </g>
   <g id="line2d_176">
    <path d="M 984.232537 86.386572 
L 988.502845 87.118375 
" clip-path="url(#p1f0955a065)" style="fill: none; stroke: #008080; stroke-width: 4; stroke-linecap: square"/>
   </g>
   <g id="line2d_177">
    <path d="M 988.502845 87.118375 
L 992.773153 276.294939 
" clip-path="url(#p1f0955a065)" style="fill: none; stroke: #008080; stroke-width: 4; stroke-linecap: square"/>
   </g>
   <g id="line2d_178">
    <path d="M 469.13679 581.155937 
L 469.13679 26.755937 
" clip-path="url(#p1f0955a065)" style="fill: none; stroke-dasharray: 11.1,4.8; stroke-dashoffset: 0; stroke: #ff0000; stroke-opacity: 0.7; stroke-width: 3"/>
   </g>
   <g id="line2d_179">
    <path d="M 783.318608 581.155937 
L 783.318608 26.755937 
" clip-path="url(#p1f0955a065)" style="fill: none; stroke-dasharray: 11.1,4.8; stroke-dashoffset: 0; stroke: #ff0000; stroke-opacity: 0.7; stroke-width: 3"/>
   </g>
   <g id="line2d_180">
    <path d="M 113.064063 276.294939 
L 1034.664062 276.294939 
" clip-path="url(#p1f0955a065)" style="fill: none; stroke: #2c3e50; stroke-opacity: 0.8; stroke-width: 4; stroke-linecap: square"/>
   </g>
   <g id="line2d_181">
    <path d="M 154.954972 581.155937 
L 154.954972 26.755937 
" clip-path="url(#p1f0955a065)" style="fill: none; stroke-dasharray: 14.8,6.4; stroke-dashoffset: 0; stroke: #34495e; stroke-opacity: 0.4; stroke-width: 4"/>
   </g>
   <g id="line2d_182">
    <path d="M 783.318608 581.155937 
L 783.318608 26.755937 
" clip-path="url(#p1f0955a065)" style="fill: none; stroke-dasharray: 14.8,6.4; stroke-dashoffset: 0; stroke: #34495e; stroke-opacity: 0.4; stroke-width: 4"/>
   </g>
   <g id="line2d_183">
    <path d="M 992.773153 581.155937 
L 992.773153 26.755937 
" clip-path="url(#p1f0955a065)" style="fill: none; stroke-dasharray: 14.8,6.4; stroke-dashoffset: 0; stroke: #e74c3c; stroke-opacity: 0.6; stroke-width: 4"/>
   </g>
   <g id="patch_3">
    <path d="M 113.064063 581.155937 
L 113.064063 26.755937 
" style="fill: none; stroke: #000000; stroke-width: 4; stroke-linejoin: miter; stroke-linecap: square"/>
   </g>
   <g id="patch_4">
    <path d="M 113.064063 581.155937 
L 1034.664062 581.155937 
" style="fill: none; stroke: #000000; stroke-width: 4; stroke-linejoin: miter; stroke-linecap: square"/>
   </g>
   <g id="text_18">
    <g id="patch_5">
     <path d="M 179.954972 130.205803 
L 292.201847 130.205803 
Q 307.801847 130.205803 307.801847 114.605803 
L 307.801847 89.442678 
Q 307.801847 73.842678 292.201847 73.842678 
L 179.954972 73.842678 
Q 164.354972 73.842678 164.354972 89.442678 
L 164.354972 114.605803 
Q 164.354972 130.205803 179.954972 130.205803 
z
" style="fill: #f8fafc; opacity: 0.9; stroke: #2c3e50; stroke-linejoin: miter"/>
    </g>
    <!-- 3.17 kN -->
    <g style="fill: #2c3e50" transform="translate(179.954972 109.198615)scale(0.26 -0.26)">
     <defs>
      <path id="DejaVuSans-Bold-33" d="M 2981 2516 
Q 3453 2394 3698 2092 
Q 3944 1791 3944 1325 
Q 3944 631 3412 270 
Q 2881 -91 1863 -91 
Q 1503 -91 1142 -33 
Q 781 25 428 141 
L 428 1069 
Q 766 900 1098 814 
Q 1431 728 1753 728 
Q 2231 728 2486 893 
Q 2741 1059 2741 1369 
Q 2741 1688 2480 1852 
Q 2219 2016 1709 2016 
L 1228 2016 
L 1228 2791 
L 1734 2791 
Q 2188 2791 2409 2933 
Q 2631 3075 2631 3366 
Q 2631 3634 2415 3781 
Q 2200 3928 1806 3928 
Q 1516 3928 1219 3862 
Q 922 3797 628 3669 
L 628 4550 
Q 984 4650 1334 4700 
Q 1684 4750 2022 4750 
Q 2931 4750 3382 4451 
Q 3834 4153 3834 3553 
Q 3834 3144 3618 2883 
Q 3403 2622 2981 2516 
z
" transform="scale(0.015625)"/>
      <path id="DejaVuSans-Bold-2e" d="M 653 1209 
L 1778 1209 
L 1778 0 
L 653 0 
L 653 1209 
z
" transform="scale(0.015625)"/>
      <path id="DejaVuSans-Bold-31" d="M 750 831 
L 1813 831 
L 1813 3847 
L 722 3622 
L 722 4441 
L 1806 4666 
L 2950 4666 
L 2950 831 
L 4013 831 
L 4013 0 
L 750 0 
L 750 831 
z
" transform="scale(0.015625)"/>
      <path id="DejaVuSans-Bold-37" d="M 428 4666 
L 3944 4666 
L 3944 3988 
L 2125 0 
L 953 0 
L 2675 3781 
L 428 3781 
L 428 4666 
z
" transform="scale(0.015625)"/>
     </defs>
     <use xlink:href="#DejaVuSans-Bold-33"/>
     <use xlink:href="#DejaVuSans-Bold-2e" x="69.580078"/>
     <use xlink:href="#DejaVuSans-Bold-31" x="107.568359"/>
     <use xlink:href="#DejaVuSans-Bold-37" x="177.148438"/>
     <use xlink:href="#DejaVuSans-Bold-20" x="246.728516"/>
     <use xlink:href="#DejaVuSans-Bold-6b" x="281.542969"/>
     <use xlink:href="#DejaVuSans-Bold-4e" x="348.046875"/>
    </g>
   </g>
   <g id="text_19">
    <g id="patch_6">
     <path d="M 494.13679 184.047163 
L 606.383665 184.047163 
Q 621.983665 184.047163 621.983665 168.447163 
L 621.983665 143.284038 
Q 621.983665 127.684038 606.383665 127.684038 
L 494.13679 127.684038 
Q 478.53679 127.684038 478.53679 143.284038 
L 478.53679 168.447163 
Q 478.53679 184.047163 494.13679 184.047163 
z
" style="fill: #f8fafc; opacity: 0.9; stroke: #2c3e50; stroke-linejoin: miter"/>
    </g>
    <!-- 1.97 kN -->
    <g style="fill: #2c3e50" transform="translate(494.13679 163.039976)scale(0.26 -0.26)">
     <defs>
      <path id="DejaVuSans-Bold-39" d="M 641 103 
L 641 966 
Q 928 831 1190 764 
Q 1453 697 1709 697 
Q 2247 697 2547 995 
Q 2847 1294 2900 1881 
Q 2688 1725 2447 1647 
Q 2206 1569 1925 1569 
Q 1209 1569 770 1986 
Q 331 2403 331 3084 
Q 331 3838 820 4291 
Q 1309 4744 2131 4744 
Q 3044 4744 3544 4128 
Q 4044 3513 4044 2388 
Q 4044 1231 3459 570 
Q 2875 -91 1856 -91 
Q 1528 -91 1228 -42 
Q 928 6 641 103 
z
M 2125 2350 
Q 2441 2350 2600 2554 
Q 2759 2759 2759 3169 
Q 2759 3575 2600 3781 
Q 2441 3988 2125 3988 
Q 1809 3988 1650 3781 
Q 1491 3575 1491 3169 
Q 1491 2759 1650 2554 
Q 1809 2350 2125 2350 
z
" transform="scale(0.015625)"/>
     </defs>
     <use xlink:href="#DejaVuSans-Bold-31"/>
     <use xlink:href="#DejaVuSans-Bold-2e" x="69.580078"/>
     <use xlink:href="#DejaVuSans-Bold-39" x="107.568359"/>
     <use xlink:href="#DejaVuSans-Bold-37" x="177.148438"/>
     <use xlink:href="#DejaVuSans-Bold-20" x="246.728516"/>
     <use xlink:href="#DejaVuSans-Bold-6b" x="281.542969"/>
     <use xlink:href="#DejaVuSans-Bold-4e" x="348.046875"/>
    </g>
   </g>
   <g id="text_20">
    <g id="patch_7">
     <path d="M 494.13679 563.121765 
L 617.173665 563.121765 
Q 632.773665 563.121765 632.773665 547.521765 
L 632.773665 522.35864 
Q 632.773665 506.75864 617.173665 506.75864 
L 494.13679 506.75864 
Q 478.53679 506.75864 478.53679 522.35864 
L 478.53679 547.521765 
Q 478.53679 563.121765 494.13679 563.121765 
z
" style="fill: #f8fafc; opacity: 0.9; stroke: #2c3e50; stroke-linejoin: miter"/>
    </g>
    <!-- -5.03 kN -->
    <g style="fill: #2c3e50" transform="translate(494.13679 542.114577)scale(0.26 -0.26)">
     <defs>
      <path id="DejaVuSans-Bold-2d" d="M 347 2297 
L 2309 2297 
L 2309 1388 
L 347 1388 
L 347 2297 
z
" transform="scale(0.015625)"/>
      <path id="DejaVuSans-Bold-35" d="M 678 4666 
L 3669 4666 
L 3669 3781 
L 1638 3781 
L 1638 3059 
Q 1775 3097 1914 3117 
Q 2053 3138 2203 3138 
Q 3056 3138 3531 2711 
Q 4006 2284 4006 1522 
Q 4006 766 3489 337 
Q 2972 -91 2053 -91 
Q 1656 -91 1267 -14 
Q 878 63 494 219 
L 494 1166 
Q 875 947 1217 837 
Q 1559 728 1863 728 
Q 2300 728 2551 942 
Q 2803 1156 2803 1522 
Q 2803 1891 2551 2103 
Q 2300 2316 1863 2316 
Q 1603 2316 1309 2248 
Q 1016 2181 678 2041 
L 678 4666 
z
" transform="scale(0.015625)"/>
      <path id="DejaVuSans-Bold-30" d="M 2944 2338 
Q 2944 3213 2780 3570 
Q 2616 3928 2228 3928 
Q 1841 3928 1675 3570 
Q 1509 3213 1509 2338 
Q 1509 1453 1675 1090 
Q 1841 728 2228 728 
Q 2613 728 2778 1090 
Q 2944 1453 2944 2338 
z
M 4147 2328 
Q 4147 1169 3647 539 
Q 3147 -91 2228 -91 
Q 1306 -91 806 539 
Q 306 1169 306 2328 
Q 306 3491 806 4120 
Q 1306 4750 2228 4750 
Q 3147 4750 3647 4120 
Q 4147 3491 4147 2328 
z
" transform="scale(0.015625)"/>
     </defs>
     <use xlink:href="#DejaVuSans-Bold-2d"/>
     <use xlink:href="#DejaVuSans-Bold-35" x="41.503906"/>
     <use xlink:href="#DejaVuSans-Bold-2e" x="111.083984"/>
     <use xlink:href="#DejaVuSans-Bold-30" x="149.072266"/>
     <use xlink:href="#DejaVuSans-Bold-33" x="218.652344"/>
     <use xlink:href="#DejaVuSans-Bold-20" x="288.232422"/>
     <use xlink:href="#DejaVuSans-Bold-6b" x="323.046875"/>
     <use xlink:href="#DejaVuSans-Bold-4e" x="389.550781"/>
    </g>
   </g>
   <g id="text_21">
    <g id="patch_8">
     <path d="M 683.318608 601.963125 
L 806.355483 601.963125 
Q 821.955483 601.963125 821.955483 586.363125 
L 821.955483 561.2 
Q 821.955483 545.6 806.355483 545.6 
L 683.318608 545.6 
Q 667.718608 545.6 667.718608 561.2 
L 667.718608 586.363125 
Q 667.718608 601.963125 683.318608 601.963125 
z
" style="fill: #f8fafc; opacity: 0.9; stroke: #2c3e50; stroke-linejoin: miter"/>
    </g>
    <!-- -6.23 kN -->
    <g style="fill: #2c3e50" transform="translate(683.318608 580.955937)scale(0.26 -0.26)">
     <defs>
      <path id="DejaVuSans-Bold-36" d="M 2316 2303 
Q 2000 2303 1842 2098 
Q 1684 1894 1684 1484 
Q 1684 1075 1842 870 
Q 2000 666 2316 666 
Q 2634 666 2792 870 
Q 2950 1075 2950 1484 
Q 2950 1894 2792 2098 
Q 2634 2303 2316 2303 
z
M 3803 4544 
L 3803 3681 
Q 3506 3822 3243 3889 
Q 2981 3956 2731 3956 
Q 2194 3956 1894 3657 
Q 1594 3359 1544 2772 
Q 1750 2925 1990 3001 
Q 2231 3078 2516 3078 
Q 3231 3078 3670 2659 
Q 4109 2241 4109 1563 
Q 4109 813 3618 361 
Q 3128 -91 2303 -91 
Q 1394 -91 895 523 
Q 397 1138 397 2266 
Q 397 3422 980 4083 
Q 1563 4744 2578 4744 
Q 2900 4744 3203 4694 
Q 3506 4644 3803 4544 
z
" transform="scale(0.015625)"/>
      <path id="DejaVuSans-Bold-32" d="M 1844 884 
L 3897 884 
L 3897 0 
L 506 0 
L 506 884 
L 2209 2388 
Q 2438 2594 2547 2791 
Q 2656 2988 2656 3200 
Q 2656 3528 2436 3728 
Q 2216 3928 1850 3928 
Q 1569 3928 1234 3808 
Q 900 3688 519 3450 
L 519 4475 
Q 925 4609 1322 4679 
Q 1719 4750 2100 4750 
Q 2938 4750 3402 4381 
Q 3866 4013 3866 3353 
Q 3866 2972 3669 2642 
Q 3472 2313 2841 1759 
L 1844 884 
z
" transform="scale(0.015625)"/>
     </defs>
     <use xlink:href="#DejaVuSans-Bold-2d"/>
     <use xlink:href="#DejaVuSans-Bold-36" x="41.503906"/>
     <use xlink:href="#DejaVuSans-Bold-2e" x="111.083984"/>
     <use xlink:href="#DejaVuSans-Bold-32" x="149.072266"/>
     <use xlink:href="#DejaVuSans-Bold-33" x="218.652344"/>
     <use xlink:href="#DejaVuSans-Bold-20" x="288.232422"/>
     <use xlink:href="#DejaVuSans-Bold-6b" x="323.046875"/>
     <use xlink:href="#DejaVuSans-Bold-4e" x="389.550781"/>
    </g>
   </g>
   <g id="text_22">
    <g id="patch_9">
     <path d="M 808.318608 47.963125 
L 920.565483 47.963125 
Q 936.165483 47.963125 936.165483 32.363125 
L 936.165483 7.2 
Q 936.165483 -8.4 920.565483 -8.4 
L 808.318608 -8.4 
Q 792.718608 -8.4 792.718608 7.2 
L 792.718608 32.363125 
Q 792.718608 47.963125 808.318608 47.963125 
z
" style="fill: #f8fafc; opacity: 0.9; stroke: #2c3e50; stroke-linejoin: miter"/>
    </g>
    <!-- 5.00 kN -->
    <g style="fill: #2c3e50" transform="translate(808.318608 26.955938)scale(0.26 -0.26)">
     <use xlink:href="#DejaVuSans-Bold-35"/>
     <use xlink:href="#DejaVuSans-Bold-2e" x="69.580078"/>
     <use xlink:href="#DejaVuSans-Bold-30" x="107.568359"/>
     <use xlink:href="#DejaVuSans-Bold-30" x="177.148438"/>
     <use xlink:href="#DejaVuSans-Bold-20" x="246.728516"/>
     <use xlink:href="#DejaVuSans-Bold-6b" x="281.542969"/>
     <use xlink:href="#DejaVuSans-Bold-4e" x="348.046875"/>
    </g>
   </g>
   <g id="text_23">
    <g id="patch_10">
     <path d="M 1017.773153 272.302126 
L 1083.963466 272.302126 
Q 1099.563466 272.302126 1099.563466 256.702126 
L 1099.563466 231.539001 
Q 1099.563466 215.939001 1083.963466 215.939001 
L 1017.773153 215.939001 
Q 1002.173153 215.939001 1002.173153 231.539001 
L 1002.173153 256.702126 
Q 1002.173153 272.302126 1017.773153 272.302126 
z
" style="fill: #f8fafc; opacity: 0.9; stroke: #2c3e50; stroke-linejoin: miter"/>
    </g>
    <!-- 0 kN -->
    <g style="fill: #2c3e50" transform="translate(1017.773153 251.294939)scale(0.26 -0.26)">
     <use xlink:href="#DejaVuSans-Bold-30"/>
     <use xlink:href="#DejaVuSans-Bold-20" x="69.580078"/>
     <use xlink:href="#DejaVuSans-Bold-6b" x="104.394531"/>
     <use xlink:href="#DejaVuSans-Bold-4e" x="170.898438"/>
    </g>
   </g>
   <g id="line2d_184">
    <defs>
     <path id="m9ca6154e94" d="M 0 9 
C 2.386828 9 4.676219 8.051703 6.363961 6.363961 
C 8.051703 4.676219 9 2.386828 9 0 
C 9 -2.386828 8.051703 -4.676219 6.363961 -6.363961 
C 4.676219 -8.051703 2.386828 -9 0 -9 
C -2.386828 -9 -4.676219 -8.051703 -6.363961 -6.363961 
C -8.051703 -4.676219 -9 -2.386828 -9 0 
C -9 2.386828 -8.051703 4.676219 -6.363961 6.363961 
C -4.676219 8.051703 -2.386828 9 0 9 
z
" style="stroke: #2c3e50; stroke-width: 5"/>
    </defs>
    <g clip-path="url(#p1f0955a065)">
     <use xlink:href="#m9ca6154e94" x="154.954972" y="134.198615" style="fill: #008080; stroke: #2c3e50; stroke-width: 5"/>
    </g>
   </g>
   <g id="line2d_185">
    <g clip-path="url(#p1f0955a065)">
     <use xlink:href="#m9ca6154e94" x="469.13679" y="188.039976" style="fill: #008080; stroke: #2c3e50; stroke-width: 5"/>
    </g>
   </g>
   <g id="line2d_186">
    <defs>
     <path id="mf2cf063b29" d="M 0 9 
C 2.386828 9 4.676219 8.051703 6.363961 6.363961 
C 8.051703 4.676219 9 2.386828 9 0 
C 9 -2.386828 8.051703 -4.676219 6.363961 -6.363961 
C 4.676219 -8.051703 2.386828 -9 0 -9 
C -2.386828 -9 -4.676219 -8.051703 -6.363961 -6.363961 
C -8.051703 -4.676219 -9 -2.386828 -9 0 
C -9 2.386828 -8.051703 4.676219 -6.363961 6.363961 
C -4.676219 8.051703 -2.386828 9 0 9 
z
" style="stroke: #2c3e50; stroke-width: 5"/>
    </defs>
    <g clip-path="url(#p1f0955a065)">
     <use xlink:href="#mf2cf063b29" x="469.13679" y="502.114577" style="fill: #e67e22; stroke: #2c3e50; stroke-width: 5"/>
    </g>
   </g>
   <g id="line2d_187">
    <g clip-path="url(#p1f0955a065)">
     <use xlink:href="#mf2cf063b29" x="783.318608" y="555.955937" style="fill: #e67e22; stroke: #2c3e50; stroke-width: 5"/>
    </g>
   </g>
   <g id="line2d_188">
    <g clip-path="url(#p1f0955a065)">
     <use xlink:href="#m9ca6154e94" x="783.318608" y="51.955938" style="fill: #008080; stroke: #2c3e50; stroke-width: 5"/>
    </g>
   </g>
   <g id="line2d_189">
    <defs>
     <path id="m4dbbc67d8a" d="M 0 9 
C 2.386828 9 4.676219 8.051703 6.363961 6.363961 
C 8.051703 4.676219 9 2.386828 9 0 
C 9 -2.386828 8.051703 -4.676219 6.363961 -6.363961 
C 4.676219 -8.051703 2.386828 -9 0 -9 
C -2.386828 -9 -4.676219 -8.051703 -6.363961 -6.363961 
C -8.051703 -4.676219 -9 -2.386828 -9 0 
C -9 2.386828 -8.051703 4.676219 -6.363961 6.363961 
C -4.676219 8.051703 -2.386828 9 0 9 
z
" style="stroke: #2c3e50; stroke-width: 5"/>
    </defs>
    <g clip-path="url(#p1f0955a065)">
     <use xlink:href="#m4dbbc67d8a" x="992.773153" y="276.294939" style="fill: #95a5a6; stroke: #2c3e50; stroke-width: 5"/>
    </g>
   </g>
  </g>
 </g>
 <defs>
  <clipPath id="p1f0955a065">
   <rect x="113.064063" y="26.755937" width="921.6" height="554.4"/>
  </clipPath>
 </defs>
</svg>
