<?xml version="1.0" encoding="utf-8" standalone="no"?>
<!DOCTYPE svg PUBLIC "-//W3C//DTD SVG 1.1//EN"
  "http://www.w3.org/Graphics/SVG/1.1/DTD/svg11.dtd">
<svg xmlns:xlink="http://www.w3.org/1999/xlink" width="760.722813pt" height="646.139937pt" viewBox="0 0 760.722813 646.139937" xmlns="http://www.w3.org/2000/svg" version="1.1">
 <metadata>
  <rdf:RDF xmlns:dc="http://purl.org/dc/elements/1.1/" xmlns:cc="http://creativecommons.org/ns#" xmlns:rdf="http://www.w3.org/1999/02/22-rdf-syntax-ns#">
   <cc:Work>
    <dc:type rdf:resource="http://purl.org/dc/dcmitype/StillImage"/>
    <dc:date>2025-09-26T20:09:15.384460</dc:date>
    <dc:format>image/svg+xml</dc:format>
    <dc:creator>
     <cc:Agent>
      <dc:title>Matplotlib v3.5.2, https://matplotlib.org/</dc:title>
     </cc:Agent>
    </dc:creator>
   </cc:Work>
  </rdf:RDF>
 </metadata>
 <defs>
  <style type="text/css">*{stroke-linejoin: round; stroke-linecap: butt}</style>
 </defs>
 <g id="figure_1">
  <g id="patch_1">
   <path d="M 0 646.139937 
L 760.722813 646.139937 
L 760.722813 0 
L 0 0 
L 0 646.139937 
z
" style="fill: none"/>
  </g>
  <g id="axes_1">
   <g id="patch_2">
    <path d="M 232.05 315.952438 
L 466.95 315.952438 
L 466.95 257.227438 
L 232.05 257.227438 
z
" clip-path="url(#p4323b7df59)" style="fill: #405ab9; stroke: #405ab9; stroke-width: 3; stroke-linejoin: miter"/>
   </g>
   <g id="patch_3">
    <path d="M 202.6875 364.889938 
L 232.05 364.889938 
L 232.05 208.289938 
L 202.6875 208.289938 
z
" clip-path="url(#p4323b7df59)" style="fill: #405ab9; stroke: #405ab9; stroke-width: 3; stroke-linejoin: miter"/>
   </g>
   <g id="patch_4">
    <path d="M 466.95 272.887438 
C 471.103081 272.887438 475.086621 271.237401 478.023292 268.30073 
C 480.959964 265.364058 482.61 261.380518 482.61 257.227438 
C 482.61 253.074357 480.959964 249.090817 478.023292 246.154145 
C 475.086621 243.217474 471.103081 241.567438 466.95 241.567438 
C 462.796919 241.567438 458.813379 243.217474 455.876708 246.154145 
C 452.940036 249.090817 451.29 253.074357 451.29 257.227438 
C 451.29 261.380518 452.940036 265.364058 455.876708 268.30073 
C 458.813379 271.237401 462.796919 272.887438 466.95 272.887438 
z
" clip-path="url(#p4323b7df59)" style="fill: #ffd700; stroke: #405ab9; stroke-width: 3; stroke-linejoin: miter"/>
   </g>
   <g id="patch_5">
    <path d="M 466.95 257.227438 
L 449.3325 237.652438 
L 466.852125 237.652438 
L 466.852125 100.627438 
L 467.047875 100.627438 
L 467.047875 237.652438 
L 484.5675 237.652438 
z
" clip-path="url(#p4323b7df59)" style="fill: #ff8c36; stroke: #ff8c36; stroke-width: 3; stroke-linejoin: miter"/>
   </g>
   <g id="patch_6">
    <path d="M 232.05 315.952438 
L 249.6675 335.527438 
L 232.147875 335.527438 
L 232.147875 433.402438 
L 231.952125 433.402438 
L 231.952125 335.527438 
L 214.4325 335.527438 
z
" clip-path="url(#p4323b7df59)" style="fill: #00a0d0; stroke: #00a0d0; stroke-width: 3; stroke-linejoin: miter"/>
   </g>
   <g id="patch_7">
    <path d="M 259.73323 314.273168 
C 265.207801 308.798598 268.937313 301.821171 270.447744 294.227724 
C 271.958174 286.634276 271.1827 278.760752 268.219884 271.607881 
C 265.257068 264.45501 260.237988 258.339245 253.800575 254.037902 
C 247.363161 249.73656 239.792212 247.439938 232.05 247.439938 
C 224.307788 247.439938 216.736839 249.73656 210.299425 254.037902 
C 203.862012 258.339245 198.842932 264.45501 195.880116 271.607881 
C 192.9173 278.760752 192.141826 286.634276 193.652256 294.227724 
C 195.162687 301.821171 198.892199 308.798598 204.36677 314.273168 
" clip-path="url(#p4323b7df59)" style="fill: none; stroke: #00a0d0; stroke-width: 4; stroke-linejoin: miter"/>
   </g>
   <g id="line2d_1">
    <path d="M 202.6875 349.229938 
L 212.475 359.017438 
" clip-path="url(#p4323b7df59)" style="fill: none; stroke: #405ab9; stroke-width: 2; stroke-linecap: square"/>
   </g>
   <g id="line2d_2">
    <path d="M 202.6875 317.909938 
L 212.475 327.697438 
" clip-path="url(#p4323b7df59)" style="fill: none; stroke: #405ab9; stroke-width: 2; stroke-linecap: square"/>
   </g>
   <g id="line2d_3">
    <path d="M 202.6875 286.589938 
L 212.475 296.377438 
" clip-path="url(#p4323b7df59)" style="fill: none; stroke: #405ab9; stroke-width: 2; stroke-linecap: square"/>
   </g>
   <g id="line2d_4">
    <path d="M 202.6875 255.269938 
L 212.475 265.057437 
" clip-path="url(#p4323b7df59)" style="fill: none; stroke: #405ab9; stroke-width: 2; stroke-linecap: square"/>
   </g>
   <g id="line2d_5">
    <path d="M 202.6875 223.949938 
L 212.475 233.737438 
" clip-path="url(#p4323b7df59)" style="fill: none; stroke: #405ab9; stroke-width: 2; stroke-linecap: square"/>
   </g>
   <g id="line2d_6">
    <path d="M 232.05 100.627438 
L 506.1 100.627438 
" clip-path="url(#p4323b7df59)" style="fill: none; stroke: #ffd700; stroke-opacity: 0.8; stroke-width: 8; stroke-linecap: square"/>
   </g>
   <g id="text_1">
    <g id="patch_8">
     <path d="M 173.465781 86.864937 
L 525.534219 86.864937 
Q 541.134219 86.864937 541.134219 71.264937 
L 541.134219 46.101812 
Q 541.134219 30.501812 525.534219 30.501812 
L 173.465781 30.501812 
Q 157.865781 30.501812 157.865781 46.101812 
L 157.865781 71.264937 
Q 157.865781 86.864937 173.465781 86.864937 
z
" style="fill: #f8fafc; opacity: 0.9; stroke: #ffd700; stroke-linejoin: miter"/>
    </g>
    <!-- 600V DC Overhead Wire -->
    <g style="fill: #ffd700" transform="translate(173.465781 65.85775)scale(0.26 -0.26)">
     <defs>
      <path id="DejaVuSans-Bold-36" d="M 2316 2303 
Q 2000 2303 1842 2098 
Q 1684 1894 1684 1484 
Q 1684 1075 1842 870 
Q 2000 666 2316 666 
Q 2634 666 2792 870 
Q 2950 1075 2950 1484 
Q 2950 1894 2792 2098 
Q 2634 2303 2316 2303 
z
M 3803 4544 
L 3803 3681 
Q 3506 3822 3243 3889 
Q 2981 3956 2731 3956 
Q 2194 3956 1894 3657 
Q 1594 3359 1544 2772 
Q 1750 2925 1990 3001 
Q 2231 3078 2516 3078 
Q 3231 3078 3670 2659 
Q 4109 2241 4109 1563 
Q 4109 813 3618 361 
Q 3128 -91 2303 -91 
Q 1394 -91 895 523 
Q 397 1138 397 2266 
Q 397 3422 980 4083 
Q 1563 4744 2578 4744 
Q 2900 4744 3203 4694 
Q 3506 4644 3803 4544 
z
" transform="scale(0.015625)"/>
      <path id="DejaVuSans-Bold-30" d="M 2944 2338 
Q 2944 3213 2780 3570 
Q 2616 3928 2228 3928 
Q 1841 3928 1675 3570 
Q 1509 3213 1509 2338 
Q 1509 1453 1675 1090 
Q 1841 728 2228 728 
Q 2613 728 2778 1090 
Q 2944 1453 2944 2338 
z
M 4147 2328 
Q 4147 1169 3647 539 
Q 3147 -91 2228 -91 
Q 1306 -91 806 539 
Q 306 1169 306 2328 
Q 306 3491 806 4120 
Q 1306 4750 2228 4750 
Q 3147 4750 3647 4120 
Q 4147 3491 4147 2328 
z
" transform="scale(0.015625)"/>
      <path id="DejaVuSans-Bold-56" d="M 31 4666 
L 1241 4666 
L 2478 1222 
L 3713 4666 
L 4922 4666 
L 3194 0 
L 1759 0 
L 31 4666 
z
" transform="scale(0.015625)"/>
      <path id="DejaVuSans-Bold-20" transform="scale(0.015625)"/>
      <path id="DejaVuSans-Bold-44" d="M 1791 3756 
L 1791 909 
L 2222 909 
Q 2959 909 3348 1275 
Q 3738 1641 3738 2338 
Q 3738 3031 3350 3393 
Q 2963 3756 2222 3756 
L 1791 3756 
z
M 588 4666 
L 1856 4666 
Q 2919 4666 3439 4514 
Q 3959 4363 4331 4000 
Q 4659 3684 4818 3271 
Q 4978 2859 4978 2338 
Q 4978 1809 4818 1395 
Q 4659 981 4331 666 
Q 3956 303 3431 151 
Q 2906 0 1856 0 
L 588 0 
L 588 4666 
z
" transform="scale(0.015625)"/>
      <path id="DejaVuSans-Bold-43" d="M 4288 256 
Q 3956 84 3597 -3 
Q 3238 -91 2847 -91 
Q 1681 -91 1000 561 
Q 319 1213 319 2328 
Q 319 3447 1000 4098 
Q 1681 4750 2847 4750 
Q 3238 4750 3597 4662 
Q 3956 4575 4288 4403 
L 4288 3438 
Q 3953 3666 3628 3772 
Q 3303 3878 2944 3878 
Q 2300 3878 1931 3465 
Q 1563 3053 1563 2328 
Q 1563 1606 1931 1193 
Q 2300 781 2944 781 
Q 3303 781 3628 887 
Q 3953 994 4288 1222 
L 4288 256 
z
" transform="scale(0.015625)"/>
      <path id="DejaVuSans-Bold-4f" d="M 2719 3878 
Q 2169 3878 1866 3472 
Q 1563 3066 1563 2328 
Q 1563 1594 1866 1187 
Q 2169 781 2719 781 
Q 3272 781 3575 1187 
Q 3878 1594 3878 2328 
Q 3878 3066 3575 3472 
Q 3272 3878 2719 3878 
z
M 2719 4750 
Q 3844 4750 4481 4106 
Q 5119 3463 5119 2328 
Q 5119 1197 4481 553 
Q 3844 -91 2719 -91 
Q 1597 -91 958 553 
Q 319 1197 319 2328 
Q 319 3463 958 4106 
Q 1597 4750 2719 4750 
z
" transform="scale(0.015625)"/>
      <path id="DejaVuSans-Bold-76" d="M 97 3500 
L 1216 3500 
L 2088 1081 
L 2956 3500 
L 4078 3500 
L 2700 0 
L 1472 0 
L 97 3500 
z
" transform="scale(0.015625)"/>
      <path id="DejaVuSans-Bold-65" d="M 4031 1759 
L 4031 1441 
L 1416 1441 
Q 1456 1047 1700 850 
Q 1944 653 2381 653 
Q 2734 653 3104 758 
Q 3475 863 3866 1075 
L 3866 213 
Q 3469 63 3072 -14 
Q 2675 -91 2278 -91 
Q 1328 -91 801 392 
Q 275 875 275 1747 
Q 275 2603 792 3093 
Q 1309 3584 2216 3584 
Q 3041 3584 3536 3087 
Q 4031 2591 4031 1759 
z
M 2881 2131 
Q 2881 2450 2695 2645 
Q 2509 2841 2209 2841 
Q 1884 2841 1681 2658 
Q 1478 2475 1428 2131 
L 2881 2131 
z
" transform="scale(0.015625)"/>
      <path id="DejaVuSans-Bold-72" d="M 3138 2547 
Q 2991 2616 2845 2648 
Q 2700 2681 2553 2681 
Q 2122 2681 1889 2404 
Q 1656 2128 1656 1613 
L 1656 0 
L 538 0 
L 538 3500 
L 1656 3500 
L 1656 2925 
Q 1872 3269 2151 3426 
Q 2431 3584 2822 3584 
Q 2878 3584 2943 3579 
Q 3009 3575 3134 3559 
L 3138 2547 
z
" transform="scale(0.015625)"/>
      <path id="DejaVuSans-Bold-68" d="M 4056 2131 
L 4056 0 
L 2931 0 
L 2931 347 
L 2931 1625 
Q 2931 2084 2911 2256 
Q 2891 2428 2841 2509 
Q 2775 2619 2662 2680 
Q 2550 2741 2406 2741 
Q 2056 2741 1856 2470 
Q 1656 2200 1656 1722 
L 1656 0 
L 538 0 
L 538 4863 
L 1656 4863 
L 1656 2988 
Q 1909 3294 2193 3439 
Q 2478 3584 2822 3584 
Q 3428 3584 3742 3212 
Q 4056 2841 4056 2131 
z
" transform="scale(0.015625)"/>
      <path id="DejaVuSans-Bold-61" d="M 2106 1575 
Q 1756 1575 1579 1456 
Q 1403 1338 1403 1106 
Q 1403 894 1545 773 
Q 1688 653 1941 653 
Q 2256 653 2472 879 
Q 2688 1106 2688 1447 
L 2688 1575 
L 2106 1575 
z
M 3816 1997 
L 3816 0 
L 2688 0 
L 2688 519 
Q 2463 200 2181 54 
Q 1900 -91 1497 -91 
Q 953 -91 614 226 
Q 275 544 275 1050 
Q 275 1666 698 1953 
Q 1122 2241 2028 2241 
L 2688 2241 
L 2688 2328 
Q 2688 2594 2478 2717 
Q 2269 2841 1825 2841 
Q 1466 2841 1156 2769 
Q 847 2697 581 2553 
L 581 3406 
Q 941 3494 1303 3539 
Q 1666 3584 2028 3584 
Q 2975 3584 3395 3211 
Q 3816 2838 3816 1997 
z
" transform="scale(0.015625)"/>
      <path id="DejaVuSans-Bold-64" d="M 2919 2988 
L 2919 4863 
L 4044 4863 
L 4044 0 
L 2919 0 
L 2919 506 
Q 2688 197 2409 53 
Q 2131 -91 1766 -91 
Q 1119 -91 703 423 
Q 288 938 288 1747 
Q 288 2556 703 3070 
Q 1119 3584 1766 3584 
Q 2128 3584 2408 3439 
Q 2688 3294 2919 2988 
z
M 2181 722 
Q 2541 722 2730 984 
Q 2919 1247 2919 1747 
Q 2919 2247 2730 2509 
Q 2541 2772 2181 2772 
Q 1825 2772 1636 2509 
Q 1447 2247 1447 1747 
Q 1447 1247 1636 984 
Q 1825 722 2181 722 
z
" transform="scale(0.015625)"/>
      <path id="DejaVuSans-Bold-57" d="M 191 4666 
L 1344 4666 
L 2150 1275 
L 2950 4666 
L 4109 4666 
L 4909 1275 
L 5716 4666 
L 6859 4666 
L 5759 0 
L 4372 0 
L 3525 3547 
L 2688 0 
L 1300 0 
L 191 4666 
z
" transform="scale(0.015625)"/>
      <path id="DejaVuSans-Bold-69" d="M 538 3500 
L 1656 3500 
L 1656 0 
L 538 0 
L 538 3500 
z
M 538 4863 
L 1656 4863 
L 1656 3950 
L 538 3950 
L 538 4863 
z
" transform="scale(0.015625)"/>
     </defs>
     <use xlink:href="#DejaVuSans-Bold-36"/>
     <use xlink:href="#DejaVuSans-Bold-30" x="69.580078"/>
     <use xlink:href="#DejaVuSans-Bold-30" x="139.160156"/>
     <use xlink:href="#DejaVuSans-Bold-56" x="208.740234"/>
     <use xlink:href="#DejaVuSans-Bold-20" x="286.132812"/>
     <use xlink:href="#DejaVuSans-Bold-44" x="320.947266"/>
     <use xlink:href="#DejaVuSans-Bold-43" x="403.955078"/>
     <use xlink:href="#DejaVuSans-Bold-20" x="477.34375"/>
     <use xlink:href="#DejaVuSans-Bold-4f" x="512.158203"/>
     <use xlink:href="#DejaVuSans-Bold-76" x="597.167969"/>
     <use xlink:href="#DejaVuSans-Bold-65" x="662.353516"/>
     <use xlink:href="#DejaVuSans-Bold-72" x="730.175781"/>
     <use xlink:href="#DejaVuSans-Bold-68" x="779.492188"/>
     <use xlink:href="#DejaVuSans-Bold-65" x="850.683594"/>
     <use xlink:href="#DejaVuSans-Bold-61" x="918.505859"/>
     <use xlink:href="#DejaVuSans-Bold-64" x="985.986328"/>
     <use xlink:href="#DejaVuSans-Bold-20" x="1057.568359"/>
     <use xlink:href="#DejaVuSans-Bold-57" x="1092.382812"/>
     <use xlink:href="#DejaVuSans-Bold-69" x="1202.685547"/>
     <use xlink:href="#DejaVuSans-Bold-72" x="1236.962891"/>
     <use xlink:href="#DejaVuSans-Bold-65" x="1286.279297"/>
    </g>
   </g>
   <g id="text_2">
    <g id="patch_9">
     <path d="M 353.681406 77.077437 
L 580.218594 77.077437 
Q 595.818594 77.077437 595.818594 61.477437 
L 595.818594 7.2 
Q 595.818594 -8.4 580.218594 -8.4 
L 353.681406 -8.4 
Q 338.081406 -8.4 338.081406 7.2 
L 338.081406 61.477437 
Q 338.081406 77.077437 353.681406 77.077437 
z
" style="fill: #f8fafc; opacity: 0.9; stroke: #ff8c36; stroke-linejoin: miter"/>
    </g>
    <!-- P = 800 N -->
    <g style="fill: #ff8c36" transform="translate(394.936094 26.955938)scale(0.26 -0.26)">
     <defs>
      <path id="DejaVuSans-Bold-50" d="M 588 4666 
L 2584 4666 
Q 3475 4666 3951 4270 
Q 4428 3875 4428 3144 
Q 4428 2409 3951 2014 
Q 3475 1619 2584 1619 
L 1791 1619 
L 1791 0 
L 588 0 
L 588 4666 
z
M 1791 3794 
L 1791 2491 
L 2456 2491 
Q 2806 2491 2997 2661 
Q 3188 2831 3188 3144 
Q 3188 3456 2997 3625 
Q 2806 3794 2456 3794 
L 1791 3794 
z
" transform="scale(0.015625)"/>
      <path id="DejaVuSans-Bold-3d" d="M 678 3084 
L 4684 3084 
L 4684 2350 
L 678 2350 
L 678 3084 
z
M 678 1663 
L 4684 1663 
L 4684 922 
L 678 922 
L 678 1663 
z
" transform="scale(0.015625)"/>
      <path id="DejaVuSans-Bold-38" d="M 2228 2088 
Q 1891 2088 1709 1903 
Q 1528 1719 1528 1375 
Q 1528 1031 1709 848 
Q 1891 666 2228 666 
Q 2563 666 2741 848 
Q 2919 1031 2919 1375 
Q 2919 1722 2741 1905 
Q 2563 2088 2228 2088 
z
M 1350 2484 
Q 925 2613 709 2878 
Q 494 3144 494 3541 
Q 494 4131 934 4440 
Q 1375 4750 2228 4750 
Q 3075 4750 3515 4442 
Q 3956 4134 3956 3541 
Q 3956 3144 3739 2878 
Q 3522 2613 3097 2484 
Q 3572 2353 3814 2058 
Q 4056 1763 4056 1313 
Q 4056 619 3595 264 
Q 3134 -91 2228 -91 
Q 1319 -91 855 264 
Q 391 619 391 1313 
Q 391 1763 633 2058 
Q 875 2353 1350 2484 
z
M 1631 3419 
Q 1631 3141 1786 2991 
Q 1941 2841 2228 2841 
Q 2509 2841 2662 2991 
Q 2816 3141 2816 3419 
Q 2816 3697 2662 3845 
Q 2509 3994 2228 3994 
Q 1941 3994 1786 3844 
Q 1631 3694 1631 3419 
z
" transform="scale(0.015625)"/>
      <path id="DejaVuSans-Bold-4e" d="M 588 4666 
L 1931 4666 
L 3628 1466 
L 3628 4666 
L 4769 4666 
L 4769 0 
L 3425 0 
L 1728 3200 
L 1728 0 
L 588 0 
L 588 4666 
z
" transform="scale(0.015625)"/>
     </defs>
     <use xlink:href="#DejaVuSans-Bold-50"/>
     <use xlink:href="#DejaVuSans-Bold-20" x="73.291016"/>
     <use xlink:href="#DejaVuSans-Bold-3d" x="108.105469"/>
     <use xlink:href="#DejaVuSans-Bold-20" x="191.894531"/>
     <use xlink:href="#DejaVuSans-Bold-38" x="226.708984"/>
     <use xlink:href="#DejaVuSans-Bold-30" x="296.289062"/>
     <use xlink:href="#DejaVuSans-Bold-30" x="365.869141"/>
     <use xlink:href="#DejaVuSans-Bold-20" x="435.449219"/>
     <use xlink:href="#DejaVuSans-Bold-4e" x="470.263672"/>
    </g>
    <!-- (Contact Force) -->
    <g style="fill: #ff8c36" transform="translate(353.681406 56.07025)scale(0.26 -0.26)">
     <defs>
      <path id="DejaVuSans-Bold-28" d="M 2413 -844 
L 1484 -844 
Q 1006 -72 778 623 
Q 550 1319 550 2003 
Q 550 2688 779 3389 
Q 1009 4091 1484 4856 
L 2413 4856 
Q 2013 4116 1813 3408 
Q 1613 2700 1613 2009 
Q 1613 1319 1811 609 
Q 2009 -100 2413 -844 
z
" transform="scale(0.015625)"/>
      <path id="DejaVuSans-Bold-6f" d="M 2203 2784 
Q 1831 2784 1636 2517 
Q 1441 2250 1441 1747 
Q 1441 1244 1636 976 
Q 1831 709 2203 709 
Q 2569 709 2762 976 
Q 2956 1244 2956 1747 
Q 2956 2250 2762 2517 
Q 2569 2784 2203 2784 
z
M 2203 3584 
Q 3106 3584 3614 3096 
Q 4122 2609 4122 1747 
Q 4122 884 3614 396 
Q 3106 -91 2203 -91 
Q 1297 -91 786 396 
Q 275 884 275 1747 
Q 275 2609 786 3096 
Q 1297 3584 2203 3584 
z
" transform="scale(0.015625)"/>
      <path id="DejaVuSans-Bold-6e" d="M 4056 2131 
L 4056 0 
L 2931 0 
L 2931 347 
L 2931 1631 
Q 2931 2084 2911 2256 
Q 2891 2428 2841 2509 
Q 2775 2619 2662 2680 
Q 2550 2741 2406 2741 
Q 2056 2741 1856 2470 
Q 1656 2200 1656 1722 
L 1656 0 
L 538 0 
L 538 3500 
L 1656 3500 
L 1656 2988 
Q 1909 3294 2193 3439 
Q 2478 3584 2822 3584 
Q 3428 3584 3742 3212 
Q 4056 2841 4056 2131 
z
" transform="scale(0.015625)"/>
      <path id="DejaVuSans-Bold-74" d="M 1759 4494 
L 1759 3500 
L 2913 3500 
L 2913 2700 
L 1759 2700 
L 1759 1216 
Q 1759 972 1856 886 
Q 1953 800 2241 800 
L 2816 800 
L 2816 0 
L 1856 0 
Q 1194 0 917 276 
Q 641 553 641 1216 
L 641 2700 
L 84 2700 
L 84 3500 
L 641 3500 
L 641 4494 
L 1759 4494 
z
" transform="scale(0.015625)"/>
      <path id="DejaVuSans-Bold-63" d="M 3366 3391 
L 3366 2478 
Q 3138 2634 2908 2709 
Q 2678 2784 2431 2784 
Q 1963 2784 1702 2511 
Q 1441 2238 1441 1747 
Q 1441 1256 1702 982 
Q 1963 709 2431 709 
Q 2694 709 2930 787 
Q 3166 866 3366 1019 
L 3366 103 
Q 3103 6 2833 -42 
Q 2563 -91 2291 -91 
Q 1344 -91 809 395 
Q 275 881 275 1747 
Q 275 2613 809 3098 
Q 1344 3584 2291 3584 
Q 2566 3584 2833 3536 
Q 3100 3488 3366 3391 
z
" transform="scale(0.015625)"/>
      <path id="DejaVuSans-Bold-46" d="M 588 4666 
L 3834 4666 
L 3834 3756 
L 1791 3756 
L 1791 2888 
L 3713 2888 
L 3713 1978 
L 1791 1978 
L 1791 0 
L 588 0 
L 588 4666 
z
" transform="scale(0.015625)"/>
      <path id="DejaVuSans-Bold-29" d="M 513 -844 
Q 913 -100 1113 609 
Q 1313 1319 1313 2009 
Q 1313 2700 1113 3408 
Q 913 4116 513 4856 
L 1441 4856 
Q 1916 4091 2145 3389 
Q 2375 2688 2375 2003 
Q 2375 1319 2147 623 
Q 1919 -72 1441 -844 
L 513 -844 
z
" transform="scale(0.015625)"/>
     </defs>
     <use xlink:href="#DejaVuSans-Bold-28"/>
     <use xlink:href="#DejaVuSans-Bold-43" x="45.703125"/>
     <use xlink:href="#DejaVuSans-Bold-6f" x="119.091797"/>
     <use xlink:href="#DejaVuSans-Bold-6e" x="187.792969"/>
     <use xlink:href="#DejaVuSans-Bold-74" x="258.984375"/>
     <use xlink:href="#DejaVuSans-Bold-61" x="306.787109"/>
     <use xlink:href="#DejaVuSans-Bold-63" x="374.267578"/>
     <use xlink:href="#DejaVuSans-Bold-74" x="433.544922"/>
     <use xlink:href="#DejaVuSans-Bold-20" x="481.347656"/>
     <use xlink:href="#DejaVuSans-Bold-46" x="516.162109"/>
     <use xlink:href="#DejaVuSans-Bold-6f" x="580.472656"/>
     <use xlink:href="#DejaVuSans-Bold-72" x="649.173828"/>
     <use xlink:href="#DejaVuSans-Bold-63" x="698.490234"/>
     <use xlink:href="#DejaVuSans-Bold-65" x="757.767578"/>
     <use xlink:href="#DejaVuSans-Bold-29" x="825.589844"/>
    </g>
   </g>
   <g id="text_3">
    <g id="patch_10">
     <path d="M 50.022813 494.004625 
L 228.135 494.004625 
Q 243.735 494.004625 243.735 478.404625 
L 243.735 452.977438 
Q 243.735 437.377437 228.135 437.377437 
L 50.022813 437.377437 
Q 34.422813 437.377437 34.422813 452.977438 
L 34.422813 478.404625 
Q 34.422813 494.004625 50.022813 494.004625 
z
" style="fill: #f8fafc; opacity: 0.9; stroke: #00a0d0; stroke-linejoin: miter"/>
    </g>
    <!-- R_A = 800 N -->
    <g style="fill: #00a0d0" transform="translate(50.022813 472.274313)scale(0.26 -0.26)">
     <defs>
      <path id="DejaVuSans-Bold-52" d="M 2297 2597 
Q 2675 2597 2839 2737 
Q 3003 2878 3003 3200 
Q 3003 3519 2839 3656 
Q 2675 3794 2297 3794 
L 1791 3794 
L 1791 2597 
L 2297 2597 
z
M 1791 1766 
L 1791 0 
L 588 0 
L 588 4666 
L 2425 4666 
Q 3347 4666 3776 4356 
Q 4206 4047 4206 3378 
Q 4206 2916 3982 2619 
Q 3759 2322 3309 2181 
Q 3556 2125 3751 1926 
Q 3947 1728 4147 1325 
L 4800 0 
L 3519 0 
L 2950 1159 
Q 2778 1509 2601 1637 
Q 2425 1766 2131 1766 
L 1791 1766 
z
" transform="scale(0.015625)"/>
      <path id="DejaVuSans-Bold-5f" d="M 3200 -916 
L 3200 -1509 
L 0 -1509 
L 0 -916 
L 3200 -916 
z
" transform="scale(0.015625)"/>
      <path id="DejaVuSans-Bold-41" d="M 3419 850 
L 1538 850 
L 1241 0 
L 31 0 
L 1759 4666 
L 3194 4666 
L 4922 0 
L 3713 0 
L 3419 850 
z
M 1838 1716 
L 3116 1716 
L 2478 3572 
L 1838 1716 
z
" transform="scale(0.015625)"/>
     </defs>
     <use xlink:href="#DejaVuSans-Bold-52"/>
     <use xlink:href="#DejaVuSans-Bold-5f" x="77.001953"/>
     <use xlink:href="#DejaVuSans-Bold-41" x="127.001953"/>
     <use xlink:href="#DejaVuSans-Bold-20" x="204.394531"/>
     <use xlink:href="#DejaVuSans-Bold-3d" x="239.208984"/>
     <use xlink:href="#DejaVuSans-Bold-20" x="322.998047"/>
     <use xlink:href="#DejaVuSans-Bold-38" x="357.8125"/>
     <use xlink:href="#DejaVuSans-Bold-30" x="427.392578"/>
     <use xlink:href="#DejaVuSans-Bold-30" x="496.972656"/>
     <use xlink:href="#DejaVuSans-Bold-20" x="566.552734"/>
     <use xlink:href="#DejaVuSans-Bold-4e" x="601.367188"/>
    </g>
   </g>
   <g id="patch_11">
    <path d="M 207.147312 256.682625 
Q 206.603597 257.226341 208.43159 255.398348 
" style="fill: none; stroke: #00a0d0; stroke-width: 3; stroke-linecap: round"/>
    <path d="M 220.310984 251.43855 
L 208.43159 255.398348 
L 212.391388 243.518954 
" style="fill: none; stroke: #00a0d0; stroke-width: 3; stroke-linecap: round"/>
   </g>
   <g id="text_4">
    <g id="patch_12">
     <path d="M 7.2 243.464937 
L 228.135 243.464937 
Q 243.735 243.464937 243.735 227.864937 
L 243.735 202.43775 
Q 243.735 186.83775 228.135 186.83775 
L 7.2 186.83775 
Q -8.4 186.83775 -8.4 202.43775 
L -8.4 227.864937 
Q -8.4 243.464937 7.2 243.464937 
z
" style="fill: #f8fafc; opacity: 0.9; stroke: #00a0d0; stroke-linejoin: miter"/>
    </g>
    <!-- M_A = 960 N·m -->
    <g style="fill: #00a0d0" transform="translate(7.2 221.734625)scale(0.26 -0.26)">
     <defs>
      <path id="DejaVuSans-Bold-4d" d="M 588 4666 
L 2119 4666 
L 3181 2169 
L 4250 4666 
L 5778 4666 
L 5778 0 
L 4641 0 
L 4641 3413 
L 3566 897 
L 2803 897 
L 1728 3413 
L 1728 0 
L 588 0 
L 588 4666 
z
" transform="scale(0.015625)"/>
      <path id="DejaVuSans-Bold-39" d="M 641 103 
L 641 966 
Q 928 831 1190 764 
Q 1453 697 1709 697 
Q 2247 697 2547 995 
Q 2847 1294 2900 1881 
Q 2688 1725 2447 1647 
Q 2206 1569 1925 1569 
Q 1209 1569 770 1986 
Q 331 2403 331 3084 
Q 331 3838 820 4291 
Q 1309 4744 2131 4744 
Q 3044 4744 3544 4128 
Q 4044 3513 4044 2388 
Q 4044 1231 3459 570 
Q 2875 -91 1856 -91 
Q 1528 -91 1228 -42 
Q 928 6 641 103 
z
M 2125 2350 
Q 2441 2350 2600 2554 
Q 2759 2759 2759 3169 
Q 2759 3575 2600 3781 
Q 2441 3988 2125 3988 
Q 1809 3988 1650 3781 
Q 1491 3575 1491 3169 
Q 1491 2759 1650 2554 
Q 1809 2350 2125 2350 
z
" transform="scale(0.015625)"/>
      <path id="DejaVuSans-Bold-b7" d="M 653 2828 
L 1778 2828 
L 1778 1619 
L 653 1619 
L 653 2828 
z
" transform="scale(0.015625)"/>
      <path id="DejaVuSans-Bold-6d" d="M 3781 2919 
Q 3994 3244 4286 3414 
Q 4578 3584 4928 3584 
Q 5531 3584 5847 3212 
Q 6163 2841 6163 2131 
L 6163 0 
L 5038 0 
L 5038 1825 
Q 5041 1866 5042 1909 
Q 5044 1953 5044 2034 
Q 5044 2406 4934 2573 
Q 4825 2741 4581 2741 
Q 4263 2741 4089 2478 
Q 3916 2216 3909 1719 
L 3909 0 
L 2784 0 
L 2784 1825 
Q 2784 2406 2684 2573 
Q 2584 2741 2328 2741 
Q 2006 2741 1831 2477 
Q 1656 2213 1656 1722 
L 1656 0 
L 531 0 
L 531 3500 
L 1656 3500 
L 1656 2988 
Q 1863 3284 2130 3434 
Q 2397 3584 2719 3584 
Q 3081 3584 3359 3409 
Q 3638 3234 3781 2919 
z
" transform="scale(0.015625)"/>
     </defs>
     <use xlink:href="#DejaVuSans-Bold-4d"/>
     <use xlink:href="#DejaVuSans-Bold-5f" x="99.511719"/>
     <use xlink:href="#DejaVuSans-Bold-41" x="149.511719"/>
     <use xlink:href="#DejaVuSans-Bold-20" x="226.904297"/>
     <use xlink:href="#DejaVuSans-Bold-3d" x="261.71875"/>
     <use xlink:href="#DejaVuSans-Bold-20" x="345.507812"/>
     <use xlink:href="#DejaVuSans-Bold-39" x="380.322266"/>
     <use xlink:href="#DejaVuSans-Bold-36" x="449.902344"/>
     <use xlink:href="#DejaVuSans-Bold-30" x="519.482422"/>
     <use xlink:href="#DejaVuSans-Bold-20" x="589.0625"/>
     <use xlink:href="#DejaVuSans-Bold-4e" x="623.876953"/>
     <use xlink:href="#DejaVuSans-Bold-b7" x="707.568359"/>
     <use xlink:href="#DejaVuSans-Bold-6d" x="745.556641"/>
    </g>
   </g>
   <g id="patch_13">
    <path d="M 461.599449 511.702437 
Q 349.502177 511.702437 237.404906 511.702437 
" style="fill: none; stroke: #405ab9; stroke-width: 3; stroke-linecap: round"/>
    <path d="M 450.399449 506.102438 
L 461.599449 511.702437 
L 450.399449 517.302437 
" style="fill: none; stroke: #405ab9; stroke-width: 3; stroke-linecap: round"/>
    <path d="M 248.604906 517.302437 
L 237.404906 511.702437 
L 248.604906 506.102438 
" style="fill: none; stroke: #405ab9; stroke-width: 3; stroke-linecap: round"/>
   </g>
   <g id="text_5">
    <g id="patch_14">
     <path d="M 280.171406 581.828062 
L 418.828594 581.828062 
Q 434.428594 581.828062 434.428594 566.228062 
L 434.428594 541.064937 
Q 434.428594 525.464938 418.828594 525.464938 
L 280.171406 525.464938 
Q 264.571406 525.464938 264.571406 541.064937 
L 264.571406 566.228062 
Q 264.571406 581.828062 280.171406 581.828062 
z
" style="fill: #f8fafc; opacity: 0.9; stroke: #405ab9; stroke-linejoin: miter"/>
    </g>
    <!-- L = 1.2 m -->
    <g style="fill: #405ab9" transform="translate(280.171406 560.820875)scale(0.26 -0.26)">
     <defs>
      <path id="DejaVuSans-Bold-4c" d="M 588 4666 
L 1791 4666 
L 1791 909 
L 3903 909 
L 3903 0 
L 588 0 
L 588 4666 
z
" transform="scale(0.015625)"/>
      <path id="DejaVuSans-Bold-31" d="M 750 831 
L 1813 831 
L 1813 3847 
L 722 3622 
L 722 4441 
L 1806 4666 
L 2950 4666 
L 2950 831 
L 4013 831 
L 4013 0 
L 750 0 
L 750 831 
z
" transform="scale(0.015625)"/>
      <path id="DejaVuSans-Bold-2e" d="M 653 1209 
L 1778 1209 
L 1778 0 
L 653 0 
L 653 1209 
z
" transform="scale(0.015625)"/>
      <path id="DejaVuSans-Bold-32" d="M 1844 884 
L 3897 884 
L 3897 0 
L 506 0 
L 506 884 
L 2209 2388 
Q 2438 2594 2547 2791 
Q 2656 2988 2656 3200 
Q 2656 3528 2436 3728 
Q 2216 3928 1850 3928 
Q 1569 3928 1234 3808 
Q 900 3688 519 3450 
L 519 4475 
Q 925 4609 1322 4679 
Q 1719 4750 2100 4750 
Q 2938 4750 3402 4381 
Q 3866 4013 3866 3353 
Q 3866 2972 3669 2642 
Q 3472 2313 2841 1759 
L 1844 884 
z
" transform="scale(0.015625)"/>
     </defs>
     <use xlink:href="#DejaVuSans-Bold-4c"/>
     <use xlink:href="#DejaVuSans-Bold-20" x="63.720703"/>
     <use xlink:href="#DejaVuSans-Bold-3d" x="98.535156"/>
     <use xlink:href="#DejaVuSans-Bold-20" x="182.324219"/>
     <use xlink:href="#DejaVuSans-Bold-31" x="217.138672"/>
     <use xlink:href="#DejaVuSans-Bold-2e" x="286.71875"/>
     <use xlink:href="#DejaVuSans-Bold-32" x="324.707031"/>
     <use xlink:href="#DejaVuSans-Bold-20" x="394.287109"/>
     <use xlink:href="#DejaVuSans-Bold-6d" x="429.101562"/>
    </g>
   </g>
   <g id="text_6">
    <g id="patch_15">
     <path d="M 525.675 352.094594 
L 753.522812 352.094594 
Q 771.122813 352.094594 771.122813 334.494594 
L 771.122813 239.297156 
Q 771.122813 221.697156 753.522812 221.697156 
L 525.675 221.697156 
Q 508.075 221.697156 508.075 239.297156 
L 508.075 334.494594 
Q 508.075 352.094594 525.675 352.094594 
z
" style="fill: #f8fafc; opacity: 0.9; stroke: #405ab9; stroke-linejoin: miter"/>
    </g>
    <!-- Hollow Steel Tube -->
    <g style="fill: #405ab9" transform="translate(525.675 255.401844)scale(0.22 -0.22)">
     <defs>
      <path id="DejaVuSans-Bold-48" d="M 588 4666 
L 1791 4666 
L 1791 2888 
L 3566 2888 
L 3566 4666 
L 4769 4666 
L 4769 0 
L 3566 0 
L 3566 1978 
L 1791 1978 
L 1791 0 
L 588 0 
L 588 4666 
z
" transform="scale(0.015625)"/>
      <path id="DejaVuSans-Bold-6c" d="M 538 4863 
L 1656 4863 
L 1656 0 
L 538 0 
L 538 4863 
z
" transform="scale(0.015625)"/>
      <path id="DejaVuSans-Bold-77" d="M 225 3500 
L 1313 3500 
L 1900 1088 
L 2491 3500 
L 3425 3500 
L 4013 1113 
L 4603 3500 
L 5691 3500 
L 4769 0 
L 3547 0 
L 2956 2406 
L 2369 0 
L 1147 0 
L 225 3500 
z
" transform="scale(0.015625)"/>
      <path id="DejaVuSans-Bold-53" d="M 3834 4519 
L 3834 3531 
Q 3450 3703 3084 3790 
Q 2719 3878 2394 3878 
Q 1963 3878 1756 3759 
Q 1550 3641 1550 3391 
Q 1550 3203 1689 3098 
Q 1828 2994 2194 2919 
L 2706 2816 
Q 3484 2659 3812 2340 
Q 4141 2022 4141 1434 
Q 4141 663 3683 286 
Q 3225 -91 2284 -91 
Q 1841 -91 1394 -6 
Q 947 78 500 244 
L 500 1259 
Q 947 1022 1364 901 
Q 1781 781 2169 781 
Q 2563 781 2772 912 
Q 2981 1044 2981 1288 
Q 2981 1506 2839 1625 
Q 2697 1744 2272 1838 
L 1806 1941 
Q 1106 2091 782 2419 
Q 459 2747 459 3303 
Q 459 4000 909 4375 
Q 1359 4750 2203 4750 
Q 2588 4750 2994 4692 
Q 3400 4634 3834 4519 
z
" transform="scale(0.015625)"/>
      <path id="DejaVuSans-Bold-54" d="M 31 4666 
L 4331 4666 
L 4331 3756 
L 2784 3756 
L 2784 0 
L 1581 0 
L 1581 3756 
L 31 3756 
L 31 4666 
z
" transform="scale(0.015625)"/>
      <path id="DejaVuSans-Bold-75" d="M 500 1363 
L 500 3500 
L 1625 3500 
L 1625 3150 
Q 1625 2866 1622 2436 
Q 1619 2006 1619 1863 
Q 1619 1441 1641 1255 
Q 1663 1069 1716 984 
Q 1784 875 1895 815 
Q 2006 756 2150 756 
Q 2500 756 2700 1025 
Q 2900 1294 2900 1772 
L 2900 3500 
L 4019 3500 
L 4019 0 
L 2900 0 
L 2900 506 
Q 2647 200 2364 54 
Q 2081 -91 1741 -91 
Q 1134 -91 817 281 
Q 500 653 500 1363 
z
" transform="scale(0.015625)"/>
      <path id="DejaVuSans-Bold-62" d="M 2400 722 
Q 2759 722 2948 984 
Q 3138 1247 3138 1747 
Q 3138 2247 2948 2509 
Q 2759 2772 2400 2772 
Q 2041 2772 1848 2508 
Q 1656 2244 1656 1747 
Q 1656 1250 1848 986 
Q 2041 722 2400 722 
z
M 1656 2988 
Q 1888 3294 2169 3439 
Q 2450 3584 2816 3584 
Q 3463 3584 3878 3070 
Q 4294 2556 4294 1747 
Q 4294 938 3878 423 
Q 3463 -91 2816 -91 
Q 2450 -91 2169 54 
Q 1888 200 1656 506 
L 1656 0 
L 538 0 
L 538 4863 
L 1656 4863 
L 1656 2988 
z
" transform="scale(0.015625)"/>
     </defs>
     <use xlink:href="#DejaVuSans-Bold-48"/>
     <use xlink:href="#DejaVuSans-Bold-6f" x="83.691406"/>
     <use xlink:href="#DejaVuSans-Bold-6c" x="152.392578"/>
     <use xlink:href="#DejaVuSans-Bold-6c" x="186.669922"/>
     <use xlink:href="#DejaVuSans-Bold-6f" x="220.947266"/>
     <use xlink:href="#DejaVuSans-Bold-77" x="289.648438"/>
     <use xlink:href="#DejaVuSans-Bold-20" x="382.03125"/>
     <use xlink:href="#DejaVuSans-Bold-53" x="416.845703"/>
     <use xlink:href="#DejaVuSans-Bold-74" x="488.867188"/>
     <use xlink:href="#DejaVuSans-Bold-65" x="536.669922"/>
     <use xlink:href="#DejaVuSans-Bold-65" x="604.492188"/>
     <use xlink:href="#DejaVuSans-Bold-6c" x="672.314453"/>
     <use xlink:href="#DejaVuSans-Bold-20" x="706.591797"/>
     <use xlink:href="#DejaVuSans-Bold-54" x="741.40625"/>
     <use xlink:href="#DejaVuSans-Bold-75" x="798.619141"/>
     <use xlink:href="#DejaVuSans-Bold-62" x="869.810547"/>
     <use xlink:href="#DejaVuSans-Bold-65" x="941.392578"/>
    </g>
    <!-- OD = 50 mm -->
    <g style="fill: #405ab9" transform="translate(525.675 280.037031)scale(0.22 -0.22)">
     <defs>
      <path id="DejaVuSans-Bold-35" d="M 678 4666 
L 3669 4666 
L 3669 3781 
L 1638 3781 
L 1638 3059 
Q 1775 3097 1914 3117 
Q 2053 3138 2203 3138 
Q 3056 3138 3531 2711 
Q 4006 2284 4006 1522 
Q 4006 766 3489 337 
Q 2972 -91 2053 -91 
Q 1656 -91 1267 -14 
Q 878 63 494 219 
L 494 1166 
Q 875 947 1217 837 
Q 1559 728 1863 728 
Q 2300 728 2551 942 
Q 2803 1156 2803 1522 
Q 2803 1891 2551 2103 
Q 2300 2316 1863 2316 
Q 1603 2316 1309 2248 
Q 1016 2181 678 2041 
L 678 4666 
z
" transform="scale(0.015625)"/>
     </defs>
     <use xlink:href="#DejaVuSans-Bold-4f"/>
     <use xlink:href="#DejaVuSans-Bold-44" x="85.009766"/>
     <use xlink:href="#DejaVuSans-Bold-20" x="168.017578"/>
     <use xlink:href="#DejaVuSans-Bold-3d" x="202.832031"/>
     <use xlink:href="#DejaVuSans-Bold-20" x="286.621094"/>
     <use xlink:href="#DejaVuSans-Bold-35" x="321.435547"/>
     <use xlink:href="#DejaVuSans-Bold-30" x="391.015625"/>
     <use xlink:href="#DejaVuSans-Bold-20" x="460.595703"/>
     <use xlink:href="#DejaVuSans-Bold-6d" x="495.410156"/>
     <use xlink:href="#DejaVuSans-Bold-6d" x="599.609375"/>
    </g>
    <!-- t = 4 mm -->
    <g style="fill: #405ab9" transform="translate(525.675 304.672219)scale(0.22 -0.22)">
     <defs>
      <path id="DejaVuSans-Bold-34" d="M 2356 3675 
L 1038 1722 
L 2356 1722 
L 2356 3675 
z
M 2156 4666 
L 3494 4666 
L 3494 1722 
L 4159 1722 
L 4159 850 
L 3494 850 
L 3494 0 
L 2356 0 
L 2356 850 
L 288 850 
L 288 1881 
L 2156 4666 
z
" transform="scale(0.015625)"/>
     </defs>
     <use xlink:href="#DejaVuSans-Bold-74"/>
     <use xlink:href="#DejaVuSans-Bold-20" x="47.802734"/>
     <use xlink:href="#DejaVuSans-Bold-3d" x="82.617188"/>
     <use xlink:href="#DejaVuSans-Bold-20" x="166.40625"/>
     <use xlink:href="#DejaVuSans-Bold-34" x="201.220703"/>
     <use xlink:href="#DejaVuSans-Bold-20" x="270.800781"/>
     <use xlink:href="#DejaVuSans-Bold-6d" x="305.615234"/>
     <use xlink:href="#DejaVuSans-Bold-6d" x="409.814453"/>
    </g>
    <!-- σ_yield = 250 MPa -->
    <g style="fill: #405ab9" transform="translate(525.675 329.307406)scale(0.22 -0.22)">
     <defs>
      <path id="DejaVuSans-Bold-3c3" d="M 2200 2784 
Q 1831 2784 1636 2517 
Q 1441 2250 1441 1747 
Q 1441 1244 1636 976 
Q 1831 709 2200 709 
Q 2569 709 2762 976 
Q 2956 1244 2956 1747 
Q 2956 2250 2762 2517 
Q 2569 2784 2200 2784 
z
M 4650 2700 
L 3916 2700 
Q 4122 2291 4122 1747 
Q 4122 884 3614 396 
Q 3106 -91 2203 -91 
Q 1297 -91 786 396 
Q 275 884 275 1747 
Q 275 2609 788 3097 
Q 1209 3500 2203 3500 
L 4650 3500 
L 4650 2700 
z
" transform="scale(0.015625)"/>
      <path id="DejaVuSans-Bold-79" d="M 78 3500 
L 1197 3500 
L 2138 1125 
L 2938 3500 
L 4056 3500 
L 2584 -331 
Q 2363 -916 2067 -1148 
Q 1772 -1381 1288 -1381 
L 641 -1381 
L 641 -647 
L 991 -647 
Q 1275 -647 1404 -556 
Q 1534 -466 1606 -231 
L 1638 -134 
L 78 3500 
z
" transform="scale(0.015625)"/>
     </defs>
     <use xlink:href="#DejaVuSans-Bold-3c3"/>
     <use xlink:href="#DejaVuSans-Bold-5f" x="77.880859"/>
     <use xlink:href="#DejaVuSans-Bold-79" x="127.880859"/>
     <use xlink:href="#DejaVuSans-Bold-69" x="193.066406"/>
     <use xlink:href="#DejaVuSans-Bold-65" x="227.34375"/>
     <use xlink:href="#DejaVuSans-Bold-6c" x="295.166016"/>
     <use xlink:href="#DejaVuSans-Bold-64" x="329.443359"/>
     <use xlink:href="#DejaVuSans-Bold-20" x="401.025391"/>
     <use xlink:href="#DejaVuSans-Bold-3d" x="435.839844"/>
     <use xlink:href="#DejaVuSans-Bold-20" x="519.628906"/>
     <use xlink:href="#DejaVuSans-Bold-32" x="554.443359"/>
     <use xlink:href="#DejaVuSans-Bold-35" x="624.023438"/>
     <use xlink:href="#DejaVuSans-Bold-30" x="693.603516"/>
     <use xlink:href="#DejaVuSans-Bold-20" x="763.183594"/>
     <use xlink:href="#DejaVuSans-Bold-4d" x="797.998047"/>
     <use xlink:href="#DejaVuSans-Bold-50" x="897.509766"/>
     <use xlink:href="#DejaVuSans-Bold-61" x="968.175781"/>
    </g>
   </g>
  </g>
 </g>
 <defs>
  <clipPath id="p4323b7df59">
   <rect x="153.75" y="12.539937" width="430.65" height="626.4"/>
  </clipPath>
 </defs>
</svg>
