<?xml version="1.0" encoding="utf-8" standalone="no"?>
<!DOCTYPE svg PUBLIC "-//W3C//DTD SVG 1.1//EN"
  "http://www.w3.org/Graphics/SVG/1.1/DTD/svg11.dtd">
<svg xmlns:xlink="http://www.w3.org/1999/xlink" width="1066.669687pt" height="661.4975pt" viewBox="0 0 1066.669687 661.4975" xmlns="http://www.w3.org/2000/svg" version="1.1">
 <metadata>
  <rdf:RDF xmlns:dc="http://purl.org/dc/elements/1.1/" xmlns:cc="http://creativecommons.org/ns#" xmlns:rdf="http://www.w3.org/1999/02/22-rdf-syntax-ns#">
   <cc:Work>
    <dc:type rdf:resource="http://purl.org/dc/dcmitype/StillImage"/>
    <dc:date>2025-09-26T20:09:15.579800</dc:date>
    <dc:format>image/svg+xml</dc:format>
    <dc:creator>
     <cc:Agent>
      <dc:title>Matplotlib v3.5.2, https://matplotlib.org/</dc:title>
     </cc:Agent>
    </dc:creator>
   </cc:Work>
  </rdf:RDF>
 </metadata>
 <defs>
  <style type="text/css">*{stroke-linejoin: round; stroke-linecap: butt}</style>
 </defs>
 <g id="figure_1">
  <g id="patch_1">
   <path d="M 0 661.4975 
L 1066.669687 661.4975 
L 1066.669687 0 
L 0 0 
L 0 661.4975 
z
" style="fill: none"/>
  </g>
  <g id="axes_1">
   <g id="patch_2">
    <path d="M 137.869687 561.6 
L 1059.469687 561.6 
L 1059.469687 7.2 
L 137.869687 7.2 
L 137.869687 561.6 
z
" style="fill: none"/>
   </g>
   <g id="PolyCollection_1">
    <defs>
     <path id="mc488da4f1b" d="M 179.760597 -629.0975 
L 179.760597 -125.0975 
L 188.223407 -125.0975 
L 196.686216 -125.0975 
L 205.149026 -125.0975 
L 213.611836 -125.0975 
L 222.074646 -125.0975 
L 230.537456 -125.0975 
L 239.000266 -125.0975 
L 247.463076 -125.0975 
L 255.925886 -125.0975 
L 264.388696 -125.0975 
L 272.851506 -125.0975 
L 281.314316 -125.0975 
L 289.777126 -125.0975 
L 298.239935 -125.0975 
L 306.702745 -125.0975 
L 315.165555 -125.0975 
L 323.628365 -125.0975 
L 332.091175 -125.0975 
L 340.553985 -125.0975 
L 349.016795 -125.0975 
L 357.479605 -125.0975 
L 365.942415 -125.0975 
L 374.405225 -125.0975 
L 382.868035 -125.0975 
L 391.330845 -125.0975 
L 399.793654 -125.0975 
L 408.256464 -125.0975 
L 416.719274 -125.0975 
L 425.182084 -125.0975 
L 433.644894 -125.0975 
L 442.107704 -125.0975 
L 450.570514 -125.0975 
L 459.033324 -125.0975 
L 467.496134 -125.0975 
L 475.958944 -125.0975 
L 484.421754 -125.0975 
L 492.884564 -125.0975 
L 501.347373 -125.0975 
L 509.810183 -125.0975 
L 518.272993 -125.0975 
L 526.735803 -125.0975 
L 535.198613 -125.0975 
L 543.661423 -125.0975 
L 552.124233 -125.0975 
L 560.587043 -125.0975 
L 569.049853 -125.0975 
L 577.512663 -125.0975 
L 585.975473 -125.0975 
L 594.438283 -125.0975 
L 602.901092 -125.0975 
L 611.363902 -125.0975 
L 619.826712 -125.0975 
L 628.289522 -125.0975 
L 636.752332 -125.0975 
L 645.215142 -125.0975 
L 653.677952 -125.0975 
L 662.140762 -125.0975 
L 670.603572 -125.0975 
L 679.066382 -125.0975 
L 687.529192 -125.0975 
L 695.992002 -125.0975 
L 704.454811 -125.0975 
L 712.917621 -125.0975 
L 721.380431 -125.0975 
L 729.843241 -125.0975 
L 738.306051 -125.0975 
L 746.768861 -125.0975 
L 755.231671 -125.0975 
L 763.694481 -125.0975 
L 772.157291 -125.0975 
L 780.620101 -125.0975 
L 789.082911 -125.0975 
L 797.545721 -125.0975 
L 806.00853 -125.0975 
L 814.47134 -125.0975 
L 822.93415 -125.0975 
L 831.39696 -125.0975 
L 839.85977 -125.0975 
L 848.32258 -125.0975 
L 856.78539 -125.0975 
L 865.2482 -125.0975 
L 873.71101 -125.0975 
L 882.17382 -125.0975 
L 890.63663 -125.0975 
L 899.09944 -125.0975 
L 907.562249 -125.0975 
L 916.025059 -125.0975 
L 924.487869 -125.0975 
L 932.950679 -125.0975 
L 941.413489 -125.0975 
L 949.876299 -125.0975 
L 958.339109 -125.0975 
L 966.801919 -125.0975 
L 975.264729 -125.0975 
L 983.727539 -125.0975 
L 992.190349 -125.0975 
L 1000.653159 -125.0975 
L 1009.115968 -125.0975 
L 1017.578778 -125.0975 
L 1017.578778 -629.0975 
L 1017.578778 -629.0975 
L 1009.115968 -629.0975 
L 1000.653159 -629.0975 
L 992.190349 -629.0975 
L 983.727539 -629.0975 
L 975.264729 -629.0975 
L 966.801919 -629.0975 
L 958.339109 -629.0975 
L 949.876299 -629.0975 
L 941.413489 -629.0975 
L 932.950679 -629.0975 
L 924.487869 -629.0975 
L 916.025059 -629.0975 
L 907.562249 -629.0975 
L 899.09944 -629.0975 
L 890.63663 -629.0975 
L 882.17382 -629.0975 
L 873.71101 -629.0975 
L 865.2482 -629.0975 
L 856.78539 -629.0975 
L 848.32258 -629.0975 
L 839.85977 -629.0975 
L 831.39696 -629.0975 
L 822.93415 -629.0975 
L 814.47134 -629.0975 
L 806.00853 -629.0975 
L 797.545721 -629.0975 
L 789.082911 -629.0975 
L 780.620101 -629.0975 
L 772.157291 -629.0975 
L 763.694481 -629.0975 
L 755.231671 -629.0975 
L 746.768861 -629.0975 
L 738.306051 -629.0975 
L 729.843241 -629.0975 
L 721.380431 -629.0975 
L 712.917621 -629.0975 
L 704.454811 -629.0975 
L 695.992002 -629.0975 
L 687.529192 -629.0975 
L 679.066382 -629.0975 
L 670.603572 -629.0975 
L 662.140762 -629.0975 
L 653.677952 -629.0975 
L 645.215142 -629.0975 
L 636.752332 -629.0975 
L 628.289522 -629.0975 
L 619.826712 -629.0975 
L 611.363902 -629.0975 
L 602.901092 -629.0975 
L 594.438283 -629.0975 
L 585.975473 -629.0975 
L 577.512663 -629.0975 
L 569.049853 -629.0975 
L 560.587043 -629.0975 
L 552.124233 -629.0975 
L 543.661423 -629.0975 
L 535.198613 -629.0975 
L 526.735803 -629.0975 
L 518.272993 -629.0975 
L 509.810183 -629.0975 
L 501.347373 -629.0975 
L 492.884564 -629.0975 
L 484.421754 -629.0975 
L 475.958944 -629.0975 
L 467.496134 -629.0975 
L 459.033324 -629.0975 
L 450.570514 -629.0975 
L 442.107704 -629.0975 
L 433.644894 -629.0975 
L 425.182084 -629.0975 
L 416.719274 -629.0975 
L 408.256464 -629.0975 
L 399.793654 -629.0975 
L 391.330845 -629.0975 
L 382.868035 -629.0975 
L 374.405225 -629.0975 
L 365.942415 -629.0975 
L 357.479605 -629.0975 
L 349.016795 -629.0975 
L 340.553985 -629.0975 
L 332.091175 -629.0975 
L 323.628365 -629.0975 
L 315.165555 -629.0975 
L 306.702745 -629.0975 
L 298.239935 -629.0975 
L 289.777126 -629.0975 
L 281.314316 -629.0975 
L 272.851506 -629.0975 
L 264.388696 -629.0975 
L 255.925886 -629.0975 
L 247.463076 -629.0975 
L 239.000266 -629.0975 
L 230.537456 -629.0975 
L 222.074646 -629.0975 
L 213.611836 -629.0975 
L 205.149026 -629.0975 
L 196.686216 -629.0975 
L 188.223407 -629.0975 
L 179.760597 -629.0975 
z
" style="stroke: #ff8c36; stroke-opacity: 0.3"/>
    </defs>
    <g clip-path="url(#p998e52506f)">
     <use xlink:href="#mc488da4f1b" x="0" y="661.4975" style="fill: #ff8c36; fill-opacity: 0.3; stroke: #ff8c36; stroke-opacity: 0.3"/>
    </g>
   </g>
   <g id="matplotlib.axis_1">
    <g id="xtick_1">
     <g id="line2d_1">
      <path d="M 179.760597 561.6 
L 179.760597 7.2 
" clip-path="url(#p998e52506f)" style="fill: none; stroke: #9ea388; stroke-opacity: 0.3; stroke-width: 2; stroke-linecap: square"/>
     </g>
     <g id="line2d_2">
      <defs>
       <path id="m9ead00792d" d="M 0 0 
L 0 10 
" style="stroke: #405ab9; stroke-width: 4"/>
      </defs>
      <g>
       <use xlink:href="#m9ead00792d" x="179.760597" y="561.6" style="fill: #405ab9; stroke: #405ab9; stroke-width: 4"/>
      </g>
     </g>
     <g id="text_1">
      <!-- 0.0 -->
      <g style="fill: #405ab9" transform="translate(159.086534 594.855938)scale(0.26 -0.26)">
       <defs>
        <path id="DejaVuSans-30" d="M 2034 4250 
Q 1547 4250 1301 3770 
Q 1056 3291 1056 2328 
Q 1056 1369 1301 889 
Q 1547 409 2034 409 
Q 2525 409 2770 889 
Q 3016 1369 3016 2328 
Q 3016 3291 2770 3770 
Q 2525 4250 2034 4250 
z
M 2034 4750 
Q 2819 4750 3233 4129 
Q 3647 3509 3647 2328 
Q 3647 1150 3233 529 
Q 2819 -91 2034 -91 
Q 1250 -91 836 529 
Q 422 1150 422 2328 
Q 422 3509 836 4129 
Q 1250 4750 2034 4750 
z
" transform="scale(0.015625)"/>
        <path id="DejaVuSans-2e" d="M 684 794 
L 1344 794 
L 1344 0 
L 684 0 
L 684 794 
z
" transform="scale(0.015625)"/>
       </defs>
       <use xlink:href="#DejaVuSans-30"/>
       <use xlink:href="#DejaVuSans-2e" x="63.623047"/>
       <use xlink:href="#DejaVuSans-30" x="95.410156"/>
      </g>
     </g>
    </g>
    <g id="xtick_2">
     <g id="line2d_3">
      <path d="M 319.39696 561.6 
L 319.39696 7.2 
" clip-path="url(#p998e52506f)" style="fill: none; stroke: #9ea388; stroke-opacity: 0.3; stroke-width: 2; stroke-linecap: square"/>
     </g>
     <g id="line2d_4">
      <g>
       <use xlink:href="#m9ead00792d" x="319.39696" y="561.6" style="fill: #405ab9; stroke: #405ab9; stroke-width: 4"/>
      </g>
     </g>
     <g id="text_2">
      <!-- 0.2 -->
      <g style="fill: #405ab9" transform="translate(298.722898 594.855938)scale(0.26 -0.26)">
       <defs>
        <path id="DejaVuSans-32" d="M 1228 531 
L 3431 531 
L 3431 0 
L 469 0 
L 469 531 
Q 828 903 1448 1529 
Q 2069 2156 2228 2338 
Q 2531 2678 2651 2914 
Q 2772 3150 2772 3378 
Q 2772 3750 2511 3984 
Q 2250 4219 1831 4219 
Q 1534 4219 1204 4116 
Q 875 4013 500 3803 
L 500 4441 
Q 881 4594 1212 4672 
Q 1544 4750 1819 4750 
Q 2544 4750 2975 4387 
Q 3406 4025 3406 3419 
Q 3406 3131 3298 2873 
Q 3191 2616 2906 2266 
Q 2828 2175 2409 1742 
Q 1991 1309 1228 531 
z
" transform="scale(0.015625)"/>
       </defs>
       <use xlink:href="#DejaVuSans-30"/>
       <use xlink:href="#DejaVuSans-2e" x="63.623047"/>
       <use xlink:href="#DejaVuSans-32" x="95.410156"/>
      </g>
     </g>
    </g>
    <g id="xtick_3">
     <g id="line2d_5">
      <path d="M 459.033324 561.6 
L 459.033324 7.2 
" clip-path="url(#p998e52506f)" style="fill: none; stroke: #9ea388; stroke-opacity: 0.3; stroke-width: 2; stroke-linecap: square"/>
     </g>
     <g id="line2d_6">
      <g>
       <use xlink:href="#m9ead00792d" x="459.033324" y="561.6" style="fill: #405ab9; stroke: #405ab9; stroke-width: 4"/>
      </g>
     </g>
     <g id="text_3">
      <!-- 0.4 -->
      <g style="fill: #405ab9" transform="translate(438.359261 594.855938)scale(0.26 -0.26)">
       <defs>
        <path id="DejaVuSans-34" d="M 2419 4116 
L 825 1625 
L 2419 1625 
L 2419 4116 
z
M 2253 4666 
L 3047 4666 
L 3047 1625 
L 3713 1625 
L 3713 1100 
L 3047 1100 
L 3047 0 
L 2419 0 
L 2419 1100 
L 313 1100 
L 313 1709 
L 2253 4666 
z
" transform="scale(0.015625)"/>
       </defs>
       <use xlink:href="#DejaVuSans-30"/>
       <use xlink:href="#DejaVuSans-2e" x="63.623047"/>
       <use xlink:href="#DejaVuSans-34" x="95.410156"/>
      </g>
     </g>
    </g>
    <g id="xtick_4">
     <g id="line2d_7">
      <path d="M 598.669688 561.6 
L 598.669688 7.2 
" clip-path="url(#p998e52506f)" style="fill: none; stroke: #9ea388; stroke-opacity: 0.3; stroke-width: 2; stroke-linecap: square"/>
     </g>
     <g id="line2d_8">
      <g>
       <use xlink:href="#m9ead00792d" x="598.669688" y="561.6" style="fill: #405ab9; stroke: #405ab9; stroke-width: 4"/>
      </g>
     </g>
     <g id="text_4">
      <!-- 0.6 -->
      <g style="fill: #405ab9" transform="translate(577.995625 594.855938)scale(0.26 -0.26)">
       <defs>
        <path id="DejaVuSans-36" d="M 2113 2584 
Q 1688 2584 1439 2293 
Q 1191 2003 1191 1497 
Q 1191 994 1439 701 
Q 1688 409 2113 409 
Q 2538 409 2786 701 
Q 3034 994 3034 1497 
Q 3034 2003 2786 2293 
Q 2538 2584 2113 2584 
z
M 3366 4563 
L 3366 3988 
Q 3128 4100 2886 4159 
Q 2644 4219 2406 4219 
Q 1781 4219 1451 3797 
Q 1122 3375 1075 2522 
Q 1259 2794 1537 2939 
Q 1816 3084 2150 3084 
Q 2853 3084 3261 2657 
Q 3669 2231 3669 1497 
Q 3669 778 3244 343 
Q 2819 -91 2113 -91 
Q 1303 -91 875 529 
Q 447 1150 447 2328 
Q 447 3434 972 4092 
Q 1497 4750 2381 4750 
Q 2619 4750 2861 4703 
Q 3103 4656 3366 4563 
z
" transform="scale(0.015625)"/>
       </defs>
       <use xlink:href="#DejaVuSans-30"/>
       <use xlink:href="#DejaVuSans-2e" x="63.623047"/>
       <use xlink:href="#DejaVuSans-36" x="95.410156"/>
      </g>
     </g>
    </g>
    <g id="xtick_5">
     <g id="line2d_9">
      <path d="M 738.306051 561.6 
L 738.306051 7.2 
" clip-path="url(#p998e52506f)" style="fill: none; stroke: #9ea388; stroke-opacity: 0.3; stroke-width: 2; stroke-linecap: square"/>
     </g>
     <g id="line2d_10">
      <g>
       <use xlink:href="#m9ead00792d" x="738.306051" y="561.6" style="fill: #405ab9; stroke: #405ab9; stroke-width: 4"/>
      </g>
     </g>
     <g id="text_5">
      <!-- 0.8 -->
      <g style="fill: #405ab9" transform="translate(717.631989 594.855938)scale(0.26 -0.26)">
       <defs>
        <path id="DejaVuSans-38" d="M 2034 2216 
Q 1584 2216 1326 1975 
Q 1069 1734 1069 1313 
Q 1069 891 1326 650 
Q 1584 409 2034 409 
Q 2484 409 2743 651 
Q 3003 894 3003 1313 
Q 3003 1734 2745 1975 
Q 2488 2216 2034 2216 
z
M 1403 2484 
Q 997 2584 770 2862 
Q 544 3141 544 3541 
Q 544 4100 942 4425 
Q 1341 4750 2034 4750 
Q 2731 4750 3128 4425 
Q 3525 4100 3525 3541 
Q 3525 3141 3298 2862 
Q 3072 2584 2669 2484 
Q 3125 2378 3379 2068 
Q 3634 1759 3634 1313 
Q 3634 634 3220 271 
Q 2806 -91 2034 -91 
Q 1263 -91 848 271 
Q 434 634 434 1313 
Q 434 1759 690 2068 
Q 947 2378 1403 2484 
z
M 1172 3481 
Q 1172 3119 1398 2916 
Q 1625 2713 2034 2713 
Q 2441 2713 2670 2916 
Q 2900 3119 2900 3481 
Q 2900 3844 2670 4047 
Q 2441 4250 2034 4250 
Q 1625 4250 1398 4047 
Q 1172 3844 1172 3481 
z
" transform="scale(0.015625)"/>
       </defs>
       <use xlink:href="#DejaVuSans-30"/>
       <use xlink:href="#DejaVuSans-2e" x="63.623047"/>
       <use xlink:href="#DejaVuSans-38" x="95.410156"/>
      </g>
     </g>
    </g>
    <g id="xtick_6">
     <g id="line2d_11">
      <path d="M 877.942415 561.6 
L 877.942415 7.2 
" clip-path="url(#p998e52506f)" style="fill: none; stroke: #9ea388; stroke-opacity: 0.3; stroke-width: 2; stroke-linecap: square"/>
     </g>
     <g id="line2d_12">
      <g>
       <use xlink:href="#m9ead00792d" x="877.942415" y="561.6" style="fill: #405ab9; stroke: #405ab9; stroke-width: 4"/>
      </g>
     </g>
     <g id="text_6">
      <!-- 1.0 -->
      <g style="fill: #405ab9" transform="translate(857.268352 594.855938)scale(0.26 -0.26)">
       <defs>
        <path id="DejaVuSans-31" d="M 794 531 
L 1825 531 
L 1825 4091 
L 703 3866 
L 703 4441 
L 1819 4666 
L 2450 4666 
L 2450 531 
L 3481 531 
L 3481 0 
L 794 0 
L 794 531 
z
" transform="scale(0.015625)"/>
       </defs>
       <use xlink:href="#DejaVuSans-31"/>
       <use xlink:href="#DejaVuSans-2e" x="63.623047"/>
       <use xlink:href="#DejaVuSans-30" x="95.410156"/>
      </g>
     </g>
    </g>
    <g id="xtick_7">
     <g id="line2d_13">
      <path d="M 1017.578778 561.6 
L 1017.578778 7.2 
" clip-path="url(#p998e52506f)" style="fill: none; stroke: #9ea388; stroke-opacity: 0.3; stroke-width: 2; stroke-linecap: square"/>
     </g>
     <g id="line2d_14">
      <g>
       <use xlink:href="#m9ead00792d" x="1017.578778" y="561.6" style="fill: #405ab9; stroke: #405ab9; stroke-width: 4"/>
      </g>
     </g>
     <g id="text_7">
      <!-- 1.2 -->
      <g style="fill: #405ab9" transform="translate(996.904716 594.855938)scale(0.26 -0.26)">
       <use xlink:href="#DejaVuSans-31"/>
       <use xlink:href="#DejaVuSans-2e" x="63.623047"/>
       <use xlink:href="#DejaVuSans-32" x="95.410156"/>
      </g>
     </g>
    </g>
    <g id="text_8">
     <!-- Distance from Fixed Support (m) -->
     <g style="fill: #405ab9" transform="translate(321.223594 648.058438)scale(0.3 -0.3)">
      <defs>
       <path id="DejaVuSans-Bold-44" d="M 1791 3756 
L 1791 909 
L 2222 909 
Q 2959 909 3348 1275 
Q 3738 1641 3738 2338 
Q 3738 3031 3350 3393 
Q 2963 3756 2222 3756 
L 1791 3756 
z
M 588 4666 
L 1856 4666 
Q 2919 4666 3439 4514 
Q 3959 4363 4331 4000 
Q 4659 3684 4818 3271 
Q 4978 2859 4978 2338 
Q 4978 1809 4818 1395 
Q 4659 981 4331 666 
Q 3956 303 3431 151 
Q 2906 0 1856 0 
L 588 0 
L 588 4666 
z
" transform="scale(0.015625)"/>
       <path id="DejaVuSans-Bold-69" d="M 538 3500 
L 1656 3500 
L 1656 0 
L 538 0 
L 538 3500 
z
M 538 4863 
L 1656 4863 
L 1656 3950 
L 538 3950 
L 538 4863 
z
" transform="scale(0.015625)"/>
       <path id="DejaVuSans-Bold-73" d="M 3272 3391 
L 3272 2541 
Q 2913 2691 2578 2766 
Q 2244 2841 1947 2841 
Q 1628 2841 1473 2761 
Q 1319 2681 1319 2516 
Q 1319 2381 1436 2309 
Q 1553 2238 1856 2203 
L 2053 2175 
Q 2913 2066 3209 1816 
Q 3506 1566 3506 1031 
Q 3506 472 3093 190 
Q 2681 -91 1863 -91 
Q 1516 -91 1145 -36 
Q 775 19 384 128 
L 384 978 
Q 719 816 1070 734 
Q 1422 653 1784 653 
Q 2113 653 2278 743 
Q 2444 834 2444 1013 
Q 2444 1163 2330 1236 
Q 2216 1309 1875 1350 
L 1678 1375 
Q 931 1469 631 1722 
Q 331 1975 331 2491 
Q 331 3047 712 3315 
Q 1094 3584 1881 3584 
Q 2191 3584 2531 3537 
Q 2872 3491 3272 3391 
z
" transform="scale(0.015625)"/>
       <path id="DejaVuSans-Bold-74" d="M 1759 4494 
L 1759 3500 
L 2913 3500 
L 2913 2700 
L 1759 2700 
L 1759 1216 
Q 1759 972 1856 886 
Q 1953 800 2241 800 
L 2816 800 
L 2816 0 
L 1856 0 
Q 1194 0 917 276 
Q 641 553 641 1216 
L 641 2700 
L 84 2700 
L 84 3500 
L 641 3500 
L 641 4494 
L 1759 4494 
z
" transform="scale(0.015625)"/>
       <path id="DejaVuSans-Bold-61" d="M 2106 1575 
Q 1756 1575 1579 1456 
Q 1403 1338 1403 1106 
Q 1403 894 1545 773 
Q 1688 653 1941 653 
Q 2256 653 2472 879 
Q 2688 1106 2688 1447 
L 2688 1575 
L 2106 1575 
z
M 3816 1997 
L 3816 0 
L 2688 0 
L 2688 519 
Q 2463 200 2181 54 
Q 1900 -91 1497 -91 
Q 953 -91 614 226 
Q 275 544 275 1050 
Q 275 1666 698 1953 
Q 1122 2241 2028 2241 
L 2688 2241 
L 2688 2328 
Q 2688 2594 2478 2717 
Q 2269 2841 1825 2841 
Q 1466 2841 1156 2769 
Q 847 2697 581 2553 
L 581 3406 
Q 941 3494 1303 3539 
Q 1666 3584 2028 3584 
Q 2975 3584 3395 3211 
Q 3816 2838 3816 1997 
z
" transform="scale(0.015625)"/>
       <path id="DejaVuSans-Bold-6e" d="M 4056 2131 
L 4056 0 
L 2931 0 
L 2931 347 
L 2931 1631 
Q 2931 2084 2911 2256 
Q 2891 2428 2841 2509 
Q 2775 2619 2662 2680 
Q 2550 2741 2406 2741 
Q 2056 2741 1856 2470 
Q 1656 2200 1656 1722 
L 1656 0 
L 538 0 
L 538 3500 
L 1656 3500 
L 1656 2988 
Q 1909 3294 2193 3439 
Q 2478 3584 2822 3584 
Q 3428 3584 3742 3212 
Q 4056 2841 4056 2131 
z
" transform="scale(0.015625)"/>
       <path id="DejaVuSans-Bold-63" d="M 3366 3391 
L 3366 2478 
Q 3138 2634 2908 2709 
Q 2678 2784 2431 2784 
Q 1963 2784 1702 2511 
Q 1441 2238 1441 1747 
Q 1441 1256 1702 982 
Q 1963 709 2431 709 
Q 2694 709 2930 787 
Q 3166 866 3366 1019 
L 3366 103 
Q 3103 6 2833 -42 
Q 2563 -91 2291 -91 
Q 1344 -91 809 395 
Q 275 881 275 1747 
Q 275 2613 809 3098 
Q 1344 3584 2291 3584 
Q 2566 3584 2833 3536 
Q 3100 3488 3366 3391 
z
" transform="scale(0.015625)"/>
       <path id="DejaVuSans-Bold-65" d="M 4031 1759 
L 4031 1441 
L 1416 1441 
Q 1456 1047 1700 850 
Q 1944 653 2381 653 
Q 2734 653 3104 758 
Q 3475 863 3866 1075 
L 3866 213 
Q 3469 63 3072 -14 
Q 2675 -91 2278 -91 
Q 1328 -91 801 392 
Q 275 875 275 1747 
Q 275 2603 792 3093 
Q 1309 3584 2216 3584 
Q 3041 3584 3536 3087 
Q 4031 2591 4031 1759 
z
M 2881 2131 
Q 2881 2450 2695 2645 
Q 2509 2841 2209 2841 
Q 1884 2841 1681 2658 
Q 1478 2475 1428 2131 
L 2881 2131 
z
" transform="scale(0.015625)"/>
       <path id="DejaVuSans-Bold-20" transform="scale(0.015625)"/>
       <path id="DejaVuSans-Bold-66" d="M 2841 4863 
L 2841 4128 
L 2222 4128 
Q 1984 4128 1890 4042 
Q 1797 3956 1797 3744 
L 1797 3500 
L 2753 3500 
L 2753 2700 
L 1797 2700 
L 1797 0 
L 678 0 
L 678 2700 
L 122 2700 
L 122 3500 
L 678 3500 
L 678 3744 
Q 678 4316 997 4589 
Q 1316 4863 1984 4863 
L 2841 4863 
z
" transform="scale(0.015625)"/>
       <path id="DejaVuSans-Bold-72" d="M 3138 2547 
Q 2991 2616 2845 2648 
Q 2700 2681 2553 2681 
Q 2122 2681 1889 2404 
Q 1656 2128 1656 1613 
L 1656 0 
L 538 0 
L 538 3500 
L 1656 3500 
L 1656 2925 
Q 1872 3269 2151 3426 
Q 2431 3584 2822 3584 
Q 2878 3584 2943 3579 
Q 3009 3575 3134 3559 
L 3138 2547 
z
" transform="scale(0.015625)"/>
       <path id="DejaVuSans-Bold-6f" d="M 2203 2784 
Q 1831 2784 1636 2517 
Q 1441 2250 1441 1747 
Q 1441 1244 1636 976 
Q 1831 709 2203 709 
Q 2569 709 2762 976 
Q 2956 1244 2956 1747 
Q 2956 2250 2762 2517 
Q 2569 2784 2203 2784 
z
M 2203 3584 
Q 3106 3584 3614 3096 
Q 4122 2609 4122 1747 
Q 4122 884 3614 396 
Q 3106 -91 2203 -91 
Q 1297 -91 786 396 
Q 275 884 275 1747 
Q 275 2609 786 3096 
Q 1297 3584 2203 3584 
z
" transform="scale(0.015625)"/>
       <path id="DejaVuSans-Bold-6d" d="M 3781 2919 
Q 3994 3244 4286 3414 
Q 4578 3584 4928 3584 
Q 5531 3584 5847 3212 
Q 6163 2841 6163 2131 
L 6163 0 
L 5038 0 
L 5038 1825 
Q 5041 1866 5042 1909 
Q 5044 1953 5044 2034 
Q 5044 2406 4934 2573 
Q 4825 2741 4581 2741 
Q 4263 2741 4089 2478 
Q 3916 2216 3909 1719 
L 3909 0 
L 2784 0 
L 2784 1825 
Q 2784 2406 2684 2573 
Q 2584 2741 2328 2741 
Q 2006 2741 1831 2477 
Q 1656 2213 1656 1722 
L 1656 0 
L 531 0 
L 531 3500 
L 1656 3500 
L 1656 2988 
Q 1863 3284 2130 3434 
Q 2397 3584 2719 3584 
Q 3081 3584 3359 3409 
Q 3638 3234 3781 2919 
z
" transform="scale(0.015625)"/>
       <path id="DejaVuSans-Bold-46" d="M 588 4666 
L 3834 4666 
L 3834 3756 
L 1791 3756 
L 1791 2888 
L 3713 2888 
L 3713 1978 
L 1791 1978 
L 1791 0 
L 588 0 
L 588 4666 
z
" transform="scale(0.015625)"/>
       <path id="DejaVuSans-Bold-78" d="M 1422 1791 
L 159 3500 
L 1344 3500 
L 2059 2463 
L 2784 3500 
L 3969 3500 
L 2706 1797 
L 4031 0 
L 2847 0 
L 2059 1106 
L 1281 0 
L 97 0 
L 1422 1791 
z
" transform="scale(0.015625)"/>
       <path id="DejaVuSans-Bold-64" d="M 2919 2988 
L 2919 4863 
L 4044 4863 
L 4044 0 
L 2919 0 
L 2919 506 
Q 2688 197 2409 53 
Q 2131 -91 1766 -91 
Q 1119 -91 703 423 
Q 288 938 288 1747 
Q 288 2556 703 3070 
Q 1119 3584 1766 3584 
Q 2128 3584 2408 3439 
Q 2688 3294 2919 2988 
z
M 2181 722 
Q 2541 722 2730 984 
Q 2919 1247 2919 1747 
Q 2919 2247 2730 2509 
Q 2541 2772 2181 2772 
Q 1825 2772 1636 2509 
Q 1447 2247 1447 1747 
Q 1447 1247 1636 984 
Q 1825 722 2181 722 
z
" transform="scale(0.015625)"/>
       <path id="DejaVuSans-Bold-53" d="M 3834 4519 
L 3834 3531 
Q 3450 3703 3084 3790 
Q 2719 3878 2394 3878 
Q 1963 3878 1756 3759 
Q 1550 3641 1550 3391 
Q 1550 3203 1689 3098 
Q 1828 2994 2194 2919 
L 2706 2816 
Q 3484 2659 3812 2340 
Q 4141 2022 4141 1434 
Q 4141 663 3683 286 
Q 3225 -91 2284 -91 
Q 1841 -91 1394 -6 
Q 947 78 500 244 
L 500 1259 
Q 947 1022 1364 901 
Q 1781 781 2169 781 
Q 2563 781 2772 912 
Q 2981 1044 2981 1288 
Q 2981 1506 2839 1625 
Q 2697 1744 2272 1838 
L 1806 1941 
Q 1106 2091 782 2419 
Q 459 2747 459 3303 
Q 459 4000 909 4375 
Q 1359 4750 2203 4750 
Q 2588 4750 2994 4692 
Q 3400 4634 3834 4519 
z
" transform="scale(0.015625)"/>
       <path id="DejaVuSans-Bold-75" d="M 500 1363 
L 500 3500 
L 1625 3500 
L 1625 3150 
Q 1625 2866 1622 2436 
Q 1619 2006 1619 1863 
Q 1619 1441 1641 1255 
Q 1663 1069 1716 984 
Q 1784 875 1895 815 
Q 2006 756 2150 756 
Q 2500 756 2700 1025 
Q 2900 1294 2900 1772 
L 2900 3500 
L 4019 3500 
L 4019 0 
L 2900 0 
L 2900 506 
Q 2647 200 2364 54 
Q 2081 -91 1741 -91 
Q 1134 -91 817 281 
Q 500 653 500 1363 
z
" transform="scale(0.015625)"/>
       <path id="DejaVuSans-Bold-70" d="M 1656 506 
L 1656 -1331 
L 538 -1331 
L 538 3500 
L 1656 3500 
L 1656 2988 
Q 1888 3294 2169 3439 
Q 2450 3584 2816 3584 
Q 3463 3584 3878 3070 
Q 4294 2556 4294 1747 
Q 4294 938 3878 423 
Q 3463 -91 2816 -91 
Q 2450 -91 2169 54 
Q 1888 200 1656 506 
z
M 2400 2772 
Q 2041 2772 1848 2508 
Q 1656 2244 1656 1747 
Q 1656 1250 1848 986 
Q 2041 722 2400 722 
Q 2759 722 2948 984 
Q 3138 1247 3138 1747 
Q 3138 2247 2948 2509 
Q 2759 2772 2400 2772 
z
" transform="scale(0.015625)"/>
       <path id="DejaVuSans-Bold-28" d="M 2413 -844 
L 1484 -844 
Q 1006 -72 778 623 
Q 550 1319 550 2003 
Q 550 2688 779 3389 
Q 1009 4091 1484 4856 
L 2413 4856 
Q 2013 4116 1813 3408 
Q 1613 2700 1613 2009 
Q 1613 1319 1811 609 
Q 2009 -100 2413 -844 
z
" transform="scale(0.015625)"/>
       <path id="DejaVuSans-Bold-29" d="M 513 -844 
Q 913 -100 1113 609 
Q 1313 1319 1313 2009 
Q 1313 2700 1113 3408 
Q 913 4116 513 4856 
L 1441 4856 
Q 1916 4091 2145 3389 
Q 2375 2688 2375 2003 
Q 2375 1319 2147 623 
Q 1919 -72 1441 -844 
L 513 -844 
z
" transform="scale(0.015625)"/>
      </defs>
      <use xlink:href="#DejaVuSans-Bold-44"/>
      <use xlink:href="#DejaVuSans-Bold-69" x="83.007812"/>
      <use xlink:href="#DejaVuSans-Bold-73" x="117.285156"/>
      <use xlink:href="#DejaVuSans-Bold-74" x="176.806641"/>
      <use xlink:href="#DejaVuSans-Bold-61" x="224.609375"/>
      <use xlink:href="#DejaVuSans-Bold-6e" x="292.089844"/>
      <use xlink:href="#DejaVuSans-Bold-63" x="363.28125"/>
      <use xlink:href="#DejaVuSans-Bold-65" x="422.558594"/>
      <use xlink:href="#DejaVuSans-Bold-20" x="490.380859"/>
      <use xlink:href="#DejaVuSans-Bold-66" x="525.195312"/>
      <use xlink:href="#DejaVuSans-Bold-72" x="568.701172"/>
      <use xlink:href="#DejaVuSans-Bold-6f" x="618.017578"/>
      <use xlink:href="#DejaVuSans-Bold-6d" x="686.71875"/>
      <use xlink:href="#DejaVuSans-Bold-20" x="790.917969"/>
      <use xlink:href="#DejaVuSans-Bold-46" x="825.732422"/>
      <use xlink:href="#DejaVuSans-Bold-69" x="894.042969"/>
      <use xlink:href="#DejaVuSans-Bold-78" x="928.320312"/>
      <use xlink:href="#DejaVuSans-Bold-65" x="992.822266"/>
      <use xlink:href="#DejaVuSans-Bold-64" x="1060.644531"/>
      <use xlink:href="#DejaVuSans-Bold-20" x="1132.226562"/>
      <use xlink:href="#DejaVuSans-Bold-53" x="1167.041016"/>
      <use xlink:href="#DejaVuSans-Bold-75" x="1239.0625"/>
      <use xlink:href="#DejaVuSans-Bold-70" x="1310.253906"/>
      <use xlink:href="#DejaVuSans-Bold-70" x="1381.835938"/>
      <use xlink:href="#DejaVuSans-Bold-6f" x="1453.417969"/>
      <use xlink:href="#DejaVuSans-Bold-72" x="1522.119141"/>
      <use xlink:href="#DejaVuSans-Bold-74" x="1571.435547"/>
      <use xlink:href="#DejaVuSans-Bold-20" x="1619.238281"/>
      <use xlink:href="#DejaVuSans-Bold-28" x="1654.052734"/>
      <use xlink:href="#DejaVuSans-Bold-6d" x="1699.755859"/>
      <use xlink:href="#DejaVuSans-Bold-29" x="1803.955078"/>
     </g>
    </g>
   </g>
   <g id="matplotlib.axis_2">
    <g id="ytick_1">
     <g id="line2d_15">
      <path d="M 137.869687 536.4 
L 1059.469687 536.4 
" clip-path="url(#p998e52506f)" style="fill: none; stroke: #9ea388; stroke-opacity: 0.3; stroke-width: 2; stroke-linecap: square"/>
     </g>
     <g id="line2d_16">
      <defs>
       <path id="mc833abf340" d="M 0 0 
L -10 0 
" style="stroke: #405ab9; stroke-width: 4"/>
      </defs>
      <g>
       <use xlink:href="#mc833abf340" x="137.869687" y="536.4" style="fill: #405ab9; stroke: #405ab9; stroke-width: 4"/>
      </g>
     </g>
     <g id="text_9">
      <!-- −0.8 -->
      <g style="fill: #405ab9" transform="translate(61.234375 546.277969)scale(0.26 -0.26)">
       <defs>
        <path id="DejaVuSans-2212" d="M 678 2272 
L 4684 2272 
L 4684 1741 
L 678 1741 
L 678 2272 
z
" transform="scale(0.015625)"/>
       </defs>
       <use xlink:href="#DejaVuSans-2212"/>
       <use xlink:href="#DejaVuSans-30" x="83.789062"/>
       <use xlink:href="#DejaVuSans-2e" x="147.412109"/>
       <use xlink:href="#DejaVuSans-38" x="179.199219"/>
      </g>
     </g>
    </g>
    <g id="ytick_2">
     <g id="line2d_17">
      <path d="M 137.869687 473.4 
L 1059.469687 473.4 
" clip-path="url(#p998e52506f)" style="fill: none; stroke: #9ea388; stroke-opacity: 0.3; stroke-width: 2; stroke-linecap: square"/>
     </g>
     <g id="line2d_18">
      <g>
       <use xlink:href="#mc833abf340" x="137.869687" y="473.4" style="fill: #405ab9; stroke: #405ab9; stroke-width: 4"/>
      </g>
     </g>
     <g id="text_10">
      <!-- −0.7 -->
      <g style="fill: #405ab9" transform="translate(61.234375 483.277969)scale(0.26 -0.26)">
       <defs>
        <path id="DejaVuSans-37" d="M 525 4666 
L 3525 4666 
L 3525 4397 
L 1831 0 
L 1172 0 
L 2766 4134 
L 525 4134 
L 525 4666 
z
" transform="scale(0.015625)"/>
       </defs>
       <use xlink:href="#DejaVuSans-2212"/>
       <use xlink:href="#DejaVuSans-30" x="83.789062"/>
       <use xlink:href="#DejaVuSans-2e" x="147.412109"/>
       <use xlink:href="#DejaVuSans-37" x="179.199219"/>
      </g>
     </g>
    </g>
    <g id="ytick_3">
     <g id="line2d_19">
      <path d="M 137.869687 410.4 
L 1059.469687 410.4 
" clip-path="url(#p998e52506f)" style="fill: none; stroke: #9ea388; stroke-opacity: 0.3; stroke-width: 2; stroke-linecap: square"/>
     </g>
     <g id="line2d_20">
      <g>
       <use xlink:href="#mc833abf340" x="137.869687" y="410.4" style="fill: #405ab9; stroke: #405ab9; stroke-width: 4"/>
      </g>
     </g>
     <g id="text_11">
      <!-- −0.6 -->
      <g style="fill: #405ab9" transform="translate(61.234375 420.277969)scale(0.26 -0.26)">
       <use xlink:href="#DejaVuSans-2212"/>
       <use xlink:href="#DejaVuSans-30" x="83.789062"/>
       <use xlink:href="#DejaVuSans-2e" x="147.412109"/>
       <use xlink:href="#DejaVuSans-36" x="179.199219"/>
      </g>
     </g>
    </g>
    <g id="ytick_4">
     <g id="line2d_21">
      <path d="M 137.869687 347.4 
L 1059.469687 347.4 
" clip-path="url(#p998e52506f)" style="fill: none; stroke: #9ea388; stroke-opacity: 0.3; stroke-width: 2; stroke-linecap: square"/>
     </g>
     <g id="line2d_22">
      <g>
       <use xlink:href="#mc833abf340" x="137.869687" y="347.4" style="fill: #405ab9; stroke: #405ab9; stroke-width: 4"/>
      </g>
     </g>
     <g id="text_12">
      <!-- −0.5 -->
      <g style="fill: #405ab9" transform="translate(61.234375 357.277969)scale(0.26 -0.26)">
       <defs>
        <path id="DejaVuSans-35" d="M 691 4666 
L 3169 4666 
L 3169 4134 
L 1269 4134 
L 1269 2991 
Q 1406 3038 1543 3061 
Q 1681 3084 1819 3084 
Q 2600 3084 3056 2656 
Q 3513 2228 3513 1497 
Q 3513 744 3044 326 
Q 2575 -91 1722 -91 
Q 1428 -91 1123 -41 
Q 819 9 494 109 
L 494 744 
Q 775 591 1075 516 
Q 1375 441 1709 441 
Q 2250 441 2565 725 
Q 2881 1009 2881 1497 
Q 2881 1984 2565 2268 
Q 2250 2553 1709 2553 
Q 1456 2553 1204 2497 
Q 953 2441 691 2322 
L 691 4666 
z
" transform="scale(0.015625)"/>
       </defs>
       <use xlink:href="#DejaVuSans-2212"/>
       <use xlink:href="#DejaVuSans-30" x="83.789062"/>
       <use xlink:href="#DejaVuSans-2e" x="147.412109"/>
       <use xlink:href="#DejaVuSans-35" x="179.199219"/>
      </g>
     </g>
    </g>
    <g id="ytick_5">
     <g id="line2d_23">
      <path d="M 137.869687 284.4 
L 1059.469687 284.4 
" clip-path="url(#p998e52506f)" style="fill: none; stroke: #9ea388; stroke-opacity: 0.3; stroke-width: 2; stroke-linecap: square"/>
     </g>
     <g id="line2d_24">
      <g>
       <use xlink:href="#mc833abf340" x="137.869687" y="284.4" style="fill: #405ab9; stroke: #405ab9; stroke-width: 4"/>
      </g>
     </g>
     <g id="text_13">
      <!-- −0.4 -->
      <g style="fill: #405ab9" transform="translate(61.234375 294.277969)scale(0.26 -0.26)">
       <use xlink:href="#DejaVuSans-2212"/>
       <use xlink:href="#DejaVuSans-30" x="83.789062"/>
       <use xlink:href="#DejaVuSans-2e" x="147.412109"/>
       <use xlink:href="#DejaVuSans-34" x="179.199219"/>
      </g>
     </g>
    </g>
    <g id="ytick_6">
     <g id="line2d_25">
      <path d="M 137.869687 221.4 
L 1059.469687 221.4 
" clip-path="url(#p998e52506f)" style="fill: none; stroke: #9ea388; stroke-opacity: 0.3; stroke-width: 2; stroke-linecap: square"/>
     </g>
     <g id="line2d_26">
      <g>
       <use xlink:href="#mc833abf340" x="137.869687" y="221.4" style="fill: #405ab9; stroke: #405ab9; stroke-width: 4"/>
      </g>
     </g>
     <g id="text_14">
      <!-- −0.3 -->
      <g style="fill: #405ab9" transform="translate(61.234375 231.277969)scale(0.26 -0.26)">
       <defs>
        <path id="DejaVuSans-33" d="M 2597 2516 
Q 3050 2419 3304 2112 
Q 3559 1806 3559 1356 
Q 3559 666 3084 287 
Q 2609 -91 1734 -91 
Q 1441 -91 1130 -33 
Q 819 25 488 141 
L 488 750 
Q 750 597 1062 519 
Q 1375 441 1716 441 
Q 2309 441 2620 675 
Q 2931 909 2931 1356 
Q 2931 1769 2642 2001 
Q 2353 2234 1838 2234 
L 1294 2234 
L 1294 2753 
L 1863 2753 
Q 2328 2753 2575 2939 
Q 2822 3125 2822 3475 
Q 2822 3834 2567 4026 
Q 2313 4219 1838 4219 
Q 1578 4219 1281 4162 
Q 984 4106 628 3988 
L 628 4550 
Q 988 4650 1302 4700 
Q 1616 4750 1894 4750 
Q 2613 4750 3031 4423 
Q 3450 4097 3450 3541 
Q 3450 3153 3228 2886 
Q 3006 2619 2597 2516 
z
" transform="scale(0.015625)"/>
       </defs>
       <use xlink:href="#DejaVuSans-2212"/>
       <use xlink:href="#DejaVuSans-30" x="83.789062"/>
       <use xlink:href="#DejaVuSans-2e" x="147.412109"/>
       <use xlink:href="#DejaVuSans-33" x="179.199219"/>
      </g>
     </g>
    </g>
    <g id="ytick_7">
     <g id="line2d_27">
      <path d="M 137.869687 158.4 
L 1059.469687 158.4 
" clip-path="url(#p998e52506f)" style="fill: none; stroke: #9ea388; stroke-opacity: 0.3; stroke-width: 2; stroke-linecap: square"/>
     </g>
     <g id="line2d_28">
      <g>
       <use xlink:href="#mc833abf340" x="137.869687" y="158.4" style="fill: #405ab9; stroke: #405ab9; stroke-width: 4"/>
      </g>
     </g>
     <g id="text_15">
      <!-- −0.2 -->
      <g style="fill: #405ab9" transform="translate(61.234375 168.277969)scale(0.26 -0.26)">
       <use xlink:href="#DejaVuSans-2212"/>
       <use xlink:href="#DejaVuSans-30" x="83.789062"/>
       <use xlink:href="#DejaVuSans-2e" x="147.412109"/>
       <use xlink:href="#DejaVuSans-32" x="179.199219"/>
      </g>
     </g>
    </g>
    <g id="ytick_8">
     <g id="line2d_29">
      <path d="M 137.869687 95.4 
L 1059.469687 95.4 
" clip-path="url(#p998e52506f)" style="fill: none; stroke: #9ea388; stroke-opacity: 0.3; stroke-width: 2; stroke-linecap: square"/>
     </g>
     <g id="line2d_30">
      <g>
       <use xlink:href="#mc833abf340" x="137.869687" y="95.4" style="fill: #405ab9; stroke: #405ab9; stroke-width: 4"/>
      </g>
     </g>
     <g id="text_16">
      <!-- −0.1 -->
      <g style="fill: #405ab9" transform="translate(61.234375 105.277969)scale(0.26 -0.26)">
       <use xlink:href="#DejaVuSans-2212"/>
       <use xlink:href="#DejaVuSans-30" x="83.789062"/>
       <use xlink:href="#DejaVuSans-2e" x="147.412109"/>
       <use xlink:href="#DejaVuSans-31" x="179.199219"/>
      </g>
     </g>
    </g>
    <g id="ytick_9">
     <g id="line2d_31">
      <path d="M 137.869687 32.4 
L 1059.469687 32.4 
" clip-path="url(#p998e52506f)" style="fill: none; stroke: #9ea388; stroke-opacity: 0.3; stroke-width: 2; stroke-linecap: square"/>
     </g>
     <g id="line2d_32">
      <g>
       <use xlink:href="#mc833abf340" x="137.869687" y="32.4" style="fill: #405ab9; stroke: #405ab9; stroke-width: 4"/>
      </g>
     </g>
     <g id="text_17">
      <!-- 0.0 -->
      <g style="fill: #405ab9" transform="translate(83.021562 42.277969)scale(0.26 -0.26)">
       <use xlink:href="#DejaVuSans-30"/>
       <use xlink:href="#DejaVuSans-2e" x="63.623047"/>
       <use xlink:href="#DejaVuSans-30" x="95.410156"/>
      </g>
     </g>
    </g>
    <g id="text_18">
     <!-- Shear Force (kN) -->
     <g style="fill: #405ab9" transform="translate(29.995312 426.672656)rotate(-90)scale(0.3 -0.3)">
      <defs>
       <path id="DejaVuSans-Bold-68" d="M 4056 2131 
L 4056 0 
L 2931 0 
L 2931 347 
L 2931 1625 
Q 2931 2084 2911 2256 
Q 2891 2428 2841 2509 
Q 2775 2619 2662 2680 
Q 2550 2741 2406 2741 
Q 2056 2741 1856 2470 
Q 1656 2200 1656 1722 
L 1656 0 
L 538 0 
L 538 4863 
L 1656 4863 
L 1656 2988 
Q 1909 3294 2193 3439 
Q 2478 3584 2822 3584 
Q 3428 3584 3742 3212 
Q 4056 2841 4056 2131 
z
" transform="scale(0.015625)"/>
       <path id="DejaVuSans-Bold-6b" d="M 538 4863 
L 1656 4863 
L 1656 2216 
L 2944 3500 
L 4244 3500 
L 2534 1894 
L 4378 0 
L 3022 0 
L 1656 1459 
L 1656 0 
L 538 0 
L 538 4863 
z
" transform="scale(0.015625)"/>
       <path id="DejaVuSans-Bold-4e" d="M 588 4666 
L 1931 4666 
L 3628 1466 
L 3628 4666 
L 4769 4666 
L 4769 0 
L 3425 0 
L 1728 3200 
L 1728 0 
L 588 0 
L 588 4666 
z
" transform="scale(0.015625)"/>
      </defs>
      <use xlink:href="#DejaVuSans-Bold-53"/>
      <use xlink:href="#DejaVuSans-Bold-68" x="72.021484"/>
      <use xlink:href="#DejaVuSans-Bold-65" x="143.212891"/>
      <use xlink:href="#DejaVuSans-Bold-61" x="211.035156"/>
      <use xlink:href="#DejaVuSans-Bold-72" x="278.515625"/>
      <use xlink:href="#DejaVuSans-Bold-20" x="327.832031"/>
      <use xlink:href="#DejaVuSans-Bold-46" x="362.646484"/>
      <use xlink:href="#DejaVuSans-Bold-6f" x="426.957031"/>
      <use xlink:href="#DejaVuSans-Bold-72" x="495.658203"/>
      <use xlink:href="#DejaVuSans-Bold-63" x="544.974609"/>
      <use xlink:href="#DejaVuSans-Bold-65" x="604.251953"/>
      <use xlink:href="#DejaVuSans-Bold-20" x="672.074219"/>
      <use xlink:href="#DejaVuSans-Bold-28" x="706.888672"/>
      <use xlink:href="#DejaVuSans-Bold-6b" x="752.591797"/>
      <use xlink:href="#DejaVuSans-Bold-4e" x="819.095703"/>
      <use xlink:href="#DejaVuSans-Bold-29" x="902.787109"/>
     </g>
    </g>
   </g>
   <g id="line2d_33">
    <path d="M 179.760597 536.4 
L 188.223407 536.4 
L 196.686216 536.4 
L 205.149026 536.4 
L 213.611836 536.4 
L 222.074646 536.4 
L 230.537456 536.4 
L 239.000266 536.4 
L 247.463076 536.4 
L 255.925886 536.4 
L 264.388696 536.4 
L 272.851506 536.4 
L 281.314316 536.4 
L 289.777126 536.4 
L 298.239935 536.4 
L 306.702745 536.4 
L 315.165555 536.4 
L 323.628365 536.4 
L 332.091175 536.4 
L 340.553985 536.4 
L 349.016795 536.4 
L 357.479605 536.4 
L 365.942415 536.4 
L 374.405225 536.4 
L 382.868035 536.4 
L 391.330845 536.4 
L 399.793654 536.4 
L 408.256464 536.4 
L 416.719274 536.4 
L 425.182084 536.4 
L 433.644894 536.4 
L 442.107704 536.4 
L 450.570514 536.4 
L 459.033324 536.4 
L 467.496134 536.4 
L 475.958944 536.4 
L 484.421754 536.4 
L 492.884564 536.4 
L 501.347373 536.4 
L 509.810183 536.4 
L 518.272993 536.4 
L 526.735803 536.4 
L 535.198613 536.4 
L 543.661423 536.4 
L 552.124233 536.4 
L 560.587043 536.4 
L 569.049853 536.4 
L 577.512663 536.4 
L 585.975473 536.4 
L 594.438283 536.4 
L 602.901092 536.4 
L 611.363902 536.4 
L 619.826712 536.4 
L 628.289522 536.4 
L 636.752332 536.4 
L 645.215142 536.4 
L 653.677952 536.4 
L 662.140762 536.4 
L 670.603572 536.4 
L 679.066382 536.4 
L 687.529192 536.4 
L 695.992002 536.4 
L 704.454811 536.4 
L 712.917621 536.4 
L 721.380431 536.4 
L 729.843241 536.4 
L 738.306051 536.4 
L 746.768861 536.4 
L 755.231671 536.4 
L 763.694481 536.4 
L 772.157291 536.4 
L 780.620101 536.4 
L 789.082911 536.4 
L 797.545721 536.4 
L 806.00853 536.4 
L 814.47134 536.4 
L 822.93415 536.4 
L 831.39696 536.4 
L 839.85977 536.4 
L 848.32258 536.4 
L 856.78539 536.4 
L 865.2482 536.4 
L 873.71101 536.4 
L 882.17382 536.4 
L 890.63663 536.4 
L 899.09944 536.4 
L 907.562249 536.4 
L 916.025059 536.4 
L 924.487869 536.4 
L 932.950679 536.4 
L 941.413489 536.4 
L 949.876299 536.4 
L 958.339109 536.4 
L 966.801919 536.4 
L 975.264729 536.4 
L 983.727539 536.4 
L 992.190349 536.4 
L 1000.653159 536.4 
L 1009.115968 536.4 
L 1017.578778 536.4 
" clip-path="url(#p998e52506f)" style="fill: none; stroke: #405ab9; stroke-width: 4; stroke-linecap: square"/>
   </g>
   <g id="line2d_34">
    <path d="M 137.869687 32.4 
L 1059.469687 32.4 
" clip-path="url(#p998e52506f)" style="fill: none; stroke: #405ab9; stroke-opacity: 0.8; stroke-width: 4; stroke-linecap: square"/>
   </g>
   <g id="line2d_35">
    <path d="M 179.760597 561.6 
L 179.760597 7.2 
" clip-path="url(#p998e52506f)" style="fill: none; stroke-dasharray: 14.8,6.4; stroke-dashoffset: 0; stroke: #ff8c36; stroke-opacity: 0.4; stroke-width: 4"/>
   </g>
   <g id="line2d_36">
    <path d="M 1017.578778 561.6 
L 1017.578778 7.2 
" clip-path="url(#p998e52506f)" style="fill: none; stroke-dasharray: 14.8,6.4; stroke-dashoffset: 0; stroke: #ff8c36; stroke-opacity: 0.6; stroke-width: 4"/>
   </g>
   <g id="patch_3">
    <path d="M 137.869687 561.6 
L 137.869687 7.2 
" style="fill: none; stroke: #405ab9; stroke-width: 4; stroke-linejoin: miter; stroke-linecap: square"/>
   </g>
   <g id="patch_4">
    <path d="M 137.869687 561.6 
L 1059.469687 561.6 
" style="fill: none; stroke: #405ab9; stroke-width: 4; stroke-linejoin: miter; stroke-linecap: square"/>
   </g>
   <g id="patch_5">
    <path d="M 253.64572 494.788488 
Q 217.574636 515.103434 183.451879 534.321099 
" style="fill: none; stroke: #405ab9; stroke-width: 2; stroke-linecap: round"/>
    <path d="M 195.065324 533.748472 
L 183.451879 534.321099 
L 189.961844 524.686767 
" style="fill: none; stroke: #405ab9; stroke-width: 2; stroke-linecap: round"/>
   </g>
   <g id="text_19">
    <!-- -0.80 kN -->
    <g style="fill: #405ab9" transform="translate(219.760597 486.4)scale(0.26 -0.26)">
     <defs>
      <path id="DejaVuSans-Bold-2d" d="M 347 2297 
L 2309 2297 
L 2309 1388 
L 347 1388 
L 347 2297 
z
" transform="scale(0.015625)"/>
      <path id="DejaVuSans-Bold-30" d="M 2944 2338 
Q 2944 3213 2780 3570 
Q 2616 3928 2228 3928 
Q 1841 3928 1675 3570 
Q 1509 3213 1509 2338 
Q 1509 1453 1675 1090 
Q 1841 728 2228 728 
Q 2613 728 2778 1090 
Q 2944 1453 2944 2338 
z
M 4147 2328 
Q 4147 1169 3647 539 
Q 3147 -91 2228 -91 
Q 1306 -91 806 539 
Q 306 1169 306 2328 
Q 306 3491 806 4120 
Q 1306 4750 2228 4750 
Q 3147 4750 3647 4120 
Q 4147 3491 4147 2328 
z
" transform="scale(0.015625)"/>
      <path id="DejaVuSans-Bold-2e" d="M 653 1209 
L 1778 1209 
L 1778 0 
L 653 0 
L 653 1209 
z
" transform="scale(0.015625)"/>
      <path id="DejaVuSans-Bold-38" d="M 2228 2088 
Q 1891 2088 1709 1903 
Q 1528 1719 1528 1375 
Q 1528 1031 1709 848 
Q 1891 666 2228 666 
Q 2563 666 2741 848 
Q 2919 1031 2919 1375 
Q 2919 1722 2741 1905 
Q 2563 2088 2228 2088 
z
M 1350 2484 
Q 925 2613 709 2878 
Q 494 3144 494 3541 
Q 494 4131 934 4440 
Q 1375 4750 2228 4750 
Q 3075 4750 3515 4442 
Q 3956 4134 3956 3541 
Q 3956 3144 3739 2878 
Q 3522 2613 3097 2484 
Q 3572 2353 3814 2058 
Q 4056 1763 4056 1313 
Q 4056 619 3595 264 
Q 3134 -91 2228 -91 
Q 1319 -91 855 264 
Q 391 619 391 1313 
Q 391 1763 633 2058 
Q 875 2353 1350 2484 
z
M 1631 3419 
Q 1631 3141 1786 2991 
Q 1941 2841 2228 2841 
Q 2509 2841 2662 2991 
Q 2816 3141 2816 3419 
Q 2816 3697 2662 3845 
Q 2509 3994 2228 3994 
Q 1941 3994 1786 3844 
Q 1631 3694 1631 3419 
z
" transform="scale(0.015625)"/>
     </defs>
     <use xlink:href="#DejaVuSans-Bold-2d"/>
     <use xlink:href="#DejaVuSans-Bold-30" x="41.503906"/>
     <use xlink:href="#DejaVuSans-Bold-2e" x="111.083984"/>
     <use xlink:href="#DejaVuSans-Bold-38" x="149.072266"/>
     <use xlink:href="#DejaVuSans-Bold-30" x="218.652344"/>
     <use xlink:href="#DejaVuSans-Bold-20" x="288.232422"/>
     <use xlink:href="#DejaVuSans-Bold-6b" x="323.046875"/>
     <use xlink:href="#DejaVuSans-Bold-4e" x="389.550781"/>
    </g>
   </g>
   <g id="patch_6">
    <path d="M 914.008965 494.557118 
Q 964.866206 515.103776 1013.650187 534.812823 
" style="fill: none; stroke: #405ab9; stroke-width: 2; stroke-linecap: round"/>
    <path d="M 1005.955282 526.095689 
L 1013.650187 534.812823 
L 1002.059537 535.738467 
" style="fill: none; stroke: #405ab9; stroke-width: 2; stroke-linecap: round"/>
   </g>
   <g id="text_20">
    <!-- -0.80 kN -->
    <g style="fill: #405ab9" transform="translate(814.541903 486.4)scale(0.26 -0.26)">
     <use xlink:href="#DejaVuSans-Bold-2d"/>
     <use xlink:href="#DejaVuSans-Bold-30" x="41.503906"/>
     <use xlink:href="#DejaVuSans-Bold-2e" x="111.083984"/>
     <use xlink:href="#DejaVuSans-Bold-38" x="149.072266"/>
     <use xlink:href="#DejaVuSans-Bold-30" x="218.652344"/>
     <use xlink:href="#DejaVuSans-Bold-20" x="288.232422"/>
     <use xlink:href="#DejaVuSans-Bold-6b" x="323.046875"/>
     <use xlink:href="#DejaVuSans-Bold-4e" x="389.550781"/>
    </g>
   </g>
   <g id="line2d_37">
    <defs>
     <path id="m50de043d0a" d="M 0 9 
C 2.386828 9 4.676219 8.051703 6.363961 6.363961 
C 8.051703 4.676219 9 2.386828 9 0 
C 9 -2.386828 8.051703 -4.676219 6.363961 -6.363961 
C 4.676219 -8.051703 2.386828 -9 0 -9 
C -2.386828 -9 -4.676219 -8.051703 -6.363961 -6.363961 
C -8.051703 -4.676219 -9 -2.386828 -9 0 
C -9 2.386828 -8.051703 4.676219 -6.363961 6.363961 
C -4.676219 8.051703 -2.386828 9 0 9 
z
" style="stroke: #405ab9; stroke-width: 5"/>
    </defs>
    <g clip-path="url(#p998e52506f)">
     <use xlink:href="#m50de043d0a" x="179.760597" y="536.4" style="fill: #ff8c36; stroke: #405ab9; stroke-width: 5"/>
    </g>
   </g>
   <g id="line2d_38">
    <g clip-path="url(#p998e52506f)">
     <use xlink:href="#m50de043d0a" x="1017.578778" y="536.4" style="fill: #ff8c36; stroke: #405ab9; stroke-width: 5"/>
    </g>
   </g>
  </g>
 </g>
 <defs>
  <clipPath id="p998e52506f">
   <rect x="137.869687" y="7.2" width="921.6" height="554.4"/>
  </clipPath>
 </defs>
</svg>
