<?xml version="1.0" encoding="utf-8" standalone="no"?>
<!DOCTYPE svg PUBLIC "-//W3C//DTD SVG 1.1//EN"
  "http://www.w3.org/Graphics/SVG/1.1/DTD/svg11.dtd">
<svg xmlns:xlink="http://www.w3.org/1999/xlink" width="1066.904062pt" height="661.4975pt" viewBox="0 0 1066.904062 661.4975" xmlns="http://www.w3.org/2000/svg" version="1.1">
 <metadata>
  <rdf:RDF xmlns:dc="http://purl.org/dc/elements/1.1/" xmlns:cc="http://creativecommons.org/ns#" xmlns:rdf="http://www.w3.org/1999/02/22-rdf-syntax-ns#">
   <cc:Work>
    <dc:type rdf:resource="http://purl.org/dc/dcmitype/StillImage"/>
    <dc:date>2025-10-17T13:30:20.060191</dc:date>
    <dc:format>image/svg+xml</dc:format>
    <dc:creator>
     <cc:Agent>
      <dc:title>Matplotlib v3.5.2, https://matplotlib.org/</dc:title>
     </cc:Agent>
    </dc:creator>
   </cc:Work>
  </rdf:RDF>
 </metadata>
 <defs>
  <style type="text/css">*{stroke-linejoin: round; stroke-linecap: butt}</style>
 </defs>
 <g id="figure_1">
  <g id="patch_1">
   <path d="M 0 661.4975 
L 1066.904062 661.4975 
L 1066.904062 0 
L 0 0 
L 0 661.4975 
z
" style="fill: none"/>
  </g>
  <g id="axes_1">
   <g id="patch_2">
    <path d="M 138.104062 561.6 
L 1059.704062 561.6 
L 1059.704062 7.2 
L 138.104062 7.2 
L 138.104062 561.6 
z
" style="fill: none"/>
   </g>
   <g id="PolyCollection_1">
    <defs>
     <path id="mf969810c4c" d="M 179.994972 -629.0975 
L 179.994972 -629.0975 
L 181.673966 -625.05742 
L 183.35296 -621.01734 
L 185.031955 -616.97726 
L 186.710949 -612.937179 
L 188.389943 -608.897099 
L 190.068938 -604.857019 
L 191.747932 -600.816939 
L 193.426926 -596.776859 
L 195.105921 -592.736779 
L 196.784915 -588.696698 
L 198.463909 -584.656618 
L 200.142904 -580.616538 
L 201.821898 -576.576458 
L 203.500893 -572.536378 
L 205.179887 -568.496298 
L 206.858881 -564.456217 
L 208.537876 -560.416137 
L 210.21687 -556.376057 
L 211.895864 -552.335977 
L 213.574859 -548.295897 
L 215.253853 -544.255817 
L 216.932847 -540.215736 
L 218.611842 -536.175656 
L 220.290836 -532.135576 
L 221.96983 -528.095496 
L 223.648825 -524.055416 
L 225.327819 -520.015336 
L 227.006813 -515.975256 
L 228.685808 -511.935175 
L 230.364802 -507.895095 
L 232.043797 -503.855015 
L 233.722791 -499.814935 
L 235.401785 -495.774855 
L 237.08078 -491.734775 
L 238.759774 -487.694694 
L 240.438768 -483.654614 
L 242.117763 -479.614534 
L 243.796757 -475.574454 
L 245.475751 -471.534374 
L 247.154746 -467.494294 
L 248.83374 -463.454213 
L 250.512734 -459.414133 
L 252.191729 -455.374053 
L 253.870723 -451.333973 
L 255.549717 -447.293893 
L 257.228712 -443.253813 
L 258.907706 -439.213732 
L 260.586701 -435.173652 
L 262.265695 -431.133572 
L 263.944689 -427.093492 
L 265.623684 -423.053412 
L 267.302678 -419.013332 
L 268.981672 -414.973252 
L 270.660667 -410.933171 
L 272.339661 -406.893091 
L 274.018655 -402.853011 
L 275.69765 -398.812931 
L 277.376644 -394.772851 
L 279.055638 -390.732771 
L 280.734633 -386.69269 
L 282.413627 -382.65261 
L 284.092621 -378.61253 
L 285.771616 -374.57245 
L 287.45061 -370.53237 
L 289.129604 -366.49229 
L 290.808599 -362.452209 
L 292.487593 -358.412129 
L 294.166588 -354.372049 
L 295.845582 -350.331969 
L 297.524576 -346.291889 
L 299.203571 -342.251809 
L 300.882565 -338.211728 
L 302.561559 -334.171648 
L 304.240554 -330.131568 
L 305.919548 -326.091488 
L 307.598542 -322.051408 
L 309.277537 -318.011328 
L 310.956531 -313.971247 
L 312.635525 -309.931167 
L 314.31452 -305.891087 
L 315.993514 -301.851007 
L 317.672508 -297.810927 
L 319.351503 -293.770847 
L 321.030497 -289.730767 
L 322.709492 -285.690686 
L 324.388486 -281.650606 
L 326.06748 -277.610526 
L 327.746475 -273.570446 
L 329.425469 -269.530366 
L 331.104463 -265.490286 
L 332.783458 -261.450205 
L 334.462452 -257.410125 
L 336.141446 -253.370045 
L 337.820441 -249.329965 
L 339.499435 -245.289885 
L 341.178429 -241.249805 
L 342.857424 -237.209724 
L 344.536418 -233.169644 
L 346.215412 -229.129564 
L 347.894407 -225.089484 
L 349.573401 -221.049404 
L 351.252396 -217.009324 
L 352.93139 -212.969243 
L 354.610384 -208.929163 
L 356.289379 -204.889083 
L 357.968373 -200.849003 
L 359.647367 -196.808923 
L 361.326362 -192.768843 
L 363.005356 -188.728763 
L 364.68435 -184.688682 
L 366.363345 -180.648602 
L 368.042339 -176.608522 
L 369.721333 -172.568442 
L 371.400328 -168.528362 
L 373.079322 -164.488282 
L 374.758316 -160.448201 
L 376.437311 -156.408121 
L 378.116305 -152.368041 
L 379.7953 -148.327961 
L 381.474294 -144.287881 
L 383.153288 -140.247801 
L 384.832283 -136.20772 
L 386.511277 -132.16764 
L 388.190271 -128.12756 
L 389.869266 -125.434173 
L 391.54826 -126.780867 
L 393.227254 -128.12756 
L 394.906249 -129.474254 
L 396.585243 -130.820947 
L 398.264237 -132.16764 
L 399.943232 -133.514334 
L 401.622226 -134.861027 
L 403.30122 -136.20772 
L 404.980215 -137.554414 
L 406.659209 -138.901107 
L 408.338204 -140.247801 
L 410.017198 -141.594494 
L 411.696192 -142.941187 
L 413.375187 -144.287881 
L 415.054181 -145.634574 
L 416.733175 -146.981268 
L 418.41217 -148.327961 
L 420.091164 -149.674654 
L 421.770158 -151.021348 
L 423.449153 -152.368041 
L 425.128147 -153.714734 
L 426.807141 -155.061428 
L 428.486136 -156.408121 
L 430.16513 -157.754815 
L 431.844124 -159.101508 
L 433.523119 -160.448201 
L 435.202113 -161.794895 
L 436.881107 -163.141588 
L 438.560102 -164.488282 
L 440.239096 -165.834975 
L 441.918091 -167.181668 
L 443.597085 -168.528362 
L 445.276079 -169.875055 
L 446.955074 -171.221748 
L 448.634068 -172.568442 
L 450.313062 -173.915135 
L 451.992057 -175.261829 
L 453.671051 -176.608522 
L 455.350045 -177.955215 
L 457.02904 -179.301909 
L 458.708034 -180.648602 
L 460.387028 -181.995296 
L 462.066023 -183.341989 
L 463.745017 -184.688682 
L 465.424011 -186.035376 
L 467.103006 -187.382069 
L 468.782 -188.728763 
L 470.460995 -190.075456 
L 472.139989 -191.422149 
L 473.818983 -192.768843 
L 475.497978 -194.115536 
L 477.176972 -195.462229 
L 478.855966 -196.808923 
L 480.534961 -198.155616 
L 482.213955 -199.50231 
L 483.892949 -200.849003 
L 485.571944 -202.195696 
L 487.250938 -203.54239 
L 488.929932 -204.889083 
L 490.608927 -206.235777 
L 492.287921 -207.58247 
L 493.966915 -208.929163 
L 495.64591 -210.275857 
L 497.324904 -211.62255 
L 499.003899 -212.969243 
L 500.682893 -214.315937 
L 502.361887 -215.66263 
L 504.040882 -217.009324 
L 505.719876 -218.356017 
L 507.39887 -219.70271 
L 509.077865 -221.049404 
L 510.756859 -222.396097 
L 512.435853 -223.742791 
L 514.114848 -225.089484 
L 515.793842 -226.436177 
L 517.472836 -227.782871 
L 519.151831 -229.129564 
L 520.830825 -230.476258 
L 522.509819 -231.822951 
L 524.188814 -233.169644 
L 525.867808 -234.516338 
L 527.546803 -235.863031 
L 529.225797 -237.209724 
L 530.904791 -238.556418 
L 532.583786 -239.903111 
L 534.26278 -241.249805 
L 535.941774 -242.596498 
L 537.620769 -243.943191 
L 539.299763 -245.289885 
L 540.978757 -246.636578 
L 542.657752 -247.983272 
L 544.336746 -249.329965 
L 546.01574 -250.676658 
L 547.694735 -252.023352 
L 549.373729 -253.370045 
L 551.052723 -254.716738 
L 552.731718 -256.063432 
L 554.410712 -257.410125 
L 556.089707 -258.756819 
L 557.768701 -260.103512 
L 559.447695 -261.450205 
L 561.12669 -262.796899 
L 562.805684 -264.143592 
L 564.484678 -265.490286 
L 566.163673 -266.836979 
L 567.842667 -268.183672 
L 569.521661 -269.530366 
L 571.200656 -270.877059 
L 572.87965 -272.223753 
L 574.558644 -273.570446 
L 576.237639 -274.917139 
L 577.916633 -276.263833 
L 579.595627 -277.610526 
L 581.274622 -278.957219 
L 582.953616 -280.303913 
L 584.632611 -281.650606 
L 586.311605 -282.9973 
L 587.990599 -284.343993 
L 589.669594 -285.690686 
L 591.348588 -287.03738 
L 593.027582 -288.384073 
L 594.706577 -289.730767 
L 596.385571 -291.07746 
L 598.064565 -292.424153 
L 599.74356 -293.770847 
L 601.422554 -295.11754 
L 603.101548 -296.464233 
L 604.780543 -297.810927 
L 606.459537 -299.15762 
L 608.138531 -300.504314 
L 609.817526 -301.851007 
L 611.49652 -303.1977 
L 613.175514 -304.544394 
L 614.854509 -305.891087 
L 616.533503 -307.237781 
L 618.212498 -308.584474 
L 619.891492 -309.931167 
L 621.570486 -311.277861 
L 623.249481 -312.624554 
L 624.928475 -313.971247 
L 626.607469 -315.317941 
L 628.286464 -316.664634 
L 629.965458 -318.011328 
L 631.644452 -319.358021 
L 633.323447 -320.704714 
L 635.002441 -322.051408 
L 636.681435 -323.398101 
L 638.36043 -324.744795 
L 640.039424 -326.091488 
L 641.718418 -327.438181 
L 643.397413 -328.784875 
L 645.076407 -330.131568 
L 646.755402 -331.478262 
L 648.434396 -332.824955 
L 650.11339 -334.171648 
L 651.792385 -335.518342 
L 653.471379 -336.865035 
L 655.150373 -338.211728 
L 656.829368 -339.558422 
L 658.508362 -340.905115 
L 660.187356 -342.251809 
L 661.866351 -343.598502 
L 663.545345 -344.945195 
L 665.224339 -346.291889 
L 666.903334 -347.638582 
L 668.582328 -348.985276 
L 670.261322 -350.331969 
L 671.940317 -351.678662 
L 673.619311 -353.025356 
L 675.298306 -354.372049 
L 676.9773 -355.718742 
L 678.656294 -357.065436 
L 680.335289 -358.412129 
L 682.014283 -359.758823 
L 683.693277 -361.105516 
L 685.372272 -362.452209 
L 687.051266 -363.798903 
L 688.73026 -365.145596 
L 690.409255 -366.49229 
L 692.088249 -367.838983 
L 693.767243 -369.185676 
L 695.446238 -370.53237 
L 697.125232 -371.879063 
L 698.804226 -373.225757 
L 700.483221 -374.57245 
L 702.162215 -375.919143 
L 703.84121 -377.265837 
L 705.520204 -378.61253 
L 707.199198 -379.959223 
L 708.878193 -381.305917 
L 710.557187 -382.65261 
L 712.236181 -383.999304 
L 713.915176 -385.345997 
L 715.59417 -386.69269 
L 717.273164 -388.039384 
L 718.952159 -389.386077 
L 720.631153 -390.732771 
L 722.310147 -392.079464 
L 723.989142 -393.426157 
L 725.668136 -394.772851 
L 727.34713 -396.119544 
L 729.026125 -397.466237 
L 730.705119 -398.812931 
L 732.384114 -400.159624 
L 734.063108 -401.506318 
L 735.742102 -402.853011 
L 737.421097 -404.199704 
L 739.100091 -405.546398 
L 740.779085 -406.893091 
L 742.45808 -408.239785 
L 744.137074 -409.586478 
L 745.816068 -410.933171 
L 747.495063 -412.279865 
L 749.174057 -413.626558 
L 750.853051 -414.973252 
L 752.532046 -416.319945 
L 754.21104 -417.666638 
L 755.890034 -419.013332 
L 757.569029 -420.360025 
L 759.248023 -421.706718 
L 760.927018 -423.053412 
L 762.606012 -424.400105 
L 764.285006 -425.746799 
L 765.964001 -427.093492 
L 767.642995 -428.440185 
L 769.321989 -429.786879 
L 771.000984 -431.133572 
L 772.679978 -432.480266 
L 774.358972 -433.826959 
L 776.037967 -435.173652 
L 777.716961 -436.520346 
L 779.395955 -437.867039 
L 781.07495 -439.213732 
L 782.753944 -440.560426 
L 784.432938 -441.907119 
L 786.111933 -443.253813 
L 787.790927 -444.600506 
L 789.469921 -445.947199 
L 791.148916 -447.293893 
L 792.82791 -448.640586 
L 794.506905 -449.98728 
L 796.185899 -451.333973 
L 797.864893 -452.680666 
L 799.543888 -454.02736 
L 801.222882 -455.374053 
L 802.901876 -456.720746 
L 804.580871 -458.06744 
L 806.259865 -459.414133 
L 807.938859 -460.760827 
L 809.617854 -462.10752 
L 811.296848 -463.454213 
L 812.975842 -464.800907 
L 814.654837 -466.1476 
L 816.333831 -467.494294 
L 818.012825 -468.840987 
L 819.69182 -470.18768 
L 821.370814 -471.534374 
L 823.049809 -472.881067 
L 824.728803 -474.227761 
L 826.407797 -475.574454 
L 828.086792 -476.921147 
L 829.765786 -478.267841 
L 831.44478 -479.614534 
L 833.123775 -480.961227 
L 834.802769 -482.307921 
L 836.481763 -483.654614 
L 838.160758 -485.001308 
L 839.839752 -486.348001 
L 841.518746 -487.694694 
L 843.197741 -489.041388 
L 844.876735 -490.388081 
L 846.555729 -491.734775 
L 848.234724 -493.081468 
L 849.913718 -494.428161 
L 851.592713 -495.774855 
L 853.271707 -497.121548 
L 854.950701 -498.468241 
L 856.629696 -499.814935 
L 858.30869 -501.161628 
L 859.987684 -502.508322 
L 861.666679 -503.855015 
L 863.345673 -505.201708 
L 865.024667 -506.548402 
L 866.703662 -507.895095 
L 868.382656 -509.241789 
L 870.06165 -510.588482 
L 871.740645 -511.935175 
L 873.419639 -513.281869 
L 875.098633 -514.628562 
L 876.777628 -515.975256 
L 878.456622 -517.321949 
L 880.135617 -518.668642 
L 881.814611 -520.015336 
L 883.493605 -521.362029 
L 885.1726 -522.708722 
L 886.851594 -524.055416 
L 888.530588 -525.402109 
L 890.209583 -526.748803 
L 891.888577 -528.095496 
L 893.567571 -529.442189 
L 895.246566 -530.788883 
L 896.92556 -532.135576 
L 898.604554 -533.48227 
L 900.283549 -534.828963 
L 901.962543 -536.175656 
L 903.641537 -537.52235 
L 905.320532 -538.869043 
L 906.999526 -540.215736 
L 908.678521 -541.56243 
L 910.357515 -542.909123 
L 912.036509 -544.255817 
L 913.715504 -545.60251 
L 915.394498 -546.949203 
L 917.073492 -548.295897 
L 918.752487 -549.64259 
L 920.431481 -550.989284 
L 922.110475 -552.335977 
L 923.78947 -553.68267 
L 925.468464 -555.029364 
L 927.147458 -556.376057 
L 928.826453 -557.722751 
L 930.505447 -559.069444 
L 932.184441 -560.416137 
L 933.863436 -561.762831 
L 935.54243 -563.109524 
L 937.221424 -564.456217 
L 938.900419 -565.802911 
L 940.579413 -567.149604 
L 942.258408 -568.496298 
L 943.937402 -569.842991 
L 945.616396 -571.189684 
L 947.295391 -572.536378 
L 948.974385 -573.883071 
L 950.653379 -575.229765 
L 952.332374 -576.576458 
L 954.011368 -577.923151 
L 955.690362 -579.269845 
L 957.369357 -580.616538 
L 959.048351 -581.963231 
L 960.727345 -583.309925 
L 962.40634 -584.656618 
L 964.085334 -586.003312 
L 965.764328 -587.350005 
L 967.443323 -588.696698 
L 969.122317 -590.043392 
L 970.801312 -591.390085 
L 972.480306 -592.736779 
L 974.1593 -594.083472 
L 975.838295 -595.430165 
L 977.517289 -596.776859 
L 979.196283 -598.123552 
L 980.875278 -599.470245 
L 982.554272 -600.816939 
L 984.233266 -602.163632 
L 985.912261 -603.510326 
L 987.591255 -604.857019 
L 989.270249 -606.203712 
L 990.949244 -607.550406 
L 992.628238 -608.897099 
L 994.307232 -610.243793 
L 995.986227 -611.590486 
L 997.665221 -612.937179 
L 999.344216 -614.283873 
L 1001.02321 -615.630566 
L 1002.702204 -616.97726 
L 1004.381199 -618.323953 
L 1006.060193 -619.670646 
L 1007.739187 -621.01734 
L 1009.418182 -622.364033 
L 1011.097176 -623.710726 
L 1012.77617 -625.05742 
L 1014.455165 -626.404113 
L 1016.134159 -627.750807 
L 1017.813153 -629.0975 
L 1017.813153 -629.0975 
L 1017.813153 -629.0975 
L 1016.134159 -629.0975 
L 1014.455165 -629.0975 
L 1012.77617 -629.0975 
L 1011.097176 -629.0975 
L 1009.418182 -629.0975 
L 1007.739187 -629.0975 
L 1006.060193 -629.0975 
L 1004.381199 -629.0975 
L 1002.702204 -629.0975 
L 1001.02321 -629.0975 
L 999.344216 -629.0975 
L 997.665221 -629.0975 
L 995.986227 -629.0975 
L 994.307232 -629.0975 
L 992.628238 -629.0975 
L 990.949244 -629.0975 
L 989.270249 -629.0975 
L 987.591255 -629.0975 
L 985.912261 -629.0975 
L 984.233266 -629.0975 
L 982.554272 -629.0975 
L 980.875278 -629.0975 
L 979.196283 -629.0975 
L 977.517289 -629.0975 
L 975.838295 -629.0975 
L 974.1593 -629.0975 
L 972.480306 -629.0975 
L 970.801312 -629.0975 
L 969.122317 -629.0975 
L 967.443323 -629.0975 
L 965.764328 -629.0975 
L 964.085334 -629.0975 
L 962.40634 -629.0975 
L 960.727345 -629.0975 
L 959.048351 -629.0975 
L 957.369357 -629.0975 
L 955.690362 -629.0975 
L 954.011368 -629.0975 
L 952.332374 -629.0975 
L 950.653379 -629.0975 
L 948.974385 -629.0975 
L 947.295391 -629.0975 
L 945.616396 -629.0975 
L 943.937402 -629.0975 
L 942.258408 -629.0975 
L 940.579413 -629.0975 
L 938.900419 -629.0975 
L 937.221424 -629.0975 
L 935.54243 -629.0975 
L 933.863436 -629.0975 
L 932.184441 -629.0975 
L 930.505447 -629.0975 
L 928.826453 -629.0975 
L 927.147458 -629.0975 
L 925.468464 -629.0975 
L 923.78947 -629.0975 
L 922.110475 -629.0975 
L 920.431481 -629.0975 
L 918.752487 -629.0975 
L 917.073492 -629.0975 
L 915.394498 -629.0975 
L 913.715504 -629.0975 
L 912.036509 -629.0975 
L 910.357515 -629.0975 
L 908.678521 -629.0975 
L 906.999526 -629.0975 
L 905.320532 -629.0975 
L 903.641537 -629.0975 
L 901.962543 -629.0975 
L 900.283549 -629.0975 
L 898.604554 -629.0975 
L 896.92556 -629.0975 
L 895.246566 -629.0975 
L 893.567571 -629.0975 
L 891.888577 -629.0975 
L 890.209583 -629.0975 
L 888.530588 -629.0975 
L 886.851594 -629.0975 
L 885.1726 -629.0975 
L 883.493605 -629.0975 
L 881.814611 -629.0975 
L 880.135617 -629.0975 
L 878.456622 -629.0975 
L 876.777628 -629.0975 
L 875.098633 -629.0975 
L 873.419639 -629.0975 
L 871.740645 -629.0975 
L 870.06165 -629.0975 
L 868.382656 -629.0975 
L 866.703662 -629.0975 
L 865.024667 -629.0975 
L 863.345673 -629.0975 
L 861.666679 -629.0975 
L 859.987684 -629.0975 
L 858.30869 -629.0975 
L 856.629696 -629.0975 
L 854.950701 -629.0975 
L 853.271707 -629.0975 
L 851.592713 -629.0975 
L 849.913718 -629.0975 
L 848.234724 -629.0975 
L 846.555729 -629.0975 
L 844.876735 -629.0975 
L 843.197741 -629.0975 
L 841.518746 -629.0975 
L 839.839752 -629.0975 
L 838.160758 -629.0975 
L 836.481763 -629.0975 
L 834.802769 -629.0975 
L 833.123775 -629.0975 
L 831.44478 -629.0975 
L 829.765786 -629.0975 
L 828.086792 -629.0975 
L 826.407797 -629.0975 
L 824.728803 -629.0975 
L 823.049809 -629.0975 
L 821.370814 -629.0975 
L 819.69182 -629.0975 
L 818.012825 -629.0975 
L 816.333831 -629.0975 
L 814.654837 -629.0975 
L 812.975842 -629.0975 
L 811.296848 -629.0975 
L 809.617854 -629.0975 
L 807.938859 -629.0975 
L 806.259865 -629.0975 
L 804.580871 -629.0975 
L 802.901876 -629.0975 
L 801.222882 -629.0975 
L 799.543888 -629.0975 
L 797.864893 -629.0975 
L 796.185899 -629.0975 
L 794.506905 -629.0975 
L 792.82791 -629.0975 
L 791.148916 -629.0975 
L 789.469921 -629.0975 
L 787.790927 -629.0975 
L 786.111933 -629.0975 
L 784.432938 -629.0975 
L 782.753944 -629.0975 
L 781.07495 -629.0975 
L 779.395955 -629.0975 
L 777.716961 -629.0975 
L 776.037967 -629.0975 
L 774.358972 -629.0975 
L 772.679978 -629.0975 
L 771.000984 -629.0975 
L 769.321989 -629.0975 
L 767.642995 -629.0975 
L 765.964001 -629.0975 
L 764.285006 -629.0975 
L 762.606012 -629.0975 
L 760.927018 -629.0975 
L 759.248023 -629.0975 
L 757.569029 -629.0975 
L 755.890034 -629.0975 
L 754.21104 -629.0975 
L 752.532046 -629.0975 
L 750.853051 -629.0975 
L 749.174057 -629.0975 
L 747.495063 -629.0975 
L 745.816068 -629.0975 
L 744.137074 -629.0975 
L 742.45808 -629.0975 
L 740.779085 -629.0975 
L 739.100091 -629.0975 
L 737.421097 -629.0975 
L 735.742102 -629.0975 
L 734.063108 -629.0975 
L 732.384114 -629.0975 
L 730.705119 -629.0975 
L 729.026125 -629.0975 
L 727.34713 -629.0975 
L 725.668136 -629.0975 
L 723.989142 -629.0975 
L 722.310147 -629.0975 
L 720.631153 -629.0975 
L 718.952159 -629.0975 
L 717.273164 -629.0975 
L 715.59417 -629.0975 
L 713.915176 -629.0975 
L 712.236181 -629.0975 
L 710.557187 -629.0975 
L 708.878193 -629.0975 
L 707.199198 -629.0975 
L 705.520204 -629.0975 
L 703.84121 -629.0975 
L 702.162215 -629.0975 
L 700.483221 -629.0975 
L 698.804226 -629.0975 
L 697.125232 -629.0975 
L 695.446238 -629.0975 
L 693.767243 -629.0975 
L 692.088249 -629.0975 
L 690.409255 -629.0975 
L 688.73026 -629.0975 
L 687.051266 -629.0975 
L 685.372272 -629.0975 
L 683.693277 -629.0975 
L 682.014283 -629.0975 
L 680.335289 -629.0975 
L 678.656294 -629.0975 
L 676.9773 -629.0975 
L 675.298306 -629.0975 
L 673.619311 -629.0975 
L 671.940317 -629.0975 
L 670.261322 -629.0975 
L 668.582328 -629.0975 
L 666.903334 -629.0975 
L 665.224339 -629.0975 
L 663.545345 -629.0975 
L 661.866351 -629.0975 
L 660.187356 -629.0975 
L 658.508362 -629.0975 
L 656.829368 -629.0975 
L 655.150373 -629.0975 
L 653.471379 -629.0975 
L 651.792385 -629.0975 
L 650.11339 -629.0975 
L 648.434396 -629.0975 
L 646.755402 -629.0975 
L 645.076407 -629.0975 
L 643.397413 -629.0975 
L 641.718418 -629.0975 
L 640.039424 -629.0975 
L 638.36043 -629.0975 
L 636.681435 -629.0975 
L 635.002441 -629.0975 
L 633.323447 -629.0975 
L 631.644452 -629.0975 
L 629.965458 -629.0975 
L 628.286464 -629.0975 
L 626.607469 -629.0975 
L 624.928475 -629.0975 
L 623.249481 -629.0975 
L 621.570486 -629.0975 
L 619.891492 -629.0975 
L 618.212498 -629.0975 
L 616.533503 -629.0975 
L 614.854509 -629.0975 
L 613.175514 -629.0975 
L 611.49652 -629.0975 
L 609.817526 -629.0975 
L 608.138531 -629.0975 
L 606.459537 -629.0975 
L 604.780543 -629.0975 
L 603.101548 -629.0975 
L 601.422554 -629.0975 
L 599.74356 -629.0975 
L 598.064565 -629.0975 
L 596.385571 -629.0975 
L 594.706577 -629.0975 
L 593.027582 -629.0975 
L 591.348588 -629.0975 
L 589.669594 -629.0975 
L 587.990599 -629.0975 
L 586.311605 -629.0975 
L 584.632611 -629.0975 
L 582.953616 -629.0975 
L 581.274622 -629.0975 
L 579.595627 -629.0975 
L 577.916633 -629.0975 
L 576.237639 -629.0975 
L 574.558644 -629.0975 
L 572.87965 -629.0975 
L 571.200656 -629.0975 
L 569.521661 -629.0975 
L 567.842667 -629.0975 
L 566.163673 -629.0975 
L 564.484678 -629.0975 
L 562.805684 -629.0975 
L 561.12669 -629.0975 
L 559.447695 -629.0975 
L 557.768701 -629.0975 
L 556.089707 -629.0975 
L 554.410712 -629.0975 
L 552.731718 -629.0975 
L 551.052723 -629.0975 
L 549.373729 -629.0975 
L 547.694735 -629.0975 
L 546.01574 -629.0975 
L 544.336746 -629.0975 
L 542.657752 -629.0975 
L 540.978757 -629.0975 
L 539.299763 -629.0975 
L 537.620769 -629.0975 
L 535.941774 -629.0975 
L 534.26278 -629.0975 
L 532.583786 -629.0975 
L 530.904791 -629.0975 
L 529.225797 -629.0975 
L 527.546803 -629.0975 
L 525.867808 -629.0975 
L 524.188814 -629.0975 
L 522.509819 -629.0975 
L 520.830825 -629.0975 
L 519.151831 -629.0975 
L 517.472836 -629.0975 
L 515.793842 -629.0975 
L 514.114848 -629.0975 
L 512.435853 -629.0975 
L 510.756859 -629.0975 
L 509.077865 -629.0975 
L 507.39887 -629.0975 
L 505.719876 -629.0975 
L 504.040882 -629.0975 
L 502.361887 -629.0975 
L 500.682893 -629.0975 
L 499.003899 -629.0975 
L 497.324904 -629.0975 
L 495.64591 -629.0975 
L 493.966915 -629.0975 
L 492.287921 -629.0975 
L 490.608927 -629.0975 
L 488.929932 -629.0975 
L 487.250938 -629.0975 
L 485.571944 -629.0975 
L 483.892949 -629.0975 
L 482.213955 -629.0975 
L 480.534961 -629.0975 
L 478.855966 -629.0975 
L 477.176972 -629.0975 
L 475.497978 -629.0975 
L 473.818983 -629.0975 
L 472.139989 -629.0975 
L 470.460995 -629.0975 
L 468.782 -629.0975 
L 467.103006 -629.0975 
L 465.424011 -629.0975 
L 463.745017 -629.0975 
L 462.066023 -629.0975 
L 460.387028 -629.0975 
L 458.708034 -629.0975 
L 457.02904 -629.0975 
L 455.350045 -629.0975 
L 453.671051 -629.0975 
L 451.992057 -629.0975 
L 450.313062 -629.0975 
L 448.634068 -629.0975 
L 446.955074 -629.0975 
L 445.276079 -629.0975 
L 443.597085 -629.0975 
L 441.918091 -629.0975 
L 440.239096 -629.0975 
L 438.560102 -629.0975 
L 436.881107 -629.0975 
L 435.202113 -629.0975 
L 433.523119 -629.0975 
L 431.844124 -629.0975 
L 430.16513 -629.0975 
L 428.486136 -629.0975 
L 426.807141 -629.0975 
L 425.128147 -629.0975 
L 423.449153 -629.0975 
L 421.770158 -629.0975 
L 420.091164 -629.0975 
L 418.41217 -629.0975 
L 416.733175 -629.0975 
L 415.054181 -629.0975 
L 413.375187 -629.0975 
L 411.696192 -629.0975 
L 410.017198 -629.0975 
L 408.338204 -629.0975 
L 406.659209 -629.0975 
L 404.980215 -629.0975 
L 403.30122 -629.0975 
L 401.622226 -629.0975 
L 399.943232 -629.0975 
L 398.264237 -629.0975 
L 396.585243 -629.0975 
L 394.906249 -629.0975 
L 393.227254 -629.0975 
L 391.54826 -629.0975 
L 389.869266 -629.0975 
L 388.190271 -629.0975 
L 386.511277 -629.0975 
L 384.832283 -629.0975 
L 383.153288 -629.0975 
L 381.474294 -629.0975 
L 379.7953 -629.0975 
L 378.116305 -629.0975 
L 376.437311 -629.0975 
L 374.758316 -629.0975 
L 373.079322 -629.0975 
L 371.400328 -629.0975 
L 369.721333 -629.0975 
L 368.042339 -629.0975 
L 366.363345 -629.0975 
L 364.68435 -629.0975 
L 363.005356 -629.0975 
L 361.326362 -629.0975 
L 359.647367 -629.0975 
L 357.968373 -629.0975 
L 356.289379 -629.0975 
L 354.610384 -629.0975 
L 352.93139 -629.0975 
L 351.252396 -629.0975 
L 349.573401 -629.0975 
L 347.894407 -629.0975 
L 346.215412 -629.0975 
L 344.536418 -629.0975 
L 342.857424 -629.0975 
L 341.178429 -629.0975 
L 339.499435 -629.0975 
L 337.820441 -629.0975 
L 336.141446 -629.0975 
L 334.462452 -629.0975 
L 332.783458 -629.0975 
L 331.104463 -629.0975 
L 329.425469 -629.0975 
L 327.746475 -629.0975 
L 326.06748 -629.0975 
L 324.388486 -629.0975 
L 322.709492 -629.0975 
L 321.030497 -629.0975 
L 319.351503 -629.0975 
L 317.672508 -629.0975 
L 315.993514 -629.0975 
L 314.31452 -629.0975 
L 312.635525 -629.0975 
L 310.956531 -629.0975 
L 309.277537 -629.0975 
L 307.598542 -629.0975 
L 305.919548 -629.0975 
L 304.240554 -629.0975 
L 302.561559 -629.0975 
L 300.882565 -629.0975 
L 299.203571 -629.0975 
L 297.524576 -629.0975 
L 295.845582 -629.0975 
L 294.166588 -629.0975 
L 292.487593 -629.0975 
L 290.808599 -629.0975 
L 289.129604 -629.0975 
L 287.45061 -629.0975 
L 285.771616 -629.0975 
L 284.092621 -629.0975 
L 282.413627 -629.0975 
L 280.734633 -629.0975 
L 279.055638 -629.0975 
L 277.376644 -629.0975 
L 275.69765 -629.0975 
L 274.018655 -629.0975 
L 272.339661 -629.0975 
L 270.660667 -629.0975 
L 268.981672 -629.0975 
L 267.302678 -629.0975 
L 265.623684 -629.0975 
L 263.944689 -629.0975 
L 262.265695 -629.0975 
L 260.586701 -629.0975 
L 258.907706 -629.0975 
L 257.228712 -629.0975 
L 255.549717 -629.0975 
L 253.870723 -629.0975 
L 252.191729 -629.0975 
L 250.512734 -629.0975 
L 248.83374 -629.0975 
L 247.154746 -629.0975 
L 245.475751 -629.0975 
L 243.796757 -629.0975 
L 242.117763 -629.0975 
L 240.438768 -629.0975 
L 238.759774 -629.0975 
L 237.08078 -629.0975 
L 235.401785 -629.0975 
L 233.722791 -629.0975 
L 232.043797 -629.0975 
L 230.364802 -629.0975 
L 228.685808 -629.0975 
L 227.006813 -629.0975 
L 225.327819 -629.0975 
L 223.648825 -629.0975 
L 221.96983 -629.0975 
L 220.290836 -629.0975 
L 218.611842 -629.0975 
L 216.932847 -629.0975 
L 215.253853 -629.0975 
L 213.574859 -629.0975 
L 211.895864 -629.0975 
L 210.21687 -629.0975 
L 208.537876 -629.0975 
L 206.858881 -629.0975 
L 205.179887 -629.0975 
L 203.500893 -629.0975 
L 201.821898 -629.0975 
L 200.142904 -629.0975 
L 198.463909 -629.0975 
L 196.784915 -629.0975 
L 195.105921 -629.0975 
L 193.426926 -629.0975 
L 191.747932 -629.0975 
L 190.068938 -629.0975 
L 188.389943 -629.0975 
L 186.710949 -629.0975 
L 185.031955 -629.0975 
L 183.35296 -629.0975 
L 181.673966 -629.0975 
L 179.994972 -629.0975 
z
" style="stroke: #ff8c36; stroke-opacity: 0.3"/>
    </defs>
    <g clip-path="url(#p1bbccb1c75)">
     <use xlink:href="#mf969810c4c" x="0" y="661.4975" style="fill: #ff8c36; fill-opacity: 0.3; stroke: #ff8c36; stroke-opacity: 0.3"/>
    </g>
   </g>
   <g id="matplotlib.axis_1">
    <g id="xtick_1">
     <g id="line2d_1">
      <path d="M 179.994972 561.6 
L 179.994972 7.2 
" clip-path="url(#p1bbccb1c75)" style="fill: none; stroke: #9ea388; stroke-opacity: 0.3; stroke-width: 2; stroke-linecap: square"/>
     </g>
     <g id="line2d_2">
      <defs>
       <path id="m39871dc733" d="M 0 0 
L 0 10 
" style="stroke: #405ab9; stroke-width: 4"/>
      </defs>
      <g>
       <use xlink:href="#m39871dc733" x="179.994972" y="561.6" style="fill: #405ab9; stroke: #405ab9; stroke-width: 4"/>
      </g>
     </g>
     <g id="text_1">
      <!-- 0.0 -->
      <g style="fill: #405ab9" transform="translate(159.320909 594.855937)scale(0.26 -0.26)">
       <defs>
        <path id="DejaVuSans-30" d="M 2034 4250 
Q 1547 4250 1301 3770 
Q 1056 3291 1056 2328 
Q 1056 1369 1301 889 
Q 1547 409 2034 409 
Q 2525 409 2770 889 
Q 3016 1369 3016 2328 
Q 3016 3291 2770 3770 
Q 2525 4250 2034 4250 
z
M 2034 4750 
Q 2819 4750 3233 4129 
Q 3647 3509 3647 2328 
Q 3647 1150 3233 529 
Q 2819 -91 2034 -91 
Q 1250 -91 836 529 
Q 422 1150 422 2328 
Q 422 3509 836 4129 
Q 1250 4750 2034 4750 
z
" transform="scale(0.015625)"/>
        <path id="DejaVuSans-2e" d="M 684 794 
L 1344 794 
L 1344 0 
L 684 0 
L 684 794 
z
" transform="scale(0.015625)"/>
       </defs>
       <use xlink:href="#DejaVuSans-30"/>
       <use xlink:href="#DejaVuSans-2e" x="63.623047"/>
       <use xlink:href="#DejaVuSans-30" x="95.410156"/>
      </g>
     </g>
    </g>
    <g id="xtick_2">
     <g id="line2d_3">
      <path d="M 319.631335 561.6 
L 319.631335 7.2 
" clip-path="url(#p1bbccb1c75)" style="fill: none; stroke: #9ea388; stroke-opacity: 0.3; stroke-width: 2; stroke-linecap: square"/>
     </g>
     <g id="line2d_4">
      <g>
       <use xlink:href="#m39871dc733" x="319.631335" y="561.6" style="fill: #405ab9; stroke: #405ab9; stroke-width: 4"/>
      </g>
     </g>
     <g id="text_2">
      <!-- 0.2 -->
      <g style="fill: #405ab9" transform="translate(298.957273 594.855937)scale(0.26 -0.26)">
       <defs>
        <path id="DejaVuSans-32" d="M 1228 531 
L 3431 531 
L 3431 0 
L 469 0 
L 469 531 
Q 828 903 1448 1529 
Q 2069 2156 2228 2338 
Q 2531 2678 2651 2914 
Q 2772 3150 2772 3378 
Q 2772 3750 2511 3984 
Q 2250 4219 1831 4219 
Q 1534 4219 1204 4116 
Q 875 4013 500 3803 
L 500 4441 
Q 881 4594 1212 4672 
Q 1544 4750 1819 4750 
Q 2544 4750 2975 4387 
Q 3406 4025 3406 3419 
Q 3406 3131 3298 2873 
Q 3191 2616 2906 2266 
Q 2828 2175 2409 1742 
Q 1991 1309 1228 531 
z
" transform="scale(0.015625)"/>
       </defs>
       <use xlink:href="#DejaVuSans-30"/>
       <use xlink:href="#DejaVuSans-2e" x="63.623047"/>
       <use xlink:href="#DejaVuSans-32" x="95.410156"/>
      </g>
     </g>
    </g>
    <g id="xtick_3">
     <g id="line2d_5">
      <path d="M 459.267699 561.6 
L 459.267699 7.2 
" clip-path="url(#p1bbccb1c75)" style="fill: none; stroke: #9ea388; stroke-opacity: 0.3; stroke-width: 2; stroke-linecap: square"/>
     </g>
     <g id="line2d_6">
      <g>
       <use xlink:href="#m39871dc733" x="459.267699" y="561.6" style="fill: #405ab9; stroke: #405ab9; stroke-width: 4"/>
      </g>
     </g>
     <g id="text_3">
      <!-- 0.4 -->
      <g style="fill: #405ab9" transform="translate(438.593636 594.855937)scale(0.26 -0.26)">
       <defs>
        <path id="DejaVuSans-34" d="M 2419 4116 
L 825 1625 
L 2419 1625 
L 2419 4116 
z
M 2253 4666 
L 3047 4666 
L 3047 1625 
L 3713 1625 
L 3713 1100 
L 3047 1100 
L 3047 0 
L 2419 0 
L 2419 1100 
L 313 1100 
L 313 1709 
L 2253 4666 
z
" transform="scale(0.015625)"/>
       </defs>
       <use xlink:href="#DejaVuSans-30"/>
       <use xlink:href="#DejaVuSans-2e" x="63.623047"/>
       <use xlink:href="#DejaVuSans-34" x="95.410156"/>
      </g>
     </g>
    </g>
    <g id="xtick_4">
     <g id="line2d_7">
      <path d="M 598.904063 561.6 
L 598.904063 7.2 
" clip-path="url(#p1bbccb1c75)" style="fill: none; stroke: #9ea388; stroke-opacity: 0.3; stroke-width: 2; stroke-linecap: square"/>
     </g>
     <g id="line2d_8">
      <g>
       <use xlink:href="#m39871dc733" x="598.904063" y="561.6" style="fill: #405ab9; stroke: #405ab9; stroke-width: 4"/>
      </g>
     </g>
     <g id="text_4">
      <!-- 0.6 -->
      <g style="fill: #405ab9" transform="translate(578.23 594.855937)scale(0.26 -0.26)">
       <defs>
        <path id="DejaVuSans-36" d="M 2113 2584 
Q 1688 2584 1439 2293 
Q 1191 2003 1191 1497 
Q 1191 994 1439 701 
Q 1688 409 2113 409 
Q 2538 409 2786 701 
Q 3034 994 3034 1497 
Q 3034 2003 2786 2293 
Q 2538 2584 2113 2584 
z
M 3366 4563 
L 3366 3988 
Q 3128 4100 2886 4159 
Q 2644 4219 2406 4219 
Q 1781 4219 1451 3797 
Q 1122 3375 1075 2522 
Q 1259 2794 1537 2939 
Q 1816 3084 2150 3084 
Q 2853 3084 3261 2657 
Q 3669 2231 3669 1497 
Q 3669 778 3244 343 
Q 2819 -91 2113 -91 
Q 1303 -91 875 529 
Q 447 1150 447 2328 
Q 447 3434 972 4092 
Q 1497 4750 2381 4750 
Q 2619 4750 2861 4703 
Q 3103 4656 3366 4563 
z
" transform="scale(0.015625)"/>
       </defs>
       <use xlink:href="#DejaVuSans-30"/>
       <use xlink:href="#DejaVuSans-2e" x="63.623047"/>
       <use xlink:href="#DejaVuSans-36" x="95.410156"/>
      </g>
     </g>
    </g>
    <g id="xtick_5">
     <g id="line2d_9">
      <path d="M 738.540426 561.6 
L 738.540426 7.2 
" clip-path="url(#p1bbccb1c75)" style="fill: none; stroke: #9ea388; stroke-opacity: 0.3; stroke-width: 2; stroke-linecap: square"/>
     </g>
     <g id="line2d_10">
      <g>
       <use xlink:href="#m39871dc733" x="738.540426" y="561.6" style="fill: #405ab9; stroke: #405ab9; stroke-width: 4"/>
      </g>
     </g>
     <g id="text_5">
      <!-- 0.8 -->
      <g style="fill: #405ab9" transform="translate(717.866364 594.855937)scale(0.26 -0.26)">
       <defs>
        <path id="DejaVuSans-38" d="M 2034 2216 
Q 1584 2216 1326 1975 
Q 1069 1734 1069 1313 
Q 1069 891 1326 650 
Q 1584 409 2034 409 
Q 2484 409 2743 651 
Q 3003 894 3003 1313 
Q 3003 1734 2745 1975 
Q 2488 2216 2034 2216 
z
M 1403 2484 
Q 997 2584 770 2862 
Q 544 3141 544 3541 
Q 544 4100 942 4425 
Q 1341 4750 2034 4750 
Q 2731 4750 3128 4425 
Q 3525 4100 3525 3541 
Q 3525 3141 3298 2862 
Q 3072 2584 2669 2484 
Q 3125 2378 3379 2068 
Q 3634 1759 3634 1313 
Q 3634 634 3220 271 
Q 2806 -91 2034 -91 
Q 1263 -91 848 271 
Q 434 634 434 1313 
Q 434 1759 690 2068 
Q 947 2378 1403 2484 
z
M 1172 3481 
Q 1172 3119 1398 2916 
Q 1625 2713 2034 2713 
Q 2441 2713 2670 2916 
Q 2900 3119 2900 3481 
Q 2900 3844 2670 4047 
Q 2441 4250 2034 4250 
Q 1625 4250 1398 4047 
Q 1172 3844 1172 3481 
z
" transform="scale(0.015625)"/>
       </defs>
       <use xlink:href="#DejaVuSans-30"/>
       <use xlink:href="#DejaVuSans-2e" x="63.623047"/>
       <use xlink:href="#DejaVuSans-38" x="95.410156"/>
      </g>
     </g>
    </g>
    <g id="xtick_6">
     <g id="line2d_11">
      <path d="M 878.17679 561.6 
L 878.17679 7.2 
" clip-path="url(#p1bbccb1c75)" style="fill: none; stroke: #9ea388; stroke-opacity: 0.3; stroke-width: 2; stroke-linecap: square"/>
     </g>
     <g id="line2d_12">
      <g>
       <use xlink:href="#m39871dc733" x="878.17679" y="561.6" style="fill: #405ab9; stroke: #405ab9; stroke-width: 4"/>
      </g>
     </g>
     <g id="text_6">
      <!-- 1.0 -->
      <g style="fill: #405ab9" transform="translate(857.502727 594.855937)scale(0.26 -0.26)">
       <defs>
        <path id="DejaVuSans-31" d="M 794 531 
L 1825 531 
L 1825 4091 
L 703 3866 
L 703 4441 
L 1819 4666 
L 2450 4666 
L 2450 531 
L 3481 531 
L 3481 0 
L 794 0 
L 794 531 
z
" transform="scale(0.015625)"/>
       </defs>
       <use xlink:href="#DejaVuSans-31"/>
       <use xlink:href="#DejaVuSans-2e" x="63.623047"/>
       <use xlink:href="#DejaVuSans-30" x="95.410156"/>
      </g>
     </g>
    </g>
    <g id="xtick_7">
     <g id="line2d_13">
      <path d="M 1017.813153 561.6 
L 1017.813153 7.2 
" clip-path="url(#p1bbccb1c75)" style="fill: none; stroke: #9ea388; stroke-opacity: 0.3; stroke-width: 2; stroke-linecap: square"/>
     </g>
     <g id="line2d_14">
      <g>
       <use xlink:href="#m39871dc733" x="1017.813153" y="561.6" style="fill: #405ab9; stroke: #405ab9; stroke-width: 4"/>
      </g>
     </g>
     <g id="text_7">
      <!-- 1.2 -->
      <g style="fill: #405ab9" transform="translate(997.139091 594.855937)scale(0.26 -0.26)">
       <use xlink:href="#DejaVuSans-31"/>
       <use xlink:href="#DejaVuSans-2e" x="63.623047"/>
       <use xlink:href="#DejaVuSans-32" x="95.410156"/>
      </g>
     </g>
    </g>
    <g id="text_8">
     <!-- Distance from Pin Joint (m) -->
     <g style="fill: #405ab9" transform="translate(369.568125 648.058437)scale(0.3 -0.3)">
      <defs>
       <path id="DejaVuSans-Bold-44" d="M 1791 3756 
L 1791 909 
L 2222 909 
Q 2959 909 3348 1275 
Q 3738 1641 3738 2338 
Q 3738 3031 3350 3393 
Q 2963 3756 2222 3756 
L 1791 3756 
z
M 588 4666 
L 1856 4666 
Q 2919 4666 3439 4514 
Q 3959 4363 4331 4000 
Q 4659 3684 4818 3271 
Q 4978 2859 4978 2338 
Q 4978 1809 4818 1395 
Q 4659 981 4331 666 
Q 3956 303 3431 151 
Q 2906 0 1856 0 
L 588 0 
L 588 4666 
z
" transform="scale(0.015625)"/>
       <path id="DejaVuSans-Bold-69" d="M 538 3500 
L 1656 3500 
L 1656 0 
L 538 0 
L 538 3500 
z
M 538 4863 
L 1656 4863 
L 1656 3950 
L 538 3950 
L 538 4863 
z
" transform="scale(0.015625)"/>
       <path id="DejaVuSans-Bold-73" d="M 3272 3391 
L 3272 2541 
Q 2913 2691 2578 2766 
Q 2244 2841 1947 2841 
Q 1628 2841 1473 2761 
Q 1319 2681 1319 2516 
Q 1319 2381 1436 2309 
Q 1553 2238 1856 2203 
L 2053 2175 
Q 2913 2066 3209 1816 
Q 3506 1566 3506 1031 
Q 3506 472 3093 190 
Q 2681 -91 1863 -91 
Q 1516 -91 1145 -36 
Q 775 19 384 128 
L 384 978 
Q 719 816 1070 734 
Q 1422 653 1784 653 
Q 2113 653 2278 743 
Q 2444 834 2444 1013 
Q 2444 1163 2330 1236 
Q 2216 1309 1875 1350 
L 1678 1375 
Q 931 1469 631 1722 
Q 331 1975 331 2491 
Q 331 3047 712 3315 
Q 1094 3584 1881 3584 
Q 2191 3584 2531 3537 
Q 2872 3491 3272 3391 
z
" transform="scale(0.015625)"/>
       <path id="DejaVuSans-Bold-74" d="M 1759 4494 
L 1759 3500 
L 2913 3500 
L 2913 2700 
L 1759 2700 
L 1759 1216 
Q 1759 972 1856 886 
Q 1953 800 2241 800 
L 2816 800 
L 2816 0 
L 1856 0 
Q 1194 0 917 276 
Q 641 553 641 1216 
L 641 2700 
L 84 2700 
L 84 3500 
L 641 3500 
L 641 4494 
L 1759 4494 
z
" transform="scale(0.015625)"/>
       <path id="DejaVuSans-Bold-61" d="M 2106 1575 
Q 1756 1575 1579 1456 
Q 1403 1338 1403 1106 
Q 1403 894 1545 773 
Q 1688 653 1941 653 
Q 2256 653 2472 879 
Q 2688 1106 2688 1447 
L 2688 1575 
L 2106 1575 
z
M 3816 1997 
L 3816 0 
L 2688 0 
L 2688 519 
Q 2463 200 2181 54 
Q 1900 -91 1497 -91 
Q 953 -91 614 226 
Q 275 544 275 1050 
Q 275 1666 698 1953 
Q 1122 2241 2028 2241 
L 2688 2241 
L 2688 2328 
Q 2688 2594 2478 2717 
Q 2269 2841 1825 2841 
Q 1466 2841 1156 2769 
Q 847 2697 581 2553 
L 581 3406 
Q 941 3494 1303 3539 
Q 1666 3584 2028 3584 
Q 2975 3584 3395 3211 
Q 3816 2838 3816 1997 
z
" transform="scale(0.015625)"/>
       <path id="DejaVuSans-Bold-6e" d="M 4056 2131 
L 4056 0 
L 2931 0 
L 2931 347 
L 2931 1631 
Q 2931 2084 2911 2256 
Q 2891 2428 2841 2509 
Q 2775 2619 2662 2680 
Q 2550 2741 2406 2741 
Q 2056 2741 1856 2470 
Q 1656 2200 1656 1722 
L 1656 0 
L 538 0 
L 538 3500 
L 1656 3500 
L 1656 2988 
Q 1909 3294 2193 3439 
Q 2478 3584 2822 3584 
Q 3428 3584 3742 3212 
Q 4056 2841 4056 2131 
z
" transform="scale(0.015625)"/>
       <path id="DejaVuSans-Bold-63" d="M 3366 3391 
L 3366 2478 
Q 3138 2634 2908 2709 
Q 2678 2784 2431 2784 
Q 1963 2784 1702 2511 
Q 1441 2238 1441 1747 
Q 1441 1256 1702 982 
Q 1963 709 2431 709 
Q 2694 709 2930 787 
Q 3166 866 3366 1019 
L 3366 103 
Q 3103 6 2833 -42 
Q 2563 -91 2291 -91 
Q 1344 -91 809 395 
Q 275 881 275 1747 
Q 275 2613 809 3098 
Q 1344 3584 2291 3584 
Q 2566 3584 2833 3536 
Q 3100 3488 3366 3391 
z
" transform="scale(0.015625)"/>
       <path id="DejaVuSans-Bold-65" d="M 4031 1759 
L 4031 1441 
L 1416 1441 
Q 1456 1047 1700 850 
Q 1944 653 2381 653 
Q 2734 653 3104 758 
Q 3475 863 3866 1075 
L 3866 213 
Q 3469 63 3072 -14 
Q 2675 -91 2278 -91 
Q 1328 -91 801 392 
Q 275 875 275 1747 
Q 275 2603 792 3093 
Q 1309 3584 2216 3584 
Q 3041 3584 3536 3087 
Q 4031 2591 4031 1759 
z
M 2881 2131 
Q 2881 2450 2695 2645 
Q 2509 2841 2209 2841 
Q 1884 2841 1681 2658 
Q 1478 2475 1428 2131 
L 2881 2131 
z
" transform="scale(0.015625)"/>
       <path id="DejaVuSans-Bold-20" transform="scale(0.015625)"/>
       <path id="DejaVuSans-Bold-66" d="M 2841 4863 
L 2841 4128 
L 2222 4128 
Q 1984 4128 1890 4042 
Q 1797 3956 1797 3744 
L 1797 3500 
L 2753 3500 
L 2753 2700 
L 1797 2700 
L 1797 0 
L 678 0 
L 678 2700 
L 122 2700 
L 122 3500 
L 678 3500 
L 678 3744 
Q 678 4316 997 4589 
Q 1316 4863 1984 4863 
L 2841 4863 
z
" transform="scale(0.015625)"/>
       <path id="DejaVuSans-Bold-72" d="M 3138 2547 
Q 2991 2616 2845 2648 
Q 2700 2681 2553 2681 
Q 2122 2681 1889 2404 
Q 1656 2128 1656 1613 
L 1656 0 
L 538 0 
L 538 3500 
L 1656 3500 
L 1656 2925 
Q 1872 3269 2151 3426 
Q 2431 3584 2822 3584 
Q 2878 3584 2943 3579 
Q 3009 3575 3134 3559 
L 3138 2547 
z
" transform="scale(0.015625)"/>
       <path id="DejaVuSans-Bold-6f" d="M 2203 2784 
Q 1831 2784 1636 2517 
Q 1441 2250 1441 1747 
Q 1441 1244 1636 976 
Q 1831 709 2203 709 
Q 2569 709 2762 976 
Q 2956 1244 2956 1747 
Q 2956 2250 2762 2517 
Q 2569 2784 2203 2784 
z
M 2203 3584 
Q 3106 3584 3614 3096 
Q 4122 2609 4122 1747 
Q 4122 884 3614 396 
Q 3106 -91 2203 -91 
Q 1297 -91 786 396 
Q 275 884 275 1747 
Q 275 2609 786 3096 
Q 1297 3584 2203 3584 
z
" transform="scale(0.015625)"/>
       <path id="DejaVuSans-Bold-6d" d="M 3781 2919 
Q 3994 3244 4286 3414 
Q 4578 3584 4928 3584 
Q 5531 3584 5847 3212 
Q 6163 2841 6163 2131 
L 6163 0 
L 5038 0 
L 5038 1825 
Q 5041 1866 5042 1909 
Q 5044 1953 5044 2034 
Q 5044 2406 4934 2573 
Q 4825 2741 4581 2741 
Q 4263 2741 4089 2478 
Q 3916 2216 3909 1719 
L 3909 0 
L 2784 0 
L 2784 1825 
Q 2784 2406 2684 2573 
Q 2584 2741 2328 2741 
Q 2006 2741 1831 2477 
Q 1656 2213 1656 1722 
L 1656 0 
L 531 0 
L 531 3500 
L 1656 3500 
L 1656 2988 
Q 1863 3284 2130 3434 
Q 2397 3584 2719 3584 
Q 3081 3584 3359 3409 
Q 3638 3234 3781 2919 
z
" transform="scale(0.015625)"/>
       <path id="DejaVuSans-Bold-50" d="M 588 4666 
L 2584 4666 
Q 3475 4666 3951 4270 
Q 4428 3875 4428 3144 
Q 4428 2409 3951 2014 
Q 3475 1619 2584 1619 
L 1791 1619 
L 1791 0 
L 588 0 
L 588 4666 
z
M 1791 3794 
L 1791 2491 
L 2456 2491 
Q 2806 2491 2997 2661 
Q 3188 2831 3188 3144 
Q 3188 3456 2997 3625 
Q 2806 3794 2456 3794 
L 1791 3794 
z
" transform="scale(0.015625)"/>
       <path id="DejaVuSans-Bold-4a" d="M 588 4666 
L 1791 4666 
L 1791 453 
Q 1791 -419 1317 -850 
Q 844 -1281 -116 -1281 
L -359 -1281 
L -359 -372 
L -172 -372 
Q 203 -372 395 -162 
Q 588 47 588 453 
L 588 4666 
z
" transform="scale(0.015625)"/>
       <path id="DejaVuSans-Bold-28" d="M 2413 -844 
L 1484 -844 
Q 1006 -72 778 623 
Q 550 1319 550 2003 
Q 550 2688 779 3389 
Q 1009 4091 1484 4856 
L 2413 4856 
Q 2013 4116 1813 3408 
Q 1613 2700 1613 2009 
Q 1613 1319 1811 609 
Q 2009 -100 2413 -844 
z
" transform="scale(0.015625)"/>
       <path id="DejaVuSans-Bold-29" d="M 513 -844 
Q 913 -100 1113 609 
Q 1313 1319 1313 2009 
Q 1313 2700 1113 3408 
Q 913 4116 513 4856 
L 1441 4856 
Q 1916 4091 2145 3389 
Q 2375 2688 2375 2003 
Q 2375 1319 2147 623 
Q 1919 -72 1441 -844 
L 513 -844 
z
" transform="scale(0.015625)"/>
      </defs>
      <use xlink:href="#DejaVuSans-Bold-44"/>
      <use xlink:href="#DejaVuSans-Bold-69" x="83.007812"/>
      <use xlink:href="#DejaVuSans-Bold-73" x="117.285156"/>
      <use xlink:href="#DejaVuSans-Bold-74" x="176.806641"/>
      <use xlink:href="#DejaVuSans-Bold-61" x="224.609375"/>
      <use xlink:href="#DejaVuSans-Bold-6e" x="292.089844"/>
      <use xlink:href="#DejaVuSans-Bold-63" x="363.28125"/>
      <use xlink:href="#DejaVuSans-Bold-65" x="422.558594"/>
      <use xlink:href="#DejaVuSans-Bold-20" x="490.380859"/>
      <use xlink:href="#DejaVuSans-Bold-66" x="525.195312"/>
      <use xlink:href="#DejaVuSans-Bold-72" x="568.701172"/>
      <use xlink:href="#DejaVuSans-Bold-6f" x="618.017578"/>
      <use xlink:href="#DejaVuSans-Bold-6d" x="686.71875"/>
      <use xlink:href="#DejaVuSans-Bold-20" x="790.917969"/>
      <use xlink:href="#DejaVuSans-Bold-50" x="825.732422"/>
      <use xlink:href="#DejaVuSans-Bold-69" x="899.023438"/>
      <use xlink:href="#DejaVuSans-Bold-6e" x="933.300781"/>
      <use xlink:href="#DejaVuSans-Bold-20" x="1004.492188"/>
      <use xlink:href="#DejaVuSans-Bold-4a" x="1039.306641"/>
      <use xlink:href="#DejaVuSans-Bold-6f" x="1076.513672"/>
      <use xlink:href="#DejaVuSans-Bold-69" x="1145.214844"/>
      <use xlink:href="#DejaVuSans-Bold-6e" x="1179.492188"/>
      <use xlink:href="#DejaVuSans-Bold-74" x="1250.683594"/>
      <use xlink:href="#DejaVuSans-Bold-20" x="1298.486328"/>
      <use xlink:href="#DejaVuSans-Bold-28" x="1333.300781"/>
      <use xlink:href="#DejaVuSans-Bold-6d" x="1379.003906"/>
      <use xlink:href="#DejaVuSans-Bold-29" x="1483.203125"/>
     </g>
    </g>
   </g>
   <g id="matplotlib.axis_2">
    <g id="ytick_1">
     <g id="line2d_15">
      <path d="M 138.104062 522.4 
L 1059.704062 522.4 
" clip-path="url(#p1bbccb1c75)" style="fill: none; stroke: #9ea388; stroke-opacity: 0.3; stroke-width: 2; stroke-linecap: square"/>
     </g>
     <g id="line2d_16">
      <defs>
       <path id="mcccd18bd5b" d="M 0 0 
L -10 0 
" style="stroke: #405ab9; stroke-width: 4"/>
      </defs>
      <g>
       <use xlink:href="#mcccd18bd5b" x="138.104062" y="522.4" style="fill: #405ab9; stroke: #405ab9; stroke-width: 4"/>
      </g>
     </g>
     <g id="text_9">
      <!-- −0.7 -->
      <g style="fill: #405ab9" transform="translate(61.46875 532.277969)scale(0.26 -0.26)">
       <defs>
        <path id="DejaVuSans-2212" d="M 678 2272 
L 4684 2272 
L 4684 1741 
L 678 1741 
L 678 2272 
z
" transform="scale(0.015625)"/>
        <path id="DejaVuSans-37" d="M 525 4666 
L 3525 4666 
L 3525 4397 
L 1831 0 
L 1172 0 
L 2766 4134 
L 525 4134 
L 525 4666 
z
" transform="scale(0.015625)"/>
       </defs>
       <use xlink:href="#DejaVuSans-2212"/>
       <use xlink:href="#DejaVuSans-30" x="83.789062"/>
       <use xlink:href="#DejaVuSans-2e" x="147.412109"/>
       <use xlink:href="#DejaVuSans-37" x="179.199219"/>
      </g>
     </g>
    </g>
    <g id="ytick_2">
     <g id="line2d_17">
      <path d="M 138.104062 452.4 
L 1059.704062 452.4 
" clip-path="url(#p1bbccb1c75)" style="fill: none; stroke: #9ea388; stroke-opacity: 0.3; stroke-width: 2; stroke-linecap: square"/>
     </g>
     <g id="line2d_18">
      <g>
       <use xlink:href="#mcccd18bd5b" x="138.104062" y="452.4" style="fill: #405ab9; stroke: #405ab9; stroke-width: 4"/>
      </g>
     </g>
     <g id="text_10">
      <!-- −0.6 -->
      <g style="fill: #405ab9" transform="translate(61.46875 462.277969)scale(0.26 -0.26)">
       <use xlink:href="#DejaVuSans-2212"/>
       <use xlink:href="#DejaVuSans-30" x="83.789062"/>
       <use xlink:href="#DejaVuSans-2e" x="147.412109"/>
       <use xlink:href="#DejaVuSans-36" x="179.199219"/>
      </g>
     </g>
    </g>
    <g id="ytick_3">
     <g id="line2d_19">
      <path d="M 138.104062 382.4 
L 1059.704062 382.4 
" clip-path="url(#p1bbccb1c75)" style="fill: none; stroke: #9ea388; stroke-opacity: 0.3; stroke-width: 2; stroke-linecap: square"/>
     </g>
     <g id="line2d_20">
      <g>
       <use xlink:href="#mcccd18bd5b" x="138.104062" y="382.4" style="fill: #405ab9; stroke: #405ab9; stroke-width: 4"/>
      </g>
     </g>
     <g id="text_11">
      <!-- −0.5 -->
      <g style="fill: #405ab9" transform="translate(61.46875 392.277969)scale(0.26 -0.26)">
       <defs>
        <path id="DejaVuSans-35" d="M 691 4666 
L 3169 4666 
L 3169 4134 
L 1269 4134 
L 1269 2991 
Q 1406 3038 1543 3061 
Q 1681 3084 1819 3084 
Q 2600 3084 3056 2656 
Q 3513 2228 3513 1497 
Q 3513 744 3044 326 
Q 2575 -91 1722 -91 
Q 1428 -91 1123 -41 
Q 819 9 494 109 
L 494 744 
Q 775 591 1075 516 
Q 1375 441 1709 441 
Q 2250 441 2565 725 
Q 2881 1009 2881 1497 
Q 2881 1984 2565 2268 
Q 2250 2553 1709 2553 
Q 1456 2553 1204 2497 
Q 953 2441 691 2322 
L 691 4666 
z
" transform="scale(0.015625)"/>
       </defs>
       <use xlink:href="#DejaVuSans-2212"/>
       <use xlink:href="#DejaVuSans-30" x="83.789062"/>
       <use xlink:href="#DejaVuSans-2e" x="147.412109"/>
       <use xlink:href="#DejaVuSans-35" x="179.199219"/>
      </g>
     </g>
    </g>
    <g id="ytick_4">
     <g id="line2d_21">
      <path d="M 138.104062 312.4 
L 1059.704062 312.4 
" clip-path="url(#p1bbccb1c75)" style="fill: none; stroke: #9ea388; stroke-opacity: 0.3; stroke-width: 2; stroke-linecap: square"/>
     </g>
     <g id="line2d_22">
      <g>
       <use xlink:href="#mcccd18bd5b" x="138.104062" y="312.4" style="fill: #405ab9; stroke: #405ab9; stroke-width: 4"/>
      </g>
     </g>
     <g id="text_12">
      <!-- −0.4 -->
      <g style="fill: #405ab9" transform="translate(61.46875 322.277969)scale(0.26 -0.26)">
       <use xlink:href="#DejaVuSans-2212"/>
       <use xlink:href="#DejaVuSans-30" x="83.789062"/>
       <use xlink:href="#DejaVuSans-2e" x="147.412109"/>
       <use xlink:href="#DejaVuSans-34" x="179.199219"/>
      </g>
     </g>
    </g>
    <g id="ytick_5">
     <g id="line2d_23">
      <path d="M 138.104062 242.4 
L 1059.704062 242.4 
" clip-path="url(#p1bbccb1c75)" style="fill: none; stroke: #9ea388; stroke-opacity: 0.3; stroke-width: 2; stroke-linecap: square"/>
     </g>
     <g id="line2d_24">
      <g>
       <use xlink:href="#mcccd18bd5b" x="138.104062" y="242.4" style="fill: #405ab9; stroke: #405ab9; stroke-width: 4"/>
      </g>
     </g>
     <g id="text_13">
      <!-- −0.3 -->
      <g style="fill: #405ab9" transform="translate(61.46875 252.277969)scale(0.26 -0.26)">
       <defs>
        <path id="DejaVuSans-33" d="M 2597 2516 
Q 3050 2419 3304 2112 
Q 3559 1806 3559 1356 
Q 3559 666 3084 287 
Q 2609 -91 1734 -91 
Q 1441 -91 1130 -33 
Q 819 25 488 141 
L 488 750 
Q 750 597 1062 519 
Q 1375 441 1716 441 
Q 2309 441 2620 675 
Q 2931 909 2931 1356 
Q 2931 1769 2642 2001 
Q 2353 2234 1838 2234 
L 1294 2234 
L 1294 2753 
L 1863 2753 
Q 2328 2753 2575 2939 
Q 2822 3125 2822 3475 
Q 2822 3834 2567 4026 
Q 2313 4219 1838 4219 
Q 1578 4219 1281 4162 
Q 984 4106 628 3988 
L 628 4550 
Q 988 4650 1302 4700 
Q 1616 4750 1894 4750 
Q 2613 4750 3031 4423 
Q 3450 4097 3450 3541 
Q 3450 3153 3228 2886 
Q 3006 2619 2597 2516 
z
" transform="scale(0.015625)"/>
       </defs>
       <use xlink:href="#DejaVuSans-2212"/>
       <use xlink:href="#DejaVuSans-30" x="83.789062"/>
       <use xlink:href="#DejaVuSans-2e" x="147.412109"/>
       <use xlink:href="#DejaVuSans-33" x="179.199219"/>
      </g>
     </g>
    </g>
    <g id="ytick_6">
     <g id="line2d_25">
      <path d="M 138.104062 172.4 
L 1059.704062 172.4 
" clip-path="url(#p1bbccb1c75)" style="fill: none; stroke: #9ea388; stroke-opacity: 0.3; stroke-width: 2; stroke-linecap: square"/>
     </g>
     <g id="line2d_26">
      <g>
       <use xlink:href="#mcccd18bd5b" x="138.104062" y="172.4" style="fill: #405ab9; stroke: #405ab9; stroke-width: 4"/>
      </g>
     </g>
     <g id="text_14">
      <!-- −0.2 -->
      <g style="fill: #405ab9" transform="translate(61.46875 182.277969)scale(0.26 -0.26)">
       <use xlink:href="#DejaVuSans-2212"/>
       <use xlink:href="#DejaVuSans-30" x="83.789062"/>
       <use xlink:href="#DejaVuSans-2e" x="147.412109"/>
       <use xlink:href="#DejaVuSans-32" x="179.199219"/>
      </g>
     </g>
    </g>
    <g id="ytick_7">
     <g id="line2d_27">
      <path d="M 138.104062 102.4 
L 1059.704062 102.4 
" clip-path="url(#p1bbccb1c75)" style="fill: none; stroke: #9ea388; stroke-opacity: 0.3; stroke-width: 2; stroke-linecap: square"/>
     </g>
     <g id="line2d_28">
      <g>
       <use xlink:href="#mcccd18bd5b" x="138.104062" y="102.4" style="fill: #405ab9; stroke: #405ab9; stroke-width: 4"/>
      </g>
     </g>
     <g id="text_15">
      <!-- −0.1 -->
      <g style="fill: #405ab9" transform="translate(61.46875 112.277969)scale(0.26 -0.26)">
       <use xlink:href="#DejaVuSans-2212"/>
       <use xlink:href="#DejaVuSans-30" x="83.789062"/>
       <use xlink:href="#DejaVuSans-2e" x="147.412109"/>
       <use xlink:href="#DejaVuSans-31" x="179.199219"/>
      </g>
     </g>
    </g>
    <g id="ytick_8">
     <g id="line2d_29">
      <path d="M 138.104062 32.4 
L 1059.704062 32.4 
" clip-path="url(#p1bbccb1c75)" style="fill: none; stroke: #9ea388; stroke-opacity: 0.3; stroke-width: 2; stroke-linecap: square"/>
     </g>
     <g id="line2d_30">
      <g>
       <use xlink:href="#mcccd18bd5b" x="138.104062" y="32.4" style="fill: #405ab9; stroke: #405ab9; stroke-width: 4"/>
      </g>
     </g>
     <g id="text_16">
      <!-- 0.0 -->
      <g style="fill: #405ab9" transform="translate(83.255937 42.277969)scale(0.26 -0.26)">
       <use xlink:href="#DejaVuSans-30"/>
       <use xlink:href="#DejaVuSans-2e" x="63.623047"/>
       <use xlink:href="#DejaVuSans-30" x="95.410156"/>
      </g>
     </g>
    </g>
    <g id="text_17">
     <!-- Bending Moment (kN·m) -->
     <g style="fill: #405ab9" transform="translate(29.995312 490.875)rotate(-90)scale(0.3 -0.3)">
      <defs>
       <path id="DejaVuSans-Bold-42" d="M 2456 2859 
Q 2741 2859 2887 2984 
Q 3034 3109 3034 3353 
Q 3034 3594 2887 3720 
Q 2741 3847 2456 3847 
L 1791 3847 
L 1791 2859 
L 2456 2859 
z
M 2497 819 
Q 2859 819 3042 972 
Q 3225 1125 3225 1434 
Q 3225 1738 3044 1889 
Q 2863 2041 2497 2041 
L 1791 2041 
L 1791 819 
L 2497 819 
z
M 3616 2497 
Q 4003 2384 4215 2081 
Q 4428 1778 4428 1338 
Q 4428 663 3972 331 
Q 3516 0 2584 0 
L 588 0 
L 588 4666 
L 2394 4666 
Q 3366 4666 3802 4372 
Q 4238 4078 4238 3431 
Q 4238 3091 4078 2852 
Q 3919 2613 3616 2497 
z
" transform="scale(0.015625)"/>
       <path id="DejaVuSans-Bold-64" d="M 2919 2988 
L 2919 4863 
L 4044 4863 
L 4044 0 
L 2919 0 
L 2919 506 
Q 2688 197 2409 53 
Q 2131 -91 1766 -91 
Q 1119 -91 703 423 
Q 288 938 288 1747 
Q 288 2556 703 3070 
Q 1119 3584 1766 3584 
Q 2128 3584 2408 3439 
Q 2688 3294 2919 2988 
z
M 2181 722 
Q 2541 722 2730 984 
Q 2919 1247 2919 1747 
Q 2919 2247 2730 2509 
Q 2541 2772 2181 2772 
Q 1825 2772 1636 2509 
Q 1447 2247 1447 1747 
Q 1447 1247 1636 984 
Q 1825 722 2181 722 
z
" transform="scale(0.015625)"/>
       <path id="DejaVuSans-Bold-67" d="M 2919 594 
Q 2688 288 2409 144 
Q 2131 0 1766 0 
Q 1125 0 706 504 
Q 288 1009 288 1791 
Q 288 2575 706 3076 
Q 1125 3578 1766 3578 
Q 2131 3578 2409 3434 
Q 2688 3291 2919 2981 
L 2919 3500 
L 4044 3500 
L 4044 353 
Q 4044 -491 3511 -936 
Q 2978 -1381 1966 -1381 
Q 1638 -1381 1331 -1331 
Q 1025 -1281 716 -1178 
L 716 -306 
Q 1009 -475 1290 -558 
Q 1572 -641 1856 -641 
Q 2406 -641 2662 -400 
Q 2919 -159 2919 353 
L 2919 594 
z
M 2181 2772 
Q 1834 2772 1640 2515 
Q 1447 2259 1447 1791 
Q 1447 1309 1634 1061 
Q 1822 813 2181 813 
Q 2531 813 2725 1069 
Q 2919 1325 2919 1791 
Q 2919 2259 2725 2515 
Q 2531 2772 2181 2772 
z
" transform="scale(0.015625)"/>
       <path id="DejaVuSans-Bold-4d" d="M 588 4666 
L 2119 4666 
L 3181 2169 
L 4250 4666 
L 5778 4666 
L 5778 0 
L 4641 0 
L 4641 3413 
L 3566 897 
L 2803 897 
L 1728 3413 
L 1728 0 
L 588 0 
L 588 4666 
z
" transform="scale(0.015625)"/>
       <path id="DejaVuSans-Bold-6b" d="M 538 4863 
L 1656 4863 
L 1656 2216 
L 2944 3500 
L 4244 3500 
L 2534 1894 
L 4378 0 
L 3022 0 
L 1656 1459 
L 1656 0 
L 538 0 
L 538 4863 
z
" transform="scale(0.015625)"/>
       <path id="DejaVuSans-Bold-4e" d="M 588 4666 
L 1931 4666 
L 3628 1466 
L 3628 4666 
L 4769 4666 
L 4769 0 
L 3425 0 
L 1728 3200 
L 1728 0 
L 588 0 
L 588 4666 
z
" transform="scale(0.015625)"/>
       <path id="DejaVuSans-Bold-b7" d="M 653 2828 
L 1778 2828 
L 1778 1619 
L 653 1619 
L 653 2828 
z
" transform="scale(0.015625)"/>
      </defs>
      <use xlink:href="#DejaVuSans-Bold-42"/>
      <use xlink:href="#DejaVuSans-Bold-65" x="76.220703"/>
      <use xlink:href="#DejaVuSans-Bold-6e" x="144.042969"/>
      <use xlink:href="#DejaVuSans-Bold-64" x="215.234375"/>
      <use xlink:href="#DejaVuSans-Bold-69" x="286.816406"/>
      <use xlink:href="#DejaVuSans-Bold-6e" x="321.09375"/>
      <use xlink:href="#DejaVuSans-Bold-67" x="392.285156"/>
      <use xlink:href="#DejaVuSans-Bold-20" x="463.867188"/>
      <use xlink:href="#DejaVuSans-Bold-4d" x="498.681641"/>
      <use xlink:href="#DejaVuSans-Bold-6f" x="598.193359"/>
      <use xlink:href="#DejaVuSans-Bold-6d" x="666.894531"/>
      <use xlink:href="#DejaVuSans-Bold-65" x="771.09375"/>
      <use xlink:href="#DejaVuSans-Bold-6e" x="838.916016"/>
      <use xlink:href="#DejaVuSans-Bold-74" x="910.107422"/>
      <use xlink:href="#DejaVuSans-Bold-20" x="957.910156"/>
      <use xlink:href="#DejaVuSans-Bold-28" x="992.724609"/>
      <use xlink:href="#DejaVuSans-Bold-6b" x="1038.427734"/>
      <use xlink:href="#DejaVuSans-Bold-4e" x="1104.931641"/>
      <use xlink:href="#DejaVuSans-Bold-b7" x="1188.623047"/>
      <use xlink:href="#DejaVuSans-Bold-6d" x="1226.611328"/>
      <use xlink:href="#DejaVuSans-Bold-29" x="1330.810547"/>
     </g>
    </g>
   </g>
   <g id="line2d_31">
    <path d="M 179.994972 32.4 
L 388.190271 533.36994 
L 389.869266 536.063327 
L 1017.813153 32.4 
L 1017.813153 32.4 
" clip-path="url(#p1bbccb1c75)" style="fill: none; stroke: #405ab9; stroke-width: 4; stroke-linecap: square"/>
   </g>
   <g id="line2d_32">
    <path d="M 138.104062 32.4 
L 1059.704062 32.4 
" clip-path="url(#p1bbccb1c75)" style="fill: none; stroke: #405ab9; stroke-opacity: 0.8; stroke-width: 4; stroke-linecap: square"/>
   </g>
   <g id="line2d_33">
    <path d="M 179.994972 561.6 
L 179.994972 7.2 
" clip-path="url(#p1bbccb1c75)" style="fill: none; stroke-dasharray: 14.8,6.4; stroke-dashoffset: 0; stroke: #ff8c36; stroke-opacity: 0.6; stroke-width: 4"/>
   </g>
   <g id="line2d_34">
    <path d="M 389.449517 561.6 
L 389.449517 7.2 
" clip-path="url(#p1bbccb1c75)" style="fill: none; stroke-dasharray: 14.8,6.4; stroke-dashoffset: 0; stroke: #ff8c36; stroke-opacity: 0.6; stroke-width: 4"/>
   </g>
   <g id="line2d_35">
    <path d="M 1017.813153 561.6 
L 1017.813153 7.2 
" clip-path="url(#p1bbccb1c75)" style="fill: none; stroke-dasharray: 14.8,6.4; stroke-dashoffset: 0; stroke: #ff8c36; stroke-opacity: 0.6; stroke-width: 4"/>
   </g>
   <g id="patch_3">
    <path d="M 138.104062 561.6 
L 138.104062 7.2 
" style="fill: none; stroke: #405ab9; stroke-width: 4; stroke-linejoin: miter; stroke-linecap: square"/>
   </g>
   <g id="patch_4">
    <path d="M 138.104062 561.6 
L 1059.704062 561.6 
" style="fill: none; stroke: #405ab9; stroke-width: 4; stroke-linejoin: miter; stroke-linecap: square"/>
   </g>
   <g id="patch_5">
    <path d="M 216.151764 47.50889 
Q 198.998032 40.340836 183.907479 34.034925 
" style="fill: none; stroke: #405ab9; stroke-width: 2; stroke-linecap: round"/>
    <path d="M 191.498445 42.842719 
L 183.907479 34.034925 
L 195.508294 33.246828 
" style="fill: none; stroke: #405ab9; stroke-width: 2; stroke-linecap: round"/>
   </g>
   <g id="text_18">
    <!-- 0 kN·m -->
    <g style="fill: #405ab9" transform="translate(219.994972 63.285688)scale(0.26 -0.26)">
     <defs>
      <path id="DejaVuSans-Bold-30" d="M 2944 2338 
Q 2944 3213 2780 3570 
Q 2616 3928 2228 3928 
Q 1841 3928 1675 3570 
Q 1509 3213 1509 2338 
Q 1509 1453 1675 1090 
Q 1841 728 2228 728 
Q 2613 728 2778 1090 
Q 2944 1453 2944 2338 
z
M 4147 2328 
Q 4147 1169 3647 539 
Q 3147 -91 2228 -91 
Q 1306 -91 806 539 
Q 306 1169 306 2328 
Q 306 3491 806 4120 
Q 1306 4750 2228 4750 
Q 3147 4750 3647 4120 
Q 4147 3491 4147 2328 
z
" transform="scale(0.015625)"/>
     </defs>
     <use xlink:href="#DejaVuSans-Bold-30"/>
     <use xlink:href="#DejaVuSans-Bold-20" x="69.580078"/>
     <use xlink:href="#DejaVuSans-Bold-6b" x="104.394531"/>
     <use xlink:href="#DejaVuSans-Bold-4e" x="170.898438"/>
     <use xlink:href="#DejaVuSans-Bold-b7" x="254.589844"/>
     <use xlink:href="#DejaVuSans-Bold-6d" x="292.578125"/>
    </g>
    <!-- (Pin) -->
    <g style="fill: #405ab9" transform="translate(219.994972 92.4)scale(0.26 -0.26)">
     <use xlink:href="#DejaVuSans-Bold-28"/>
     <use xlink:href="#DejaVuSans-Bold-50" x="45.703125"/>
     <use xlink:href="#DejaVuSans-Bold-69" x="118.994141"/>
     <use xlink:href="#DejaVuSans-Bold-6e" x="153.271484"/>
     <use xlink:href="#DejaVuSans-Bold-29" x="224.462891"/>
    </g>
   </g>
   <g id="patch_6">
    <path d="M 435.454887 533.196824 
Q 413.450427 534.728909 393.676634 536.105682 
" style="fill: none; stroke: #405ab9; stroke-width: 2; stroke-linecap: round"/>
    <path d="M 404.412698 540.570761 
L 393.676634 536.105682 
L 403.690335 530.195878 
" style="fill: none; stroke: #405ab9; stroke-width: 2; stroke-linecap: round"/>
   </g>
   <g id="text_19">
    <!-- -0.72 kN·m -->
    <g style="fill: #405ab9" transform="translate(439.449517 517.285687)scale(0.26 -0.26)">
     <defs>
      <path id="DejaVuSans-Bold-2d" d="M 347 2297 
L 2309 2297 
L 2309 1388 
L 347 1388 
L 347 2297 
z
" transform="scale(0.015625)"/>
      <path id="DejaVuSans-Bold-2e" d="M 653 1209 
L 1778 1209 
L 1778 0 
L 653 0 
L 653 1209 
z
" transform="scale(0.015625)"/>
      <path id="DejaVuSans-Bold-37" d="M 428 4666 
L 3944 4666 
L 3944 3988 
L 2125 0 
L 953 0 
L 2675 3781 
L 428 3781 
L 428 4666 
z
" transform="scale(0.015625)"/>
      <path id="DejaVuSans-Bold-32" d="M 1844 884 
L 3897 884 
L 3897 0 
L 506 0 
L 506 884 
L 2209 2388 
Q 2438 2594 2547 2791 
Q 2656 2988 2656 3200 
Q 2656 3528 2436 3728 
Q 2216 3928 1850 3928 
Q 1569 3928 1234 3808 
Q 900 3688 519 3450 
L 519 4475 
Q 925 4609 1322 4679 
Q 1719 4750 2100 4750 
Q 2938 4750 3402 4381 
Q 3866 4013 3866 3353 
Q 3866 2972 3669 2642 
Q 3472 2313 2841 1759 
L 1844 884 
z
" transform="scale(0.015625)"/>
     </defs>
     <use xlink:href="#DejaVuSans-Bold-2d"/>
     <use xlink:href="#DejaVuSans-Bold-30" x="41.503906"/>
     <use xlink:href="#DejaVuSans-Bold-2e" x="111.083984"/>
     <use xlink:href="#DejaVuSans-Bold-37" x="149.072266"/>
     <use xlink:href="#DejaVuSans-Bold-32" x="218.652344"/>
     <use xlink:href="#DejaVuSans-Bold-20" x="288.232422"/>
     <use xlink:href="#DejaVuSans-Bold-6b" x="323.046875"/>
     <use xlink:href="#DejaVuSans-Bold-4e" x="389.550781"/>
     <use xlink:href="#DejaVuSans-Bold-b7" x="473.242188"/>
     <use xlink:href="#DejaVuSans-Bold-6d" x="511.230469"/>
    </g>
    <!-- (MAX at Spring) -->
    <g style="fill: #405ab9" transform="translate(439.449517 546.4)scale(0.26 -0.26)">
     <defs>
      <path id="DejaVuSans-Bold-41" d="M 3419 850 
L 1538 850 
L 1241 0 
L 31 0 
L 1759 4666 
L 3194 4666 
L 4922 0 
L 3713 0 
L 3419 850 
z
M 1838 1716 
L 3116 1716 
L 2478 3572 
L 1838 1716 
z
" transform="scale(0.015625)"/>
      <path id="DejaVuSans-Bold-58" d="M 3188 2381 
L 4806 0 
L 3553 0 
L 2463 1594 
L 1381 0 
L 122 0 
L 1741 2381 
L 184 4666 
L 1441 4666 
L 2463 3163 
L 3481 4666 
L 4744 4666 
L 3188 2381 
z
" transform="scale(0.015625)"/>
      <path id="DejaVuSans-Bold-53" d="M 3834 4519 
L 3834 3531 
Q 3450 3703 3084 3790 
Q 2719 3878 2394 3878 
Q 1963 3878 1756 3759 
Q 1550 3641 1550 3391 
Q 1550 3203 1689 3098 
Q 1828 2994 2194 2919 
L 2706 2816 
Q 3484 2659 3812 2340 
Q 4141 2022 4141 1434 
Q 4141 663 3683 286 
Q 3225 -91 2284 -91 
Q 1841 -91 1394 -6 
Q 947 78 500 244 
L 500 1259 
Q 947 1022 1364 901 
Q 1781 781 2169 781 
Q 2563 781 2772 912 
Q 2981 1044 2981 1288 
Q 2981 1506 2839 1625 
Q 2697 1744 2272 1838 
L 1806 1941 
Q 1106 2091 782 2419 
Q 459 2747 459 3303 
Q 459 4000 909 4375 
Q 1359 4750 2203 4750 
Q 2588 4750 2994 4692 
Q 3400 4634 3834 4519 
z
" transform="scale(0.015625)"/>
      <path id="DejaVuSans-Bold-70" d="M 1656 506 
L 1656 -1331 
L 538 -1331 
L 538 3500 
L 1656 3500 
L 1656 2988 
Q 1888 3294 2169 3439 
Q 2450 3584 2816 3584 
Q 3463 3584 3878 3070 
Q 4294 2556 4294 1747 
Q 4294 938 3878 423 
Q 3463 -91 2816 -91 
Q 2450 -91 2169 54 
Q 1888 200 1656 506 
z
M 2400 2772 
Q 2041 2772 1848 2508 
Q 1656 2244 1656 1747 
Q 1656 1250 1848 986 
Q 2041 722 2400 722 
Q 2759 722 2948 984 
Q 3138 1247 3138 1747 
Q 3138 2247 2948 2509 
Q 2759 2772 2400 2772 
z
" transform="scale(0.015625)"/>
     </defs>
     <use xlink:href="#DejaVuSans-Bold-28"/>
     <use xlink:href="#DejaVuSans-Bold-4d" x="45.703125"/>
     <use xlink:href="#DejaVuSans-Bold-41" x="145.214844"/>
     <use xlink:href="#DejaVuSans-Bold-58" x="222.607422"/>
     <use xlink:href="#DejaVuSans-Bold-20" x="299.707031"/>
     <use xlink:href="#DejaVuSans-Bold-61" x="334.521484"/>
     <use xlink:href="#DejaVuSans-Bold-74" x="402.001953"/>
     <use xlink:href="#DejaVuSans-Bold-20" x="449.804688"/>
     <use xlink:href="#DejaVuSans-Bold-53" x="484.619141"/>
     <use xlink:href="#DejaVuSans-Bold-70" x="556.640625"/>
     <use xlink:href="#DejaVuSans-Bold-72" x="628.222656"/>
     <use xlink:href="#DejaVuSans-Bold-69" x="677.539062"/>
     <use xlink:href="#DejaVuSans-Bold-6e" x="711.816406"/>
     <use xlink:href="#DejaVuSans-Bold-67" x="783.007812"/>
     <use xlink:href="#DejaVuSans-Bold-29" x="854.589844"/>
    </g>
   </g>
   <g id="patch_7">
    <path d="M 676.166265 395.972705 
Q 638.477127 382.522512 602.893969 369.823885 
" style="fill: none; stroke: #405ab9; stroke-width: 2; stroke-linecap: round"/>
    <path d="M 610.941153 378.216907 
L 602.893969 369.823885 
L 614.436697 368.421951 
" style="fill: none; stroke: #405ab9; stroke-width: 2; stroke-linecap: round"/>
   </g>
   <g id="text_20">
    <!-- -0.48 kN·m -->
    <g style="fill: #405ab9" transform="translate(638.904063 418.4)scale(0.26 -0.26)">
     <defs>
      <path id="DejaVuSans-Bold-34" d="M 2356 3675 
L 1038 1722 
L 2356 1722 
L 2356 3675 
z
M 2156 4666 
L 3494 4666 
L 3494 1722 
L 4159 1722 
L 4159 850 
L 3494 850 
L 3494 0 
L 2356 0 
L 2356 850 
L 288 850 
L 288 1881 
L 2156 4666 
z
" transform="scale(0.015625)"/>
      <path id="DejaVuSans-Bold-38" d="M 2228 2088 
Q 1891 2088 1709 1903 
Q 1528 1719 1528 1375 
Q 1528 1031 1709 848 
Q 1891 666 2228 666 
Q 2563 666 2741 848 
Q 2919 1031 2919 1375 
Q 2919 1722 2741 1905 
Q 2563 2088 2228 2088 
z
M 1350 2484 
Q 925 2613 709 2878 
Q 494 3144 494 3541 
Q 494 4131 934 4440 
Q 1375 4750 2228 4750 
Q 3075 4750 3515 4442 
Q 3956 4134 3956 3541 
Q 3956 3144 3739 2878 
Q 3522 2613 3097 2484 
Q 3572 2353 3814 2058 
Q 4056 1763 4056 1313 
Q 4056 619 3595 264 
Q 3134 -91 2228 -91 
Q 1319 -91 855 264 
Q 391 619 391 1313 
Q 391 1763 633 2058 
Q 875 2353 1350 2484 
z
M 1631 3419 
Q 1631 3141 1786 2991 
Q 1941 2841 2228 2841 
Q 2509 2841 2662 2991 
Q 2816 3141 2816 3419 
Q 2816 3697 2662 3845 
Q 2509 3994 2228 3994 
Q 1941 3994 1786 3844 
Q 1631 3694 1631 3419 
z
" transform="scale(0.015625)"/>
     </defs>
     <use xlink:href="#DejaVuSans-Bold-2d"/>
     <use xlink:href="#DejaVuSans-Bold-30" x="41.503906"/>
     <use xlink:href="#DejaVuSans-Bold-2e" x="111.083984"/>
     <use xlink:href="#DejaVuSans-Bold-34" x="149.072266"/>
     <use xlink:href="#DejaVuSans-Bold-38" x="218.652344"/>
     <use xlink:href="#DejaVuSans-Bold-20" x="288.232422"/>
     <use xlink:href="#DejaVuSans-Bold-6b" x="323.046875"/>
     <use xlink:href="#DejaVuSans-Bold-4e" x="389.550781"/>
     <use xlink:href="#DejaVuSans-Bold-b7" x="473.242188"/>
     <use xlink:href="#DejaVuSans-Bold-6d" x="511.230469"/>
    </g>
   </g>
   <g id="patch_8">
    <path d="M 941.74993 51.375769 
Q 978.813574 42.129367 1013.707645 33.424216 
" style="fill: none; stroke: #405ab9; stroke-width: 2; stroke-linecap: round"/>
    <path d="M 1002.358229 30.896222 
L 1013.707645 33.424216 
L 1004.8756 40.986953 
" style="fill: none; stroke: #405ab9; stroke-width: 2; stroke-linecap: round"/>
   </g>
   <g id="text_21">
    <!-- 0 kN·m -->
    <g style="fill: #405ab9" transform="translate(834.654091 72.4)scale(0.26 -0.26)">
     <use xlink:href="#DejaVuSans-Bold-30"/>
     <use xlink:href="#DejaVuSans-Bold-20" x="69.580078"/>
     <use xlink:href="#DejaVuSans-Bold-6b" x="104.394531"/>
     <use xlink:href="#DejaVuSans-Bold-4e" x="170.898438"/>
     <use xlink:href="#DejaVuSans-Bold-b7" x="254.589844"/>
     <use xlink:href="#DejaVuSans-Bold-6d" x="292.578125"/>
    </g>
   </g>
   <g id="line2d_36">
    <defs>
     <path id="m331fa2b67b" d="M 0 9 
C 2.386828 9 4.676219 8.051703 6.363961 6.363961 
C 8.051703 4.676219 9 2.386828 9 0 
C 9 -2.386828 8.051703 -4.676219 6.363961 -6.363961 
C 4.676219 -8.051703 2.386828 -9 0 -9 
C -2.386828 -9 -4.676219 -8.051703 -6.363961 -6.363961 
C -8.051703 -4.676219 -9 -2.386828 -9 0 
C -9 2.386828 -8.051703 4.676219 -6.363961 6.363961 
C -4.676219 8.051703 -2.386828 9 0 9 
z
" style="stroke: #405ab9; stroke-width: 5"/>
    </defs>
    <g clip-path="url(#p1bbccb1c75)">
     <use xlink:href="#m331fa2b67b" x="179.994972" y="32.4" style="fill: #ff8c36; stroke: #405ab9; stroke-width: 5"/>
    </g>
   </g>
   <g id="line2d_37">
    <g clip-path="url(#p1bbccb1c75)">
     <use xlink:href="#m331fa2b67b" x="389.449517" y="536.4" style="fill: #ff8c36; stroke: #405ab9; stroke-width: 5"/>
    </g>
   </g>
   <g id="line2d_38">
    <g clip-path="url(#p1bbccb1c75)">
     <use xlink:href="#m331fa2b67b" x="598.904063" y="368.4" style="fill: #ff8c36; stroke: #405ab9; stroke-width: 5"/>
    </g>
   </g>
   <g id="line2d_39">
    <g clip-path="url(#p1bbccb1c75)">
     <use xlink:href="#m331fa2b67b" x="1017.813153" y="32.4" style="fill: #ff8c36; stroke: #405ab9; stroke-width: 5"/>
    </g>
   </g>
  </g>
 </g>
 <defs>
  <clipPath id="p1bbccb1c75">
   <rect x="138.104062" y="7.2" width="921.6" height="554.4"/>
  </clipPath>
 </defs>
</svg>
